<svg width="81" height="31" viewBox="0 0 81 31" fill="none" xmlns="http://www.w3.org/2000/svg">
<g clip-path="url(#clip0_8388_398319)">
<path d="M2.26266 29.7142L2.20766 29.4142H2.18866C2.08136 29.5367 1.94796 29.6337 1.79826 29.6979C1.64857 29.7621 1.4864 29.7919 1.32366 29.7852C1.19791 29.792 1.0721 29.7731 0.953919 29.7296C0.835735 29.6861 0.727663 29.619 0.636308 29.5323C0.544954 29.4456 0.472239 29.3412 0.422608 29.2255C0.372977 29.1098 0.347474 28.9851 0.347657 28.8592C0.347657 28.0752 1.04766 27.6982 2.11966 27.7052V27.6622C2.11966 27.5012 2.03366 27.2742 1.57066 27.2742C1.2779 27.2775 0.990972 27.3564 0.737657 27.5032L0.564657 26.8982C0.928184 26.7154 1.33084 26.6241 1.73766 26.6322C1.91533 26.6076 2.09628 26.624 2.26661 26.6802C2.43694 26.7365 2.59213 26.8309 2.72026 26.9565C2.84839 27.082 2.94605 27.2352 3.00575 27.4043C3.06545 27.5735 3.0856 27.7541 3.06466 27.9322V28.9822C3.06003 29.2276 3.07441 29.473 3.10766 29.7162L2.26266 29.7142ZM2.15166 28.2872C1.65766 28.2822 1.27466 28.3982 1.27466 28.7622C1.27151 28.8112 1.27906 28.8602 1.29678 28.9059C1.31449 28.9517 1.34196 28.993 1.37726 29.0271C1.41256 29.0612 1.45485 29.0871 1.5012 29.1032C1.54755 29.1193 1.59684 29.1251 1.64566 29.1202C1.7531 29.1209 1.85806 29.0879 1.94577 29.0258C2.03348 28.9637 2.09954 28.8757 2.13466 28.7742C2.14715 28.7214 2.15319 28.6674 2.15266 28.6132L2.15166 28.2872Z" fill="#FF5000"/>
<path d="M3.82031 25.3262H4.75931V29.7112H3.82031V25.3262Z" fill="#FF5000"/>
<path d="M8.37844 28.7415C8.37844 29.1415 8.39044 29.4575 8.40344 29.7105H7.58844L7.54444 29.2855H7.52944C7.42858 29.4428 7.28848 29.571 7.12294 29.6577C6.95741 29.7443 6.77215 29.7863 6.58544 29.7795C5.97444 29.7795 5.52344 29.3965 5.52344 28.4645V26.6925H6.46744V28.3165C6.46744 28.7545 6.61044 29.0165 6.93644 29.0165C7.03859 29.0155 7.13806 28.9837 7.22177 28.9252C7.30548 28.8666 7.36951 28.7841 7.40544 28.6885C7.42916 28.6246 7.44004 28.5566 7.43744 28.4885V26.6885H8.38144L8.37844 28.7415Z" fill="#FF5000"/>
<path d="M12.029 26.6898C12.017 26.8808 12.004 27.1348 12.004 27.5848V29.2698C12.0291 29.5158 12.0013 29.7644 11.9225 29.9988C11.8437 30.2331 11.7156 30.448 11.547 30.6288C11.1945 30.8941 10.7593 31.0256 10.319 30.9998C9.94303 31.0098 9.57021 30.9292 9.23197 30.7648L9.41696 30.0548C9.68596 30.2023 9.98722 30.2809 10.294 30.2838C10.4008 30.2939 10.5086 30.28 10.6094 30.2431C10.7102 30.2062 10.8015 30.1473 10.8766 30.0706C10.9517 29.994 11.0088 29.9015 11.0436 29.8C11.0785 29.6985 11.0902 29.5904 11.078 29.4838V29.2838H11.066C10.9735 29.4124 10.8507 29.5161 10.7086 29.5859C10.5664 29.6556 10.4092 29.6893 10.251 29.6838C10.0678 29.6779 9.88778 29.6342 9.72231 29.5553C9.55683 29.4765 9.40945 29.3643 9.28942 29.2258C9.1694 29.0872 9.07933 28.9254 9.02487 28.7504C8.97041 28.5754 8.95273 28.391 8.97296 28.2088C8.95347 28.0136 8.97396 27.8165 9.03317 27.6294C9.09239 27.4424 9.1891 27.2694 9.3174 27.121C9.4457 26.9726 9.60289 26.8518 9.77939 26.7662C9.95589 26.6805 10.148 26.6318 10.344 26.6228C10.5074 26.6128 10.6706 26.647 10.8163 26.7217C10.962 26.7965 11.0848 26.9092 11.172 27.0478H11.184L11.216 26.6898H12.029ZM11.066 27.9198C11.0668 27.8616 11.0607 27.8036 11.048 27.7468C11.0244 27.6301 10.9611 27.5251 10.8688 27.4498C10.7766 27.3745 10.6611 27.3335 10.542 27.3338C10.202 27.3338 9.92397 27.6428 9.92397 28.1918C9.92397 28.6418 10.146 28.9918 10.542 28.9918C10.6551 28.9918 10.7651 28.9542 10.8545 28.8849C10.944 28.8155 11.0078 28.7184 11.036 28.6088C11.0595 28.5287 11.0703 28.4453 11.068 28.3618V27.9228L11.066 27.9198Z" fill="#FF5000"/>
<path d="M15.6158 28.7415C15.6158 29.1415 15.6278 29.4575 15.6408 29.7105H14.8258L14.7818 29.2855H14.7638C14.663 29.4428 14.5229 29.571 14.3573 29.6577C14.1918 29.7443 14.0065 29.7863 13.8198 29.7795C13.2088 29.7795 12.7578 29.3965 12.7578 28.4645V26.6925H13.7018V28.3165C13.7018 28.7545 13.8448 29.0165 14.1708 29.0165C14.273 29.0155 14.3724 28.9837 14.4561 28.9252C14.5398 28.8666 14.6039 28.7841 14.6398 28.6885C14.6635 28.6246 14.6744 28.5566 14.6718 28.4885V26.6885H15.6158V28.7415Z" fill="#FF5000"/>
<path d="M17.1005 28.5002C17.1325 28.8882 17.5135 29.0752 17.9525 29.0752C18.235 29.0788 18.5163 29.0369 18.7855 28.9512L18.9095 29.5862C18.5602 29.7155 18.1898 29.7782 17.8175 29.7712C17.6064 29.7956 17.3925 29.7732 17.191 29.7057C16.9895 29.6382 16.8053 29.5271 16.6516 29.3804C16.4978 29.2337 16.3782 29.055 16.3013 28.8569C16.2244 28.6588 16.192 28.4462 16.2065 28.2342C16.1928 28.0263 16.2223 27.8179 16.2929 27.622C16.3636 27.4261 16.474 27.2469 16.6172 27.0957C16.7604 26.9444 16.9332 26.8244 17.125 26.7431C17.3167 26.6617 17.5232 26.6209 17.7315 26.6232C17.923 26.6206 18.1128 26.6592 18.2881 26.7363C18.4634 26.8134 18.6202 26.9272 18.7477 27.0701C18.8753 27.2129 18.9708 27.3815 19.0277 27.5643C19.0845 27.7472 19.1015 27.9402 19.0775 28.1302C19.0773 28.2545 19.0666 28.3786 19.0455 28.5012H17.1005V28.5002ZM18.2005 27.8582C18.2099 27.7824 18.2033 27.7055 18.181 27.6325C18.1587 27.5594 18.1213 27.4919 18.0712 27.4342C18.0212 27.3766 17.9595 27.3302 17.8903 27.2979C17.8211 27.2657 17.7458 27.2484 17.6695 27.2472C17.5131 27.2561 17.366 27.3242 17.2581 27.4377C17.1501 27.5512 17.0895 27.7015 17.0885 27.8582H18.2005Z" fill="#FF5000"/>
<path d="M19.6523 25.3262H20.5913V29.7112H19.6523V25.3262Z" fill="#FF5000"/>
<path d="M25.5496 25.3262V28.8092C25.5496 29.1492 25.5616 29.5092 25.5746 29.7092H24.7416L24.6986 29.2642H24.6866C24.5895 29.4262 24.4507 29.5592 24.2846 29.6493C24.1186 29.7393 23.9314 29.7832 23.7426 29.7762C23.5542 29.7644 23.3702 29.7144 23.2019 29.629C23.0335 29.5437 22.8844 29.4248 22.7636 29.2798C22.6428 29.1348 22.553 28.9666 22.4995 28.7856C22.446 28.6046 22.43 28.4146 22.4526 28.2272C22.428 28.0315 22.4441 27.8329 22.5 27.6438C22.5558 27.4547 22.6502 27.2792 22.7772 27.1284C22.9042 26.9775 23.061 26.8546 23.2378 26.7673C23.4147 26.68 23.6076 26.6303 23.8046 26.6212C23.9555 26.6077 24.1075 26.6315 24.247 26.6907C24.3865 26.7498 24.5093 26.8423 24.6046 26.9602H24.6166V25.3262H25.5526H25.5496ZM24.6106 27.9692C24.61 27.9136 24.606 27.8582 24.5986 27.8032C24.5753 27.6741 24.5078 27.5571 24.4076 27.4724C24.3074 27.3877 24.1808 27.3406 24.0496 27.3392C23.6246 27.3392 23.4006 27.7222 23.4006 28.1972C23.4006 28.7092 23.6546 29.0302 24.0426 29.0302C24.1718 29.0308 24.2971 28.9858 24.3965 28.9031C24.4958 28.8204 24.5628 28.7054 24.5856 28.5782C24.6041 28.508 24.6125 28.4357 24.6106 28.3632V27.9692Z" fill="#FF5000"/>
<path d="M27.038 28.5002C27.07 28.8882 27.451 29.0752 27.89 29.0752C28.1725 29.0788 28.4538 29.0369 28.723 28.9512L28.847 29.5862C28.4977 29.7155 28.1273 29.7782 27.755 29.7712C27.5439 29.7956 27.33 29.7732 27.1285 29.7057C26.927 29.6382 26.7428 29.5271 26.5891 29.3804C26.4353 29.2337 26.3157 29.055 26.2388 28.8569C26.1619 28.6588 26.1295 28.4462 26.144 28.2342C26.1303 28.0263 26.1598 27.8179 26.2304 27.622C26.3011 27.4261 26.4115 27.2469 26.5547 27.0957C26.6979 26.9444 26.8707 26.8244 27.0625 26.7431C27.2542 26.6617 27.4607 26.6209 27.669 26.6232C27.8605 26.6206 28.0503 26.6592 28.2256 26.7363C28.4009 26.8134 28.5577 26.9272 28.6852 27.0701C28.8128 27.2129 28.9083 27.3815 28.9652 27.5643C29.022 27.7472 29.039 27.9402 29.015 28.1302C29.0148 28.2545 29.0041 28.3786 28.983 28.5012H27.038V28.5002ZM28.144 27.8582C28.1534 27.7824 28.1468 27.7055 28.1245 27.6325C28.1022 27.5594 28.0648 27.4919 28.0147 27.4342C27.9647 27.3766 27.903 27.3302 27.8338 27.2979C27.7646 27.2657 27.6893 27.2484 27.613 27.2472C27.4566 27.2561 27.3095 27.3242 27.2016 27.4377C27.0936 27.5512 27.033 27.7015 27.032 27.8582H28.144Z" fill="#FF5000"/>
<path d="M33.1144 29.6368C32.8454 29.7343 32.5605 29.7805 32.2744 29.7728C32.0641 29.7928 31.852 29.7671 31.6526 29.6974C31.4532 29.6276 31.2713 29.5156 31.1193 29.3689C30.9673 29.2222 30.8488 29.0443 30.772 28.8476C30.6952 28.6508 30.6619 28.4397 30.6744 28.2288C30.669 28.0058 30.711 27.7841 30.7976 27.5785C30.8843 27.3729 31.0136 27.1881 31.1771 27.0363C31.3405 26.8844 31.5344 26.769 31.7458 26.6978C31.9572 26.6265 32.1814 26.6009 32.4034 26.6228C32.647 26.6215 32.889 26.6611 33.1194 26.7398L32.9714 27.4398C32.8052 27.3724 32.6267 27.3407 32.4474 27.3468C32.2301 27.3596 32.026 27.4555 31.8775 27.6147C31.729 27.7739 31.6476 27.9842 31.65 28.2019C31.6525 28.4196 31.7386 28.628 31.8907 28.7838C32.0427 28.9397 32.2489 29.031 32.4664 29.0388C32.6499 29.042 32.8324 29.0108 33.0044 28.9468L33.1144 29.6368Z" fill="#FF5000"/>
<path d="M35.3838 29.7142L35.3288 29.4142H35.3098C35.2025 29.5367 35.069 29.6337 34.9194 29.6979C34.7697 29.7621 34.6075 29.7919 34.4447 29.7852C34.319 29.792 34.1932 29.7731 34.075 29.7296C33.9568 29.6861 33.8488 29.619 33.7574 29.5323C33.666 29.4456 33.5933 29.3412 33.5437 29.2255C33.4941 29.1098 33.4686 28.9851 33.4688 28.8592C33.4688 28.0752 34.1688 27.6982 35.2408 27.7052V27.6622C35.2408 27.5012 35.1548 27.2742 34.6918 27.2742C34.399 27.2775 34.1121 27.3564 33.8588 27.5032L33.6857 26.8982C34.0493 26.7154 34.4519 26.6241 34.8588 26.6322C35.0364 26.6076 35.2174 26.624 35.3877 26.6802C35.558 26.7365 35.7132 26.8309 35.8414 26.9565C35.9695 27.082 36.0671 27.2352 36.1268 27.4043C36.1865 27.5735 36.2067 27.7541 36.1857 27.9322V28.9822C36.1811 29.2276 36.1955 29.473 36.2288 29.7162L35.3838 29.7142ZM35.2728 28.2872C34.7788 28.2822 34.3958 28.3982 34.3958 28.7622C34.3926 28.8112 34.4002 28.8602 34.4179 28.9059C34.4356 28.9517 34.4631 28.993 34.4984 29.0271C34.5337 29.0612 34.576 29.0871 34.6223 29.1032C34.6686 29.1193 34.7179 29.1251 34.7668 29.1202C34.8742 29.1209 34.9792 29.0879 35.0669 29.0258C35.1546 28.9637 35.2206 28.8757 35.2558 28.7742C35.2682 28.7214 35.2743 28.6674 35.2738 28.6132L35.2728 28.2872Z" fill="#FF5000"/>
<path d="M36.943 27.685C36.943 27.24 36.931 26.951 36.918 26.691H37.726L37.758 27.247H37.783C37.8374 27.0714 37.9451 26.9172 38.0912 26.8055C38.2372 26.6939 38.4143 26.6305 38.598 26.624C38.6649 26.621 38.7319 26.625 38.798 26.636V27.52C38.7146 27.5036 38.6299 27.4953 38.545 27.495C38.3983 27.4816 38.2519 27.5226 38.1335 27.6102C38.0151 27.6978 37.9331 27.8258 37.903 27.97C37.8899 28.0392 37.8836 28.1095 37.884 28.18V29.714H36.945L36.943 27.685Z" fill="#FF5000"/>
<path d="M39.3063 27.685C39.3063 27.24 39.2943 26.951 39.2812 26.691H40.0893L40.1212 27.247H40.1463C40.2007 27.0714 40.3084 26.9172 40.4544 26.8055C40.6005 26.6939 40.7776 26.6305 40.9613 26.624C41.0282 26.621 41.0952 26.625 41.1613 26.636V27.52C41.0779 27.5036 40.9932 27.4953 40.9083 27.495C40.7616 27.4816 40.6152 27.5226 40.4968 27.6102C40.3784 27.6978 40.2963 27.8258 40.2663 27.97C40.2532 28.0392 40.2468 28.1095 40.2473 28.18V29.714H39.3083L39.3063 27.685Z" fill="#FF5000"/>
<path d="M44.5995 28.167C44.6134 28.3806 44.5818 28.5947 44.5069 28.7952C44.432 28.9958 44.3155 29.1782 44.165 29.3304C44.0145 29.4826 43.8334 29.6012 43.6337 29.6783C43.434 29.7555 43.2203 29.7894 43.0065 29.778C42.7988 29.7901 42.5909 29.7582 42.3964 29.6845C42.2018 29.6107 42.0251 29.4967 41.8776 29.3499C41.7302 29.2031 41.6154 29.0269 41.5407 28.8327C41.4661 28.6385 41.4333 28.4307 41.4445 28.223C41.4307 28.0083 41.463 27.7932 41.5392 27.5921C41.6154 27.3909 41.7338 27.2085 41.8864 27.0569C42.0391 26.9053 42.2224 26.7882 42.424 26.7133C42.6257 26.6385 42.841 26.6077 43.0555 26.623C43.2612 26.612 43.4668 26.6444 43.6591 26.7182C43.8514 26.7919 44.026 26.9052 44.1716 27.0509C44.3172 27.1965 44.4306 27.3711 44.5043 27.5634C44.578 27.7557 44.6105 27.9613 44.5995 28.167ZM42.4135 28.197C42.4135 28.716 42.6295 29.104 43.0315 29.104C43.3965 29.104 43.6315 28.739 43.6315 28.197C43.6315 27.745 43.4585 27.29 43.0315 27.29C42.5795 27.29 42.4135 27.752 42.4135 28.197Z" fill="#FF5000"/>
<path d="M45.1817 28.8883C45.4302 29.0267 45.7076 29.1051 45.9917 29.1173C46.2757 29.1173 46.3917 29.0173 46.3917 28.8643C46.3917 28.7113 46.2997 28.6353 45.9467 28.5183C45.3237 28.3083 45.0817 27.9693 45.0887 27.6113C45.0887 27.0503 45.5707 26.6233 46.3167 26.6233C46.6099 26.6184 46.9007 26.6775 47.1687 26.7963L47.0017 27.4453C46.7997 27.3379 46.5755 27.2787 46.3467 27.2723C46.1177 27.2723 45.9887 27.3653 45.9887 27.5193C45.9887 27.6733 46.1057 27.7343 46.4757 27.8653C47.0507 28.0653 47.2907 28.3543 47.2967 28.7973C47.2967 29.3583 46.8517 29.7733 45.9877 29.7733C45.6504 29.7813 45.3159 29.7093 45.0117 29.5633L45.1817 28.8883Z" fill="#FF5000"/>
<path fill-rule="evenodd" clip-rule="evenodd" d="M62.2754 15.5744C62.2846 15.8475 62.2668 16.1208 62.2224 16.3904C62.1449 16.8653 61.8994 17.2966 61.5307 17.6059C61.162 17.9151 60.6946 18.0817 60.2134 18.0754C59.8731 18.0774 59.5363 18.0065 59.2256 17.8676C58.9149 17.7286 58.6376 17.5248 58.4121 17.2699C58.1867 17.0149 58.0185 16.7146 57.9186 16.3893C57.8188 16.0639 57.7898 15.721 57.8334 15.3834C57.8334 13.8944 58.5854 12.6214 60.2334 12.6214C60.713 12.6189 61.178 12.786 61.5462 13.0933C61.9145 13.4005 62.1621 13.8281 62.2454 14.3004C62.268 14.4761 62.277 14.6533 62.2724 14.8304V15.5744H62.2754ZM62.2754 4.16943V10.4104H62.2194C61.7944 9.9878 61.2803 9.66554 60.7147 9.46726C60.1491 9.26897 59.5463 9.19967 58.9504 9.26443C55.8954 9.26443 53.1324 11.6124 53.1564 15.5534C53.1564 19.4914 55.8724 21.6534 58.6564 21.6534C59.4365 21.6995 60.2149 21.5395 60.9136 21.1897C61.6124 20.8399 62.2069 20.3125 62.6374 19.6604H62.6844L62.8544 21.3604H66.9484C66.9034 20.7324 66.8484 19.1744 66.8484 17.6364V4.16943H62.2754Z" fill="#FF5000"/>
<path fill-rule="evenodd" clip-rule="evenodd" d="M75.5579 16.6322C75.5668 16.852 75.5507 17.072 75.5099 17.2882C75.4015 17.6371 75.187 17.9436 74.8963 18.165C74.6056 18.3863 74.2531 18.5115 73.8879 18.5232C73.0409 18.5232 72.5749 18.1372 72.5749 17.4582C72.5749 16.4892 73.5429 15.9762 75.5589 15.9762V16.6322H75.5579ZM79.9729 14.4052C79.9729 11.2052 78.2259 9.14918 74.1309 9.14918C72.3302 9.10043 70.5437 9.48055 68.9189 10.2582L69.7189 13.1222C70.8344 12.5343 72.0695 12.2094 73.3299 12.1722C75.1299 12.1722 75.4179 12.7092 75.4179 13.1452V13.2152C70.9049 13.2152 68.0469 14.6932 68.0469 17.8952C68.0608 18.42 68.1813 18.9366 68.401 19.4134C68.6207 19.8903 68.9351 20.3174 69.325 20.669C69.7149 21.0206 70.1723 21.2892 70.6692 21.4586C71.1662 21.6279 71.6924 21.6945 72.2159 21.6542C72.8582 21.6989 73.5027 21.6048 74.1054 21.3782C74.7081 21.1516 75.255 20.798 75.7089 20.3412H75.8009L76.0469 21.3622H80.1669C80.0198 20.383 79.9566 19.3931 79.9779 18.4032V14.4032L79.9729 14.4052Z" fill="#FF5000"/>
<path fill-rule="evenodd" clip-rule="evenodd" d="M0.262969 13.4011C0.262969 11.7011 0.214969 10.3201 0.167969 9.25406H3.96797L4.13797 10.7791H4.23797C4.65749 10.1879 5.21903 9.71176 5.87087 9.39458C6.52271 9.07739 7.24389 8.92934 7.96797 8.96406C8.67246 8.92119 9.3737 9.08971 9.98178 9.448C10.5899 9.80629 11.0771 10.338 11.381 10.9751H11.429C11.9033 10.3515 12.5085 9.83953 13.202 9.47506C13.8999 9.12401 14.6729 8.9486 15.454 8.96406C18.094 8.96406 19.794 10.8071 19.794 14.2961V21.1791H15.386V14.9791C15.386 13.4301 14.851 12.6051 13.812 12.6051C13.4834 12.6022 13.163 12.7073 12.8999 12.9042C12.6369 13.1011 12.4458 13.379 12.356 13.6951C12.2709 13.9948 12.2301 14.3055 12.235 14.6171V21.1841H7.82597V14.9841C7.82597 13.4351 7.29197 12.6101 6.24997 12.6101C5.92637 12.6132 5.61196 12.7181 5.35121 12.9097C5.09047 13.1014 4.89657 13.3702 4.79697 13.6781C4.69852 13.9646 4.65641 14.2675 4.67297 14.5701V21.1881H0.262969V13.4011Z" fill="#FF5000"/>
<path fill-rule="evenodd" clip-rule="evenodd" d="M27.4793 18.2922C26.0013 18.2922 25.3203 16.9142 25.3203 15.2122C25.3203 13.6652 25.9053 12.1382 27.5023 12.1382C28.9583 12.1382 29.5873 13.5452 29.5873 15.2122C29.5873 17.1992 28.8093 18.2922 27.5023 18.2922H27.4793ZM27.4323 21.4702C31.2613 21.4702 34.3893 19.1442 34.3893 15.0702C34.3893 11.4882 31.6483 8.97021 27.6973 8.97021C23.1153 8.97021 20.5703 11.6872 20.5703 15.3192C20.5703 19.2442 23.6983 21.4772 27.4073 21.4772L27.4323 21.4702Z" fill="#FF5000"/>
<path fill-rule="evenodd" clip-rule="evenodd" d="M38.6414 9.25342L40.1414 14.4164C40.3868 15.2688 40.5815 16.135 40.7244 17.0104H40.8244C40.9694 16.1364 41.1144 15.3374 41.3554 14.4164L42.7124 9.25342H47.6124L42.9064 21.1784H38.2064L33.6484 9.25342H38.6414Z" fill="#FF5000"/>
<path fill-rule="evenodd" clip-rule="evenodd" d="M54.187 23.4985C52.4143 21.1902 51.4542 18.3608 51.456 15.4505C51.456 12.1055 52.156 9.06047 54.208 6.73147L50.939 4.98047C48.662 7.85547 47.793 11.4935 47.793 15.4505C47.7874 18.9716 48.8878 22.4055 50.939 25.2675L54.187 23.4985Z" fill="#FF5000"/>
<path fill-rule="evenodd" clip-rule="evenodd" d="M56.5558 3.01125C56.5564 3.47779 56.4186 3.93402 56.1598 4.32221C55.9011 4.71039 55.5329 5.01309 55.1021 5.19199C54.6712 5.37089 54.1969 5.41796 53.7393 5.32723C53.2817 5.23651 52.8612 5.01207 52.5312 4.68232C52.2012 4.35256 51.9764 3.93232 51.8852 3.47476C51.7941 3.01721 51.8408 2.54291 52.0193 2.11188C52.1979 1.68086 52.5003 1.31248 52.8882 1.05337C53.2762 0.794255 53.7323 0.656053 54.1988 0.65625C54.823 0.657833 55.4212 0.906425 55.8627 1.3477C56.3042 1.78898 56.553 2.38706 56.5549 3.01125H56.5558Z" fill="#FF5000"/>
</g>
<defs>
<clipPath id="clip0_8388_398319">
<rect width="80" height="30.344" fill="white" transform="translate(0.167969 0.65625)"/>
</clipPath>
</defs>
</svg>
