<svg width="32" height="32" viewBox="0 0 32 32" fill="none" xmlns="http://www.w3.org/2000/svg">
<path d="M16 2.66663C8.63999 2.66663 2.66666 8.63996 2.66666 16C2.66666 23.36 8.63999 29.3333 16 29.3333C23.36 29.3333 29.3333 23.36 29.3333 16C29.3333 8.63996 23.36 2.66663 16 2.66663ZM16 6.66663C18.2133 6.66663 20 8.45329 20 10.6666C20 12.88 18.2133 14.6666 16 14.6666C13.7867 14.6666 12 12.88 12 10.6666C12 8.45329 13.7867 6.66663 16 6.66663ZM16 25.6C12.6667 25.6 9.71999 23.8933 7.99999 21.3066C8.03999 18.6533 13.3333 17.2 16 17.2C18.6533 17.2 23.96 18.6533 24 21.3066C22.28 23.8933 19.3333 25.6 16 25.6Z" fill="white"/>
</svg>
