<svg width="71" height="70" viewBox="0 0 71 70" fill="none" xmlns="http://www.w3.org/2000/svg">
<path d="M61.7487 34.9995H52.9987V8.74955C53.0008 8.2356 52.867 7.73024 52.6109 7.28464C52.3548 6.83904 51.9855 6.46902 51.5404 6.21205C51.097 5.95606 50.594 5.82129 50.0821 5.82129C49.5701 5.82129 49.0671 5.95606 48.6237 6.21205L39.8737 11.2287L31.1237 6.21205C30.6803 5.95606 30.1774 5.82129 29.6654 5.82129C29.1534 5.82129 28.6504 5.95606 28.2071 6.21205L19.4571 11.2287L10.7071 6.21205C10.2637 5.95606 9.7607 5.82129 9.24872 5.82129C8.73674 5.82129 8.23378 5.95606 7.79039 6.21205C7.34529 6.46902 6.976 6.83904 6.71991 7.28464C6.46381 7.73024 6.33001 8.2356 6.33205 8.74955V55.4162C6.33205 57.7369 7.25393 59.9625 8.89487 61.6034C10.5358 63.2443 12.7614 64.1662 15.0821 64.1662H55.9154C58.236 64.1662 60.4616 63.2443 62.1026 61.6034C63.7435 59.9625 64.6654 57.7369 64.6654 55.4162V37.9162C64.6654 37.1427 64.3581 36.4008 63.8111 35.8538C63.2641 35.3068 62.5223 34.9995 61.7487 34.9995ZM15.0821 58.3329C14.3085 58.3329 13.5666 58.0256 13.0197 57.4786C12.4727 56.9316 12.1654 56.1898 12.1654 55.4162V13.7954L17.9987 17.1204C18.4489 17.3555 18.9492 17.4783 19.4571 17.4783C19.9649 17.4783 20.4652 17.3555 20.9154 17.1204L29.6654 12.1037L38.4154 17.1204C38.8655 17.3555 39.3659 17.4783 39.8737 17.4783C40.3816 17.4783 40.8819 17.3555 41.3321 17.1204L47.1654 13.7954V55.4162C47.1733 56.4112 47.3508 57.3976 47.6904 58.3329H15.0821ZM58.8321 55.4162C58.8321 56.1898 58.5248 56.9316 57.9778 57.4786C57.4308 58.0256 56.6889 58.3329 55.9154 58.3329C55.1418 58.3329 54.4 58.0256 53.853 57.4786C53.306 56.9316 52.9987 56.1898 52.9987 55.4162V40.8329H58.8321V55.4162Z" fill="#FFB491"/>
<path d="M20.9167 46.6654H38.4167C39.1902 46.6654 39.9321 46.9727 40.4791 47.5196C41.026 48.0666 41.3333 48.8085 41.3333 49.582C41.3333 50.3556 41.026 51.0974 40.4791 51.6444C39.9321 52.1914 39.1902 52.4987 38.4167 52.4987H20.9167C20.1431 52.4987 19.4013 52.1914 18.8543 51.6444C18.3073 51.0974 18 50.3556 18 49.582C18 48.8085 18.3073 48.0666 18.8543 47.5196C19.4013 46.9727 20.1431 46.6654 20.9167 46.6654Z" fill="#FF5000"/>
<path d="M32.5833 29.1654H26.75C25.9765 29.1654 25.2346 28.8581 24.6876 28.3111C24.1406 27.7641 23.8333 27.0222 23.8333 26.2487C23.8333 25.4751 24.1406 24.7333 24.6876 24.1863C25.2346 23.6393 25.9765 23.332 26.75 23.332H32.5833C33.3569 23.332 34.0987 23.6393 34.6457 24.1863C35.1927 24.7333 35.5 25.4751 35.5 26.2487C35.5 27.0222 35.1927 27.7641 34.6457 28.3111C34.0987 28.8581 33.3569 29.1654 32.5833 29.1654Z" fill="#FF5000"/>
<path d="M20.9167 34.9987H38.4167C39.1902 34.9987 39.9321 35.306 40.4791 35.853C41.026 36.4 41.3333 37.1418 41.3333 37.9154C41.3333 38.6889 41.026 39.4308 40.4791 39.9778C39.9321 40.5247 39.1902 40.832 38.4167 40.832H20.9167C20.1431 40.832 19.4013 40.5247 18.8543 39.9778C18.3073 39.4308 18 38.6889 18 37.9154C18 37.1418 18.3073 36.4 18.8543 35.853C19.4013 35.306 20.1431 34.9987 20.9167 34.9987Z" fill="#FF5000"/>
</svg>
