<svg width="145" height="93" viewBox="0 0 145 93" fill="none" xmlns="http://www.w3.org/2000/svg">
<rect y="0.0400391" width="144.514" height="92.9018" rx="4.12897" fill="#EEAA00"/>
<path d="M67.2352 55.352C68.1759 55.352 68.6133 56.1908 68.6133 57.3352C68.6133 58.5935 68.122 59.3784 67.1873 59.3784C66.2945 59.3784 65.8152 58.5635 65.8092 57.3772C65.8092 56.1608 66.3245 55.352 67.2352 55.352ZM67.2173 55.9152C66.8278 55.9152 66.5522 56.4005 66.5522 57.3712C66.5522 58.3239 66.8098 58.8152 67.2113 58.8152C67.6487 58.8152 67.8704 58.2879 67.8704 57.3532C67.8704 56.4484 67.6606 55.9152 67.2173 55.9152ZM70.4566 55.352C71.3973 55.352 71.8347 56.1908 71.8347 57.3352C71.8347 58.5935 71.3434 59.3784 70.4087 59.3784C69.5159 59.3784 69.0365 58.5635 69.0306 57.3772C69.0306 56.1608 69.5458 55.352 70.4566 55.352ZM70.4386 55.9152C70.0491 55.9152 69.7735 56.4005 69.7735 57.3712C69.7735 58.3239 70.0312 58.8152 70.4326 58.8152C70.87 58.8152 71.0917 58.2879 71.0917 57.3532C71.0917 56.4484 70.882 55.9152 70.4386 55.9152ZM73.678 55.352C74.6187 55.352 75.0561 56.1908 75.0561 57.3352C75.0561 58.5935 74.5647 59.3784 73.63 59.3784C72.7372 59.3784 72.2579 58.5635 72.2519 57.3772C72.2519 56.1608 72.7672 55.352 73.678 55.352ZM73.66 55.9152C73.2705 55.9152 72.9949 56.4005 72.9949 57.3712C72.9949 58.3239 73.2525 58.8152 73.654 58.8152C74.0914 58.8152 74.3131 58.2879 74.3131 57.3532C74.3131 56.4484 74.1034 55.9152 73.66 55.9152ZM76.8993 55.352C77.84 55.352 78.2774 56.1908 78.2774 57.3352C78.2774 58.5935 77.7861 59.3784 76.8514 59.3784C75.9586 59.3784 75.4793 58.5635 75.4733 57.3772C75.4733 56.1608 75.9886 55.352 76.8993 55.352ZM76.8813 55.9152C76.4919 55.9152 76.2163 56.4005 76.2163 57.3712C76.2163 58.3239 76.4739 58.8152 76.8753 58.8152C77.3127 58.8152 77.5344 58.2879 77.5344 57.3532C77.5344 56.4484 77.3247 55.9152 76.8813 55.9152ZM86.368 55.352C87.3087 55.352 87.7461 56.1908 87.7461 57.3352C87.7461 58.5935 87.2548 59.3784 86.3201 59.3784C85.4273 59.3784 84.948 58.5635 84.942 57.3772C84.942 56.1608 85.4573 55.352 86.368 55.352ZM86.35 55.9152C85.9606 55.9152 85.685 56.4005 85.685 57.3712C85.685 58.3239 85.9426 58.8152 86.344 58.8152C86.7814 58.8152 87.0031 58.2879 87.0031 57.3532C87.0031 56.4484 86.7934 55.9152 86.35 55.9152ZM89.5894 55.352C90.5301 55.352 90.9675 56.1908 90.9675 57.3352C90.9675 58.5935 90.4762 59.3784 89.5414 59.3784C88.6487 59.3784 88.1693 58.5635 88.1633 57.3772C88.1633 56.1608 88.6786 55.352 89.5894 55.352ZM89.5714 55.9152C89.1819 55.9152 88.9063 56.4005 88.9063 57.3712C88.9063 58.3239 89.164 58.8152 89.5654 58.8152C90.0028 58.8152 90.2245 58.2879 90.2245 57.3532C90.2245 56.4484 90.0148 55.9152 89.5714 55.9152ZM92.8107 55.352C93.7514 55.352 94.1888 56.1908 94.1888 57.3352C94.1888 58.5935 93.6975 59.3784 92.7628 59.3784C91.87 59.3784 91.3907 58.5635 91.3847 57.3772C91.3847 56.1608 91.9 55.352 92.8107 55.352ZM92.7928 55.9152C92.4033 55.9152 92.1277 56.4005 92.1277 57.3712C92.1277 58.3239 92.3853 58.8152 92.7868 58.8152C93.2242 58.8152 93.4459 58.2879 93.4459 57.3532C93.4459 56.4484 93.2362 55.9152 92.7928 55.9152ZM96.0321 55.352C96.9728 55.352 97.4102 56.1908 97.4102 57.3352C97.4102 58.5935 96.9189 59.3784 95.9842 59.3784C95.0914 59.3784 94.6121 58.5635 94.6061 57.3772C94.6061 56.1608 95.1214 55.352 96.0321 55.352ZM96.0141 55.9152C95.6247 55.9152 95.349 56.4005 95.349 57.3712C95.349 58.3239 95.6067 58.8152 96.0081 58.8152C96.4455 58.8152 96.6672 58.2879 96.6672 57.3532C96.6672 56.4484 96.4575 55.9152 96.0141 55.9152ZM105.501 55.352C106.442 55.352 106.879 56.1908 106.879 57.3352C106.879 58.5935 106.388 59.3784 105.453 59.3784C104.56 59.3784 104.081 58.5635 104.075 57.3772C104.075 56.1608 104.59 55.352 105.501 55.352ZM105.483 55.9152C105.093 55.9152 104.818 56.4005 104.818 57.3712C104.818 58.3239 105.075 58.8152 105.477 58.8152C105.914 58.8152 106.136 58.2879 106.136 57.3532C106.136 56.4484 105.926 55.9152 105.483 55.9152ZM108.722 55.352C109.663 55.352 110.1 56.1908 110.1 57.3352C110.1 58.5935 109.609 59.3784 108.674 59.3784C107.781 59.3784 107.302 58.5635 107.296 57.3772C107.296 56.1608 107.811 55.352 108.722 55.352ZM108.704 55.9152C108.315 55.9152 108.039 56.4005 108.039 57.3712C108.039 58.3239 108.297 58.8152 108.698 58.8152C109.136 58.8152 109.357 58.2879 109.357 57.3532C109.357 56.4484 109.148 55.9152 108.704 55.9152ZM111.944 55.352C112.884 55.352 113.322 56.1908 113.322 57.3352C113.322 58.5935 112.83 59.3784 111.896 59.3784C111.003 59.3784 110.523 58.5635 110.517 57.3772C110.517 56.1608 111.033 55.352 111.944 55.352ZM111.926 55.9152C111.536 55.9152 111.26 56.4005 111.26 57.3712C111.26 58.3239 111.518 58.8152 111.92 58.8152C112.357 58.8152 112.579 58.2879 112.579 57.3532C112.579 56.4484 112.369 55.9152 111.926 55.9152ZM115.165 55.352C116.106 55.352 116.543 56.1908 116.543 57.3352C116.543 58.5935 116.052 59.3784 115.117 59.3784C114.224 59.3784 113.745 58.5635 113.739 57.3772C113.739 56.1608 114.254 55.352 115.165 55.352ZM115.147 55.9152C114.757 55.9152 114.482 56.4005 114.482 57.3712C114.482 58.3239 114.739 58.8152 115.141 58.8152C115.578 58.8152 115.8 58.2879 115.8 57.3532C115.8 56.4484 115.59 55.9152 115.147 55.9152ZM123.555 59.3724V58.7852C123.675 58.7972 123.789 58.7912 123.963 58.7732C124.256 58.7493 124.538 58.6474 124.753 58.4737C125.011 58.2699 125.185 57.9763 125.257 57.6049H125.245C125.047 57.8206 124.765 57.9464 124.394 57.9464C123.717 57.9464 123.214 57.461 123.214 56.742C123.214 55.9931 123.789 55.352 124.616 55.352C125.526 55.352 126.006 56.059 126.006 57.0117C126.006 57.8445 125.736 58.4377 125.329 58.8272C124.993 59.1387 124.526 59.3245 123.998 59.3604C123.831 59.3784 123.669 59.3784 123.555 59.3724ZM124.58 55.8972C124.208 55.8972 123.945 56.2267 123.945 56.7001C123.945 57.1015 124.178 57.4131 124.586 57.4131C124.885 57.4131 125.101 57.2693 125.215 57.0896C125.239 57.0356 125.257 56.9757 125.257 56.8739C125.257 56.3466 125.059 55.8972 124.58 55.8972ZM127.855 55.352C128.796 55.352 129.233 56.1908 129.233 57.3352C129.233 58.5935 128.742 59.3784 127.807 59.3784C126.914 59.3784 126.435 58.5635 126.429 57.3772C126.429 56.1608 126.944 55.352 127.855 55.352ZM127.837 55.9152C127.448 55.9152 127.172 56.4005 127.172 57.3712C127.172 58.3239 127.43 58.8152 127.831 58.8152C128.268 58.8152 128.49 58.2879 128.49 57.3532C128.49 56.4484 128.28 55.9152 127.837 55.9152ZM129.764 55.4179H132.383V55.8912L130.735 59.3125H129.962L131.604 56.041V56.029H129.764V55.4179ZM132.908 59.1088L133.075 58.5515C133.225 58.6414 133.591 58.7912 133.962 58.7912C134.525 58.7912 134.747 58.4737 134.747 58.1681C134.747 57.7067 134.31 57.509 133.86 57.509H133.525V56.9697H133.86C134.196 56.9697 134.627 56.8139 134.627 56.4305C134.627 56.1608 134.435 55.9391 134.004 55.9391C133.687 55.9391 133.369 56.077 133.207 56.1848L133.039 55.6515C133.261 55.5017 133.699 55.352 134.16 55.352C134.969 55.352 135.376 55.7953 135.376 56.3046C135.376 56.7121 135.137 57.0476 134.657 57.2154V57.2274C135.131 57.3172 135.508 57.6708 135.514 58.198C135.514 58.8571 134.963 59.3784 133.998 59.3784C133.525 59.3784 133.117 59.2466 132.908 59.1088Z" fill="white"/>
<path d="M11.2977 17.8203L9.32125 23.2617H8.51345L10.7892 17.2913H11.31L11.2977 17.8203ZM12.9543 23.2617L10.9738 17.8203L10.9615 17.2913H11.4822L13.7662 23.2617H12.9543ZM12.8518 21.0515V21.6994H9.49758V21.0515H12.8518ZM15.2836 16.9633V23.2617H14.5209V16.9633H15.2836ZM17.3341 18.8249V23.2617H16.5714V18.8249H17.3341ZM16.514 17.6481C16.514 17.5251 16.5509 17.4212 16.6247 17.3364C16.7013 17.2517 16.8133 17.2093 16.961 17.2093C17.1058 17.2093 17.2166 17.2517 17.2931 17.3364C17.3724 17.4212 17.412 17.5251 17.412 17.6481C17.412 17.7656 17.3724 17.8668 17.2931 17.9515C17.2166 18.0335 17.1058 18.0745 16.961 18.0745C16.8133 18.0745 16.7013 18.0335 16.6247 17.9515C16.5509 17.8668 16.514 17.7656 16.514 17.6481ZM19.319 19.7722V23.2617H18.5604V18.8249H19.278L19.319 19.7722ZM19.1385 20.8752L18.8228 20.8629C18.8255 20.5595 18.8706 20.2793 18.9581 20.0223C19.0456 19.7626 19.1686 19.5371 19.3272 19.3457C19.4857 19.1543 19.6743 19.0067 19.893 18.9028C20.1145 18.7962 20.3591 18.7429 20.627 18.7429C20.8457 18.7429 21.0426 18.773 21.2175 18.8331C21.3925 18.8905 21.5415 18.9835 21.6645 19.112C21.7902 19.2405 21.8859 19.4072 21.9515 19.6122C22.0171 19.8145 22.0499 20.0619 22.0499 20.3544V23.2617H21.2872V20.3462C21.2872 20.1139 21.253 19.928 21.1847 19.7886C21.1164 19.6464 21.0166 19.5439 20.8854 19.481C20.7541 19.4154 20.5929 19.3826 20.4015 19.3826C20.2129 19.3826 20.0407 19.4222 19.8848 19.5015C19.7317 19.5808 19.5992 19.6901 19.4871 19.8296C19.3777 19.969 19.2916 20.1289 19.2287 20.3093C19.1686 20.487 19.1385 20.6756 19.1385 20.8752ZM25.0517 23.3437C24.7428 23.3437 24.4626 23.2918 24.2111 23.1879C23.9623 23.0813 23.7477 22.9323 23.5673 22.741C23.3896 22.5496 23.2529 22.3227 23.1573 22.0603C23.0616 21.7978 23.0137 21.5108 23.0137 21.1991V21.0269C23.0137 20.6661 23.0671 20.3449 23.1737 20.0633C23.2803 19.779 23.4252 19.5384 23.6083 19.3416C23.7915 19.1448 23.9992 18.9958 24.2316 18.8946C24.464 18.7935 24.7045 18.7429 24.9533 18.7429C25.2704 18.7429 25.5438 18.7976 25.7734 18.9069C26.0058 19.0163 26.1958 19.1694 26.3434 19.3662C26.491 19.5603 26.6003 19.7899 26.6714 20.0551C26.7425 20.3175 26.778 20.6046 26.778 20.9162V21.2566H23.4648V20.6374H26.0194V20.58C26.0085 20.3831 25.9675 20.1918 25.8964 20.0059C25.8281 19.82 25.7187 19.6669 25.5684 19.5466C25.418 19.4263 25.213 19.3662 24.9533 19.3662C24.7811 19.3662 24.6225 19.4031 24.4776 19.4769C24.3328 19.548 24.2084 19.6546 24.1045 19.7968C24.0006 19.9389 23.92 20.1125 23.8626 20.3175C23.8051 20.5226 23.7764 20.759 23.7764 21.0269V21.1991C23.7764 21.4096 23.8051 21.6078 23.8626 21.7937C23.9227 21.9769 24.0088 22.1382 24.1209 22.2776C24.2357 22.417 24.3738 22.5264 24.535 22.6056C24.6991 22.6849 24.885 22.7245 25.0927 22.7245C25.3606 22.7245 25.5875 22.6699 25.7734 22.5605C25.9593 22.4512 26.122 22.3049 26.2614 22.1218L26.7206 22.4867C26.625 22.6316 26.5033 22.7697 26.3557 22.9009C26.2081 23.0321 26.0263 23.1387 25.8103 23.2207C25.5971 23.3027 25.3442 23.3437 25.0517 23.3437ZM29.8784 17.2913H31.8549C32.3032 17.2913 32.6818 17.3597 32.9908 17.4964C33.3024 17.633 33.5389 17.8353 33.7001 18.1032C33.8642 18.3684 33.9462 18.6951 33.9462 19.0833C33.9462 19.3566 33.8901 19.6068 33.7781 19.8337C33.6687 20.0578 33.5102 20.2492 33.3024 20.4077C33.0974 20.5636 32.8513 20.6797 32.5643 20.7563L32.3429 20.8424H30.4853L30.4771 20.1986H31.8795C32.1638 20.1986 32.4003 20.1494 32.5889 20.051C32.7775 19.9498 32.9197 19.8145 33.0154 19.645C33.111 19.4756 33.1589 19.2883 33.1589 19.0833C33.1589 18.8536 33.1138 18.6527 33.0236 18.4805C32.9333 18.3083 32.7912 18.1757 32.5971 18.0827C32.4057 17.9871 32.1583 17.9392 31.8549 17.9392H30.6698V23.2617H29.8784V17.2913ZM33.368 23.2617L31.9164 20.5554L32.7406 20.5513L34.2127 23.2125V23.2617H33.368ZM35.7711 18.8249V23.2617H35.0084V18.8249H35.7711ZM34.951 17.6481C34.951 17.5251 34.9879 17.4212 35.0617 17.3364C35.1383 17.2517 35.2503 17.2093 35.398 17.2093C35.5429 17.2093 35.6536 17.2517 35.7301 17.3364C35.8094 17.4212 35.849 17.5251 35.849 17.6481C35.849 17.7656 35.8094 17.8668 35.7301 17.9515C35.6536 18.0335 35.5429 18.0745 35.398 18.0745C35.2503 18.0745 35.1383 18.0335 35.0617 17.9515C34.9879 17.8668 34.951 17.7656 34.951 17.6481ZM36.9933 16.9633H37.756V22.4006L37.6904 23.2617H36.9933V16.9633ZM40.7535 21.0064V21.0925C40.7535 21.4151 40.7152 21.7144 40.6387 21.9906C40.5621 22.2639 40.45 22.5018 40.3024 22.704C40.1548 22.9063 39.9744 23.0635 39.7611 23.1756C39.5479 23.2877 39.3032 23.3437 39.0271 23.3437C38.7456 23.3437 38.4982 23.2959 38.2849 23.2002C38.0744 23.1018 37.8968 22.961 37.7519 22.7779C37.607 22.5947 37.4908 22.3733 37.4033 22.1136C37.3186 21.8539 37.2598 21.5614 37.227 21.2361V20.8588C37.2598 20.5308 37.3186 20.2369 37.4033 19.9772C37.4908 19.7175 37.607 19.4961 37.7519 19.3129C37.8968 19.127 38.0744 18.9862 38.2849 18.8905C38.4954 18.7921 38.7401 18.7429 39.0189 18.7429C39.2978 18.7429 39.5452 18.7976 39.7611 18.9069C39.9771 19.0136 40.1575 19.1666 40.3024 19.3662C40.45 19.5658 40.5621 19.805 40.6387 20.0838C40.7152 20.3599 40.7535 20.6674 40.7535 21.0064ZM39.9908 21.0925V21.0064C39.9908 20.785 39.9703 20.5772 39.9293 20.3831C39.8883 20.1863 39.8226 20.0141 39.7324 19.8665C39.6422 19.7161 39.5233 19.5986 39.3757 19.5138C39.2281 19.4263 39.0463 19.3826 38.8303 19.3826C38.639 19.3826 38.4722 19.4154 38.33 19.481C38.1906 19.5466 38.0717 19.6355 37.9733 19.7476C37.8749 19.8569 37.7942 19.9827 37.7314 20.1248C37.6712 20.2642 37.6261 20.4091 37.5961 20.5595V21.5477C37.6398 21.7391 37.7109 21.9236 37.8093 22.1013C37.9104 22.2762 38.0444 22.4197 38.2111 22.5318C38.3806 22.6439 38.5897 22.6999 38.8385 22.6999C39.0435 22.6999 39.2185 22.6589 39.3634 22.5769C39.511 22.4922 39.6299 22.376 39.7201 22.2284C39.8131 22.0808 39.8814 21.9099 39.9252 21.7158C39.9689 21.5217 39.9908 21.314 39.9908 21.0925ZM43.5625 23.3437C43.2536 23.3437 42.9734 23.2918 42.7219 23.1879C42.4732 23.0813 42.2586 22.9323 42.0781 22.741C41.9004 22.5496 41.7638 22.3227 41.6681 22.0603C41.5724 21.7978 41.5246 21.5108 41.5246 21.1991V21.0269C41.5246 20.6661 41.5779 20.3449 41.6845 20.0633C41.7911 19.779 41.936 19.5384 42.1191 19.3416C42.3023 19.1448 42.5101 18.9958 42.7424 18.8946C42.9748 18.7935 43.2154 18.7429 43.4641 18.7429C43.7812 18.7429 44.0546 18.7976 44.2842 18.9069C44.5166 19.0163 44.7066 19.1694 44.8542 19.3662C45.0018 19.5603 45.1112 19.7899 45.1822 20.0551C45.2533 20.3175 45.2889 20.6046 45.2889 20.9162V21.2566H41.9756V20.6374H44.5303V20.58C44.5193 20.3831 44.4783 20.1918 44.4072 20.0059C44.3389 19.82 44.2296 19.6669 44.0792 19.5466C43.9288 19.4263 43.7238 19.3662 43.4641 19.3662C43.2919 19.3662 43.1333 19.4031 42.9885 19.4769C42.8436 19.548 42.7192 19.6546 42.6153 19.7968C42.5114 19.9389 42.4308 20.1125 42.3734 20.3175C42.316 20.5226 42.2873 20.759 42.2873 21.0269V21.1991C42.2873 21.4096 42.316 21.6078 42.3734 21.7937C42.4335 21.9769 42.5196 22.1382 42.6317 22.2776C42.7465 22.417 42.8846 22.5264 43.0459 22.6056C43.2099 22.6849 43.3958 22.7245 43.6035 22.7245C43.8714 22.7245 44.0983 22.6699 44.2842 22.5605C44.4701 22.4512 44.6328 22.3049 44.7722 22.1218L45.2315 22.4867C45.1358 22.6316 45.0141 22.7697 44.8665 22.9009C44.7189 23.0321 44.5371 23.1387 44.3211 23.2207C44.1079 23.3027 43.855 23.3437 43.5625 23.3437ZM47.0072 18.8249V23.2617H46.2445V18.8249H47.0072ZM46.1871 17.6481C46.1871 17.5251 46.224 17.4212 46.2978 17.3364C46.3743 17.2517 46.4864 17.2093 46.634 17.2093C46.7789 17.2093 46.8896 17.2517 46.9662 17.3364C47.0455 17.4212 47.0851 17.5251 47.0851 17.6481C47.0851 17.7656 47.0455 17.8668 46.9662 17.9515C46.8896 18.0335 46.7789 18.0745 46.634 18.0745C46.4864 18.0745 46.3743 18.0335 46.2978 17.9515C46.224 17.8668 46.1871 17.7656 46.1871 17.6481ZM48.992 19.522V23.2617H48.2334V18.8249H48.9715L48.992 19.522ZM50.378 18.8003L50.3739 19.5056C50.311 19.492 50.2509 19.4838 50.1935 19.481C50.1388 19.4756 50.076 19.4728 50.0049 19.4728C49.8299 19.4728 49.6755 19.5002 49.5415 19.5548C49.4076 19.6095 49.2941 19.686 49.2012 19.7845C49.1082 19.8829 49.0344 20.0004 48.9797 20.1371C48.9278 20.2711 48.8936 20.4187 48.8772 20.58L48.664 20.703C48.664 20.4351 48.69 20.1836 48.7419 19.9485C48.7966 19.7134 48.88 19.5056 48.992 19.3252C49.1041 19.142 49.2463 18.9999 49.4185 18.8987C49.5935 18.7949 49.8012 18.7429 50.0418 18.7429C50.0965 18.7429 50.1593 18.7498 50.2304 18.7634C50.3015 18.7744 50.3507 18.7867 50.378 18.8003ZM50.8047 21.0925V20.9982C50.8047 20.6784 50.8512 20.3818 50.9441 20.1084C51.037 19.8323 51.171 19.5931 51.346 19.3908C51.5209 19.1858 51.7328 19.0272 51.9815 18.9151C52.2303 18.8003 52.5091 18.7429 52.818 18.7429C53.1297 18.7429 53.4099 18.8003 53.6587 18.9151C53.9102 19.0272 54.1234 19.1858 54.2983 19.3908C54.476 19.5931 54.6113 19.8323 54.7043 20.1084C54.7972 20.3818 54.8437 20.6784 54.8437 20.9982V21.0925C54.8437 21.4124 54.7972 21.709 54.7043 21.9824C54.6113 22.2557 54.476 22.4949 54.2983 22.6999C54.1234 22.9022 53.9115 23.0608 53.6628 23.1756C53.4167 23.2877 53.1379 23.3437 52.8262 23.3437C52.5146 23.3437 52.2344 23.2877 51.9856 23.1756C51.7369 23.0608 51.5236 22.9022 51.346 22.6999C51.171 22.4949 51.037 22.2557 50.9441 21.9824C50.8512 21.709 50.8047 21.4124 50.8047 21.0925ZM51.5633 20.9982V21.0925C51.5633 21.314 51.5892 21.5231 51.6412 21.7199C51.6931 21.914 51.771 22.0862 51.8749 22.2366C51.9815 22.3869 52.1141 22.5059 52.2727 22.5933C52.4312 22.6781 52.6158 22.7204 52.8262 22.7204C53.034 22.7204 53.2158 22.6781 53.3716 22.5933C53.5302 22.5059 53.6614 22.3869 53.7653 22.2366C53.8691 22.0862 53.9471 21.914 53.999 21.7199C54.0537 21.5231 54.081 21.314 54.081 21.0925V20.9982C54.081 20.7795 54.0537 20.5731 53.999 20.379C53.9471 20.1822 53.8678 20.0086 53.7612 19.8583C53.6573 19.7052 53.5261 19.5849 53.3675 19.4974C53.2117 19.4099 53.0285 19.3662 52.818 19.3662C52.6103 19.3662 52.4271 19.4099 52.2686 19.4974C52.1128 19.5849 51.9815 19.7052 51.8749 19.8583C51.771 20.0086 51.6931 20.1822 51.6412 20.379C51.5892 20.5731 51.5633 20.7795 51.5633 20.9982ZM61.1917 21.7527C61.1917 21.6133 61.1699 21.4903 61.1261 21.3837C61.0851 21.2743 61.0113 21.1759 60.9047 21.0884C60.8008 21.001 60.6559 20.9176 60.47 20.8383C60.2869 20.759 60.0545 20.6784 59.773 20.5964C59.4777 20.5089 59.2112 20.4118 58.9733 20.3052C58.7355 20.1959 58.5319 20.0715 58.3624 19.9321C58.1929 19.7927 58.063 19.6327 57.9728 19.4523C57.8826 19.2719 57.8375 19.0655 57.8375 18.8331C57.8375 18.6008 57.8853 18.3862 57.981 18.1894C58.0767 17.9925 58.2134 17.8217 58.3911 17.6768C58.5715 17.5292 58.7861 17.4143 59.0349 17.3323C59.2836 17.2503 59.5611 17.2093 59.8673 17.2093C60.3156 17.2093 60.6956 17.2954 61.0072 17.4677C61.3216 17.6371 61.5608 17.8599 61.7248 18.136C61.8888 18.4094 61.9708 18.7019 61.9708 19.0136H61.1835C61.1835 18.7894 61.1357 18.5912 61.04 18.419C60.9443 18.244 60.7995 18.1073 60.6054 18.0089C60.4113 17.9078 60.1652 17.8572 59.8673 17.8572C59.5857 17.8572 59.3533 17.8996 59.1702 17.9843C58.987 18.0691 58.8503 18.1839 58.7601 18.3288C58.6726 18.4737 58.6289 18.639 58.6289 18.8249C58.6289 18.9507 58.6549 19.0655 58.7068 19.1694C58.7615 19.2705 58.8449 19.3648 58.9569 19.4523C59.0718 19.5398 59.2166 19.6204 59.3916 19.6942C59.5693 19.7681 59.7812 19.8391 60.0272 19.9075C60.3662 20.0032 60.6587 20.1098 60.9047 20.2273C61.1507 20.3449 61.353 20.4775 61.5116 20.6251C61.6729 20.77 61.7918 20.9353 61.8683 21.1212C61.9476 21.3044 61.9872 21.5122 61.9872 21.7445C61.9872 21.9878 61.938 22.2079 61.8396 22.4047C61.7412 22.6015 61.6004 22.7697 61.4173 22.9091C61.2341 23.0485 61.0141 23.1565 60.7571 23.233C60.5029 23.3068 60.2185 23.3437 59.9042 23.3437C59.6281 23.3437 59.3561 23.3055 59.0882 23.2289C58.823 23.1524 58.5811 23.0376 58.3624 22.8845C58.1464 22.7314 57.9728 22.5428 57.8416 22.3186C57.7131 22.0917 57.6489 21.8293 57.6489 21.5313H58.4362C58.4362 21.7363 58.4758 21.9126 58.5551 22.0603C58.6344 22.2051 58.7424 22.3254 58.879 22.4211C59.0185 22.5168 59.1756 22.5879 59.3506 22.6343C59.5283 22.6781 59.7128 22.6999 59.9042 22.6999C60.1803 22.6999 60.414 22.6617 60.6054 22.5851C60.7967 22.5086 60.9416 22.3992 61.04 22.2571C61.1412 22.1149 61.1917 21.9468 61.1917 21.7527ZM62.6886 21.0925V20.9982C62.6886 20.6784 62.7351 20.3818 62.8281 20.1084C62.921 19.8323 63.055 19.5931 63.2299 19.3908C63.4049 19.1858 63.6167 19.0272 63.8655 18.9151C64.1143 18.8003 64.3931 18.7429 64.702 18.7429C65.0136 18.7429 65.2938 18.8003 65.5426 18.9151C65.7941 19.0272 66.0073 19.1858 66.1823 19.3908C66.36 19.5931 66.4953 19.8323 66.5882 20.1084C66.6812 20.3818 66.7277 20.6784 66.7277 20.9982V21.0925C66.7277 21.4124 66.6812 21.709 66.5882 21.9824C66.4953 22.2557 66.36 22.4949 66.1823 22.6999C66.0073 22.9022 65.7955 23.0608 65.5467 23.1756C65.3007 23.2877 65.0218 23.3437 64.7102 23.3437C64.3986 23.3437 64.1184 23.2877 63.8696 23.1756C63.6208 23.0608 63.4076 22.9022 63.2299 22.6999C63.055 22.4949 62.921 22.2557 62.8281 21.9824C62.7351 21.709 62.6886 21.4124 62.6886 21.0925ZM63.4472 20.9982V21.0925C63.4472 21.314 63.4732 21.5231 63.5251 21.7199C63.5771 21.914 63.655 22.0862 63.7589 22.2366C63.8655 22.3869 63.9981 22.5059 64.1566 22.5933C64.3152 22.6781 64.4997 22.7204 64.7102 22.7204C64.918 22.7204 65.0998 22.6781 65.2556 22.5933C65.4141 22.5059 65.5453 22.3869 65.6492 22.2366C65.7531 22.0862 65.831 21.914 65.883 21.7199C65.9376 21.5231 65.965 21.314 65.965 21.0925V20.9982C65.965 20.7795 65.9376 20.5731 65.883 20.379C65.831 20.1822 65.7517 20.0086 65.6451 19.8583C65.5412 19.7052 65.41 19.5849 65.2515 19.4974C65.0957 19.4099 64.9125 19.3662 64.702 19.3662C64.4942 19.3662 64.3111 19.4099 64.1525 19.4974C63.9967 19.5849 63.8655 19.7052 63.7589 19.8583C63.655 20.0086 63.5771 20.1822 63.5251 20.379C63.4732 20.5731 63.4472 20.7795 63.4472 20.9982ZM70.4019 22.2366V18.8249H71.1646V23.2617H70.4389L70.4019 22.2366ZM70.5455 21.3017L70.8612 21.2935C70.8612 21.5887 70.8298 21.8621 70.7669 22.1136C70.7068 22.3623 70.6083 22.5783 70.4717 22.7615C70.335 22.9446 70.1559 23.0881 69.9345 23.192C69.7131 23.2932 69.4438 23.3437 69.1267 23.3437C68.9107 23.3437 68.7125 23.3123 68.5321 23.2494C68.3544 23.1865 68.2013 23.0895 68.0728 22.9583C67.9444 22.8271 67.8446 22.6562 67.7735 22.4457C67.7052 22.2352 67.671 21.9824 67.671 21.6871V18.8249H68.4296V21.6953C68.4296 21.8949 68.4515 22.0603 68.4952 22.1915C68.5417 22.32 68.6032 22.4225 68.6797 22.499C68.759 22.5728 68.8465 22.6248 68.9422 22.6548C69.0406 22.6849 69.1417 22.6999 69.2456 22.6999C69.5682 22.6999 69.8238 22.6384 70.0124 22.5154C70.201 22.3897 70.3363 22.2215 70.4184 22.0111C70.5031 21.7978 70.5455 21.5614 70.5455 21.3017ZM75.6344 22.6384V23.2617H72.4073V22.6384H75.6344ZM75.5155 19.3621L72.5795 23.2617H72.1162V22.704L75.0317 18.8249H75.5155V19.3621ZM75.1793 18.8249V19.4523H72.149V18.8249H75.1793ZM79.1201 22.5031V20.2191C79.1201 20.0442 79.0845 19.8924 79.0135 19.764C78.9451 19.6327 78.8413 19.5316 78.7018 19.4605C78.5624 19.3894 78.3902 19.3539 78.1852 19.3539C77.9938 19.3539 77.8257 19.3867 77.6808 19.4523C77.5386 19.5179 77.4266 19.604 77.3446 19.7107C77.2653 19.8173 77.2256 19.9321 77.2256 20.0551H76.467C76.467 19.8965 76.508 19.7394 76.5901 19.5835C76.6721 19.4277 76.7896 19.2869 76.9427 19.1612C77.0985 19.0327 77.2844 18.9315 77.5004 18.8577C77.7191 18.7812 77.9624 18.7429 78.2303 18.7429C78.5528 18.7429 78.8371 18.7976 79.0832 18.9069C79.3319 19.0163 79.526 19.1817 79.6655 19.4031C79.8076 19.6218 79.8787 19.8965 79.8787 20.2273V22.294C79.8787 22.4416 79.891 22.5988 79.9156 22.7656C79.9429 22.9323 79.9826 23.0758 80.0345 23.1961V23.2617H79.2431C79.2048 23.1742 79.1748 23.0581 79.1529 22.9132C79.131 22.7656 79.1201 22.6289 79.1201 22.5031ZM79.2513 20.5718L79.2595 21.1048H78.4927C78.2767 21.1048 78.084 21.1226 77.9145 21.1581C77.745 21.1909 77.6029 21.2415 77.4881 21.3099C77.3733 21.3782 77.2858 21.4643 77.2256 21.5682C77.1655 21.6693 77.1354 21.7883 77.1354 21.9249C77.1354 22.0644 77.1669 22.1915 77.2297 22.3063C77.2926 22.4211 77.3869 22.5127 77.5127 22.581C77.6412 22.6466 77.7983 22.6794 77.9842 22.6794C78.2166 22.6794 78.4216 22.6302 78.5993 22.5318C78.777 22.4334 78.9178 22.3131 79.0217 22.171C79.1283 22.0288 79.1857 21.8908 79.1939 21.7568L79.5178 22.1218C79.4987 22.2366 79.4468 22.3637 79.362 22.5031C79.2773 22.6425 79.1638 22.7765 79.0217 22.905C78.8823 23.0307 78.7155 23.136 78.5214 23.2207C78.33 23.3027 78.1141 23.3437 77.8735 23.3437C77.5728 23.3437 77.309 23.285 77.0821 23.1674C76.858 23.0499 76.683 22.8927 76.5572 22.6958C76.4342 22.4963 76.3727 22.2735 76.3727 22.0275C76.3727 21.7896 76.4192 21.5805 76.5121 21.4001C76.6051 21.2169 76.739 21.0652 76.914 20.9449C77.089 20.8219 77.2994 20.729 77.5455 20.6661C77.7915 20.6032 78.0662 20.5718 78.3697 20.5718H79.2513Z" fill="white"/>
<path d="M11.5642 31.2155L11.666 31.6349C11.4803 31.7308 11.0908 31.8267 10.5995 31.8267C9.46106 31.8267 8.61023 31.1076 8.61023 29.7775C8.61023 28.5072 9.46706 27.6564 10.7193 27.6564C11.2166 27.6564 11.5402 27.7642 11.678 27.8361L11.5462 28.2616C11.3545 28.1657 11.0728 28.0938 10.7373 28.0938C9.79061 28.0938 9.16148 28.699 9.16148 29.7595C9.16148 30.7541 9.73069 31.3833 10.7073 31.3833C11.0309 31.3833 11.3545 31.3174 11.5642 31.2155ZM12.3166 31.7607V27.5066H12.8439V31.7607H12.3166ZM14.2689 31.7607H13.7416V28.8607H14.2689V31.7607ZM14.0052 27.7163C14.197 27.7163 14.3288 27.8601 14.3288 28.0459C14.3288 28.2256 14.203 28.3694 13.9933 28.3694C13.8015 28.3694 13.6757 28.2256 13.6757 28.0459C13.6757 27.8661 13.8075 27.7163 14.0052 27.7163ZM17.4857 30.4066H15.4485C15.4605 31.1196 15.9099 31.4132 16.4431 31.4132C16.8206 31.4132 17.0543 31.3473 17.246 31.2634L17.3419 31.6409C17.1562 31.7248 16.8326 31.8267 16.3712 31.8267C15.4785 31.8267 14.9452 31.2335 14.9452 30.3587C14.9452 29.4839 15.4605 28.8008 16.3053 28.8008C17.258 28.8008 17.5037 29.6277 17.5037 30.1609C17.5037 30.2688 17.4977 30.3467 17.4857 30.4066ZM15.4545 30.0291H16.9944C17.0004 29.6996 16.8566 29.1783 16.2634 29.1783C15.7241 29.1783 15.4964 29.6636 15.4545 30.0291ZM18.1656 31.7607V29.6457C18.1656 29.3401 18.1596 29.1004 18.1417 28.8607H18.609L18.639 29.3401H18.651C18.7948 29.0704 19.1303 28.8008 19.6096 28.8008C20.0111 28.8008 20.6342 29.0405 20.6342 30.0351V31.7607H20.107V30.089C20.107 29.6217 19.9332 29.2322 19.4359 29.2322C19.0944 29.2322 18.8247 29.4779 18.7289 29.7715C18.7049 29.8374 18.6929 29.9273 18.6929 30.0171V31.7607H18.1656ZM21.5946 28.3215L22.1099 28.1657V28.8607H22.8648V29.2622H22.1099V30.826C22.1099 31.1855 22.2117 31.3893 22.5053 31.3893C22.6491 31.3893 22.733 31.3773 22.8109 31.3533L22.8349 31.7548C22.733 31.7907 22.5713 31.8267 22.3675 31.8267C22.1219 31.8267 21.9241 31.7428 21.7983 31.605C21.6545 31.4432 21.5946 31.1855 21.5946 30.844V29.2622H21.1452V28.8607H21.5946V28.3215ZM25.763 30.4066H23.7258C23.7378 31.1196 24.1872 31.4132 24.7205 31.4132C25.0979 31.4132 25.3316 31.3473 25.5234 31.2634L25.6192 31.6409C25.4335 31.7248 25.1099 31.8267 24.6486 31.8267C23.7558 31.8267 23.2225 31.2335 23.2225 30.3587C23.2225 29.4839 23.7378 28.8008 24.5827 28.8008C25.5353 28.8008 25.781 29.6277 25.781 30.1609C25.781 30.2688 25.775 30.3467 25.763 30.4066ZM23.7318 30.0291H25.2717C25.2777 29.6996 25.1339 29.1783 24.5407 29.1783C24.0015 29.1783 23.7738 29.6636 23.7318 30.0291ZM29.699 27.5066H30.2202V31.0118C30.2202 31.2694 30.2322 31.563 30.2442 31.7607H29.7768L29.7529 31.2574H29.7349C29.5791 31.581 29.2316 31.8267 28.7583 31.8267C28.0572 31.8267 27.512 31.2335 27.512 30.3527C27.506 29.388 28.1111 28.8008 28.8122 28.8008C29.2616 28.8008 29.5552 29.0105 29.687 29.2382H29.699V27.5066ZM29.699 30.5444V30.0411C29.699 29.9752 29.693 29.8853 29.675 29.8194C29.5971 29.4899 29.3095 29.2142 28.914 29.2142C28.3688 29.2142 28.0452 29.6936 28.0452 30.3287C28.0452 30.9159 28.3388 31.4012 28.9021 31.4012C29.2556 31.4012 29.5791 31.1616 29.675 30.7721C29.693 30.7002 29.699 30.6283 29.699 30.5444ZM33.4435 30.4066H31.4063C31.4183 31.1196 31.8677 31.4132 32.401 31.4132C32.7784 31.4132 33.0121 31.3473 33.2039 31.2634L33.2997 31.6409C33.114 31.7248 32.7904 31.8267 32.3291 31.8267C31.4363 31.8267 30.903 31.2335 30.903 30.3587C30.903 29.4839 31.4183 28.8008 32.2631 28.8008C33.2158 28.8008 33.4615 29.6277 33.4615 30.1609C33.4615 30.2688 33.4555 30.3467 33.4435 30.4066ZM31.4123 30.0291H32.9522C32.9582 29.6996 32.8144 29.1783 32.2212 29.1783C31.6819 29.1783 31.4543 29.6636 31.4123 30.0291ZM33.9257 31.6229L34.0515 31.2275C34.2133 31.3233 34.4889 31.4312 34.7526 31.4312C35.1301 31.4312 35.3098 31.2455 35.3098 30.9998C35.3098 30.7481 35.16 30.6163 34.7765 30.4725C34.2493 30.2808 34.0036 29.9992 34.0036 29.6516C34.0036 29.1843 34.3871 28.8008 35.0042 28.8008C35.2978 28.8008 35.5555 28.8787 35.7113 28.9806L35.5854 29.364C35.4716 29.2921 35.2619 29.1903 34.9922 29.1903C34.6807 29.1903 34.5129 29.37 34.5129 29.5857C34.5129 29.8254 34.6807 29.9333 35.0582 30.0831C35.5555 30.2688 35.8191 30.5204 35.8191 30.9519C35.8191 31.4671 35.4177 31.8267 34.7406 31.8267C34.423 31.8267 34.1294 31.7428 33.9257 31.6229ZM38.4853 27.5066H39.0066V31.0118C39.0066 31.2694 39.0186 31.563 39.0306 31.7607H38.5632L38.5393 31.2574H38.5213C38.3655 31.581 38.018 31.8267 37.5446 31.8267C36.8436 31.8267 36.2984 31.2335 36.2984 30.3527C36.2924 29.388 36.8975 28.8008 37.5986 28.8008C38.0479 28.8008 38.3415 29.0105 38.4734 29.2382H38.4853V27.5066ZM38.4853 30.5444V30.0411C38.4853 29.9752 38.4794 29.8853 38.4614 29.8194C38.3835 29.4899 38.0959 29.2142 37.7004 29.2142C37.1552 29.2142 36.8316 29.6936 36.8316 30.3287C36.8316 30.9159 37.1252 31.4012 37.6884 31.4012C38.042 31.4012 38.3655 31.1616 38.4614 30.7721C38.4794 30.7002 38.4853 30.6283 38.4853 30.5444ZM42.2299 30.4066H40.1927C40.2047 31.1196 40.6541 31.4132 41.1873 31.4132C41.5648 31.4132 41.7985 31.3473 41.9902 31.2634L42.0861 31.6409C41.9004 31.7248 41.5768 31.8267 41.1154 31.8267C40.2227 31.8267 39.6894 31.2335 39.6894 30.3587C39.6894 29.4839 40.2047 28.8008 41.0495 28.8008C42.0022 28.8008 42.2479 29.6277 42.2479 30.1609C42.2479 30.2688 42.2419 30.3467 42.2299 30.4066ZM40.1987 30.0291H41.7386C41.7446 29.6996 41.6008 29.1783 41.0076 29.1783C40.4683 29.1783 40.2406 29.6636 40.1987 30.0291ZM45.327 27.8002C46.1419 27.8002 46.6152 28.5312 46.6152 29.7715C46.6152 31.0957 46.1179 31.8267 45.2611 31.8267C44.5001 31.8267 43.9788 31.1136 43.9669 29.8254C43.9669 28.5132 44.5361 27.8002 45.327 27.8002ZM45.291 28.2076C44.8357 28.2076 44.5001 28.7709 44.5001 29.8314C44.5001 30.844 44.8117 31.4192 45.291 31.4192C45.8243 31.4192 46.082 30.7901 46.082 29.7954C46.082 28.8368 45.8423 28.2076 45.291 28.2076ZM48.4079 27.8002C49.2228 27.8002 49.6962 28.5312 49.6962 29.7715C49.6962 31.0957 49.1988 31.8267 48.342 31.8267C47.5811 31.8267 47.0598 31.1136 47.0478 29.8254C47.0478 28.5132 47.617 27.8002 48.4079 27.8002ZM48.372 28.2076C47.9166 28.2076 47.5811 28.7709 47.5811 29.8314C47.5811 30.844 47.8926 31.4192 48.372 31.4192C48.9052 31.4192 49.1629 30.7901 49.1629 29.7954C49.1629 28.8368 48.9232 28.2076 48.372 28.2076ZM50.3085 31.9944H49.907L51.5727 27.6504H51.9862L50.3085 31.9944ZM53.5517 27.8002C54.3665 27.8002 54.8399 28.5312 54.8399 29.7715C54.8399 31.0957 54.3426 31.8267 53.4857 31.8267C52.7248 31.8267 52.2035 31.1136 52.1915 29.8254C52.1915 28.5132 52.7607 27.8002 53.5517 27.8002ZM53.5157 28.2076C53.0603 28.2076 52.7248 28.7709 52.7248 29.8314C52.7248 30.844 53.0364 31.4192 53.5157 31.4192C54.049 31.4192 54.3066 30.7901 54.3066 29.7954C54.3066 28.8368 54.0669 28.2076 53.5157 28.2076ZM56.6326 27.8002C57.4475 27.8002 57.9208 28.5312 57.9208 29.7715C57.9208 31.0957 57.4235 31.8267 56.5667 31.8267C55.8057 31.8267 55.2844 31.1136 55.2725 29.8254C55.2725 28.5132 55.8417 27.8002 56.6326 27.8002ZM56.5966 28.2076C56.1413 28.2076 55.8057 28.7709 55.8057 29.8314C55.8057 30.844 56.1173 31.4192 56.5966 31.4192C57.1299 31.4192 57.3875 30.7901 57.3875 29.7954C57.3875 28.8368 57.1479 28.2076 56.5966 28.2076Z" fill="#956E43"/>
<path d="M117.777 67.8191H118.455C118.42 68.1437 118.327 68.4342 118.176 68.6906C118.026 68.9469 117.813 69.1504 117.537 69.3009C117.262 69.4491 116.919 69.5232 116.507 69.5232C116.206 69.5232 115.932 69.4667 115.685 69.3538C115.441 69.2409 115.23 69.081 115.054 68.874C114.877 68.6647 114.741 68.4142 114.644 68.1225C114.55 67.8285 114.503 67.5016 114.503 67.1417V66.6301C114.503 66.2702 114.55 65.9445 114.644 65.6528C114.741 65.3588 114.878 65.1071 115.057 64.8978C115.238 64.6884 115.456 64.5273 115.71 64.4144C115.964 64.3015 116.25 64.2451 116.567 64.2451C116.955 64.2451 117.283 64.318 117.552 64.4638C117.82 64.6096 118.028 64.8119 118.176 65.0706C118.327 65.327 118.42 65.6246 118.455 65.9633H117.777C117.744 65.7234 117.683 65.5175 117.594 65.3458C117.505 65.1718 117.378 65.0377 117.213 64.9436C117.048 64.8495 116.833 64.8025 116.567 64.8025C116.339 64.8025 116.138 64.846 115.964 64.933C115.792 65.0201 115.648 65.1436 115.53 65.3035C115.415 65.4634 115.328 65.6551 115.269 65.8786C115.21 66.102 115.181 66.3502 115.181 66.623V67.1417C115.181 67.3934 115.207 67.6297 115.258 67.8508C115.312 68.0719 115.394 68.266 115.502 68.433C115.61 68.6 115.748 68.7317 115.915 68.8282C116.082 68.9222 116.279 68.9693 116.507 68.9693C116.797 68.9693 117.027 68.9234 117.199 68.8317C117.37 68.7399 117.5 68.6082 117.587 68.4365C117.676 68.2648 117.74 68.059 117.777 67.8191ZM120.011 64.0334V69.4526H119.355V64.0334H120.011ZM121.786 65.6352V69.4526H121.13V65.6352H121.786ZM121.081 64.6226C121.081 64.5167 121.112 64.4273 121.176 64.3544C121.242 64.2815 121.338 64.2451 121.465 64.2451C121.59 64.2451 121.685 64.2815 121.751 64.3544C121.819 64.4273 121.853 64.5167 121.853 64.6226C121.853 64.7237 121.819 64.8107 121.751 64.8837C121.685 64.9542 121.59 64.9895 121.465 64.9895C121.338 64.9895 121.242 64.9542 121.176 64.8837C121.112 64.8107 121.081 64.7237 121.081 64.6226ZM124.436 69.5232C124.171 69.5232 123.929 69.4785 123.713 69.3891C123.499 69.2974 123.314 69.1692 123.159 69.0046C123.006 68.8399 122.889 68.6447 122.806 68.4189C122.724 68.1931 122.683 67.9461 122.683 67.678V67.5298C122.683 67.2193 122.729 66.9429 122.82 66.7007C122.912 66.456 123.037 66.2491 123.194 66.0797C123.352 65.9104 123.531 65.7822 123.731 65.6951C123.931 65.6081 124.138 65.5646 124.352 65.5646C124.624 65.5646 124.86 65.6116 125.057 65.7057C125.257 65.7998 125.421 65.9315 125.548 66.1009C125.675 66.2679 125.769 66.4654 125.83 66.6936C125.891 66.9194 125.922 67.1664 125.922 67.4345V67.7274H123.071V67.1946H125.269V67.1452C125.26 66.9759 125.224 66.8112 125.163 66.6513C125.104 66.4913 125.01 66.3596 124.881 66.2561C124.752 66.1526 124.575 66.1009 124.352 66.1009C124.203 66.1009 124.067 66.1326 123.942 66.1961C123.818 66.2573 123.711 66.349 123.621 66.4713C123.532 66.5936 123.463 66.743 123.413 66.9194C123.364 67.0958 123.339 67.2993 123.339 67.5298V67.678C123.339 67.8591 123.364 68.0296 123.413 68.1896C123.465 68.3471 123.539 68.4859 123.635 68.6059C123.734 68.7258 123.853 68.8199 123.992 68.8881C124.133 68.9563 124.293 68.9904 124.472 68.9904C124.702 68.9904 124.897 68.9434 125.057 68.8493C125.217 68.7552 125.357 68.6294 125.477 68.4718L125.872 68.7858C125.79 68.9105 125.685 69.0293 125.558 69.1422C125.431 69.2551 125.275 69.3468 125.089 69.4174C124.906 69.4879 124.688 69.5232 124.436 69.5232ZM127.355 66.4502V69.4526H126.702V65.6352H127.319L127.355 66.4502ZM127.199 67.3992L126.928 67.3887C126.93 67.1276 126.969 66.8865 127.044 66.6654C127.119 66.4419 127.225 66.2479 127.362 66.0832C127.498 65.9186 127.66 65.7916 127.848 65.7022C128.039 65.6105 128.25 65.5646 128.48 65.5646C128.668 65.5646 128.838 65.5905 128.988 65.6422C129.139 65.6916 129.267 65.7716 129.373 65.8821C129.481 65.9927 129.563 66.1362 129.62 66.3126C129.676 66.4866 129.704 66.6995 129.704 66.9512V69.4526H129.048V66.9441C129.048 66.7442 129.019 66.5842 128.96 66.4643C128.901 66.342 128.815 66.2538 128.702 66.1997C128.589 66.1432 128.451 66.115 128.286 66.115C128.124 66.115 127.976 66.1491 127.841 66.2173C127.71 66.2855 127.596 66.3796 127.499 66.4996C127.405 66.6195 127.331 66.7571 127.277 66.9124C127.225 67.0652 127.199 67.2275 127.199 67.3992ZM132.312 65.6352V66.1362H130.248V65.6352H132.312ZM130.947 64.7072H131.599V68.5071C131.599 68.6365 131.619 68.7341 131.659 68.7999C131.699 68.8658 131.751 68.9093 131.815 68.9305C131.878 68.9516 131.946 68.9622 132.019 68.9622C132.073 68.9622 132.13 68.9575 132.189 68.9481C132.25 68.9363 132.296 68.9269 132.326 68.9199L132.33 69.4526C132.278 69.4691 132.21 69.4844 132.125 69.4985C132.043 69.515 131.943 69.5232 131.825 69.5232C131.665 69.5232 131.518 69.4914 131.384 69.4279C131.25 69.3644 131.143 69.2586 131.063 69.1104C130.985 68.9599 130.947 68.7576 130.947 68.5036V64.7072ZM134.68 69.5232C134.414 69.5232 134.173 69.4785 133.957 69.3891C133.743 69.2974 133.558 69.1692 133.403 69.0046C133.25 68.8399 133.132 68.6447 133.05 68.4189C132.968 68.1931 132.926 67.9461 132.926 67.678V67.5298C132.926 67.2193 132.972 66.9429 133.064 66.7007C133.156 66.456 133.28 66.2491 133.438 66.0797C133.596 65.9104 133.774 65.7822 133.974 65.6951C134.174 65.6081 134.381 65.5646 134.595 65.5646C134.868 65.5646 135.103 65.6116 135.301 65.7057C135.501 65.7998 135.664 65.9315 135.791 66.1009C135.918 66.2679 136.012 66.4654 136.074 66.6936C136.135 66.9194 136.165 67.1664 136.165 67.4345V67.7274H133.314V67.1946H135.513V67.1452C135.503 66.9759 135.468 66.8112 135.407 66.6513C135.348 66.4913 135.254 66.3596 135.124 66.2561C134.995 66.1526 134.819 66.1009 134.595 66.1009C134.447 66.1009 134.311 66.1326 134.186 66.1961C134.061 66.2573 133.954 66.349 133.865 66.4713C133.775 66.5936 133.706 66.743 133.657 66.9194C133.607 67.0958 133.583 67.2993 133.583 67.5298V67.678C133.583 67.8591 133.607 68.0296 133.657 68.1896C133.708 68.3471 133.783 68.4859 133.879 68.6059C133.978 68.7258 134.097 68.8199 134.235 68.8881C134.376 68.9563 134.536 68.9904 134.715 68.9904C134.946 68.9904 135.141 68.9434 135.301 68.8493C135.461 68.7552 135.601 68.6294 135.721 68.4718L136.116 68.7858C136.034 68.9105 135.929 69.0293 135.802 69.1422C135.675 69.2551 135.518 69.3468 135.333 69.4174C135.149 69.4879 134.932 69.5232 134.68 69.5232Z" fill="#956E43"/>
<path d="M102.364 79.3497V83.1745C102.235 83.3658 102.029 83.5811 101.747 83.8203C101.464 84.0547 101.074 84.2604 100.577 84.4374C100.084 84.6097 99.4479 84.6958 98.6681 84.6958C98.0319 84.6958 97.4458 84.5857 96.91 84.3657C96.379 84.1408 95.9173 83.8155 95.5251 83.3897C95.1376 82.9592 94.8362 82.4377 94.6209 81.8254C94.4104 81.2083 94.3052 80.5098 94.3052 79.73V78.9191C94.3052 78.1393 94.396 77.4433 94.5778 76.8309C94.7644 76.2186 95.0371 75.6995 95.3959 75.2737C95.7547 74.8432 96.1948 74.5179 96.7163 74.2978C97.2377 74.073 97.8357 73.9606 98.5103 73.9606C99.3092 73.9606 99.9765 74.0993 100.512 74.3768C101.053 74.6494 101.474 75.0274 101.775 75.5106C102.081 75.9937 102.278 76.5439 102.364 77.161H100.979C100.917 76.7831 100.792 76.4386 100.606 76.1277C100.424 75.8167 100.163 75.568 99.8235 75.3814C99.4838 75.19 99.0461 75.0944 98.5103 75.0944C98.0271 75.0944 97.6085 75.1829 97.2545 75.3599C96.9005 75.5369 96.6086 75.7904 96.379 76.1205C96.1494 76.4506 95.9771 76.8501 95.8623 77.3189C95.7523 77.7877 95.6973 78.3163 95.6973 78.9048V79.73C95.6973 80.3328 95.7667 80.871 95.9054 81.3446C96.0489 81.8182 96.2522 82.2225 96.5153 82.5573C96.7785 82.8874 97.0918 83.1386 97.4554 83.3108C97.8238 83.483 98.2304 83.5691 98.6753 83.5691C99.1681 83.5691 99.5675 83.5285 99.8737 83.4472C100.18 83.361 100.419 83.2606 100.591 83.1458C100.764 83.0262 100.895 82.9137 100.986 82.8085V80.4691H98.5677V79.3497H102.364ZM114.211 78.9981V79.6583C114.211 80.4428 114.113 81.1461 113.916 81.768C113.72 82.3899 113.438 82.9185 113.07 83.3539C112.701 83.7892 112.259 84.1217 111.742 84.3513C111.23 84.5809 110.656 84.6958 110.02 84.6958C109.403 84.6958 108.836 84.5809 108.319 84.3513C107.807 84.1217 107.362 83.7892 106.984 83.3539C106.611 82.9185 106.322 82.3899 106.116 81.768C105.91 81.1461 105.808 80.4428 105.808 79.6583V78.9981C105.808 78.2135 105.908 77.5126 106.109 76.8955C106.315 76.2736 106.604 75.745 106.977 75.3096C107.35 74.8695 107.793 74.5346 108.305 74.305C108.822 74.0754 109.388 73.9606 110.006 73.9606C110.642 73.9606 111.216 74.0754 111.728 74.305C112.244 74.5346 112.687 74.8695 113.055 75.3096C113.428 75.745 113.713 76.2736 113.909 76.8955C114.11 77.5126 114.211 78.2135 114.211 78.9981ZM112.84 79.6583V78.9837C112.84 78.3618 112.775 77.8116 112.646 77.3332C112.522 76.8548 112.338 76.453 112.094 76.1277C111.85 75.8024 111.551 75.556 111.197 75.3886C110.848 75.2211 110.45 75.1374 110.006 75.1374C109.575 75.1374 109.185 75.2211 108.836 75.3886C108.491 75.556 108.195 75.8024 107.946 76.1277C107.702 76.453 107.513 76.8548 107.379 77.3332C107.245 77.8116 107.178 78.3618 107.178 78.9837V79.6583C107.178 80.285 107.245 80.8399 107.379 81.3231C107.513 81.8015 107.704 82.2057 107.953 82.5358C108.207 82.8611 108.506 83.1075 108.85 83.2749C109.199 83.4424 109.589 83.5261 110.02 83.5261C110.47 83.5261 110.869 83.4424 111.218 83.2749C111.568 83.1075 111.862 82.8611 112.101 82.5358C112.345 82.2057 112.529 81.8015 112.653 81.3231C112.778 80.8399 112.84 80.285 112.84 79.6583ZM124.127 83.4256V84.5522H118.903V83.4256H124.127ZM119.176 74.1041V84.5522H117.791V74.1041H119.176ZM130.047 84.5522H127.865L127.88 83.4256H130.047C130.793 83.4256 131.415 83.2701 131.913 82.9592C132.41 82.6434 132.783 82.2033 133.032 81.6388C133.286 81.0695 133.412 80.4045 133.412 79.6439V79.0052C133.412 78.4072 133.341 77.8762 133.197 77.4122C133.054 76.9434 132.843 76.5487 132.566 76.2281C132.288 75.9028 131.948 75.6565 131.547 75.489C131.15 75.3216 130.693 75.2379 130.176 75.2379H127.822V74.1041H130.176C130.86 74.1041 131.484 74.2189 132.049 74.4485C132.613 74.6734 133.099 75.0011 133.506 75.4316C133.917 75.8574 134.233 76.3741 134.453 76.9816C134.673 77.5844 134.783 78.2637 134.783 79.0196V79.6439C134.783 80.3998 134.673 81.0815 134.453 81.689C134.233 82.2918 133.915 82.8061 133.498 83.2319C133.087 83.6576 132.589 83.9853 132.006 84.215C131.427 84.4398 130.774 84.5522 130.047 84.5522ZM128.604 74.1041V84.5522H127.219V74.1041H128.604Z" fill="#FCD547"/>
<rect x="103.395" y="8.43555" width="32.5437" height="32.1451" rx="16.0725" fill="white"/>
<g clip-path="url(#clip0_8388_398356)">
<path fill-rule="evenodd" clip-rule="evenodd" d="M121.196 21.9282C120.813 22.3814 120.673 22.974 120.673 23.6364C120.673 24.229 120.883 24.7868 121.196 25.2051L120.569 25.5537C120.185 24.9959 119.941 24.3336 119.941 23.6364C119.941 22.8694 120.116 22.1374 120.569 21.5796L121.196 21.9282Z" fill="#FF5000"/>
<path fill-rule="evenodd" clip-rule="evenodd" d="M121.649 21.1612C121.649 21.4052 121.439 21.6144 121.195 21.6144C120.951 21.6144 120.742 21.4052 120.742 21.1612C120.742 20.9172 120.951 20.708 121.195 20.708C121.439 20.708 121.649 20.9172 121.649 21.1612Z" fill="#FF5000"/>
<path fill-rule="evenodd" clip-rule="evenodd" d="M123.639 24.0539V21.3696H122.733V22.6246C122.628 22.4852 122.384 22.4154 122.105 22.4154C121.513 22.4154 120.955 22.8686 120.99 23.6356C120.99 24.4025 121.513 24.8208 122.071 24.8208C122.349 24.8208 122.663 24.7162 122.837 24.4374L122.872 24.786H123.674C123.674 24.6814 123.639 24.3676 123.639 24.0539ZM122.768 23.6356C122.768 23.7053 122.768 23.7401 122.768 23.8099C122.733 23.9842 122.593 24.1585 122.384 24.1585C122.105 24.1585 121.931 23.9493 121.931 23.6356C121.931 23.3567 122.071 23.0778 122.384 23.0778C122.593 23.0778 122.733 23.2172 122.768 23.3915C122.768 23.4264 122.768 23.4613 122.768 23.4961V23.6356Z" fill="#FF5000"/>
<path fill-rule="evenodd" clip-rule="evenodd" d="M126.254 24.1934V23.4265C126.254 22.799 125.905 22.4155 125.103 22.4155C124.58 22.4155 124.232 22.555 124.092 22.6247L124.232 23.1825C124.371 23.1127 124.685 23.0082 124.929 23.0082C125.278 23.0082 125.347 23.1127 125.347 23.1825C124.476 23.1825 123.918 23.4613 123.918 24.0888C123.918 24.4723 124.232 24.8209 124.72 24.8209C124.999 24.8209 125.243 24.7512 125.417 24.5769H125.452L125.487 24.7512H126.288C126.254 24.6815 126.254 24.4723 126.254 24.1934ZM125.417 23.8797C125.417 23.9145 125.417 23.9843 125.417 24.0191C125.382 24.1586 125.243 24.2631 125.103 24.2631C124.929 24.2631 124.859 24.1934 124.859 24.054C124.859 23.8797 125.034 23.7751 125.452 23.7751V23.8797H125.417Z" fill="#FF5000"/>
<path fill-rule="evenodd" clip-rule="evenodd" d="M114.401 23.3916V24.786H113.564V23.5659C113.564 23.2521 113.46 23.1127 113.251 23.1127C113.111 23.1127 113.007 23.2173 112.972 23.3218C112.937 23.3916 112.937 23.4613 112.937 23.4961V24.786H112.1V23.5659C112.1 23.2521 111.996 23.1127 111.787 23.1127C111.612 23.1127 111.508 23.2521 111.508 23.3218C111.473 23.3916 111.473 23.4613 111.473 23.4961V24.786H110.601V23.2521C110.601 22.9384 110.601 22.6595 110.566 22.4503H111.298L111.333 22.7641H111.368C111.438 22.6595 111.647 22.4155 112.1 22.4155C112.414 22.4155 112.658 22.5549 112.763 22.7989C112.867 22.6595 112.972 22.5898 113.111 22.5201C113.251 22.4503 113.39 22.4155 113.564 22.4155C114.087 22.3806 114.401 22.7292 114.401 23.3916Z" fill="#FF5000"/>
<path fill-rule="evenodd" clip-rule="evenodd" d="M115.969 22.3457C115.062 22.3457 114.574 22.8686 114.574 23.6007C114.574 24.3676 115.202 24.8208 115.899 24.8208C116.631 24.8208 117.258 24.3676 117.258 23.5658C117.293 22.8338 116.736 22.3457 115.969 22.3457ZM115.934 24.1585C115.655 24.1585 115.515 23.8796 115.515 23.5658C115.515 23.2521 115.62 22.9732 115.934 22.9732C116.213 22.9732 116.352 23.2521 116.352 23.5658C116.352 23.9493 116.178 24.1585 115.934 24.1585Z" fill="#FF5000"/>
<path fill-rule="evenodd" clip-rule="evenodd" d="M119.875 22.4155L118.969 24.7512H118.063L117.156 22.4155H118.132L118.411 23.4265C118.481 23.6008 118.481 23.7751 118.516 23.9494H118.551C118.586 23.7751 118.62 23.6356 118.655 23.4265L118.934 22.4155H119.875Z" fill="#FF5000"/>
<path d="M108.577 24.7173H107.706C106.974 24.7173 106.416 25.3099 106.451 26.0071C106.486 26.6346 107.009 27.1575 107.671 27.1575H112.412" stroke="#FF5000" stroke-width="0.199359" stroke-miterlimit="10"/>
<path d="M108.438 23.8804L109.623 24.7519L108.438 25.6234" stroke="#FF5000" stroke-width="0.199359" stroke-miterlimit="10"/>
<path d="M130.748 26.2161H131.62C132.352 26.2161 132.91 25.6235 132.875 24.9263C132.84 24.2988 132.317 23.7759 131.655 23.7759H126.879" stroke="#FF5000" stroke-width="0.199359" stroke-miterlimit="10"/>
<path d="M130.888 27.0526L129.703 26.1811L130.888 25.3096" stroke="#FF5000" stroke-width="0.199359" stroke-miterlimit="10"/>
<path d="M113.528 26.1812H114.608L114.574 26.2857H113.667L113.493 27.1224H114.329L114.295 27.227H113.458L113.249 28.2728H113.109L113.528 26.1812Z" fill="#FF5000"/>
<path d="M115.237 26.146L114.819 28.3074H114.68L115.098 26.146H115.237Z" fill="#FF5000"/>
<path d="M115.758 26.1809C115.933 26.146 116.107 26.146 116.316 26.146C116.735 26.146 117.048 26.2854 117.223 26.4946C117.292 26.5992 117.362 26.7735 117.397 27.0175C117.397 27.3661 117.257 27.7147 116.979 27.9587C116.7 28.2028 116.351 28.3074 115.933 28.3074C115.793 28.3074 115.584 28.3074 115.375 28.3074L115.758 26.1809ZM115.549 28.1679C115.689 28.2028 115.863 28.2028 115.933 28.2028C116.386 28.2028 116.7 28.0633 116.909 27.889C117.153 27.6799 117.257 27.3661 117.257 27.0872C117.257 26.6689 117.048 26.2854 116.316 26.2854C116.212 26.2854 116.002 26.2854 115.898 26.3203L115.549 28.1679Z" fill="#FF5000"/>
<path d="M118.79 27.2618H117.919L117.745 28.2031H118.721L118.686 28.3076H117.57L117.989 26.1812H119.069L119.034 26.2857H118.128L117.989 27.0875H118.86L118.79 27.2618Z" fill="#FF5000"/>
<path d="M119.524 26.1812H119.663L119.28 28.2031H120.256L120.221 28.3076H119.105L119.524 26.1812Z" fill="#FF5000"/>
<path d="M121.093 26.146L120.675 28.3074H120.535L120.953 26.146H121.093Z" fill="#FF5000"/>
<path d="M121.649 26.1809C121.823 26.146 121.998 26.146 122.207 26.146C122.625 26.146 122.939 26.2854 123.113 26.4946C123.183 26.5992 123.253 26.7735 123.288 27.0175C123.288 27.3661 123.148 27.7147 122.869 27.9587C122.59 28.2028 122.242 28.3074 121.823 28.3074C121.684 28.3074 121.475 28.3074 121.266 28.3074L121.649 26.1809ZM121.405 28.1679C121.545 28.2028 121.719 28.2028 121.789 28.2028C122.242 28.2028 122.555 28.0633 122.765 27.889C123.009 27.6799 123.113 27.3661 123.113 27.0872C123.113 26.6689 122.904 26.2854 122.172 26.2854C122.067 26.2854 121.858 26.2854 121.754 26.3203L121.405 28.1679Z" fill="#FF5000"/>
<path d="M123.811 27.5406L123.393 28.2727H123.219L124.439 26.1113H124.578L124.997 28.2727H124.822L124.683 27.5406H123.811ZM124.683 27.4012L124.543 26.6691C124.543 26.5645 124.509 26.4251 124.474 26.3205C124.404 26.4251 124.369 26.5297 124.299 26.6342L123.881 27.3663H124.683V27.4012Z" fill="#FF5000"/>
<path d="M125.731 26.1809C125.905 26.146 126.08 26.146 126.289 26.146C126.707 26.146 127.021 26.2854 127.195 26.4946C127.265 26.5992 127.335 26.7735 127.37 27.0175C127.37 27.3661 127.23 27.7147 126.951 27.9587C126.672 28.2028 126.324 28.3074 125.905 28.3074C125.766 28.3074 125.557 28.3074 125.348 28.3074L125.731 26.1809ZM125.487 28.1679C125.627 28.2028 125.801 28.2028 125.871 28.2028C126.324 28.2028 126.637 28.0633 126.847 27.889C127.091 27.6799 127.195 27.3661 127.195 27.0872C127.195 26.6689 126.986 26.2854 126.254 26.2854C126.149 26.2854 125.94 26.2854 125.836 26.3203L125.487 28.1679Z" fill="#FF5000"/>
<path d="M128.763 27.2618H127.892L127.717 28.2031H128.693L128.659 28.3076H127.543L127.961 26.1812H129.042L129.007 26.2857H128.101L127.961 27.0875H128.833L128.763 27.2618Z" fill="#FF5000"/>
</g>
<defs>
<clipPath id="clip0_8388_398356">
<rect width="26.5812" height="7.84363" fill="white" transform="translate(106.375 20.5864)"/>
</clipPath>
</defs>
</svg>
