<svg width="71" height="70" viewBox="0 0 71 70" fill="none" xmlns="http://www.w3.org/2000/svg">
<path d="M35.4989 5.83301C31.6687 5.83301 27.8759 6.58743 24.3373 8.05319C20.7986 9.51895 17.5833 11.6674 14.8749 14.3757C9.40512 19.8455 6.33221 27.2642 6.33221 34.9997C6.30671 41.7346 8.63869 48.2662 12.9239 53.4622L7.09054 59.2955C6.68583 59.7057 6.41168 60.2265 6.30267 60.7923C6.19366 61.3581 6.25469 61.9435 6.47804 62.4747C6.7203 62.9995 7.11301 63.4404 7.60635 63.7416C8.09968 64.0428 8.67138 64.1907 9.24888 64.1663H35.4989C43.2344 64.1663 50.653 61.0934 56.1228 55.6236C61.5926 50.1538 64.6655 42.7352 64.6655 34.9997C64.6655 27.2642 61.5926 19.8455 56.1228 14.3757C50.653 8.90592 43.2344 5.83301 35.4989 5.83301ZM35.4989 58.333H16.278L18.9905 55.6205C19.5338 55.074 19.8387 54.3348 19.8387 53.5643C19.8387 52.7937 19.5338 52.0545 18.9905 51.508C15.1714 47.6931 12.7931 42.6721 12.2609 37.3003C11.7286 31.9286 13.0754 26.5384 16.0716 22.0483C19.0679 17.5581 23.5283 14.2457 28.6929 12.6754C33.8575 11.1051 39.4068 11.3741 44.3953 13.4365C49.3839 15.4989 53.503 19.2271 56.051 23.986C58.599 28.7449 59.4181 34.24 58.3688 39.5351C57.3196 44.8302 54.4669 49.5977 50.2967 53.0254C46.1265 56.453 40.8969 58.3288 35.4989 58.333Z" fill="#FFB491"/>
<path d="M31.3015 38.7492L45.0974 24.9242C45.3693 24.6522 45.6921 24.4365 46.0475 24.2893C46.4028 24.1422 46.7836 24.0664 47.1682 24.0664C47.5528 24.0664 47.9336 24.1422 48.2889 24.2893C48.6442 24.4365 48.9671 24.6522 49.239 24.9242C49.511 25.1961 49.7267 25.519 49.8739 25.8743C50.021 26.2296 50.0968 26.6104 50.0968 26.995C50.0968 27.3796 50.021 27.7604 49.8739 28.1157C49.7267 28.471 49.511 28.7939 49.239 29.0658L33.3724 44.9325C33.1012 45.2059 32.7786 45.4229 32.4232 45.5709C32.0678 45.719 31.6866 45.7953 31.3015 45.7953C30.9165 45.7953 30.5353 45.719 30.1798 45.5709C29.8244 45.4229 29.5018 45.2059 29.2307 44.9325L21.764 37.4658C21.4921 37.1939 21.2764 36.871 21.1292 36.5157C20.982 36.1604 20.9062 35.7796 20.9062 35.395C20.9062 34.6183 21.2148 33.8734 21.764 33.3242C22.3132 32.775 23.0581 32.4664 23.8349 32.4664C24.6116 32.4664 25.3565 32.775 25.9057 33.3242L31.3015 38.7492Z" fill="#FF5000"/>
</svg>
