<svg width="93" height="91" viewBox="0 0 93 91" fill="none" xmlns="http://www.w3.org/2000/svg">
<ellipse cx="46.4992" cy="45.5" rx="46.4055" ry="45.5" fill="#3F87EA"/>
<rect x="28.0938" y="35" width="35" height="28" fill="#FF5000"/>
<rect width="17" height="4" transform="matrix(1 0 0 -1 28.0938 35)" fill="#FF5000"/>
<path d="M60.0938 33H47.5338L46.8937 31C46.4789 29.8265 45.7092 28.8111 44.6916 28.0944C43.6739 27.3777 42.4585 26.9952 41.2138 27H32.0938C30.5025 27 28.9763 27.6322 27.8511 28.7574C26.7259 29.8826 26.0938 31.4087 26.0938 33V59C26.0938 60.5913 26.7259 62.1175 27.8511 63.2427C28.9763 64.3679 30.5025 65 32.0938 65H60.0938C61.685 65 63.2112 64.3679 64.3364 63.2427C65.4616 62.1175 66.0938 60.5913 66.0938 59V39C66.0938 37.4087 65.4616 35.8826 64.3364 34.7574C63.2112 33.6322 61.685 33 60.0938 33ZM62.0938 59C62.0938 59.5305 61.883 60.0392 61.508 60.4143C61.1329 60.7893 60.6242 61 60.0938 61H32.0938C31.5633 61 31.0546 60.7893 30.6795 60.4143C30.3045 60.0392 30.0938 59.5305 30.0938 59V33C30.0938 32.4696 30.3045 31.9609 30.6795 31.5858C31.0546 31.2108 31.5633 31 32.0938 31H41.2138C41.633 30.999 42.0421 31.1297 42.383 31.3737C42.724 31.6178 42.9796 31.9628 43.1138 32.36L44.1938 35.64C44.3279 36.0373 44.5835 36.3823 44.9245 36.6264C45.2654 36.8704 45.6745 37.0011 46.0938 37H60.0938C60.6242 37 61.1329 37.2108 61.508 37.5858C61.883 37.9609 62.0938 38.4696 62.0938 39V59Z" fill="white"/>
</svg>
