<svg width="17" height="14" viewBox="0 0 17 14" fill="none" xmlns="http://www.w3.org/2000/svg">
<path d="M12.574 10.1314L10.5438 8.04479L11.5589 7.0107L12.574 8.04479L15.0849 5.44109L16.1 6.47519L12.574 10.1314ZM7.62329 13.6954L5.36164 11.5902C4.50685 10.7901 3.77374 10.076 3.16233 9.4482C2.55091 8.82036 2.04635 8.22945 1.64863 7.67547C1.25091 7.12149 0.960046 6.58598 0.776027 6.06894C0.592009 5.55189 0.5 5.01022 0.5 4.44394C0.5 3.28674 0.873973 2.32343 1.62192 1.55402C2.36986 0.784609 3.30183 0.399902 4.41781 0.399902C5.03516 0.399902 5.62283 0.535319 6.18082 0.806152C6.73881 1.07699 7.21964 1.45861 7.62329 1.95104C8.02694 1.45861 8.50776 1.07699 9.06575 0.806152C9.62374 0.535319 10.2114 0.399902 10.8288 0.399902C11.7904 0.399902 12.5977 0.679969 13.2507 1.2401C13.9037 1.80023 14.3489 2.50502 14.5863 3.35445H13.0726C12.8589 2.86202 12.5443 2.49271 12.1288 2.24649C11.7132 2.00028 11.2799 1.87717 10.8288 1.87717C10.2233 1.87717 9.70091 2.04645 9.26164 2.38499C8.82238 2.72353 8.41279 3.16979 8.03288 3.72377H7.2137C6.84566 3.16979 6.42717 2.72353 5.95822 2.38499C5.48927 2.04645 4.9758 1.87717 4.41781 1.87717C3.7411 1.87717 3.15639 2.12031 2.6637 2.60658C2.171 3.09285 1.92466 3.7053 1.92466 4.44394C1.92466 4.85019 2.00776 5.26259 2.17397 5.68115C2.34018 6.09971 2.63699 6.5829 3.06438 7.13073C3.49178 7.67855 4.07352 8.3187 4.80959 9.05118C5.54566 9.78366 6.48356 10.6669 7.62329 11.701C7.93196 11.4179 8.29406 11.0917 8.70959 10.7223C9.12512 10.353 9.45753 10.0453 9.70685 9.79905L10.7219 10.8516C10.4607 11.0978 10.1283 11.4025 9.72466 11.7657C9.321 12.1288 8.96484 12.452 8.65616 12.7351L7.62329 13.6954Z" fill="#FF5000"/>
</svg>
