<svg width="150" height="56" viewBox="0 0 150 56" fill="none" xmlns="http://www.w3.org/2000/svg">
<path d="M3.91047 53.6173L3.80819 53.0611H3.78262C3.57805 53.2886 3.32235 53.4656 3.04107 53.592C2.75979 53.7184 2.45294 53.7689 2.14609 53.7437C1.91595 53.7437 1.68582 53.7184 1.45568 53.6425C1.22554 53.5667 1.04655 53.4403 0.867553 53.2886C0.688557 53.137 0.560703 52.9347 0.45842 52.7325C0.356137 52.5303 0.330566 52.2775 0.330566 52.0499C0.330566 50.609 1.63468 49.9012 3.6292 49.9265V49.8506C3.6292 49.5473 3.47577 49.1428 2.60636 49.1428C2.06938 49.1428 1.53239 49.2945 1.04655 49.5726L0.714128 48.4603C1.40454 48.1317 2.14609 47.9547 2.91321 47.98C3.24563 47.9294 3.57805 47.9547 3.91047 48.0811C4.21732 48.1822 4.52417 48.3592 4.75431 48.5867C4.98445 48.8142 5.16344 49.0923 5.2913 49.4209C5.39358 49.7242 5.44472 50.0782 5.39358 50.4068V52.328C5.39358 52.7831 5.41915 53.2381 5.47029 53.6931L3.91047 53.6173ZM3.70591 50.9882C2.78536 50.9882 2.09495 51.1904 2.09495 51.873C2.09495 51.9741 2.09495 52.0499 2.14609 52.1511C2.17166 52.2269 2.2228 52.3027 2.29952 52.3786C2.37623 52.4291 2.45294 52.4797 2.52965 52.5303C2.60637 52.5555 2.70865 52.5808 2.81093 52.5555C3.0155 52.5555 3.19449 52.4797 3.37349 52.3786C3.52691 52.2522 3.65477 52.1005 3.73148 51.9235C3.75705 51.8224 3.75705 51.7213 3.75705 51.6202L3.70591 50.9882Z" fill="white"/>
<path d="M8.56382 45.5278H6.82501V53.6172H8.56382V45.5278Z" fill="white"/>
<path d="M15.3168 51.8225C15.3168 52.5556 15.3423 53.137 15.3679 53.6174H13.8592L13.7825 52.8337H13.757C13.578 53.1118 13.2967 53.3646 12.9898 53.5162C12.683 53.6679 12.325 53.7438 11.9926 53.7438C10.8419 53.7438 10.0236 53.0359 10.0236 51.3169V48.0559H11.788V51.0389C11.788 51.8478 12.0437 52.3281 12.6574 52.3281C12.8364 52.3281 13.041 52.2776 13.1944 52.1512C13.3478 52.05 13.4757 51.8984 13.5268 51.7214C13.578 51.595 13.6035 51.4686 13.578 51.3422V48.0559H15.3423L15.3168 51.8225Z" fill="white"/>
<path d="M22.1188 48.0559C22.0932 48.4098 22.0677 48.8648 22.0677 49.6991V52.8084C22.1188 53.2634 22.0677 53.7185 21.9143 54.1482C21.7608 54.578 21.5307 54.9824 21.2238 55.3111C20.559 55.7914 19.7663 56.0442 18.9225 55.9936C18.2321 56.0189 17.5161 55.8672 16.9024 55.5639L17.2348 54.2493C17.7206 54.5274 18.2832 54.6538 18.8458 54.6791C19.0503 54.7044 19.2549 54.6791 19.4339 54.6033C19.6129 54.5274 19.7919 54.4263 19.9197 54.2746C20.0476 54.1229 20.1754 53.9713 20.2266 53.769C20.3033 53.5921 20.3033 53.3898 20.3033 53.1876V52.8337C20.1243 53.0612 19.8942 53.2634 19.6385 53.3898C19.3827 53.5162 19.0759 53.5668 18.7946 53.5668C18.4622 53.5668 18.1298 53.4657 17.7974 53.3393C17.4905 53.1876 17.2092 52.9854 16.9791 52.7326C16.749 52.4798 16.5955 52.1764 16.4933 51.8478C16.391 51.5192 16.3654 51.1905 16.391 50.8619C16.3654 50.508 16.391 50.1288 16.4933 49.8002C16.5955 49.4463 16.7745 49.1429 17.0302 48.8649C17.2604 48.5868 17.5672 48.3593 17.8996 48.2076C18.2321 48.0559 18.5901 47.9548 18.948 47.9548C19.2549 47.9295 19.5617 48.0053 19.8175 48.1317C20.0987 48.2581 20.3289 48.4857 20.4823 48.7385H20.5079L20.559 48.0812L22.1188 48.0559ZM20.3033 50.331C20.3033 50.2299 20.3033 50.1035 20.2777 50.0024C20.2266 49.8002 20.1243 49.5979 19.9453 49.4463C19.7663 49.3199 19.5617 49.244 19.3316 49.2188C18.6923 49.2188 18.1809 49.7749 18.1809 50.7861C18.1809 51.6203 18.5901 52.2776 19.3316 52.2776C19.5362 52.2776 19.7407 52.2017 19.9197 52.0753C20.0987 51.9489 20.201 51.772 20.2522 51.5697C20.3033 51.4181 20.3033 51.2664 20.3033 51.1147V50.331Z" fill="white"/>
<path d="M28.793 51.8225C28.793 52.5556 28.8186 53.137 28.8442 53.6174H27.3355L27.2588 52.8337H27.2076C27.0286 53.1118 26.7474 53.3646 26.4405 53.5162C26.1337 53.6679 25.7757 53.7438 25.4433 53.7438C24.2926 53.7438 23.4743 53.0359 23.4743 51.3169V48.0559H25.2387V51.0389C25.2387 51.8478 25.4944 52.3281 26.1081 52.3281C26.2871 52.3281 26.4917 52.2776 26.6451 52.1512C26.7985 52.05 26.9264 51.8984 26.9775 51.7214C27.0286 51.595 27.0542 51.4686 27.0286 51.3422V48.0559H28.793V51.8225Z" fill="white"/>
<path d="M31.58 51.3928C31.6311 52.1007 32.3471 52.4546 33.1654 52.4546C33.7024 52.4546 34.2138 52.3787 34.7252 52.2271L34.9553 53.3899C34.3161 53.6174 33.6257 53.7438 32.9097 53.7185C32.5261 53.7691 32.117 53.7185 31.7334 53.5922C31.3499 53.4658 31.0174 53.2635 30.7362 52.9854C30.4549 52.7074 30.2247 52.3787 30.0713 52.0248C29.9179 51.6709 29.8667 51.2665 29.8923 50.8873C29.8667 50.5081 29.9179 50.1289 30.0457 49.7497C30.1736 49.3958 30.3782 49.0671 30.6594 48.7891C30.9151 48.511 31.2476 48.2835 31.6056 48.1318C31.9635 47.9801 32.3471 47.9043 32.7307 47.9043C33.0887 47.9043 33.4467 47.9801 33.7791 48.1065C34.1115 48.2582 34.3928 48.4604 34.6229 48.7132C34.853 48.966 35.032 49.2947 35.1343 49.6233C35.2366 49.9519 35.2622 50.3058 35.2366 50.6597C35.2366 50.8873 35.211 51.1148 35.1855 51.3423L31.58 51.3928ZM33.6257 50.2047C33.6512 50.0783 33.6257 49.9266 33.6001 49.8002C33.5489 49.6738 33.4978 49.5475 33.3955 49.4463C33.2932 49.3452 33.1909 49.2441 33.0631 49.1935C32.9352 49.143 32.8074 49.0924 32.654 49.0924C32.3727 49.1177 32.0914 49.2441 31.8868 49.4463C31.6823 49.6486 31.58 49.9266 31.58 50.23H33.6257V50.2047Z" fill="white"/>
<path d="M38.0756 45.5278H36.3368V53.6172H38.0756V45.5278Z" fill="white"/>
<path d="M47.3087 45.5278V51.9488C47.3087 52.5808 47.3343 53.238 47.3599 53.6172H45.8L45.7233 52.8083H45.6978C45.5188 53.1116 45.2631 53.3644 44.9562 53.5161C44.6494 53.693 44.2914 53.7689 43.9334 53.7436C43.5754 53.7183 43.243 53.6172 42.9361 53.4655C42.6293 53.3139 42.348 53.0864 42.1178 52.8336C41.8877 52.5555 41.7343 52.2521 41.632 51.9235C41.5297 51.5949 41.5042 51.241 41.5297 50.887C41.4786 50.5331 41.5042 50.1539 41.6064 49.8C41.7087 49.4461 41.8877 49.1175 42.1178 48.8394C42.348 48.5614 42.6548 48.3338 42.9873 48.1822C43.3197 48.0305 43.6777 47.9294 44.0357 47.9041C44.3169 47.8788 44.5982 47.9294 44.8539 48.0305C45.1096 48.1316 45.3398 48.3086 45.5188 48.5361H45.5443V45.5278H47.3087ZM45.5699 50.4067C45.5699 50.3056 45.5699 50.2045 45.5443 50.0781C45.4932 49.8506 45.3653 49.6231 45.1863 49.4714C45.0073 49.3197 44.7516 49.2186 44.5215 49.2186C43.7288 49.2186 43.3197 49.9264 43.3197 50.7859C43.3197 51.7213 43.8055 52.328 44.5215 52.328C44.7516 52.328 45.0073 52.2521 45.1863 52.1005C45.3653 51.9488 45.4932 51.7465 45.5443 51.4937C45.5699 51.3673 45.5955 51.241 45.5955 51.0893V50.4067H45.5699Z" fill="white"/>
<path d="M50.0913 51.3931C50.1424 52.1009 50.8584 52.4548 51.6767 52.4548C52.2137 52.4548 52.7251 52.379 53.2365 52.2273L53.4666 53.3901C52.8274 53.6177 52.1369 53.7441 51.421 53.7188C51.0374 53.7693 50.6283 53.7188 50.2447 53.5924C49.8611 53.466 49.5287 53.2638 49.2474 52.9857C48.9662 52.7076 48.736 52.379 48.5826 52.0251C48.4292 51.6712 48.378 51.2667 48.4036 50.8875C48.378 50.5083 48.4292 50.1291 48.557 49.7499C48.6849 49.396 48.8895 49.0674 49.1707 48.7893C49.4264 48.5112 49.7589 48.2837 50.1169 48.1321C50.4748 47.9804 50.8584 47.9045 51.242 47.9045C51.6 47.9045 51.9579 47.9804 52.2904 48.1068C52.6228 48.2585 52.9041 48.4607 53.1342 48.7135C53.3643 48.9663 53.5433 49.2949 53.6456 49.6235C53.7479 49.9522 53.7735 50.3061 53.7479 50.66C53.7479 50.8875 53.7223 51.115 53.6968 51.3425L50.0913 51.3931ZM52.1369 50.205C52.1625 50.0786 52.1369 49.9269 52.1114 49.8005C52.0602 49.6741 52.0091 49.5477 51.9068 49.4466C51.8045 49.3455 51.7022 49.2443 51.5744 49.1938C51.4465 49.1432 51.3187 49.0927 51.1653 49.0927C50.884 49.118 50.6027 49.2443 50.3981 49.4466C50.1936 49.6488 50.0913 49.9269 50.0913 50.2302H52.1369V50.205Z" fill="white"/>
<path d="M61.4219 53.4904C60.9105 53.6673 60.3991 53.7432 59.8621 53.7432C59.4785 53.7685 59.0694 53.7432 58.7114 53.5915C58.3278 53.4651 57.9954 53.2629 57.7141 52.9848C57.4329 52.7067 57.2027 52.3781 57.0749 52.0242C56.9214 51.6703 56.8703 51.2658 56.8959 50.8866C56.8959 50.4821 56.9726 50.0777 57.126 49.6732C57.2794 49.294 57.5351 48.9401 57.842 48.662C58.1488 48.384 58.5068 48.1817 58.916 48.03C59.2995 47.9037 59.7342 47.8531 60.1434 47.9037C60.6036 47.9037 61.0383 47.9795 61.473 48.1312L61.1918 49.4204C60.8849 49.294 60.5525 49.2435 60.2201 49.2435C59.8109 49.2687 59.4274 49.4457 59.1461 49.7238C58.8648 50.0271 58.7114 50.4063 58.7114 50.8108C58.7114 51.2152 58.8648 51.5944 59.1717 51.8725C59.4529 52.1506 59.8365 52.3275 60.2456 52.3528C60.5781 52.3528 60.936 52.3022 61.2429 52.1759L61.4219 53.4904Z" fill="white"/>
<path d="M65.6417 53.6173L65.5394 53.0611H65.5138C65.3093 53.2886 65.0536 53.4656 64.7723 53.592C64.491 53.7184 64.1842 53.7689 63.8773 53.7437C63.6472 53.7437 63.417 53.7184 63.1869 53.6425C62.9568 53.5667 62.7778 53.4403 62.5988 53.2886C62.4198 53.137 62.2919 52.9347 62.1897 52.7325C62.0874 52.5303 62.0618 52.2775 62.0618 52.0499C62.0618 50.609 63.3659 49.9012 65.3604 49.9265V49.8506C65.3604 49.5473 65.207 49.1428 64.3376 49.1428C63.8006 49.1428 63.2636 49.2945 62.7778 49.5726L62.4454 48.4603C63.1358 48.1317 63.8773 47.9547 64.6444 47.98C64.9769 47.9294 65.3093 47.9547 65.6417 48.0811C65.9486 48.1822 66.2554 48.3592 66.4855 48.5867C66.7157 48.8142 66.8947 49.0923 67.0225 49.4209C67.1248 49.7242 67.176 50.0782 67.1248 50.4068V52.328C67.1248 52.7831 67.1504 53.2381 67.2015 53.6931L65.6417 53.6173ZM65.4371 50.9882C64.5166 50.9882 63.8262 51.1904 63.8262 51.873C63.8262 51.9741 63.8262 52.0499 63.8773 52.1511C63.9029 52.2269 63.954 52.3027 64.0307 52.3786C64.1075 52.4291 64.1842 52.4797 64.2609 52.5303C64.3376 52.5555 64.4399 52.5808 64.5422 52.5555C64.7467 52.5555 64.9257 52.4797 65.1047 52.3786C65.2581 52.2522 65.386 52.1005 65.4627 51.9235C65.4883 51.8224 65.4883 51.7213 65.4883 51.6202L65.4371 50.9882Z" fill="white"/>
<path d="M68.5539 49.8761C68.5539 49.0671 68.5283 48.511 68.5028 48.0559H70.0115L70.0626 49.0924H70.1137C70.216 48.7638 70.4206 48.4857 70.6763 48.2835C70.9576 48.0812 71.29 47.9548 71.6224 47.9548C71.7503 47.9548 71.8781 47.9548 71.9804 47.9801V49.598C71.827 49.5727 71.6735 49.5474 71.5201 49.5474C71.2388 49.5221 70.9831 49.598 70.753 49.7497C70.5229 49.9013 70.3694 50.1541 70.3183 50.4069C70.2927 50.5333 70.2927 50.6597 70.2927 50.7861V53.6174H68.5539V49.8761Z" fill="white"/>
<path d="M72.9289 49.8761C72.9289 49.0671 72.9033 48.511 72.8778 48.0559H74.3865L74.4376 49.0924H74.4887C74.591 48.7638 74.7956 48.4857 75.0513 48.2835C75.3326 48.0812 75.665 47.9548 75.9974 47.9548C76.1253 47.9548 76.2531 47.9548 76.3554 47.9801V49.598C76.202 49.5727 76.0485 49.5474 75.8951 49.5474C75.6138 49.5221 75.3581 49.598 75.128 49.7497C74.8979 49.9013 74.7444 50.1541 74.6933 50.4069C74.6677 50.5333 74.6677 50.6597 74.6677 50.7861V53.6174H72.9289V49.8761Z" fill="white"/>
<path d="M82.7977 50.7606C82.8233 51.1651 82.7721 51.5443 82.6187 51.9235C82.4909 52.3026 82.2607 52.6313 81.9794 52.9094C81.6982 53.1874 81.3657 53.4149 80.9822 53.5413C80.5986 53.693 80.2151 53.7436 79.8059 53.7183C79.4224 53.7436 79.0388 53.693 78.6552 53.5413C78.2973 53.4149 77.9648 53.1874 77.6835 52.9346C77.4023 52.6566 77.1977 52.3279 77.0443 51.974C76.9164 51.6201 76.8397 51.2409 76.8653 50.8364C76.8397 50.432 76.8909 50.0528 77.0443 49.6736C77.1977 49.2944 77.4023 48.9658 77.6835 48.6877C77.9648 48.4096 78.2972 48.1821 78.6808 48.0557C79.0644 47.9293 79.4479 47.8535 79.8571 47.8788C80.2406 47.8535 80.6242 47.904 80.9822 48.0557C81.3402 48.1821 81.6726 48.4096 81.9539 48.6624C82.2351 48.9405 82.4397 49.2439 82.5676 49.5978C82.7721 50.0022 82.8233 50.3814 82.7977 50.7606ZM78.732 50.8364C78.732 51.7971 79.1411 52.5049 79.8826 52.5049C80.573 52.5049 81.0077 51.8223 81.0077 50.8364C81.0077 50.0022 80.6753 49.168 79.8826 49.168C79.0899 49.1427 78.732 50.0022 78.732 50.8364Z" fill="white"/>
<path d="M83.8985 52.1006C84.3588 52.3534 84.8702 52.5051 85.4072 52.5304C85.9442 52.5304 86.1488 52.3534 86.1488 52.0754C86.1488 51.7973 85.9698 51.6456 85.3305 51.4434C84.1798 51.0642 83.7195 50.4322 83.7451 49.7749C83.7451 48.7385 84.6401 47.9548 86.0209 47.9548C86.5579 47.9548 87.1204 48.0559 87.6063 48.2835L87.2739 49.4716C86.8903 49.2694 86.4812 49.1682 86.0465 49.143C85.6118 49.143 85.3816 49.3199 85.3816 49.598C85.3816 49.8761 85.5862 50.0025 86.3022 50.23C87.3762 50.5839 87.8109 51.14 87.8364 51.949C87.8364 52.9854 87.0182 53.7438 85.4072 53.7438C84.7679 53.7691 84.1542 53.6174 83.5917 53.3646L83.8985 52.1006Z" fill="white"/>
<path fill-rule="evenodd" clip-rule="evenodd" d="M115.939 27.5291C115.965 28.0347 115.914 28.5403 115.837 29.0459C115.683 29.9306 115.249 30.7143 114.558 31.2957C113.868 31.8771 112.999 32.1805 112.104 32.1552C111.464 32.1552 110.851 32.0288 110.262 31.776C109.674 31.5232 109.163 31.144 108.754 30.6637C108.345 30.1834 108.012 29.6273 107.833 29.0459C107.654 28.4392 107.603 27.8072 107.68 27.2005C107.68 24.445 109.086 22.094 112.155 22.094C113.05 22.094 113.919 22.3974 114.61 22.9788C115.3 23.535 115.76 24.3439 115.914 25.2034C115.965 25.532 115.965 25.8607 115.965 26.1893L115.939 27.5291ZM115.939 6.47144V17.9988H115.837C115.044 17.2151 114.098 16.6337 113.024 16.2545C111.976 15.8753 110.851 15.7489 109.725 15.8753C108.217 15.8753 106.759 16.204 105.378 16.8107C104.023 17.4174 102.77 18.2769 101.773 19.3639C100.75 20.4509 99.983 21.7401 99.4972 23.1305C99.0113 24.5209 98.8068 26.0123 98.9346 27.4785C98.8068 28.8942 98.9858 30.3098 99.446 31.6749C99.9063 33.0147 100.622 34.2534 101.594 35.3151C102.566 36.3769 103.716 37.2111 105.02 37.8178C106.325 38.3992 107.731 38.7278 109.189 38.7531C110.646 38.829 112.104 38.5509 113.408 37.8936C114.712 37.2364 115.811 36.2757 116.63 35.0623H116.706L117.039 38.2222H124.659C124.582 37.0594 124.48 34.1776 124.48 31.3463V6.47144H115.939Z" fill="white"/>
<path fill-rule="evenodd" clip-rule="evenodd" d="M140.742 29.5264C140.768 29.9308 140.716 30.3353 140.64 30.7398C140.435 31.3717 140.026 31.9532 139.489 32.3576C138.952 32.7621 138.287 32.9896 137.622 33.0149C136.037 33.0149 135.168 32.3071 135.168 31.0431C135.168 29.2483 136.957 28.3129 140.716 28.3129V29.5264H140.742ZM148.976 25.4058C148.976 19.5157 145.728 15.7239 138.083 15.7239C134.733 15.6227 131.409 16.3306 128.366 17.7715L129.849 23.0549C131.92 21.9678 134.221 21.3864 136.574 21.3106C139.924 21.3106 140.461 22.2965 140.461 23.1054V23.2318C132.048 23.2318 126.729 25.962 126.729 31.852C126.755 32.8127 126.985 33.7733 127.394 34.6581C127.803 35.5428 128.391 36.3265 129.107 36.9585C129.823 37.6157 130.693 38.096 131.613 38.4247C132.534 38.728 133.531 38.8544 134.503 38.7786C135.704 38.8544 136.906 38.6775 138.031 38.273C139.157 37.8432 140.179 37.2113 141.023 36.3518H141.202L141.662 38.2224H149.334C149.052 36.4276 148.95 34.5822 148.976 32.7621V25.4058Z" fill="white"/>
<path fill-rule="evenodd" clip-rule="evenodd" d="M0.178995 23.5349C0.178995 20.4003 0.102283 17.847 0 15.9005H7.0831L7.41552 18.7065H7.59452C8.38721 17.6195 9.41004 16.7347 10.6374 16.1533C11.8393 15.5719 13.1945 15.2938 14.5498 15.3697C15.8539 15.2938 17.158 15.5972 18.3087 16.2544C19.4594 16.9117 20.3543 17.8976 20.9169 19.0604H21.0192C21.9142 17.9229 23.0393 16.9623 24.3178 16.305C25.6219 15.6477 27.0539 15.3444 28.5114 15.3697C33.421 15.3697 36.5918 18.7571 36.5918 25.2033V37.8935H28.3836V26.442C28.3836 23.5854 27.3863 22.0687 25.4685 22.0687C24.8548 22.0687 24.2667 22.2456 23.7552 22.6248C23.2694 22.9787 22.9114 23.5096 22.7324 24.091C22.579 24.6472 22.5023 25.2033 22.5023 25.7847V37.8935H14.2941V26.442C14.2941 23.5854 13.2968 22.0687 11.379 22.0687C10.7653 22.0687 10.2027 22.2709 9.71689 22.6248C9.23105 22.9787 8.87306 23.4843 8.69406 24.0405C8.51507 24.5713 8.43836 25.1275 8.46393 25.6836V37.8683H0.178995V23.5349Z" fill="white"/>
<path fill-rule="evenodd" clip-rule="evenodd" d="M50.9635 32.5347C48.2018 32.5347 46.9489 30.0068 46.9489 26.8722C46.9489 24.0156 48.0484 21.2096 51.0146 21.2096C53.7251 21.2096 54.9014 23.8134 54.9014 26.8722C54.9014 30.5377 53.4438 32.5347 51.0146 32.5347H50.9635ZM50.8868 38.3995C58.021 38.3995 63.8511 34.1273 63.8511 26.5941C63.8511 25.0268 63.5187 23.4847 62.8795 22.0438C62.2402 20.6029 61.2941 19.3137 60.1178 18.2772C58.9416 17.2155 57.5607 16.4065 56.0521 15.9262C54.5434 15.4206 52.958 15.2437 51.3726 15.3701C42.832 15.3701 38.1014 20.3754 38.1014 27.0744C38.1014 34.3043 43.9571 38.4248 50.8356 38.4248L50.8868 38.3995Z" fill="white"/>
<path fill-rule="evenodd" clip-rule="evenodd" d="M71.8265 15.9006L74.6137 25.4057C75.074 26.973 75.432 28.5656 75.7133 30.1834H75.8922C76.1735 28.5908 76.4292 27.0994 76.8639 25.4057L79.3954 15.9006H88.5242L79.7534 37.8684H70.9827L62.5187 15.9006H71.8265Z" fill="white"/>
<path fill-rule="evenodd" clip-rule="evenodd" d="M100.825 42.1656C97.5264 37.9187 95.7364 32.6859 95.7364 27.3267C95.3784 21.5377 97.194 15.7993 100.876 11.2743L94.7903 8.03857C90.6734 13.6253 88.6022 20.4254 88.9346 27.3267C88.9346 33.8235 90.9803 40.1433 94.7903 45.4014L100.825 42.1656Z" fill="white"/>
<path fill-rule="evenodd" clip-rule="evenodd" d="M105.25 4.32276C105.25 5.18226 104.994 6.01648 104.508 6.74958C104.023 7.4574 103.332 8.01354 102.539 8.34217C101.747 8.6708 100.852 8.74664 100.008 8.59497C99.1641 8.41801 98.3714 8.01355 97.7577 7.40684C97.144 6.80014 96.7349 6.01648 96.5559 5.18226C96.3769 4.34804 96.4792 3.46327 96.8116 2.67961C97.144 1.89595 97.7066 1.21341 98.4226 0.733098C99.1385 0.252792 100.008 0 100.877 0C102.028 0 103.153 0.455028 103.971 1.26397C104.79 2.0729 105.25 3.18519 105.25 4.32276Z" fill="white"/>
</svg>
