<svg width="81" height="35" viewBox="0 0 81 35" fill="none" xmlns="http://www.w3.org/2000/svg">
<g clip-path="url(#clip0_8388_398326)">
<path d="M21.0776 18.2057C20.851 20.8038 20.7549 25.6324 23.9566 26.7195C25.9845 27.4066 28.8645 26.8573 30.9698 26.8573C32.6165 26.8573 36.9533 27.6395 36.7382 24.7615C36.5116 21.7415 31.8699 20.5939 29.5788 21.1181C23.7634 22.4485 22.7619 31.5095 28.2463 33.976C29.517 34.5436 30.9364 34.6876 32.2952 34.3867C33.6539 34.0859 34.8799 33.3561 35.7921 32.3052C37.3094 30.4088 37.0107 27.5716 40.0276 27.4922C46.4957 27.322 52.9899 27.4922 59.4611 27.4922L58.7468 26.9482C59.5196 31.2296 62.3704 35.7199 67.3003 34.7894C69.8409 34.307 71.4167 32.1673 72.1529 29.8136C72.3617 29.1463 72.391 28.0634 73.123 27.7815C73.5842 27.7859 74.0441 27.8286 74.4983 27.9089C75.319 27.8457 76.1313 27.7006 76.923 27.4755C79.0909 26.9325 79.9837 25.859 80.32 23.592C80.6323 21.2503 80.5372 18.8723 80.0391 16.5631C79.5911 14.4746 77.6373 13.6298 75.7409 13.0492C72.8431 12.1626 69.7887 11.9924 66.8878 11.0651C64.9256 10.4386 63.8929 9.39433 62.2638 8.09111C60.4327 6.60063 58.4841 5.26067 56.4369 4.08432C54.8529 3.09353 53.1236 2.35678 51.3117 1.9008C50.3792 1.72119 49.9803 3.1539 50.917 3.33142C55.5034 4.2159 59.8746 7.92612 63.2611 10.85C66.5682 13.7029 71.5848 13.2361 75.5739 14.5456C78.0059 15.3434 78.6022 16.3772 78.8319 18.7226C79.0178 20.6221 79.6151 24.6049 77.653 25.7295C76.6568 26.1669 75.5839 26.4026 74.4962 26.4229C73.7527 26.4469 72.9591 26.0982 72.2323 26.3853C70.9269 26.9012 71.0188 28.6158 70.6105 29.7509C69.8002 32.0076 67.9644 33.7034 65.4561 33.3943C62.0581 32.9766 60.7079 29.5035 60.1753 26.5524C60.1314 26.3965 60.038 26.2592 59.9091 26.161C59.7803 26.0629 59.623 26.0093 59.4611 26.0083H45.5485C42.3824 26.0083 37.1945 24.9338 35.7796 28.7234C34.752 31.4625 33.3465 33.5781 29.8555 32.9401C28.6603 32.6249 27.6175 31.8918 26.9165 30.8737C26.2155 29.8556 25.9026 28.62 26.0346 27.3909C26.1255 26.1003 26.6844 24.8873 27.6064 23.9795C28.5283 23.0718 29.7499 22.5319 31.0418 22.461C31.7343 22.4316 32.4243 22.5613 33.0589 22.8403C33.6934 23.1193 34.2555 23.54 34.7019 24.0702C35.8506 25.6867 34.4847 25.3818 33.3099 25.3818C30.574 25.3818 27.4548 25.8141 24.7544 25.3818C24.3352 25.2961 23.9554 25.0762 23.6725 24.7553C22.1187 23.1429 22.3839 20.2211 22.5604 18.2078C22.6429 17.2575 21.1601 17.268 21.0776 18.2078" fill="#FF5000"/>
<path fill-rule="evenodd" clip-rule="evenodd" d="M42.0151 3.08301V7.27358H41.9828C41.7019 6.98914 41.3603 6.77181 40.9837 6.63783C40.607 6.50384 40.205 6.45666 39.8076 6.49979C39.2713 6.50605 38.7421 6.62256 38.2528 6.84208C37.7636 7.06159 37.3247 7.37942 36.9635 7.77579C36.6022 8.17216 36.3264 8.63861 36.1532 9.14612C35.9799 9.65364 35.9129 10.1914 35.9564 10.7259C35.9105 11.2382 35.9703 11.7545 36.132 12.2429C36.2937 12.7312 36.5539 13.1811 36.8965 13.5649C37.2391 13.9486 37.6568 14.2579 38.1238 14.4737C38.5907 14.6894 39.097 14.8071 39.6113 14.8193C40.1307 14.85 40.6491 14.7423 41.1134 14.5073C41.5777 14.2723 41.9713 13.9184 42.2543 13.4816H42.2866L42.3994 14.6303H45.1228C45.0904 14.2126 45.0591 13.1632 45.0591 12.1325V3.08301H42.0151ZM42.0151 10.7363C42.0203 10.92 42.0095 11.1038 41.9828 11.2856C41.9309 11.6021 41.7676 11.8897 41.5223 12.0963C41.2769 12.303 40.9658 12.4151 40.6451 12.4123C40.4179 12.4126 40.1934 12.3642 39.9865 12.2705C39.7796 12.1767 39.5952 12.0398 39.4456 11.8689C39.296 11.6979 39.1848 11.497 39.1193 11.2795C39.0539 11.062 39.0358 10.833 39.0662 10.6079C39.0662 9.60853 39.5664 8.75537 40.6618 8.75537C40.9819 8.75543 41.2918 8.86865 41.5365 9.07502C41.7813 9.28138 41.9453 9.56762 41.9995 9.88316C42.0131 10.0013 42.0187 10.1203 42.0162 10.2393L42.0151 10.7363Z" fill="#FF5000"/>
<path fill-rule="evenodd" clip-rule="evenodd" d="M53.8389 9.9961C53.8389 7.86896 52.6787 6.49995 49.9564 6.49995C48.7589 6.46676 47.5709 6.72062 46.4915 7.24033L47.0241 9.1419C47.7667 8.75322 48.5881 8.53894 49.4259 8.51536C50.6184 8.51536 50.8116 8.8704 50.8116 9.15966V9.20874C47.8156 9.20874 45.9141 10.1914 45.9141 12.3185C45.9235 12.667 46.0037 13.0099 46.1497 13.3265C46.2958 13.643 46.5047 13.9265 46.7637 14.1599C47.0227 14.3932 47.3264 14.5714 47.6564 14.6837C47.9864 14.796 48.3358 14.8401 48.6834 14.8132C49.1098 14.8421 49.5374 14.7791 49.9373 14.6285C50.3373 14.4779 50.7002 14.2432 51.0017 13.9402H51.0664L51.2272 14.6169H53.9663C53.8662 13.9668 53.8232 13.3092 53.8378 12.6516L53.8389 9.9961ZM50.9056 11.4789C50.9112 11.6245 50.9004 11.7702 50.8732 11.9133C50.8007 12.1454 50.6579 12.3492 50.4644 12.4965C50.2709 12.6437 50.0364 12.7271 49.7934 12.7352C49.2306 12.7352 48.9236 12.4783 48.9236 12.0261C48.9236 11.3818 49.5668 11.0445 50.9077 11.0445L50.9056 11.4789Z" fill="#FF5000"/>
<path fill-rule="evenodd" clip-rule="evenodd" d="M0.565788 9.29307C0.565788 8.16424 0.533416 7.24634 0.5 6.53729H3.03022L3.143 7.55231H3.20356C3.48224 7.15758 3.85627 6.83979 4.29082 6.62854C4.72538 6.41729 5.20633 6.31944 5.68888 6.34411C6.15771 6.3159 6.6243 6.42811 7.02905 6.66638C7.4338 6.90465 7.75832 7.25818 7.96117 7.68179H7.99354C8.30897 7.26684 8.71091 6.92548 9.17145 6.6814C9.63623 6.44908 10.1504 6.33298 10.67 6.34306C12.4264 6.34306 13.5542 7.56692 13.5542 9.88829V14.4642H10.6177V10.3394C10.6177 9.30873 10.2637 8.76155 9.57349 8.76155C9.35525 8.76004 9.14253 8.83009 8.9679 8.96098C8.79326 9.09186 8.66632 9.27637 8.60651 9.48626C8.55171 9.68515 8.52569 9.89087 8.52924 10.0971V14.4642H5.59281V10.3394C5.59281 9.30873 5.23776 8.76155 4.54856 8.76155C4.33361 8.76372 4.12474 8.83318 3.9513 8.96017C3.77786 9.08716 3.64857 9.26529 3.58158 9.46955C3.51751 9.66148 3.49023 9.86377 3.50117 10.0658V14.4642H0.565788V9.29307Z" fill="#FF5000"/>
<path fill-rule="evenodd" clip-rule="evenodd" d="M18.7126 14.6575C21.2585 14.6575 23.3355 13.111 23.3355 10.4043C23.3355 8.02026 21.5154 6.34424 18.8901 6.34424C15.844 6.34424 14.1523 8.1487 14.1523 10.5651C14.1523 13.1757 16.2314 14.6575 18.6969 14.6575H18.7126ZM18.745 12.5471C17.7623 12.5471 17.3112 11.6292 17.3112 10.5014C17.3112 9.46968 17.6976 8.45467 18.7617 8.45467C19.7276 8.45467 20.1474 9.38823 20.1474 10.5014C20.1474 11.8213 19.6315 12.5471 18.7617 12.5471H18.745Z" fill="#FF5000"/>
<path fill-rule="evenodd" clip-rule="evenodd" d="M26.221 6.53711L27.2203 9.96956C27.3823 10.5363 27.5113 11.1119 27.6067 11.6936H27.6714C27.7675 11.113 27.8646 10.5825 28.0254 9.96956L28.9277 6.53711H32.1826L29.0572 14.4651H25.9307L22.9023 6.53711H26.221Z" fill="#FF5000"/>
<path fill-rule="evenodd" clip-rule="evenodd" d="M36.5962 16.0367C35.4172 14.5035 34.779 12.6231 34.7813 10.6891C34.653 8.59837 35.3032 6.53419 36.6067 4.89452L34.4367 3.72705C32.9671 5.74171 32.2302 8.19815 32.3482 10.6891C32.3434 13.03 33.0739 15.3133 34.4367 17.2167L36.5962 16.0367Z" fill="#FF5000"/>
<path fill-rule="evenodd" clip-rule="evenodd" d="M38.1796 2.31637C38.1796 2.62617 38.0878 2.92902 37.9156 3.18661C37.7435 3.4442 37.4989 3.64496 37.2127 3.76352C36.9265 3.88207 36.6115 3.91309 36.3077 3.85265C36.0038 3.79221 35.7247 3.64303 35.5057 3.42397C35.2866 3.20491 35.1374 2.92581 35.077 2.62196C35.0165 2.31811 35.0476 2.00317 35.1661 1.71695C35.2847 1.43073 35.4854 1.1861 35.743 1.01398C36.0006 0.841866 36.3035 0.75 36.6133 0.75C37.0287 0.75 37.4271 0.915028 37.7209 1.20878C38.0146 1.50253 38.1796 1.90095 38.1796 2.31637Z" fill="#FF5000"/>
<path d="M43.2005 20.9103C43.1785 20.3297 43.1577 19.629 43.1577 18.9263H43.141C42.9906 19.5424 42.7901 20.2295 42.6032 20.7955L42.0163 22.6751H41.1569L40.641 20.807C40.4833 20.241 40.3183 19.5539 40.2035 18.9273H40.1889C40.1607 19.5789 40.1387 20.3235 40.1032 20.9249L40.0176 22.7576H39.0078L39.3159 17.9321H40.7695L41.2415 19.5434C41.3918 20.1021 41.5422 20.7025 41.6498 21.2685H41.679C41.8148 20.7098 41.9797 20.0728 42.1374 19.5361L42.6533 17.9321H44.0787L44.3439 22.7576H43.2725L43.2005 20.9103Z" fill="#1A1818"/>
<path d="M48.0475 20.7171H46.2722V21.8658H48.2563V22.7607H45.1758V17.9321H48.155V18.8271H46.2754V19.8295H48.0506L48.0475 20.7171Z" fill="#1A1818"/>
<path d="M49 22.7571V17.9316H50.2792L51.2817 19.6996C51.58 20.2331 51.843 20.7857 52.0691 21.3536H52.091C52.0222 20.6855 51.9911 20.014 51.998 19.3424V17.9316H53.0005V22.7571H51.8456L50.8139 20.8952C50.5053 20.3424 50.2265 19.7735 49.9785 19.191L49.9565 19.1983C49.9847 19.8353 49.9993 20.5162 49.9993 21.3035V22.7571H49Z" fill="#1A1818"/>
<path d="M53.9753 21.6328C54.3508 21.8233 54.7646 21.9261 55.1856 21.9335C55.6868 21.9335 55.951 21.7247 55.951 21.4114C55.951 21.0981 55.7223 20.9394 55.1428 20.7316C54.3408 20.4517 53.8176 20.0079 53.8176 19.3062C53.8176 18.4833 54.5047 17.8526 55.643 17.8526C56.0664 17.8446 56.4866 17.9276 56.8752 18.0959L56.6319 18.9772C56.317 18.8252 55.9717 18.7469 55.6221 18.7485C55.1501 18.7485 54.9203 18.9626 54.9203 19.2132C54.9203 19.5265 55.1918 19.657 55.8153 19.8941C56.6674 20.2074 57.0684 20.6532 57.0684 21.3331C57.0684 22.1424 56.4418 22.8295 55.1208 22.8295C54.649 22.8353 54.1818 22.735 53.7539 22.536L53.9753 21.6328Z" fill="#1A1818"/>
<path d="M58.9315 21.5191L58.588 22.7576H57.457L58.9315 17.9321H60.3642L61.8606 22.7576H60.6858L60.3172 21.5191H58.9315ZM60.1554 20.7025L59.8546 19.6792C59.768 19.393 59.6823 19.0349 59.6113 18.7487H59.5967C59.5246 19.0349 59.4536 19.4003 59.3743 19.6792L59.0881 20.7025H60.1554Z" fill="#1A1818"/>
<path d="M62.5039 17.9321H63.5993V21.8408H65.5186V22.7576H62.5039V17.9321Z" fill="#1A1818"/>
<path d="M66.8828 22.691L67.3799 20.0532H66.9716L67.053 19.6439H67.4624L67.4812 19.5123C67.5384 19.0943 67.7495 18.7126 68.0733 18.442C68.3474 18.2472 68.6769 18.1457 69.0131 18.1527C69.3035 18.1468 69.5908 18.214 69.8485 18.348L69.0235 22.6921H68.5014L69.2689 18.6571C69.1437 18.5963 69.0046 18.5699 68.8658 18.5808C68.3625 18.5808 68.0983 18.9714 68.0033 19.481L67.9709 19.6449H68.6131L68.5317 20.0543H67.8895L67.3924 22.6921L66.8828 22.691ZM72.1396 22.5145C71.8289 22.677 71.4825 22.7592 71.1319 22.7537C70.9717 22.7637 70.8112 22.7385 70.6618 22.6798C70.5124 22.6212 70.3777 22.5304 70.2672 22.414C70.1567 22.2976 70.073 22.1584 70.0222 22.0062C69.9713 21.8539 69.9544 21.6924 69.9728 21.5329C69.9517 21.057 70.1114 20.5908 70.4197 20.2277C70.728 19.8646 71.1622 19.6314 71.6352 19.575C71.7465 19.5605 71.8597 19.5698 71.9671 19.6023C72.0746 19.6349 72.1738 19.69 72.2584 19.7638C72.3429 19.8377 72.4108 19.9287 72.4575 20.0308C72.5041 20.1329 72.5285 20.2438 72.5291 20.3561C72.5291 21.156 71.6289 21.369 70.5022 21.3502C70.4776 21.5456 70.4991 21.7441 70.5648 21.9298C70.6227 22.0593 70.7188 22.1681 70.8404 22.2413C70.962 22.3145 71.1031 22.3486 71.2447 22.3391C71.5308 22.3393 71.8123 22.2675 72.0633 22.1302L72.1396 22.5145ZM71.56 19.9833C71.063 19.9833 70.6912 20.4678 70.5648 20.9461C71.3835 20.9523 72.0268 20.8416 72.0268 20.3738C72.0258 20.1222 71.8367 19.9833 71.56 19.9833ZM73.5806 19.6428L73.8772 20.3112C73.9587 20.5064 74.0213 20.6568 74.0787 20.7957H74.0975C74.2166 20.6255 74.2803 20.5252 74.4307 20.3362L74.9914 19.6439H75.596L74.3116 21.1299L75.029 22.6962H74.462L74.1487 22.0102C74.0443 21.7836 74.0046 21.6645 73.9284 21.4682H73.9158C73.8219 21.6133 73.7331 21.7512 73.6026 21.9339L72.9854 22.6952H72.3808L73.7153 21.1288L73.0105 19.6491L73.5806 19.6428Z" fill="#1A1818"/>
</g>
<defs>
<clipPath id="clip0_8388_398326">
<rect width="80" height="34.1606" fill="white" transform="translate(0.5 0.748047)"/>
</clipPath>
</defs>
</svg>
