<svg width="81" height="26" viewBox="0 0 81 26" fill="none" xmlns="http://www.w3.org/2000/svg">
<path d="M64.549 6.5V12.1051H64.507C63.9362 11.3495 62.7946 11.0703 61.543 11.0703C58.7776 11.0703 56.2752 13.1819 56.297 16.7166C56.297 20.252 58.7558 22.1925 61.2805 22.1925C62.6186 22.1925 64.0677 21.7388 64.88 20.4034H64.922L65.0757 21.9339H68.7849C68.7429 21.3734 68.6971 19.972 68.6971 18.5932V6.5H64.549ZM64.549 16.7384C64.5569 16.9839 64.5429 17.2295 64.507 17.4726C64.4369 17.8961 64.2147 18.2809 63.8807 18.5575C63.5466 18.8341 63.1228 18.9841 62.6858 18.9804C61.4334 18.9804 60.5333 18.0966 60.5333 16.5668C60.5333 15.2301 61.2137 14.0864 62.7068 14.0864C63.1432 14.0858 63.5657 14.237 63.8993 14.5133C64.2329 14.7896 64.4559 15.173 64.5289 15.5955C64.5471 15.7533 64.5544 15.912 64.5507 16.0707L64.549 16.7384Z" fill="#FF5000"/>
<path d="M80.6579 15.7478C80.6579 12.902 79.0762 11.0708 75.3679 11.0708C73.7366 11.0263 72.1182 11.3657 70.6477 12.0606L71.3723 14.6045C72.3831 14.0837 73.5015 13.7961 74.6425 13.7636C76.2671 13.7636 76.5326 14.2379 76.5326 14.626V14.6907C72.45 14.6907 69.8594 16.0048 69.8594 18.8506C69.8594 20.5754 71.2643 22.1914 73.6357 22.1914C74.8651 22.1914 76.0067 21.8907 76.7963 21.0271H76.8841L77.1038 21.9344H80.8352C80.699 21.0644 80.6405 20.1843 80.6604 19.3043V15.7478H80.6579ZM76.6623 17.73C76.671 17.9254 76.6569 18.121 76.6203 18.3132C76.5215 18.6233 76.3269 18.8956 76.0636 19.0924C75.8002 19.2892 75.481 19.4007 75.1503 19.4115C74.3829 19.4115 73.9646 19.0667 73.9646 18.4629C73.9646 17.6005 74.8416 17.1489 76.6649 17.1489L76.6623 17.73Z" fill="#FF5000"/>
<path d="M7.90545 14.807C7.90545 13.297 7.86345 12.068 7.81641 11.1194H11.2635L11.4172 12.4775H11.505C11.8846 11.9506 12.3934 11.5262 12.9845 11.2437C13.5755 10.9613 14.2296 10.8298 14.8861 10.8616C16.2902 10.8616 17.4755 11.5083 17.9807 12.6507H18.0227C18.4522 12.0957 18.9995 11.6392 19.6268 11.3128C20.2598 11.0013 20.9605 10.8456 21.6685 10.8591C24.0625 10.8591 25.5973 12.4965 25.5973 15.6022V21.7261H21.6017V16.2072C21.6017 14.8284 21.1199 14.0955 20.1736 14.0955C19.8768 14.0943 19.5877 14.1885 19.3505 14.3638C19.1133 14.539 18.941 14.7856 18.8598 15.066C18.783 15.3321 18.7461 15.6077 18.7502 15.8843V21.7261H14.7529V16.2072C14.7529 14.8284 14.2712 14.0955 13.3249 14.0955C13.0319 14.0987 12.7473 14.1919 12.5111 14.362C12.2748 14.5322 12.0988 14.7707 12.0077 15.0441C11.9203 15.3013 11.8831 15.5723 11.8981 15.843V21.7261H7.90545V14.807Z" fill="#FF5000"/>
<path d="M32.8014 21.9844C36.2703 21.9844 39.1016 19.916 39.1016 16.2927C39.1016 13.1029 36.6235 10.8608 33.0433 10.8608C28.894 10.8608 26.5898 13.2744 26.5898 16.508C26.5898 20.0005 29.4207 21.9827 32.78 21.9827L32.8014 21.9844ZM32.8434 19.1612C31.504 19.1612 30.8895 17.9325 30.8895 16.4234C30.8895 15.0438 31.4162 13.6865 32.8636 13.6865C34.1807 13.6865 34.7507 14.9358 34.7507 16.4234C34.7507 18.1911 34.0493 19.1612 32.8636 19.1612H32.8434Z" fill="#FF5000"/>
<path d="M43.0305 11.1211L44.3905 15.712C44.6116 16.4703 44.7879 17.2405 44.9185 18.0187H45.0054C45.1381 17.2425 45.2688 16.5311 45.4884 15.712L46.7178 11.1211H51.1515L46.8934 21.727H42.6353L38.5078 11.1211H43.0305Z" fill="#FF5000"/>
<path d="M57.1696 23.8283C55.5637 21.7771 54.6946 19.2615 54.6983 16.6741C54.6983 13.7013 55.3317 10.994 57.1843 8.92437L54.2266 7.36328C52.1631 9.92371 51.3789 13.1585 51.3789 16.6754C51.3741 19.8076 52.3706 22.8623 54.2279 25.4088L57.1696 23.8283Z" fill="#FF5000"/>
<path d="M59.3262 5.47372C59.3262 5.88852 59.201 6.29401 58.9663 6.6389C58.7316 6.98379 58.398 7.2526 58.0078 7.41134C57.6175 7.57008 57.1881 7.61161 56.7738 7.53069C56.3595 7.44976 55.9789 7.25002 55.6802 6.95671C55.3815 6.6634 55.1781 6.28971 55.0957 5.88288C55.0133 5.47605 55.0556 5.05436 55.2173 4.67114C55.3789 4.28791 55.6527 3.96037 56.0039 3.72992C56.3551 3.49947 56.768 3.37646 57.1905 3.37646C57.7568 3.37668 58.2999 3.59771 58.7004 3.99098C59.1009 4.38424 59.326 4.91756 59.3262 5.47372Z" fill="#FF5000"/>
<path d="M1.12911 6.32313C1.56702 6.55782 2.05441 6.68954 2.55295 6.70794C3.05277 6.70794 3.25983 6.54667 3.25983 6.27982C3.25983 6.00266 3.09687 5.87439 2.48827 5.67189C1.37901 5.30853 0.955641 4.72327 0.966141 4.10214C0.966141 3.12053 1.81415 2.3835 3.12921 2.3835C3.64299 2.37808 4.15166 2.48398 4.619 2.69365L4.33549 3.81467C3.97963 3.63011 3.58563 3.52756 3.18339 3.51482C2.78102 3.51482 2.55337 3.67485 2.55337 3.9318C2.55337 4.18875 2.75918 4.31578 3.41188 4.54056C4.42285 4.88124 4.83698 5.39349 4.84749 6.15238C4.84749 7.13399 4.07592 7.84916 2.55379 7.84916C1.95913 7.85987 1.37037 7.7318 0.835938 7.47549L1.12911 6.32313Z" fill="#622279"/>
<path d="M7.07631 5.63807C7.11831 6.31035 7.80377 6.63164 8.5766 6.63164C9.07498 6.63951 9.57105 6.56349 10.0433 6.40686L10.2609 7.50642C9.64773 7.73871 8.9942 7.8508 8.33719 7.83638C6.53113 7.83638 5.5 6.81188 5.5 5.17861C5.5 3.8555 6.33751 2.39258 8.18473 2.39258C9.90258 2.39258 10.5549 3.70661 10.5549 4.99796C10.5551 5.21231 10.537 5.4263 10.5007 5.63766L7.07631 5.63807ZM9.02181 4.52819C9.03819 4.39726 9.02637 4.2644 8.98712 4.13824C8.94786 4.01208 8.88205 3.89542 8.79394 3.79583C8.70583 3.69625 8.59739 3.61595 8.47566 3.56016C8.35392 3.50436 8.22161 3.4743 8.08728 3.47193C7.81272 3.48916 7.55489 3.60752 7.36535 3.80335C7.17581 3.99918 7.06854 4.25805 7.06497 4.52819H9.02181Z" fill="#622279"/>
<path d="M11.5264 4.17588C11.5264 3.52505 11.5045 2.97981 11.4844 2.51086H12.8864L12.9511 3.21613H12.9834C13.1551 2.95221 13.3936 2.73661 13.6757 2.59049C13.9578 2.44437 14.2737 2.37273 14.5925 2.38259C14.8996 2.36797 15.204 2.44612 15.4646 2.6065C15.7252 2.76688 15.9294 3.00181 16.0499 3.27965H16.0709C16.2551 3.02088 16.4923 2.80272 16.7673 2.63913C17.0754 2.46835 17.4237 2.37989 17.7774 2.38259C18.7989 2.38259 19.5705 3.08704 19.5705 4.65638V7.72988H17.961V4.89147C17.961 4.13299 17.7111 3.69539 17.1789 3.69539C17.0062 3.69804 16.8386 3.75411 16.7002 3.85563C16.5618 3.95714 16.4594 4.09894 16.4078 4.26085C16.372 4.39706 16.3538 4.53715 16.3536 4.67782V7.72988H14.7441V4.79702C14.7441 4.14619 14.5047 3.69745 13.9725 3.69745C13.7992 3.70397 13.6321 3.76261 13.4938 3.86544C13.3555 3.96827 13.2527 4.11032 13.1993 4.27239C13.1506 4.40557 13.1286 4.54675 13.1346 4.68813V7.72988H11.5264V4.17588Z" fill="#622279"/>
<path d="M22.5178 1.05922C22.5185 1.1715 22.4954 1.28271 22.45 1.38576C22.4046 1.4888 22.3378 1.58143 22.2539 1.65775C22.17 1.73406 22.0709 1.79239 21.9628 1.82902C21.8547 1.86564 21.74 1.87977 21.6261 1.87049C21.4656 1.8583 21.3122 1.80042 21.1846 1.70394C21.0571 1.60747 20.961 1.47657 20.9081 1.32728C20.8552 1.178 20.8477 1.0168 20.8866 0.863411C20.9256 0.710026 21.0092 0.571114 21.1273 0.463678C21.2454 0.356243 21.3928 0.284946 21.5515 0.258515C21.7102 0.232084 21.8733 0.251665 22.0209 0.314862C22.1684 0.378059 22.294 0.48213 22.3823 0.614335C22.4705 0.74654 22.5176 0.901143 22.5178 1.05922ZM20.8125 7.73003V2.51101H22.4632V7.73003H20.8125Z" fill="#622279"/>
<path d="M23.7139 4.17613C23.7139 3.5253 23.692 2.98005 23.6719 2.5111H25.1062L25.1827 3.237H25.215C25.3931 2.97101 25.6372 2.75396 25.9244 2.60631C26.2116 2.45867 26.5323 2.38531 26.8564 2.39315C27.9438 2.39315 28.7591 3.10956 28.7591 4.64672V7.73136H27.1055V4.83809C27.1055 4.16582 26.8669 3.70677 26.2692 3.70677C26.0811 3.70909 25.8984 3.76887 25.7464 3.87781C25.5944 3.98675 25.4808 4.13945 25.4212 4.31471C25.3789 4.44563 25.3605 4.58291 25.367 4.72014V7.73095H23.7139V4.17613Z" fill="#622279"/>
<path d="M35.2615 5.0623C35.2862 5.4317 35.2309 5.80205 35.0992 6.14891C34.9675 6.49578 34.7624 6.81129 34.4974 7.07463C34.2325 7.33797 33.9137 7.54316 33.562 7.67666C33.2104 7.81017 32.834 7.86896 32.4575 7.84916C32.0918 7.86993 31.7257 7.81468 31.3832 7.68702C31.0406 7.55936 30.7294 7.36217 30.4698 7.10833C30.2102 6.85449 30.008 6.54972 29.8766 6.21392C29.7451 5.87813 29.6873 5.51888 29.7068 5.15964C29.7068 3.46286 30.8379 2.38392 32.5545 2.38392C32.9165 2.36646 33.2781 2.42394 33.616 2.55264C33.9538 2.68134 34.2604 2.87838 34.5156 3.13096C34.7709 3.38353 34.9692 3.68601 35.0977 4.01874C35.2262 4.35147 35.282 4.70702 35.2615 5.0623ZM31.4142 5.11551C31.4142 6.01257 31.7922 6.68278 32.5004 6.68278C33.1526 6.68278 33.555 6.0534 33.555 5.10396C33.555 4.33517 33.2509 3.54452 32.5004 3.54452C31.7183 3.54576 31.4142 4.34672 31.4142 5.11551Z" fill="#622279"/>
<path d="M37.2891 2.51074L38.0074 4.93342C38.1371 5.38215 38.2237 5.78758 38.3114 6.20332H38.3438C38.4307 5.77727 38.5172 5.38215 38.6378 4.93342L39.3224 2.51074H41.0608L39.083 7.73017H37.4303L35.4961 2.51074H37.2891Z" fill="#622279"/>
<path d="M46.8288 5.06226C46.8534 5.43172 46.798 5.80211 46.6662 6.149C46.5344 6.4959 46.3293 6.81142 46.0642 7.07476C45.7992 7.3381 45.4803 7.54327 45.1286 7.67675C44.7769 7.81023 44.4004 7.86898 44.0239 7.84912C43.6582 7.86988 43.2921 7.81463 42.9496 7.68697C42.607 7.55932 42.2958 7.36213 42.0362 7.10829C41.7766 6.85445 41.5744 6.54967 41.443 6.21388C41.3115 5.87809 41.2537 5.51884 41.2733 5.1596C41.2733 3.46282 42.4043 2.38387 44.1222 2.38387C44.4841 2.36654 44.8457 2.42412 45.1834 2.55286C45.5212 2.68161 45.8277 2.87866 46.0829 3.13122C46.3381 3.38378 46.5364 3.6862 46.6649 4.01887C46.7934 4.35155 46.8492 4.70703 46.8288 5.06226ZM42.9806 5.11547C42.9806 6.01252 43.3611 6.68274 44.068 6.68274C44.7203 6.68274 45.1218 6.05335 45.1218 5.10392C45.1218 4.33513 44.8177 3.54448 44.068 3.54448C43.2855 3.54572 42.9806 4.34668 42.9806 5.11547Z" fill="#622279"/>
<path d="M47.7389 6.32312C48.1768 6.55781 48.6642 6.68953 49.1627 6.70793C49.6626 6.70793 49.8696 6.54666 49.8696 6.27981C49.8696 6.00265 49.7067 5.87439 49.0972 5.67188C47.9892 5.30852 47.5646 4.72326 47.5759 4.10213C47.5759 3.12052 48.4239 2.38349 49.739 2.38349C50.2524 2.3782 50.7606 2.48409 51.2275 2.69364L50.9453 3.81466C50.5894 3.6301 50.1954 3.52756 49.7932 3.51481C49.3908 3.51481 49.1632 3.67484 49.1632 3.93179C49.1632 4.18874 49.369 4.31577 50.0217 4.54055C51.0326 4.88123 51.4455 5.39348 51.456 6.15237C51.456 7.13398 50.6845 7.84915 49.1632 7.84915C48.5685 7.86011 47.9797 7.73203 47.4453 7.47548L47.7389 6.32312Z" fill="#622279"/>
</svg>
