<svg width="279" height="182" viewBox="0 0 279 182" fill="none" xmlns="http://www.w3.org/2000/svg">
<rect x="110.18" y="37" width="39" height="35" rx="8" fill="#FFB491"/>
<rect x="164.18" y="44" width="18" height="35" rx="4" fill="#FFB491"/>
<rect x="77.1797" y="47" width="15" height="35" rx="4" fill="#FFB491"/>
<rect x="63.1797" y="53" width="132" height="85" rx="8" fill="#FFB491"/>
<rect x="167.68" y="65.5" width="14" height="10" rx="3.5" stroke="#FFEEE6"/>
<rect x="114.68" y="41.5" width="30" height="10" rx="3.5" stroke="#FFEEE6"/>
<circle cx="129.68" cy="97.5" r="25" stroke="#FFEEE6"/>
<circle cx="129.68" cy="97.5" r="17.5" fill="#FFEEE6"/>
<rect x="68.1797" y="59" width="121" height="73" rx="7" stroke="#FFEEE6" stroke-width="2"/>
<path d="M122.197 98.6585L131.685 91.0444" stroke="white" stroke-width="2" stroke-linecap="round"/>
<path d="M121.647 105.843L141.985 90.9981" stroke="white" stroke-width="2" stroke-linecap="round"/>
<path fill-rule="evenodd" clip-rule="evenodd" d="M240.683 20.0028L240.676 19.9986C233.267 32.298 217.368 36.4726 204.857 29.339C217.393 36.6668 221.695 52.7253 214.503 65.339C221.601 53.196 236.893 48.7783 249.309 55.0515L249.35 54.9798C237.808 47.4277 233.955 32.172 240.683 20.0028ZM203.41 28.5511L203.451 28.4794C203.828 28.7256 204.212 28.9637 204.605 29.1932C204.21 28.968 203.811 28.754 203.41 28.5511ZM214.176 65.8977L214.183 65.902C214.24 65.7983 214.298 65.6948 214.357 65.5916C214.297 65.6942 214.237 65.7962 214.176 65.8977Z" fill="#FF5000"/>
<path fill-rule="evenodd" clip-rule="evenodd" d="M105.923 54.9306L105.917 54.9302C104.402 69.2567 91.682 79.7882 77.2686 78.5345C76.7658 78.4908 76.2676 78.4333 75.7742 78.3624L75.7669 78.4462C76.2648 78.4616 76.7651 78.4909 77.2675 78.5346C91.7437 79.7938 102.485 92.4675 101.397 106.919C102.771 92.9966 114.718 82.6097 128.567 83.04L128.575 82.9567C114.92 80.9976 104.974 68.804 105.923 54.9306ZM101.323 107.731L101.329 107.731C101.333 107.669 101.338 107.607 101.342 107.545C101.339 107.582 101.335 107.619 101.331 107.656C101.329 107.681 101.326 107.706 101.323 107.731Z" fill="#FF5000"/>
<path fill-rule="evenodd" clip-rule="evenodd" d="M70.6833 15.0028L70.676 14.9986C63.2674 27.298 47.3679 31.4726 34.8572 24.339C47.3926 31.6668 51.6954 47.7253 44.5031 60.339C51.6015 48.196 66.8927 43.7783 79.3089 50.0515L79.3503 49.9798C67.8077 42.4277 63.955 27.172 70.6833 15.0028ZM33.4098 23.5511L33.4512 23.4794C33.8276 23.7256 34.2121 23.9637 34.6047 24.1932C34.2097 23.968 33.8112 23.754 33.4098 23.5511ZM44.1756 60.8977L44.1829 60.902C44.2403 60.7983 44.2984 60.6948 44.3572 60.5916C44.2973 60.6942 44.2367 60.7962 44.1756 60.8977Z" fill="#FF5000"/>
<path fill-rule="evenodd" clip-rule="evenodd" d="M30.0364 37.0647L30.0332 37.0628C25.2206 45.051 14.8751 47.7442 6.76411 43.0614C6.48123 42.898 6.20476 42.7279 5.93479 42.5512L5.90714 42.5991C6.19502 42.7445 6.48052 42.8988 6.7633 43.0621C14.9105 47.7659 17.7398 58.1431 13.1422 66.3221C17.7614 58.5319 27.6142 55.7109 35.6202 59.7564L35.6477 59.7087C28.1747 54.8198 25.6803 44.943 30.0364 37.0647ZM12.8775 66.7768L12.8807 66.7786C12.9003 66.7432 12.92 66.7079 12.9398 66.6725C12.9192 66.7074 12.8984 66.7421 12.8775 66.7768Z" fill="#FF5000"/>
<path fill-rule="evenodd" clip-rule="evenodd" d="M269.14 41.427L269.137 41.4253C264.781 48.6551 255.417 51.0926 248.076 46.8541C247.82 46.7064 247.57 46.5526 247.326 46.3928L247.299 46.4393C247.559 46.5707 247.817 46.7102 248.072 46.8576C255.499 51.1455 258.044 60.6422 253.756 68.069C253.707 68.1532 253.658 68.2367 253.608 68.3196L253.615 68.3237C253.663 68.2384 253.711 68.1534 253.76 68.0686C257.899 60.898 266.895 58.2785 274.195 61.9654L274.218 61.9251C267.453 57.4997 265.195 48.5583 269.14 41.427Z" fill="#FF5000"/>
<path d="M109.68 124L97.1797 164" stroke="black" stroke-linecap="round"/>
<path d="M153.18 124L166.18 164" stroke="black" stroke-linecap="round"/>
<path d="M131.18 127V181" stroke="black" stroke-linecap="round"/>
</svg>
