<svg width="145" height="94" viewBox="0 0 145 94" fill="none" xmlns="http://www.w3.org/2000/svg">
<rect y="0.84375" width="144.514" height="92.9018" rx="4.12897" fill="#171416"/>
<path d="M67.2352 56.1557C68.1759 56.1557 68.6133 56.9945 68.6133 58.1389C68.6133 59.3972 68.122 60.1821 67.1873 60.1821C66.2945 60.1821 65.8152 59.3672 65.8092 58.1809C65.8092 56.9645 66.3245 56.1557 67.2352 56.1557ZM67.2173 56.7189C66.8278 56.7189 66.5522 57.2042 66.5522 58.1749C66.5522 59.1276 66.8098 59.6189 67.2113 59.6189C67.6487 59.6189 67.8704 59.0916 67.8704 58.1569C67.8704 57.2522 67.6606 56.7189 67.2173 56.7189ZM70.4566 56.1557C71.3973 56.1557 71.8347 56.9945 71.8347 58.1389C71.8347 59.3972 71.3434 60.1821 70.4087 60.1821C69.5159 60.1821 69.0365 59.3672 69.0306 58.1809C69.0306 56.9645 69.5458 56.1557 70.4566 56.1557ZM70.4386 56.7189C70.0491 56.7189 69.7735 57.2042 69.7735 58.1749C69.7735 59.1276 70.0312 59.6189 70.4326 59.6189C70.87 59.6189 71.0917 59.0916 71.0917 58.1569C71.0917 57.2522 70.882 56.7189 70.4386 56.7189ZM73.678 56.1557C74.6187 56.1557 75.0561 56.9945 75.0561 58.1389C75.0561 59.3972 74.5647 60.1821 73.63 60.1821C72.7372 60.1821 72.2579 59.3672 72.2519 58.1809C72.2519 56.9645 72.7672 56.1557 73.678 56.1557ZM73.66 56.7189C73.2705 56.7189 72.9949 57.2042 72.9949 58.1749C72.9949 59.1276 73.2525 59.6189 73.654 59.6189C74.0914 59.6189 74.3131 59.0916 74.3131 58.1569C74.3131 57.2522 74.1034 56.7189 73.66 56.7189ZM76.8993 56.1557C77.84 56.1557 78.2774 56.9945 78.2774 58.1389C78.2774 59.3972 77.7861 60.1821 76.8514 60.1821C75.9586 60.1821 75.4793 59.3672 75.4733 58.1809C75.4733 56.9645 75.9886 56.1557 76.8993 56.1557ZM76.8813 56.7189C76.4919 56.7189 76.2163 57.2042 76.2163 58.1749C76.2163 59.1276 76.4739 59.6189 76.8753 59.6189C77.3127 59.6189 77.5344 59.0916 77.5344 58.1569C77.5344 57.2522 77.3247 56.7189 76.8813 56.7189ZM86.368 56.1557C87.3087 56.1557 87.7461 56.9945 87.7461 58.1389C87.7461 59.3972 87.2548 60.1821 86.3201 60.1821C85.4273 60.1821 84.948 59.3672 84.942 58.1809C84.942 56.9645 85.4573 56.1557 86.368 56.1557ZM86.35 56.7189C85.9606 56.7189 85.685 57.2042 85.685 58.1749C85.685 59.1276 85.9426 59.6189 86.344 59.6189C86.7814 59.6189 87.0031 59.0916 87.0031 58.1569C87.0031 57.2522 86.7934 56.7189 86.35 56.7189ZM89.5894 56.1557C90.5301 56.1557 90.9675 56.9945 90.9675 58.1389C90.9675 59.3972 90.4762 60.1821 89.5414 60.1821C88.6487 60.1821 88.1693 59.3672 88.1633 58.1809C88.1633 56.9645 88.6786 56.1557 89.5894 56.1557ZM89.5714 56.7189C89.1819 56.7189 88.9063 57.2042 88.9063 58.1749C88.9063 59.1276 89.164 59.6189 89.5654 59.6189C90.0028 59.6189 90.2245 59.0916 90.2245 58.1569C90.2245 57.2522 90.0148 56.7189 89.5714 56.7189ZM92.8107 56.1557C93.7514 56.1557 94.1888 56.9945 94.1888 58.1389C94.1888 59.3972 93.6975 60.1821 92.7628 60.1821C91.87 60.1821 91.3907 59.3672 91.3847 58.1809C91.3847 56.9645 91.9 56.1557 92.8107 56.1557ZM92.7928 56.7189C92.4033 56.7189 92.1277 57.2042 92.1277 58.1749C92.1277 59.1276 92.3853 59.6189 92.7868 59.6189C93.2242 59.6189 93.4459 59.0916 93.4459 58.1569C93.4459 57.2522 93.2362 56.7189 92.7928 56.7189ZM96.0321 56.1557C96.9728 56.1557 97.4102 56.9945 97.4102 58.1389C97.4102 59.3972 96.9189 60.1821 95.9842 60.1821C95.0914 60.1821 94.6121 59.3672 94.6061 58.1809C94.6061 56.9645 95.1214 56.1557 96.0321 56.1557ZM96.0141 56.7189C95.6247 56.7189 95.349 57.2042 95.349 58.1749C95.349 59.1276 95.6067 59.6189 96.0081 59.6189C96.4455 59.6189 96.6672 59.0916 96.6672 58.1569C96.6672 57.2522 96.4575 56.7189 96.0141 56.7189ZM105.501 56.1557C106.442 56.1557 106.879 56.9945 106.879 58.1389C106.879 59.3972 106.388 60.1821 105.453 60.1821C104.56 60.1821 104.081 59.3672 104.075 58.1809C104.075 56.9645 104.59 56.1557 105.501 56.1557ZM105.483 56.7189C105.093 56.7189 104.818 57.2042 104.818 58.1749C104.818 59.1276 105.075 59.6189 105.477 59.6189C105.914 59.6189 106.136 59.0916 106.136 58.1569C106.136 57.2522 105.926 56.7189 105.483 56.7189ZM108.722 56.1557C109.663 56.1557 110.1 56.9945 110.1 58.1389C110.1 59.3972 109.609 60.1821 108.674 60.1821C107.781 60.1821 107.302 59.3672 107.296 58.1809C107.296 56.9645 107.811 56.1557 108.722 56.1557ZM108.704 56.7189C108.315 56.7189 108.039 57.2042 108.039 58.1749C108.039 59.1276 108.297 59.6189 108.698 59.6189C109.136 59.6189 109.357 59.0916 109.357 58.1569C109.357 57.2522 109.148 56.7189 108.704 56.7189ZM111.944 56.1557C112.884 56.1557 113.322 56.9945 113.322 58.1389C113.322 59.3972 112.83 60.1821 111.896 60.1821C111.003 60.1821 110.523 59.3672 110.517 58.1809C110.517 56.9645 111.033 56.1557 111.944 56.1557ZM111.926 56.7189C111.536 56.7189 111.26 57.2042 111.26 58.1749C111.26 59.1276 111.518 59.6189 111.92 59.6189C112.357 59.6189 112.579 59.0916 112.579 58.1569C112.579 57.2522 112.369 56.7189 111.926 56.7189ZM115.165 56.1557C116.106 56.1557 116.543 56.9945 116.543 58.1389C116.543 59.3972 116.052 60.1821 115.117 60.1821C114.224 60.1821 113.745 59.3672 113.739 58.1809C113.739 56.9645 114.254 56.1557 115.165 56.1557ZM115.147 56.7189C114.757 56.7189 114.482 57.2042 114.482 58.1749C114.482 59.1276 114.739 59.6189 115.141 59.6189C115.578 59.6189 115.8 59.0916 115.8 58.1569C115.8 57.2522 115.59 56.7189 115.147 56.7189ZM123.555 60.1761V59.5889C123.675 59.6009 123.789 59.5949 123.963 59.577C124.256 59.553 124.538 59.4511 124.753 59.2774C125.011 59.0736 125.185 58.7801 125.257 58.4086H125.245C125.047 58.6243 124.765 58.7501 124.394 58.7501C123.717 58.7501 123.214 58.2648 123.214 57.5457C123.214 56.7968 123.789 56.1557 124.616 56.1557C125.526 56.1557 126.006 56.8627 126.006 57.8154C126.006 58.6482 125.736 59.2414 125.329 59.6309C124.993 59.9425 124.526 60.1282 123.998 60.1641C123.831 60.1821 123.669 60.1821 123.555 60.1761ZM124.58 56.7009C124.208 56.7009 123.945 57.0305 123.945 57.5038C123.945 57.9053 124.178 58.2168 124.586 58.2168C124.885 58.2168 125.101 58.073 125.215 57.8933C125.239 57.8393 125.257 57.7794 125.257 57.6776C125.257 57.1503 125.059 56.7009 124.58 56.7009ZM127.855 56.1557C128.796 56.1557 129.233 56.9945 129.233 58.1389C129.233 59.3972 128.742 60.1821 127.807 60.1821C126.914 60.1821 126.435 59.3672 126.429 58.1809C126.429 56.9645 126.944 56.1557 127.855 56.1557ZM127.837 56.7189C127.448 56.7189 127.172 57.2042 127.172 58.1749C127.172 59.1276 127.43 59.6189 127.831 59.6189C128.268 59.6189 128.49 59.0916 128.49 58.1569C128.49 57.2522 128.28 56.7189 127.837 56.7189ZM129.764 56.2216H132.383V56.6949L130.735 60.1162H129.962L131.604 56.8447V56.8327H129.764V56.2216ZM132.908 59.9125L133.075 59.3553C133.225 59.4451 133.591 59.5949 133.962 59.5949C134.525 59.5949 134.747 59.2774 134.747 58.9718C134.747 58.5104 134.31 58.3127 133.86 58.3127H133.525V57.7734H133.86C134.196 57.7734 134.627 57.6176 134.627 57.2342C134.627 56.9645 134.435 56.7429 134.004 56.7429C133.687 56.7429 133.369 56.8807 133.207 56.9885L133.039 56.4553C133.261 56.3055 133.699 56.1557 134.16 56.1557C134.969 56.1557 135.376 56.5991 135.376 57.1084C135.376 57.5158 135.137 57.8513 134.657 58.0191V58.0311C135.131 58.121 135.508 58.4745 135.514 59.0017C135.514 59.6608 134.963 60.1821 133.998 60.1821C133.525 60.1821 133.117 60.0503 132.908 59.9125Z" fill="white"/>
<path d="M11.2977 18.6245L9.32125 24.0659H8.51345L10.7892 18.0955H11.31L11.2977 18.6245ZM12.9543 24.0659L10.9738 18.6245L10.9615 18.0955H11.4822L13.7662 24.0659H12.9543ZM12.8518 21.8557V22.5036H9.49758V21.8557H12.8518ZM15.2836 17.7675V24.0659H14.5209V17.7675H15.2836ZM17.3341 19.6291V24.0659H16.5714V19.6291H17.3341ZM16.514 18.4523C16.514 18.3293 16.5509 18.2254 16.6247 18.1406C16.7013 18.0559 16.8133 18.0135 16.961 18.0135C17.1058 18.0135 17.2166 18.0559 17.2931 18.1406C17.3724 18.2254 17.412 18.3293 17.412 18.4523C17.412 18.5698 17.3724 18.671 17.2931 18.7557C17.2166 18.8377 17.1058 18.8787 16.961 18.8787C16.8133 18.8787 16.7013 18.8377 16.6247 18.7557C16.5509 18.671 16.514 18.5698 16.514 18.4523ZM19.319 20.5764V24.0659H18.5604V19.6291H19.278L19.319 20.5764ZM19.1385 21.6794L18.8228 21.6671C18.8255 21.3637 18.8706 21.0835 18.9581 20.8265C19.0456 20.5668 19.1686 20.3413 19.3272 20.1499C19.4857 19.9585 19.6743 19.8109 19.893 19.707C20.1145 19.6004 20.3591 19.5471 20.627 19.5471C20.8457 19.5471 21.0426 19.5772 21.2175 19.6373C21.3925 19.6947 21.5415 19.7877 21.6645 19.9162C21.7902 20.0447 21.8859 20.2114 21.9515 20.4164C22.0171 20.6187 22.0499 20.8661 22.0499 21.1586V24.0659H21.2872V21.1504C21.2872 20.9181 21.253 20.7322 21.1847 20.5928C21.1164 20.4506 21.0166 20.3481 20.8854 20.2852C20.7541 20.2196 20.5929 20.1868 20.4015 20.1868C20.2129 20.1868 20.0407 20.2264 19.8848 20.3057C19.7317 20.385 19.5992 20.4943 19.4871 20.6338C19.3777 20.7732 19.2916 20.9331 19.2287 21.1135C19.1686 21.2912 19.1385 21.4798 19.1385 21.6794ZM25.0517 24.1479C24.7428 24.1479 24.4626 24.096 24.2111 23.9921C23.9623 23.8855 23.7477 23.7365 23.5673 23.5451C23.3896 23.3538 23.2529 23.1269 23.1573 22.8645C23.0616 22.602 23.0137 22.315 23.0137 22.0033V21.8311C23.0137 21.4703 23.0671 21.1491 23.1737 20.8675C23.2803 20.5832 23.4252 20.3426 23.6083 20.1458C23.7915 19.949 23.9992 19.8 24.2316 19.6988C24.464 19.5977 24.7045 19.5471 24.9533 19.5471C25.2704 19.5471 25.5438 19.6018 25.7734 19.7111C26.0058 19.8205 26.1958 19.9736 26.3434 20.1704C26.491 20.3645 26.6003 20.5941 26.6714 20.8593C26.7425 21.1217 26.778 21.4088 26.778 21.7204V22.0608H23.4648V21.4416H26.0194V21.3842C26.0085 21.1873 25.9675 20.996 25.8964 20.8101C25.8281 20.6242 25.7187 20.4711 25.5684 20.3508C25.418 20.2305 25.213 20.1704 24.9533 20.1704C24.7811 20.1704 24.6225 20.2073 24.4776 20.2811C24.3328 20.3522 24.2084 20.4588 24.1045 20.601C24.0006 20.7431 23.92 20.9167 23.8626 21.1217C23.8051 21.3268 23.7764 21.5632 23.7764 21.8311V22.0033C23.7764 22.2138 23.8051 22.412 23.8626 22.5979C23.9227 22.7811 24.0088 22.9424 24.1209 23.0818C24.2357 23.2212 24.3738 23.3306 24.535 23.4098C24.6991 23.4891 24.885 23.5287 25.0927 23.5287C25.3606 23.5287 25.5875 23.4741 25.7734 23.3647C25.9593 23.2554 26.122 23.1091 26.2614 22.926L26.7206 23.2909C26.625 23.4358 26.5033 23.5739 26.3557 23.7051C26.2081 23.8363 26.0263 23.9429 25.8103 24.0249C25.5971 24.1069 25.3442 24.1479 25.0517 24.1479ZM29.8784 18.0955H31.8549C32.3032 18.0955 32.6818 18.1639 32.9908 18.3006C33.3024 18.4372 33.5389 18.6395 33.7001 18.9074C33.8642 19.1726 33.9462 19.4993 33.9462 19.8875C33.9462 20.1608 33.8901 20.411 33.7781 20.6379C33.6687 20.862 33.5102 21.0534 33.3024 21.2119C33.0974 21.3678 32.8513 21.4839 32.5643 21.5605L32.3429 21.6466H30.4853L30.4771 21.0028H31.8795C32.1638 21.0028 32.4003 20.9536 32.5889 20.8552C32.7775 20.754 32.9197 20.6187 33.0154 20.4492C33.111 20.2798 33.1589 20.0925 33.1589 19.8875C33.1589 19.6578 33.1138 19.4569 33.0236 19.2847C32.9333 19.1125 32.7912 18.9799 32.5971 18.8869C32.4057 18.7913 32.1583 18.7434 31.8549 18.7434H30.6698V24.0659H29.8784V18.0955ZM33.368 24.0659L31.9164 21.3596L32.7406 21.3555L34.2127 24.0167V24.0659H33.368ZM35.7711 19.6291V24.0659H35.0084V19.6291H35.7711ZM34.951 18.4523C34.951 18.3293 34.9879 18.2254 35.0617 18.1406C35.1383 18.0559 35.2503 18.0135 35.398 18.0135C35.5429 18.0135 35.6536 18.0559 35.7301 18.1406C35.8094 18.2254 35.849 18.3293 35.849 18.4523C35.849 18.5698 35.8094 18.671 35.7301 18.7557C35.6536 18.8377 35.5429 18.8787 35.398 18.8787C35.2503 18.8787 35.1383 18.8377 35.0617 18.7557C34.9879 18.671 34.951 18.5698 34.951 18.4523ZM36.9933 17.7675H37.756V23.2048L37.6904 24.0659H36.9933V17.7675ZM40.7535 21.8106V21.8967C40.7535 22.2193 40.7152 22.5186 40.6387 22.7948C40.5621 23.0681 40.45 23.306 40.3024 23.5082C40.1548 23.7105 39.9744 23.8677 39.7611 23.9798C39.5479 24.0919 39.3032 24.1479 39.0271 24.1479C38.7456 24.1479 38.4982 24.1001 38.2849 24.0044C38.0744 23.906 37.8968 23.7652 37.7519 23.5821C37.607 23.3989 37.4908 23.1775 37.4033 22.9178C37.3186 22.6581 37.2598 22.3656 37.227 22.0403V21.663C37.2598 21.335 37.3186 21.0411 37.4033 20.7814C37.4908 20.5217 37.607 20.3003 37.7519 20.1171C37.8968 19.9312 38.0744 19.7904 38.2849 19.6947C38.4954 19.5963 38.7401 19.5471 39.0189 19.5471C39.2978 19.5471 39.5452 19.6018 39.7611 19.7111C39.9771 19.8178 40.1575 19.9708 40.3024 20.1704C40.45 20.37 40.5621 20.6092 40.6387 20.888C40.7152 21.1641 40.7535 21.4716 40.7535 21.8106ZM39.9908 21.8967V21.8106C39.9908 21.5892 39.9703 21.3814 39.9293 21.1873C39.8883 20.9905 39.8226 20.8183 39.7324 20.6707C39.6422 20.5203 39.5233 20.4028 39.3757 20.318C39.2281 20.2305 39.0463 20.1868 38.8303 20.1868C38.639 20.1868 38.4722 20.2196 38.33 20.2852C38.1906 20.3508 38.0717 20.4397 37.9733 20.5518C37.8749 20.6611 37.7942 20.7869 37.7314 20.929C37.6712 21.0684 37.6261 21.2133 37.5961 21.3637V22.3519C37.6398 22.5433 37.7109 22.7278 37.8093 22.9055C37.9104 23.0804 38.0444 23.2239 38.2111 23.336C38.3806 23.4481 38.5897 23.5041 38.8385 23.5041C39.0435 23.5041 39.2185 23.4631 39.3634 23.3811C39.511 23.2964 39.6299 23.1802 39.7201 23.0326C39.8131 22.885 39.8814 22.7141 39.9252 22.52C39.9689 22.3259 39.9908 22.1182 39.9908 21.8967ZM43.5625 24.1479C43.2536 24.1479 42.9734 24.096 42.7219 23.9921C42.4732 23.8855 42.2586 23.7365 42.0781 23.5451C41.9004 23.3538 41.7638 23.1269 41.6681 22.8645C41.5724 22.602 41.5246 22.315 41.5246 22.0033V21.8311C41.5246 21.4703 41.5779 21.1491 41.6845 20.8675C41.7911 20.5832 41.936 20.3426 42.1191 20.1458C42.3023 19.949 42.5101 19.8 42.7424 19.6988C42.9748 19.5977 43.2154 19.5471 43.4641 19.5471C43.7812 19.5471 44.0546 19.6018 44.2842 19.7111C44.5166 19.8205 44.7066 19.9736 44.8542 20.1704C45.0018 20.3645 45.1112 20.5941 45.1822 20.8593C45.2533 21.1217 45.2889 21.4088 45.2889 21.7204V22.0608H41.9756V21.4416H44.5303V21.3842C44.5193 21.1873 44.4783 20.996 44.4072 20.8101C44.3389 20.6242 44.2296 20.4711 44.0792 20.3508C43.9288 20.2305 43.7238 20.1704 43.4641 20.1704C43.2919 20.1704 43.1333 20.2073 42.9885 20.2811C42.8436 20.3522 42.7192 20.4588 42.6153 20.601C42.5114 20.7431 42.4308 20.9167 42.3734 21.1217C42.316 21.3268 42.2873 21.5632 42.2873 21.8311V22.0033C42.2873 22.2138 42.316 22.412 42.3734 22.5979C42.4335 22.7811 42.5196 22.9424 42.6317 23.0818C42.7465 23.2212 42.8846 23.3306 43.0459 23.4098C43.2099 23.4891 43.3958 23.5287 43.6035 23.5287C43.8714 23.5287 44.0983 23.4741 44.2842 23.3647C44.4701 23.2554 44.6328 23.1091 44.7722 22.926L45.2315 23.2909C45.1358 23.4358 45.0141 23.5739 44.8665 23.7051C44.7189 23.8363 44.5371 23.9429 44.3211 24.0249C44.1079 24.1069 43.855 24.1479 43.5625 24.1479ZM47.0072 19.6291V24.0659H46.2445V19.6291H47.0072ZM46.1871 18.4523C46.1871 18.3293 46.224 18.2254 46.2978 18.1406C46.3743 18.0559 46.4864 18.0135 46.634 18.0135C46.7789 18.0135 46.8896 18.0559 46.9662 18.1406C47.0455 18.2254 47.0851 18.3293 47.0851 18.4523C47.0851 18.5698 47.0455 18.671 46.9662 18.7557C46.8896 18.8377 46.7789 18.8787 46.634 18.8787C46.4864 18.8787 46.3743 18.8377 46.2978 18.7557C46.224 18.671 46.1871 18.5698 46.1871 18.4523ZM48.992 20.3262V24.0659H48.2334V19.6291H48.9715L48.992 20.3262ZM50.378 19.6045L50.3739 20.3098C50.311 20.2962 50.2509 20.288 50.1935 20.2852C50.1388 20.2798 50.076 20.277 50.0049 20.277C49.8299 20.277 49.6755 20.3044 49.5415 20.359C49.4076 20.4137 49.2941 20.4902 49.2012 20.5887C49.1082 20.6871 49.0344 20.8046 48.9797 20.9413C48.9278 21.0753 48.8936 21.2229 48.8772 21.3842L48.664 21.5072C48.664 21.2393 48.69 20.9878 48.7419 20.7527C48.7966 20.5176 48.88 20.3098 48.992 20.1294C49.1041 19.9462 49.2463 19.8041 49.4185 19.7029C49.5935 19.5991 49.8012 19.5471 50.0418 19.5471C50.0965 19.5471 50.1593 19.554 50.2304 19.5676C50.3015 19.5786 50.3507 19.5909 50.378 19.6045ZM50.8047 21.8967V21.8024C50.8047 21.4826 50.8512 21.186 50.9441 20.9126C51.037 20.6365 51.171 20.3973 51.346 20.195C51.5209 19.99 51.7328 19.8314 51.9815 19.7193C52.2303 19.6045 52.5091 19.5471 52.818 19.5471C53.1297 19.5471 53.4099 19.6045 53.6587 19.7193C53.9102 19.8314 54.1234 19.99 54.2983 20.195C54.476 20.3973 54.6113 20.6365 54.7043 20.9126C54.7972 21.186 54.8437 21.4826 54.8437 21.8024V21.8967C54.8437 22.2166 54.7972 22.5132 54.7043 22.7865C54.6113 23.0599 54.476 23.2991 54.2983 23.5041C54.1234 23.7064 53.9115 23.865 53.6628 23.9798C53.4167 24.0919 53.1379 24.1479 52.8262 24.1479C52.5146 24.1479 52.2344 24.0919 51.9856 23.9798C51.7369 23.865 51.5236 23.7064 51.346 23.5041C51.171 23.2991 51.037 23.0599 50.9441 22.7865C50.8512 22.5132 50.8047 22.2166 50.8047 21.8967ZM51.5633 21.8024V21.8967C51.5633 22.1182 51.5892 22.3273 51.6412 22.5241C51.6931 22.7182 51.771 22.8904 51.8749 23.0408C51.9815 23.1911 52.1141 23.3101 52.2727 23.3975C52.4312 23.4823 52.6158 23.5246 52.8262 23.5246C53.034 23.5246 53.2158 23.4823 53.3716 23.3975C53.5302 23.3101 53.6614 23.1911 53.7653 23.0408C53.8691 22.8904 53.9471 22.7182 53.999 22.5241C54.0537 22.3273 54.081 22.1182 54.081 21.8967V21.8024C54.081 21.5837 54.0537 21.3773 53.999 21.1832C53.9471 20.9864 53.8678 20.8128 53.7612 20.6625C53.6573 20.5094 53.5261 20.3891 53.3675 20.3016C53.2117 20.2141 53.0285 20.1704 52.818 20.1704C52.6103 20.1704 52.4271 20.2141 52.2686 20.3016C52.1128 20.3891 51.9815 20.5094 51.8749 20.6625C51.771 20.8128 51.6931 20.9864 51.6412 21.1832C51.5892 21.3773 51.5633 21.5837 51.5633 21.8024ZM61.1917 22.5569C61.1917 22.4175 61.1699 22.2945 61.1261 22.1879C61.0851 22.0785 61.0113 21.9801 60.9047 21.8926C60.8008 21.8052 60.6559 21.7218 60.47 21.6425C60.2869 21.5632 60.0545 21.4826 59.773 21.4006C59.4777 21.3131 59.2112 21.216 58.9733 21.1094C58.7355 21.0001 58.5319 20.8757 58.3624 20.7363C58.1929 20.5969 58.063 20.4369 57.9728 20.2565C57.8826 20.0761 57.8375 19.8697 57.8375 19.6373C57.8375 19.405 57.8853 19.1904 57.981 18.9935C58.0767 18.7967 58.2134 18.6259 58.3911 18.481C58.5715 18.3334 58.7861 18.2185 59.0349 18.1365C59.2836 18.0545 59.5611 18.0135 59.8673 18.0135C60.3156 18.0135 60.6956 18.0996 61.0072 18.2719C61.3216 18.4413 61.5608 18.6641 61.7248 18.9402C61.8888 19.2136 61.9708 19.5061 61.9708 19.8178H61.1835C61.1835 19.5936 61.1357 19.3954 61.04 19.2232C60.9443 19.0482 60.7995 18.9115 60.6054 18.8131C60.4113 18.712 60.1652 18.6614 59.8673 18.6614C59.5857 18.6614 59.3533 18.7038 59.1702 18.7885C58.987 18.8733 58.8503 18.9881 58.7601 19.133C58.6726 19.2779 58.6289 19.4432 58.6289 19.6291C58.6289 19.7549 58.6549 19.8697 58.7068 19.9736C58.7615 20.0747 58.8449 20.169 58.9569 20.2565C59.0718 20.344 59.2166 20.4246 59.3916 20.4984C59.5693 20.5723 59.7812 20.6433 60.0272 20.7117C60.3662 20.8074 60.6587 20.914 60.9047 21.0315C61.1507 21.1491 61.353 21.2817 61.5116 21.4293C61.6729 21.5742 61.7918 21.7395 61.8683 21.9254C61.9476 22.1086 61.9872 22.3164 61.9872 22.5487C61.9872 22.792 61.938 23.0121 61.8396 23.2089C61.7412 23.4057 61.6004 23.5739 61.4173 23.7133C61.2341 23.8527 61.0141 23.9607 60.7571 24.0372C60.5029 24.111 60.2185 24.1479 59.9042 24.1479C59.6281 24.1479 59.3561 24.1097 59.0882 24.0331C58.823 23.9566 58.5811 23.8418 58.3624 23.6887C58.1464 23.5356 57.9728 23.347 57.8416 23.1228C57.7131 22.8959 57.6489 22.6335 57.6489 22.3355H58.4362C58.4362 22.5405 58.4758 22.7168 58.5551 22.8645C58.6344 23.0093 58.7424 23.1296 58.879 23.2253C59.0185 23.321 59.1756 23.3921 59.3506 23.4385C59.5283 23.4823 59.7128 23.5041 59.9042 23.5041C60.1803 23.5041 60.414 23.4659 60.6054 23.3893C60.7967 23.3128 60.9416 23.2034 61.04 23.0613C61.1412 22.9191 61.1917 22.751 61.1917 22.5569ZM62.6886 21.8967V21.8024C62.6886 21.4826 62.7351 21.186 62.8281 20.9126C62.921 20.6365 63.055 20.3973 63.2299 20.195C63.4049 19.99 63.6167 19.8314 63.8655 19.7193C64.1143 19.6045 64.3931 19.5471 64.702 19.5471C65.0136 19.5471 65.2938 19.6045 65.5426 19.7193C65.7941 19.8314 66.0073 19.99 66.1823 20.195C66.36 20.3973 66.4953 20.6365 66.5882 20.9126C66.6812 21.186 66.7277 21.4826 66.7277 21.8024V21.8967C66.7277 22.2166 66.6812 22.5132 66.5882 22.7865C66.4953 23.0599 66.36 23.2991 66.1823 23.5041C66.0073 23.7064 65.7955 23.865 65.5467 23.9798C65.3007 24.0919 65.0218 24.1479 64.7102 24.1479C64.3986 24.1479 64.1184 24.0919 63.8696 23.9798C63.6208 23.865 63.4076 23.7064 63.2299 23.5041C63.055 23.2991 62.921 23.0599 62.8281 22.7865C62.7351 22.5132 62.6886 22.2166 62.6886 21.8967ZM63.4472 21.8024V21.8967C63.4472 22.1182 63.4732 22.3273 63.5251 22.5241C63.5771 22.7182 63.655 22.8904 63.7589 23.0408C63.8655 23.1911 63.9981 23.3101 64.1566 23.3975C64.3152 23.4823 64.4997 23.5246 64.7102 23.5246C64.918 23.5246 65.0998 23.4823 65.2556 23.3975C65.4141 23.3101 65.5453 23.1911 65.6492 23.0408C65.7531 22.8904 65.831 22.7182 65.883 22.5241C65.9376 22.3273 65.965 22.1182 65.965 21.8967V21.8024C65.965 21.5837 65.9376 21.3773 65.883 21.1832C65.831 20.9864 65.7517 20.8128 65.6451 20.6625C65.5412 20.5094 65.41 20.3891 65.2515 20.3016C65.0957 20.2141 64.9125 20.1704 64.702 20.1704C64.4942 20.1704 64.3111 20.2141 64.1525 20.3016C63.9967 20.3891 63.8655 20.5094 63.7589 20.6625C63.655 20.8128 63.5771 20.9864 63.5251 21.1832C63.4732 21.3773 63.4472 21.5837 63.4472 21.8024ZM70.4019 23.0408V19.6291H71.1646V24.0659H70.4389L70.4019 23.0408ZM70.5455 22.1059L70.8612 22.0977C70.8612 22.3929 70.8298 22.6663 70.7669 22.9178C70.7068 23.1665 70.6083 23.3825 70.4717 23.5657C70.335 23.7488 70.1559 23.8923 69.9345 23.9962C69.7131 24.0974 69.4438 24.1479 69.1267 24.1479C68.9107 24.1479 68.7125 24.1165 68.5321 24.0536C68.3544 23.9907 68.2013 23.8937 68.0728 23.7625C67.9444 23.6313 67.8446 23.4604 67.7735 23.2499C67.7052 23.0394 67.671 22.7865 67.671 22.4913V19.6291H68.4296V22.4995C68.4296 22.6991 68.4515 22.8645 68.4952 22.9957C68.5417 23.1242 68.6032 23.2267 68.6797 23.3032C68.759 23.377 68.8465 23.429 68.9422 23.459C69.0406 23.4891 69.1417 23.5041 69.2456 23.5041C69.5682 23.5041 69.8238 23.4426 70.0124 23.3196C70.201 23.1939 70.3363 23.0257 70.4184 22.8153C70.5031 22.602 70.5455 22.3656 70.5455 22.1059ZM75.6344 23.4426V24.0659H72.4073V23.4426H75.6344ZM75.5155 20.1663L72.5795 24.0659H72.1162V23.5082L75.0317 19.6291H75.5155V20.1663ZM75.1793 19.6291V20.2565H72.149V19.6291H75.1793ZM79.1201 23.3073V21.0233C79.1201 20.8484 79.0845 20.6966 79.0135 20.5682C78.9451 20.4369 78.8413 20.3358 78.7018 20.2647C78.5624 20.1936 78.3902 20.1581 78.1852 20.1581C77.9938 20.1581 77.8257 20.1909 77.6808 20.2565C77.5386 20.3221 77.4266 20.4082 77.3446 20.5149C77.2653 20.6215 77.2256 20.7363 77.2256 20.8593H76.467C76.467 20.7007 76.508 20.5436 76.5901 20.3877C76.6721 20.2319 76.7896 20.0911 76.9427 19.9654C77.0985 19.8369 77.2844 19.7357 77.5004 19.6619C77.7191 19.5854 77.9624 19.5471 78.2303 19.5471C78.5528 19.5471 78.8371 19.6018 79.0832 19.7111C79.3319 19.8205 79.526 19.9859 79.6655 20.2073C79.8076 20.426 79.8787 20.7007 79.8787 21.0315V23.0982C79.8787 23.2458 79.891 23.403 79.9156 23.5698C79.9429 23.7365 79.9826 23.88 80.0345 24.0003V24.0659H79.2431C79.2048 23.9784 79.1748 23.8623 79.1529 23.7174C79.131 23.5698 79.1201 23.4331 79.1201 23.3073ZM79.2513 21.376L79.2595 21.909H78.4927C78.2767 21.909 78.084 21.9268 77.9145 21.9623C77.745 21.9951 77.6029 22.0457 77.4881 22.1141C77.3733 22.1824 77.2858 22.2685 77.2256 22.3724C77.1655 22.4735 77.1354 22.5925 77.1354 22.7291C77.1354 22.8686 77.1669 22.9957 77.2297 23.1105C77.2926 23.2253 77.3869 23.3169 77.5127 23.3852C77.6412 23.4508 77.7983 23.4836 77.9842 23.4836C78.2166 23.4836 78.4216 23.4344 78.5993 23.336C78.777 23.2376 78.9178 23.1173 79.0217 22.9752C79.1283 22.833 79.1857 22.695 79.1939 22.561L79.5178 22.926C79.4987 23.0408 79.4468 23.1679 79.362 23.3073C79.2773 23.4467 79.1638 23.5807 79.0217 23.7092C78.8823 23.8349 78.7155 23.9402 78.5214 24.0249C78.33 24.1069 78.1141 24.1479 77.8735 24.1479C77.5728 24.1479 77.309 24.0892 77.0821 23.9716C76.858 23.8541 76.683 23.6969 76.5572 23.5C76.4342 23.3005 76.3727 23.0777 76.3727 22.8317C76.3727 22.5938 76.4192 22.3847 76.5121 22.2043C76.6051 22.0211 76.739 21.8694 76.914 21.7491C77.089 21.6261 77.2994 21.5332 77.5455 21.4703C77.7915 21.4074 78.0662 21.376 78.3697 21.376H79.2513Z" fill="white"/>
<path d="M11.5642 32.0197L11.666 32.4391C11.4803 32.535 11.0908 32.6309 10.5995 32.6309C9.46106 32.6309 8.61023 31.9118 8.61023 30.5817C8.61023 29.3114 9.46706 28.4606 10.7193 28.4606C11.2166 28.4606 11.5402 28.5684 11.678 28.6403L11.5462 29.0658C11.3545 28.9699 11.0728 28.898 10.7373 28.898C9.79061 28.898 9.16148 29.5032 9.16148 30.5637C9.16148 31.5583 9.73069 32.1875 10.7073 32.1875C11.0309 32.1875 11.3545 32.1216 11.5642 32.0197ZM12.3166 32.5649V28.3108H12.8439V32.5649H12.3166ZM14.2689 32.5649H13.7416V29.6649H14.2689V32.5649ZM14.0052 28.5205C14.197 28.5205 14.3288 28.6643 14.3288 28.8501C14.3288 29.0298 14.203 29.1736 13.9933 29.1736C13.8015 29.1736 13.6757 29.0298 13.6757 28.8501C13.6757 28.6703 13.8075 28.5205 14.0052 28.5205ZM17.4857 31.2108H15.4485C15.4605 31.9238 15.9099 32.2174 16.4431 32.2174C16.8206 32.2174 17.0543 32.1515 17.246 32.0676L17.3419 32.4451C17.1562 32.529 16.8326 32.6309 16.3712 32.6309C15.4785 32.6309 14.9452 32.0377 14.9452 31.1629C14.9452 30.2881 15.4605 29.605 16.3053 29.605C17.258 29.605 17.5037 30.4319 17.5037 30.9651C17.5037 31.073 17.4977 31.1509 17.4857 31.2108ZM15.4545 30.8333H16.9944C17.0004 30.5038 16.8566 29.9825 16.2634 29.9825C15.7241 29.9825 15.4964 30.4678 15.4545 30.8333ZM18.1656 32.5649V30.4499C18.1656 30.1443 18.1596 29.9046 18.1417 29.6649H18.609L18.639 30.1443H18.651C18.7948 29.8746 19.1303 29.605 19.6096 29.605C20.0111 29.605 20.6342 29.8447 20.6342 30.8393V32.5649H20.107V30.8932C20.107 30.4259 19.9332 30.0364 19.4359 30.0364C19.0944 30.0364 18.8247 30.2821 18.7289 30.5757C18.7049 30.6416 18.6929 30.7315 18.6929 30.8213V32.5649H18.1656ZM21.5946 29.1257L22.1099 28.9699V29.6649H22.8648V30.0664H22.1099V31.6302C22.1099 31.9897 22.2117 32.1935 22.5053 32.1935C22.6491 32.1935 22.733 32.1815 22.8109 32.1575L22.8349 32.5589C22.733 32.5949 22.5713 32.6309 22.3675 32.6309C22.1219 32.6309 21.9241 32.547 21.7983 32.4092C21.6545 32.2474 21.5946 31.9897 21.5946 31.6482V30.0664H21.1452V29.6649H21.5946V29.1257ZM25.763 31.2108H23.7258C23.7378 31.9238 24.1872 32.2174 24.7205 32.2174C25.0979 32.2174 25.3316 32.1515 25.5234 32.0676L25.6192 32.4451C25.4335 32.529 25.1099 32.6309 24.6486 32.6309C23.7558 32.6309 23.2225 32.0377 23.2225 31.1629C23.2225 30.2881 23.7378 29.605 24.5827 29.605C25.5353 29.605 25.781 30.4319 25.781 30.9651C25.781 31.073 25.775 31.1509 25.763 31.2108ZM23.7318 30.8333H25.2717C25.2777 30.5038 25.1339 29.9825 24.5407 29.9825C24.0015 29.9825 23.7738 30.4678 23.7318 30.8333ZM29.699 28.3108H30.2202V31.816C30.2202 32.0736 30.2322 32.3672 30.2442 32.5649H29.7768L29.7529 32.0616H29.7349C29.5791 32.3852 29.2316 32.6309 28.7583 32.6309C28.0572 32.6309 27.512 32.0377 27.512 31.1569C27.506 30.1922 28.1111 29.605 28.8122 29.605C29.2616 29.605 29.5552 29.8147 29.687 30.0424H29.699V28.3108ZM29.699 31.3486V30.8453C29.699 30.7794 29.693 30.6895 29.675 30.6236C29.5971 30.2941 29.3095 30.0184 28.914 30.0184C28.3688 30.0184 28.0452 30.4978 28.0452 31.1329C28.0452 31.7201 28.3388 32.2054 28.9021 32.2054C29.2556 32.2054 29.5791 31.9658 29.675 31.5763C29.693 31.5044 29.699 31.4325 29.699 31.3486ZM33.4435 31.2108H31.4063C31.4183 31.9238 31.8677 32.2174 32.401 32.2174C32.7784 32.2174 33.0121 32.1515 33.2039 32.0676L33.2997 32.4451C33.114 32.529 32.7904 32.6309 32.3291 32.6309C31.4363 32.6309 30.903 32.0377 30.903 31.1629C30.903 30.2881 31.4183 29.605 32.2631 29.605C33.2158 29.605 33.4615 30.4319 33.4615 30.9651C33.4615 31.073 33.4555 31.1509 33.4435 31.2108ZM31.4123 30.8333H32.9522C32.9582 30.5038 32.8144 29.9825 32.2212 29.9825C31.6819 29.9825 31.4543 30.4678 31.4123 30.8333ZM33.9257 32.4271L34.0515 32.0317C34.2133 32.1275 34.4889 32.2354 34.7526 32.2354C35.1301 32.2354 35.3098 32.0497 35.3098 31.804C35.3098 31.5523 35.16 31.4205 34.7765 31.2767C34.2493 31.085 34.0036 30.8034 34.0036 30.4558C34.0036 29.9885 34.3871 29.605 35.0042 29.605C35.2978 29.605 35.5555 29.6829 35.7113 29.7848L35.5854 30.1682C35.4716 30.0963 35.2619 29.9945 34.9922 29.9945C34.6807 29.9945 34.5129 30.1742 34.5129 30.3899C34.5129 30.6296 34.6807 30.7375 35.0582 30.8873C35.5555 31.073 35.8191 31.3246 35.8191 31.7561C35.8191 32.2713 35.4177 32.6309 34.7406 32.6309C34.423 32.6309 34.1294 32.547 33.9257 32.4271ZM38.4853 28.3108H39.0066V31.816C39.0066 32.0736 39.0186 32.3672 39.0306 32.5649H38.5632L38.5393 32.0616H38.5213C38.3655 32.3852 38.018 32.6309 37.5446 32.6309C36.8436 32.6309 36.2984 32.0377 36.2984 31.1569C36.2924 30.1922 36.8975 29.605 37.5986 29.605C38.0479 29.605 38.3415 29.8147 38.4734 30.0424H38.4853V28.3108ZM38.4853 31.3486V30.8453C38.4853 30.7794 38.4794 30.6895 38.4614 30.6236C38.3835 30.2941 38.0959 30.0184 37.7004 30.0184C37.1552 30.0184 36.8316 30.4978 36.8316 31.1329C36.8316 31.7201 37.1252 32.2054 37.6884 32.2054C38.042 32.2054 38.3655 31.9658 38.4614 31.5763C38.4794 31.5044 38.4853 31.4325 38.4853 31.3486ZM42.2299 31.2108H40.1927C40.2047 31.9238 40.6541 32.2174 41.1873 32.2174C41.5648 32.2174 41.7985 32.1515 41.9902 32.0676L42.0861 32.4451C41.9004 32.529 41.5768 32.6309 41.1154 32.6309C40.2227 32.6309 39.6894 32.0377 39.6894 31.1629C39.6894 30.2881 40.2047 29.605 41.0495 29.605C42.0022 29.605 42.2479 30.4319 42.2479 30.9651C42.2479 31.073 42.2419 31.1509 42.2299 31.2108ZM40.1987 30.8333H41.7386C41.7446 30.5038 41.6008 29.9825 41.0076 29.9825C40.4683 29.9825 40.2406 30.4678 40.1987 30.8333ZM45.327 28.6044C46.1419 28.6044 46.6152 29.3354 46.6152 30.5757C46.6152 31.8999 46.1179 32.6309 45.2611 32.6309C44.5001 32.6309 43.9788 31.9178 43.9669 30.6296C43.9669 29.3174 44.5361 28.6044 45.327 28.6044ZM45.291 29.0118C44.8357 29.0118 44.5001 29.5751 44.5001 30.6356C44.5001 31.6482 44.8117 32.2234 45.291 32.2234C45.8243 32.2234 46.082 31.5943 46.082 30.5996C46.082 29.641 45.8423 29.0118 45.291 29.0118ZM48.4079 28.6044C49.2228 28.6044 49.6962 29.3354 49.6962 30.5757C49.6962 31.8999 49.1988 32.6309 48.342 32.6309C47.5811 32.6309 47.0598 31.9178 47.0478 30.6296C47.0478 29.3174 47.617 28.6044 48.4079 28.6044ZM48.372 29.0118C47.9166 29.0118 47.5811 29.5751 47.5811 30.6356C47.5811 31.6482 47.8926 32.2234 48.372 32.2234C48.9052 32.2234 49.1629 31.5943 49.1629 30.5996C49.1629 29.641 48.9232 29.0118 48.372 29.0118ZM50.3085 32.7986H49.907L51.5727 28.4546H51.9862L50.3085 32.7986ZM53.5517 28.6044C54.3665 28.6044 54.8399 29.3354 54.8399 30.5757C54.8399 31.8999 54.3426 32.6309 53.4857 32.6309C52.7248 32.6309 52.2035 31.9178 52.1915 30.6296C52.1915 29.3174 52.7607 28.6044 53.5517 28.6044ZM53.5157 29.0118C53.0603 29.0118 52.7248 29.5751 52.7248 30.6356C52.7248 31.6482 53.0364 32.2234 53.5157 32.2234C54.049 32.2234 54.3066 31.5943 54.3066 30.5996C54.3066 29.641 54.0669 29.0118 53.5157 29.0118ZM56.6326 28.6044C57.4475 28.6044 57.9208 29.3354 57.9208 30.5757C57.9208 31.8999 57.4235 32.6309 56.5667 32.6309C55.8057 32.6309 55.2844 31.9178 55.2725 30.6296C55.2725 29.3174 55.8417 28.6044 56.6326 28.6044ZM56.5966 29.0118C56.1413 29.0118 55.8057 29.5751 55.8057 30.6356C55.8057 31.6482 56.1173 32.2234 56.5966 32.2234C57.1299 32.2234 57.3875 31.5943 57.3875 30.5996C57.3875 29.641 57.1479 29.0118 56.5966 29.0118Z" fill="#B2B2B2"/>
<path d="M116.777 68.6228H117.455C117.42 68.9474 117.327 69.2379 117.176 69.4943C117.026 69.7506 116.813 69.9541 116.537 70.1046C116.262 70.2528 115.919 70.3269 115.507 70.3269C115.206 70.3269 114.932 70.2705 114.685 70.1576C114.441 70.0447 114.23 69.8847 114.054 69.6777C113.877 69.4684 113.741 69.2179 113.644 68.9262C113.55 68.6322 113.503 68.3053 113.503 67.9454V67.4338C113.503 67.0739 113.55 66.7482 113.644 66.4565C113.741 66.1625 113.878 65.9108 114.057 65.7015C114.238 65.4921 114.456 65.331 114.71 65.2181C114.964 65.1052 115.25 65.0488 115.567 65.0488C115.955 65.0488 116.283 65.1217 116.552 65.2675C116.82 65.4133 117.028 65.6156 117.176 65.8744C117.327 66.1307 117.42 66.4283 117.455 66.767H116.777C116.744 66.5271 116.683 66.3213 116.594 66.1496C116.505 65.9755 116.378 65.8414 116.213 65.7473C116.048 65.6533 115.833 65.6062 115.567 65.6062C115.339 65.6062 115.138 65.6497 114.964 65.7368C114.792 65.8238 114.648 65.9473 114.53 66.1072C114.415 66.2672 114.328 66.4589 114.269 66.6823C114.21 66.9058 114.181 67.1539 114.181 67.4268V67.9454C114.181 68.1971 114.207 68.4335 114.258 68.6546C114.312 68.8757 114.394 69.0697 114.502 69.2367C114.61 69.4037 114.748 69.5354 114.915 69.6319C115.082 69.7259 115.279 69.773 115.507 69.773C115.797 69.773 116.027 69.7271 116.199 69.6354C116.37 69.5437 116.5 69.4119 116.587 69.2402C116.676 69.0685 116.74 68.8627 116.777 68.6228ZM119.011 64.8371V70.2563H118.355V64.8371H119.011ZM120.786 66.4389V70.2563H120.13V66.4389H120.786ZM120.081 65.4263C120.081 65.3204 120.112 65.2311 120.176 65.1581C120.242 65.0852 120.338 65.0488 120.465 65.0488C120.59 65.0488 120.685 65.0852 120.751 65.1581C120.819 65.2311 120.853 65.3204 120.853 65.4263C120.853 65.5274 120.819 65.6144 120.751 65.6874C120.685 65.7579 120.59 65.7932 120.465 65.7932C120.338 65.7932 120.242 65.7579 120.176 65.6874C120.112 65.6144 120.081 65.5274 120.081 65.4263ZM123.436 70.3269C123.171 70.3269 122.929 70.2822 122.713 70.1928C122.499 70.1011 122.314 69.9729 122.159 69.8083C122.006 69.6436 121.889 69.4484 121.806 69.2226C121.724 68.9968 121.683 68.7498 121.683 68.4817V68.3335C121.683 68.023 121.729 67.7466 121.82 67.5044C121.912 67.2598 122.037 67.0528 122.194 66.8834C122.352 66.7141 122.531 66.5859 122.731 66.4988C122.931 66.4118 123.138 66.3683 123.352 66.3683C123.624 66.3683 123.86 66.4153 124.057 66.5094C124.257 66.6035 124.421 66.7352 124.548 66.9046C124.675 67.0716 124.769 67.2692 124.83 67.4973C124.891 67.7231 124.922 67.9701 124.922 68.2382V68.5311H122.071V67.9983H124.269V67.9489C124.26 67.7796 124.224 67.6149 124.163 67.455C124.104 67.295 124.01 67.1633 123.881 67.0598C123.752 66.9563 123.575 66.9046 123.352 66.9046C123.203 66.9046 123.067 66.9363 122.942 66.9998C122.818 67.061 122.711 67.1527 122.621 67.275C122.532 67.3974 122.463 67.5467 122.413 67.7231C122.364 67.8995 122.339 68.103 122.339 68.3335V68.4817C122.339 68.6628 122.364 68.8333 122.413 68.9933C122.465 69.1509 122.539 69.2896 122.635 69.4096C122.734 69.5295 122.853 69.6236 122.992 69.6918C123.133 69.7601 123.293 69.7942 123.472 69.7942C123.702 69.7942 123.897 69.7471 124.057 69.653C124.217 69.5589 124.357 69.4331 124.477 69.2755L124.872 69.5895C124.79 69.7142 124.685 69.833 124.558 69.9459C124.431 70.0588 124.275 70.1505 124.089 70.2211C123.906 70.2916 123.688 70.3269 123.436 70.3269ZM126.355 67.2539V70.2563H125.702V66.4389H126.319L126.355 67.2539ZM126.199 68.203L125.928 68.1924C125.93 67.9313 125.969 67.6902 126.044 67.4691C126.119 67.2456 126.225 67.0516 126.362 66.8869C126.498 66.7223 126.66 66.5953 126.848 66.5059C127.039 66.4142 127.25 66.3683 127.48 66.3683C127.668 66.3683 127.838 66.3942 127.988 66.4459C128.139 66.4953 128.267 66.5753 128.373 66.6858C128.481 66.7964 128.563 66.9399 128.62 67.1163C128.676 67.2903 128.704 67.5032 128.704 67.7549V70.2563H128.048V67.7478C128.048 67.5479 128.019 67.3879 127.96 67.268C127.901 67.1457 127.815 67.0575 127.702 67.0034C127.589 66.9469 127.451 66.9187 127.286 66.9187C127.124 66.9187 126.976 66.9528 126.841 67.021C126.71 67.0892 126.596 67.1833 126.499 67.3033C126.405 67.4232 126.331 67.5608 126.277 67.7161C126.225 67.869 126.199 68.0312 126.199 68.203ZM131.312 66.4389V66.9399H129.248V66.4389H131.312ZM129.947 65.511H130.599V69.3108C130.599 69.4402 130.619 69.5378 130.659 69.6036C130.699 69.6695 130.751 69.713 130.815 69.7342C130.878 69.7553 130.946 69.7659 131.019 69.7659C131.073 69.7659 131.13 69.7612 131.189 69.7518C131.25 69.7401 131.296 69.7306 131.326 69.7236L131.33 70.2563C131.278 70.2728 131.21 70.2881 131.125 70.3022C131.043 70.3187 130.943 70.3269 130.825 70.3269C130.665 70.3269 130.518 70.2952 130.384 70.2317C130.25 70.1681 130.143 70.0623 130.063 69.9141C129.985 69.7636 129.947 69.5613 129.947 69.3073V65.511ZM133.68 70.3269C133.414 70.3269 133.173 70.2822 132.957 70.1928C132.743 70.1011 132.558 69.9729 132.403 69.8083C132.25 69.6436 132.132 69.4484 132.05 69.2226C131.968 68.9968 131.926 68.7498 131.926 68.4817V68.3335C131.926 68.023 131.972 67.7466 132.064 67.5044C132.156 67.2598 132.28 67.0528 132.438 66.8834C132.596 66.7141 132.774 66.5859 132.974 66.4988C133.174 66.4118 133.381 66.3683 133.595 66.3683C133.868 66.3683 134.103 66.4153 134.301 66.5094C134.501 66.6035 134.664 66.7352 134.791 66.9046C134.918 67.0716 135.012 67.2692 135.074 67.4973C135.135 67.7231 135.165 67.9701 135.165 68.2382V68.5311H132.314V67.9983H134.513V67.9489C134.503 67.7796 134.468 67.6149 134.407 67.455C134.348 67.295 134.254 67.1633 134.124 67.0598C133.995 66.9563 133.819 66.9046 133.595 66.9046C133.447 66.9046 133.311 66.9363 133.186 66.9998C133.061 67.061 132.954 67.1527 132.865 67.275C132.775 67.3974 132.706 67.5467 132.657 67.7231C132.607 67.8995 132.583 68.103 132.583 68.3335V68.4817C132.583 68.6628 132.607 68.8333 132.657 68.9933C132.708 69.1509 132.783 69.2896 132.879 69.4096C132.978 69.5295 133.097 69.6236 133.235 69.6918C133.376 69.7601 133.536 69.7942 133.715 69.7942C133.946 69.7942 134.141 69.7471 134.301 69.653C134.461 69.5589 134.601 69.4331 134.721 69.2755L135.116 69.5895C135.034 69.7142 134.929 69.833 134.802 69.9459C134.675 70.0588 134.518 70.1505 134.333 70.2211C134.149 70.2916 133.932 70.3269 133.68 70.3269Z" fill="#B2B2B2"/>
<path d="M98.4759 80.4691H95.8279L95.8136 79.3569H98.2175C98.6146 79.3569 98.9614 79.2899 99.258 79.1559C99.5546 79.022 99.7843 78.8306 99.9469 78.5819C100.114 78.3283 100.198 78.0269 100.198 77.6777C100.198 77.295 100.124 76.984 99.9756 76.7448C99.8321 76.5008 99.6097 76.3238 99.3083 76.2138C99.0117 76.099 98.6337 76.0416 98.1745 76.0416H96.1365V85.356H94.7515V74.9078H98.1745C98.7103 74.9078 99.1887 74.9628 99.6097 75.0728C100.031 75.1781 100.387 75.3455 100.679 75.5751C100.975 75.8 101.2 76.087 101.353 76.4363C101.507 76.7855 101.583 77.2041 101.583 77.692C101.583 78.1226 101.473 78.5125 101.253 78.8617C101.033 79.2062 100.727 79.4884 100.334 79.7085C99.9469 79.9286 99.4925 80.0697 98.971 80.1319L98.4759 80.4691ZM98.4113 85.356H95.2826L96.0647 84.2293H98.4113C98.8514 84.2293 99.2246 84.1528 99.5307 83.9997C99.8417 83.8466 100.078 83.6313 100.241 83.3539C100.404 83.0716 100.485 82.7391 100.485 82.3564C100.485 81.9689 100.416 81.634 100.277 81.3518C100.138 81.0695 99.9206 80.8519 99.624 80.6988C99.3274 80.5457 98.9447 80.4691 98.4759 80.4691H96.5025L96.5168 79.3569H99.215L99.5092 79.7587C100.012 79.8018 100.437 79.9453 100.787 80.1893C101.136 80.4285 101.401 80.7346 101.583 81.1078C101.77 81.4809 101.863 81.8924 101.863 82.3421C101.863 82.9927 101.719 83.5428 101.432 83.9925C101.15 84.4374 100.751 84.7771 100.234 85.0115C99.7173 85.2411 99.1097 85.356 98.4113 85.356ZM106.656 74.3337V85.356H105.321V74.3337H106.656ZM114.872 84.0284V80.0314C114.872 79.7252 114.81 79.4597 114.685 79.2349C114.566 79.0052 114.384 78.8282 114.14 78.7039C113.896 78.5795 113.594 78.5173 113.236 78.5173C112.901 78.5173 112.607 78.5747 112.353 78.6895C112.104 78.8043 111.908 78.955 111.765 79.1416C111.626 79.3282 111.556 79.5291 111.556 79.7444H110.229C110.229 79.4669 110.301 79.1918 110.444 78.9191C110.588 78.6464 110.793 78.4001 111.061 78.18C111.334 77.9552 111.659 77.7782 112.037 77.649C112.42 77.515 112.846 77.4481 113.315 77.4481C113.879 77.4481 114.377 77.5437 114.807 77.7351C115.243 77.9265 115.582 78.2159 115.826 78.6034C116.075 78.9861 116.199 79.4669 116.199 80.0458V83.6624C116.199 83.9208 116.221 84.1958 116.264 84.4877C116.312 84.7795 116.381 85.0306 116.472 85.2411V85.356H115.087C115.02 85.2029 114.967 84.9996 114.929 84.746C114.891 84.4877 114.872 84.2485 114.872 84.0284ZM115.101 80.6485L115.116 81.5814H113.774C113.396 81.5814 113.059 81.6125 112.762 81.6747C112.465 81.7321 112.217 81.8206 112.016 81.9402C111.815 82.0598 111.662 82.2105 111.556 82.3923C111.451 82.5693 111.399 82.7774 111.399 83.0166C111.399 83.2606 111.454 83.483 111.564 83.684C111.674 83.8849 111.839 84.0452 112.059 84.1648C112.284 84.2796 112.559 84.337 112.884 84.337C113.291 84.337 113.649 84.2509 113.96 84.0786C114.271 83.9064 114.518 83.6959 114.7 83.4472C114.886 83.1984 114.987 82.9568 115.001 82.7224L115.568 83.361C115.534 83.562 115.443 83.7844 115.295 84.0284C115.147 84.2724 114.948 84.5068 114.7 84.7316C114.456 84.9517 114.164 85.1359 113.824 85.2842C113.489 85.4277 113.111 85.4995 112.69 85.4995C112.164 85.4995 111.702 85.3966 111.305 85.1909C110.913 84.9852 110.607 84.7101 110.387 84.3657C110.172 84.0164 110.064 83.6266 110.064 83.196C110.064 82.7798 110.145 82.4138 110.308 82.0981C110.471 81.7776 110.705 81.512 111.011 81.3015C111.317 81.0863 111.686 80.9236 112.116 80.8136C112.547 80.7036 113.028 80.6485 113.559 80.6485H115.101ZM122.901 84.4087C123.217 84.4087 123.509 84.3441 123.777 84.215C124.044 84.0858 124.264 83.9088 124.437 83.684C124.609 83.4543 124.707 83.1936 124.731 82.9018H125.994C125.97 83.361 125.814 83.7892 125.527 84.1863C125.245 84.5786 124.874 84.8967 124.415 85.1407C123.956 85.3799 123.451 85.4995 122.901 85.4995C122.317 85.4995 121.808 85.3966 121.373 85.1909C120.942 84.9852 120.583 84.7029 120.296 84.3441C120.014 83.9854 119.801 83.5739 119.658 83.1099C119.519 82.6411 119.449 82.1459 119.449 81.6245V81.3231C119.449 80.8016 119.519 80.3089 119.658 79.8448C119.801 79.376 120.014 78.9622 120.296 78.6034C120.583 78.2446 120.942 77.9623 121.373 77.7566C121.808 77.5509 122.317 77.4481 122.901 77.4481C123.509 77.4481 124.04 77.5724 124.494 77.8212C124.949 78.0652 125.305 78.4001 125.563 78.8258C125.826 79.2468 125.97 79.7252 125.994 80.261H124.731C124.707 79.9405 124.616 79.6511 124.458 79.3927C124.305 79.1344 124.095 78.9287 123.827 78.7756C123.564 78.6177 123.255 78.5388 122.901 78.5388C122.494 78.5388 122.152 78.6201 121.875 78.7828C121.602 78.9407 121.385 79.1559 121.222 79.4286C121.064 79.6965 120.949 79.9955 120.877 80.3256C120.81 80.6509 120.777 80.9834 120.777 81.3231V81.6245C120.777 81.9641 120.81 82.299 120.877 82.6291C120.944 82.9592 121.057 83.2582 121.215 83.5261C121.377 83.794 121.595 84.0093 121.868 84.1719C122.145 84.3298 122.49 84.4087 122.901 84.4087ZM130.328 74.3337V85.356H128.993V74.3337H130.328ZM135.071 77.5916L131.684 81.2154L129.789 83.1816L129.682 81.768L131.038 80.1462L133.449 77.5916H135.071ZM133.858 85.356L131.088 81.6532L131.777 80.4691L135.423 85.356H133.858Z" fill="#B2B2B2"/>
<rect x="103.395" y="9.24219" width="32.5437" height="32.1451" rx="16.0725" fill="white"/>
<g clip-path="url(#clip0_8388_398390)">
<path fill-rule="evenodd" clip-rule="evenodd" d="M121.196 22.7348C120.813 23.188 120.673 23.7807 120.673 24.443C120.673 25.0356 120.883 25.5934 121.196 26.0117L120.569 26.3603C120.185 25.8026 119.941 25.1402 119.941 24.443C119.941 23.6761 120.116 22.944 120.569 22.3862L121.196 22.7348Z" fill="#FF5000"/>
<path fill-rule="evenodd" clip-rule="evenodd" d="M121.649 21.9678C121.649 22.2119 121.439 22.421 121.195 22.421C120.951 22.421 120.742 22.2119 120.742 21.9678C120.742 21.7238 120.951 21.5146 121.195 21.5146C121.439 21.5146 121.649 21.7238 121.649 21.9678Z" fill="#FF5000"/>
<path fill-rule="evenodd" clip-rule="evenodd" d="M123.639 24.8605V22.1763H122.733V23.4313C122.628 23.2918 122.384 23.2221 122.105 23.2221C121.513 23.2221 120.955 23.6753 120.99 24.4422C120.99 25.2091 121.513 25.6275 122.071 25.6275C122.349 25.6275 122.663 25.5229 122.837 25.244L122.872 25.5926H123.674C123.674 25.488 123.639 25.1743 123.639 24.8605ZM122.768 24.4422C122.768 24.5119 122.768 24.5468 122.768 24.6165C122.733 24.7908 122.593 24.9651 122.384 24.9651C122.105 24.9651 121.931 24.756 121.931 24.4422C121.931 24.1633 122.071 23.8844 122.384 23.8844C122.593 23.8844 122.733 24.0239 122.768 24.1982C122.768 24.233 122.768 24.2679 122.768 24.3028V24.4422Z" fill="#FF5000"/>
<path fill-rule="evenodd" clip-rule="evenodd" d="M126.254 25.0001V24.2331C126.254 23.6056 125.905 23.2222 125.103 23.2222C124.58 23.2222 124.232 23.3616 124.092 23.4313L124.232 23.9891C124.371 23.9194 124.685 23.8148 124.929 23.8148C125.278 23.8148 125.347 23.9194 125.347 23.9891C124.476 23.9891 123.918 24.268 123.918 24.8955C123.918 25.2789 124.232 25.6275 124.72 25.6275C124.999 25.6275 125.243 25.5578 125.417 25.3835H125.452L125.487 25.5578H126.288C126.254 25.4881 126.254 25.2789 126.254 25.0001ZM125.417 24.6863C125.417 24.7212 125.417 24.7909 125.417 24.8258C125.382 24.9652 125.243 25.0698 125.103 25.0698C124.929 25.0698 124.859 25.0001 124.859 24.8606C124.859 24.6863 125.034 24.5817 125.452 24.5817V24.6863H125.417Z" fill="#FF5000"/>
<path fill-rule="evenodd" clip-rule="evenodd" d="M114.401 24.1982V25.5926H113.564V24.3725C113.564 24.0588 113.46 23.9193 113.251 23.9193C113.111 23.9193 113.007 24.0239 112.972 24.1285C112.937 24.1982 112.937 24.2679 112.937 24.3028V25.5926H112.1V24.3725C112.1 24.0588 111.996 23.9193 111.787 23.9193C111.612 23.9193 111.508 24.0588 111.508 24.1285C111.473 24.1982 111.473 24.2679 111.473 24.3028V25.5926H110.601V24.0588C110.601 23.745 110.601 23.4661 110.566 23.257H111.298L111.333 23.5707H111.368C111.438 23.4661 111.647 23.2221 112.1 23.2221C112.414 23.2221 112.658 23.3616 112.763 23.6056C112.867 23.4661 112.972 23.3964 113.111 23.3267C113.251 23.257 113.39 23.2221 113.564 23.2221C114.087 23.1872 114.401 23.5359 114.401 24.1982Z" fill="#FF5000"/>
<path fill-rule="evenodd" clip-rule="evenodd" d="M115.969 23.1523C115.062 23.1523 114.574 23.6753 114.574 24.4073C114.574 25.1743 115.202 25.6274 115.899 25.6274C116.631 25.6274 117.258 25.1743 117.258 24.3725C117.293 23.6404 116.736 23.1523 115.969 23.1523ZM115.934 24.9651C115.655 24.9651 115.515 24.6862 115.515 24.3725C115.515 24.0587 115.62 23.7798 115.934 23.7798C116.213 23.7798 116.352 24.0587 116.352 24.3725C116.352 24.7559 116.178 24.9651 115.934 24.9651Z" fill="#FF5000"/>
<path fill-rule="evenodd" clip-rule="evenodd" d="M119.875 23.2222L118.969 25.5578H118.063L117.156 23.2222H118.132L118.411 24.2331C118.481 24.4074 118.481 24.5817 118.516 24.756H118.551C118.586 24.5817 118.62 24.4423 118.655 24.2331L118.934 23.2222H119.875Z" fill="#FF5000"/>
<path d="M108.577 25.5239H107.706C106.974 25.5239 106.416 26.1166 106.451 26.8138C106.486 27.4413 107.009 27.9642 107.671 27.9642H112.412" stroke="#FF5000" stroke-width="0.199359" stroke-miterlimit="10"/>
<path d="M108.438 24.687L109.623 25.5585L108.438 26.43" stroke="#FF5000" stroke-width="0.199359" stroke-miterlimit="10"/>
<path d="M130.748 27.0228H131.62C132.352 27.0228 132.91 26.4301 132.875 25.7329C132.84 25.1054 132.317 24.5825 131.655 24.5825H126.879" stroke="#FF5000" stroke-width="0.199359" stroke-miterlimit="10"/>
<path d="M130.888 27.8592L129.703 26.9877L130.888 26.1162" stroke="#FF5000" stroke-width="0.199359" stroke-miterlimit="10"/>
<path d="M113.528 26.9878H114.608L114.574 27.0924H113.667L113.493 27.929H114.329L114.295 28.0336H113.458L113.249 29.0794H113.109L113.528 26.9878Z" fill="#FF5000"/>
<path d="M115.237 26.9526L114.819 29.114H114.68L115.098 26.9526H115.237Z" fill="#FF5000"/>
<path d="M115.758 26.9875C115.933 26.9526 116.107 26.9526 116.316 26.9526C116.735 26.9526 117.048 27.0921 117.223 27.3012C117.292 27.4058 117.362 27.5801 117.397 27.8242C117.397 28.1728 117.257 28.5214 116.979 28.7654C116.7 29.0094 116.351 29.114 115.933 29.114C115.793 29.114 115.584 29.114 115.375 29.114L115.758 26.9875ZM115.549 28.9746C115.689 29.0094 115.863 29.0094 115.933 29.0094C116.386 29.0094 116.7 28.87 116.909 28.6957C117.153 28.4865 117.257 28.1728 117.257 27.8939C117.257 27.4755 117.048 27.0921 116.316 27.0921C116.212 27.0921 116.002 27.0921 115.898 27.1269L115.549 28.9746Z" fill="#FF5000"/>
<path d="M118.79 28.0685H117.919L117.745 29.0097H118.721L118.686 29.1143H117.57L117.989 26.9878H119.069L119.034 27.0924H118.128L117.989 27.8942H118.86L118.79 28.0685Z" fill="#FF5000"/>
<path d="M119.524 26.9878H119.663L119.28 29.0097H120.256L120.221 29.1143H119.105L119.524 26.9878Z" fill="#FF5000"/>
<path d="M121.093 26.9526L120.675 29.114H120.535L120.953 26.9526H121.093Z" fill="#FF5000"/>
<path d="M121.649 26.9875C121.823 26.9526 121.998 26.9526 122.207 26.9526C122.625 26.9526 122.939 27.0921 123.113 27.3012C123.183 27.4058 123.253 27.5801 123.288 27.8242C123.288 28.1728 123.148 28.5214 122.869 28.7654C122.59 29.0094 122.242 29.114 121.823 29.114C121.684 29.114 121.475 29.114 121.266 29.114L121.649 26.9875ZM121.405 28.9746C121.545 29.0094 121.719 29.0094 121.789 29.0094C122.242 29.0094 122.555 28.87 122.765 28.6957C123.009 28.4865 123.113 28.1728 123.113 27.8939C123.113 27.4755 122.904 27.0921 122.172 27.0921C122.067 27.0921 121.858 27.0921 121.754 27.1269L121.405 28.9746Z" fill="#FF5000"/>
<path d="M123.811 28.3473L123.393 29.0793H123.219L124.439 26.918H124.578L124.997 29.0793H124.822L124.683 28.3473H123.811ZM124.683 28.2078L124.543 27.4757C124.543 27.3712 124.509 27.2317 124.474 27.1271C124.404 27.2317 124.369 27.3363 124.299 27.4409L123.881 28.173H124.683V28.2078Z" fill="#FF5000"/>
<path d="M125.731 26.9875C125.905 26.9526 126.08 26.9526 126.289 26.9526C126.707 26.9526 127.021 27.0921 127.195 27.3012C127.265 27.4058 127.335 27.5801 127.37 27.8242C127.37 28.1728 127.23 28.5214 126.951 28.7654C126.672 29.0094 126.324 29.114 125.905 29.114C125.766 29.114 125.557 29.114 125.348 29.114L125.731 26.9875ZM125.487 28.9746C125.627 29.0094 125.801 29.0094 125.871 29.0094C126.324 29.0094 126.637 28.87 126.847 28.6957C127.091 28.4865 127.195 28.1728 127.195 27.8939C127.195 27.4755 126.986 27.0921 126.254 27.0921C126.149 27.0921 125.94 27.0921 125.836 27.1269L125.487 28.9746Z" fill="#FF5000"/>
<path d="M128.763 28.0685H127.892L127.717 29.0097H128.693L128.659 29.1143H127.543L127.961 26.9878H129.042L129.007 27.0924H128.101L127.961 27.8942H128.833L128.763 28.0685Z" fill="#FF5000"/>
</g>
<defs>
<clipPath id="clip0_8388_398390">
<rect width="26.5812" height="7.84363" fill="white" transform="translate(106.375 21.3931)"/>
</clipPath>
</defs>
</svg>
