<svg width="145" height="94" viewBox="0 0 145 94" fill="none" xmlns="http://www.w3.org/2000/svg">
<rect y="0.941895" width="144.514" height="92.9018" rx="4.12897" fill="#868486"/>
<path d="M67.5087 56.2538C68.4494 56.2538 68.8868 57.0927 68.8868 58.2371C68.8868 59.4953 68.3954 60.2803 67.4607 60.2803C66.568 60.2803 66.0886 59.4654 66.0826 58.279C66.0826 57.0627 66.5979 56.2538 67.5087 56.2538ZM67.4907 56.817C67.1012 56.817 66.8256 57.3024 66.8256 58.273C66.8256 59.2257 67.0832 59.717 67.4847 59.717C67.9221 59.717 68.1438 59.1898 68.1438 58.2551C68.1438 57.3503 67.9341 56.817 67.4907 56.817ZM70.73 56.2538C71.6707 56.2538 72.1081 57.0927 72.1081 58.2371C72.1081 59.4953 71.6168 60.2803 70.6821 60.2803C69.7893 60.2803 69.31 59.4654 69.304 58.279C69.304 57.0627 69.8193 56.2538 70.73 56.2538ZM70.7121 56.817C70.3226 56.817 70.047 57.3024 70.047 58.273C70.047 59.2257 70.3046 59.717 70.7061 59.717C71.1435 59.717 71.3652 59.1898 71.3652 58.2551C71.3652 57.3503 71.1554 56.817 70.7121 56.817ZM73.9514 56.2538C74.8921 56.2538 75.3295 57.0927 75.3295 58.2371C75.3295 59.4953 74.8382 60.2803 73.9035 60.2803C73.0107 60.2803 72.5313 59.4654 72.5254 58.279C72.5254 57.0627 73.0406 56.2538 73.9514 56.2538ZM73.9334 56.817C73.5439 56.817 73.2683 57.3024 73.2683 58.273C73.2683 59.2257 73.526 59.717 73.9274 59.717C74.3648 59.717 74.5865 59.1898 74.5865 58.2551C74.5865 57.3503 74.3768 56.817 73.9334 56.817ZM77.1728 56.2538C78.1135 56.2538 78.5509 57.0927 78.5509 58.2371C78.5509 59.4953 78.0595 60.2803 77.1248 60.2803C76.232 60.2803 75.7527 59.4654 75.7467 58.279C75.7467 57.0627 76.262 56.2538 77.1728 56.2538ZM77.1548 56.817C76.7653 56.817 76.4897 57.3024 76.4897 58.273C76.4897 59.2257 76.7473 59.717 77.1488 59.717C77.5862 59.717 77.8079 59.1898 77.8079 58.2551C77.8079 57.3503 77.5982 56.817 77.1548 56.817ZM86.6415 56.2538C87.5822 56.2538 88.0196 57.0927 88.0196 58.2371C88.0196 59.4953 87.5282 60.2803 86.5935 60.2803C85.7007 60.2803 85.2214 59.4654 85.2154 58.279C85.2154 57.0627 85.7307 56.2538 86.6415 56.2538ZM86.6235 56.817C86.234 56.817 85.9584 57.3024 85.9584 58.273C85.9584 59.2257 86.216 59.717 86.6175 59.717C87.0549 59.717 87.2766 59.1898 87.2766 58.2551C87.2766 57.3503 87.0669 56.817 86.6235 56.817ZM89.8628 56.2538C90.8035 56.2538 91.2409 57.0927 91.2409 58.2371C91.2409 59.4953 90.7496 60.2803 89.8149 60.2803C88.9221 60.2803 88.4428 59.4654 88.4368 58.279C88.4368 57.0627 88.9521 56.2538 89.8628 56.2538ZM89.8448 56.817C89.4554 56.817 89.1798 57.3024 89.1798 58.273C89.1798 59.2257 89.4374 59.717 89.8388 59.717C90.2762 59.717 90.4979 59.1898 90.4979 58.2551C90.4979 57.3503 90.2882 56.817 89.8448 56.817ZM93.0842 56.2538C94.0249 56.2538 94.4623 57.0927 94.4623 58.2371C94.4623 59.4953 93.971 60.2803 93.0362 60.2803C92.1435 60.2803 91.6641 59.4654 91.6581 58.279C91.6581 57.0627 92.1734 56.2538 93.0842 56.2538ZM93.0662 56.817C92.6767 56.817 92.4011 57.3024 92.4011 58.273C92.4011 59.2257 92.6588 59.717 93.0602 59.717C93.4976 59.717 93.7193 59.1898 93.7193 58.2551C93.7193 57.3503 93.5096 56.817 93.0662 56.817ZM96.3055 56.2538C97.2462 56.2538 97.6836 57.0927 97.6836 58.2371C97.6836 59.4953 97.1923 60.2803 96.2576 60.2803C95.3648 60.2803 94.8855 59.4654 94.8795 58.279C94.8795 57.0627 95.3948 56.2538 96.3055 56.2538ZM96.2876 56.817C95.8981 56.817 95.6225 57.3024 95.6225 58.273C95.6225 59.2257 95.8801 59.717 96.2816 59.717C96.719 59.717 96.9407 59.1898 96.9407 58.2551C96.9407 57.3503 96.731 56.817 96.2876 56.817ZM105.774 56.2538C106.715 56.2538 107.152 57.0927 107.152 58.2371C107.152 59.4953 106.661 60.2803 105.726 60.2803C104.834 60.2803 104.354 59.4654 104.348 58.279C104.348 57.0627 104.863 56.2538 105.774 56.2538ZM105.756 56.817C105.367 56.817 105.091 57.3024 105.091 58.273C105.091 59.2257 105.349 59.717 105.75 59.717C106.188 59.717 106.409 59.1898 106.409 58.2551C106.409 57.3503 106.2 56.817 105.756 56.817ZM108.996 56.2538C109.936 56.2538 110.374 57.0927 110.374 58.2371C110.374 59.4953 109.882 60.2803 108.948 60.2803C108.055 60.2803 107.576 59.4654 107.57 58.279C107.57 57.0627 108.085 56.2538 108.996 56.2538ZM108.978 56.817C108.588 56.817 108.313 57.3024 108.313 58.273C108.313 59.2257 108.57 59.717 108.972 59.717C109.409 59.717 109.631 59.1898 109.631 58.2551C109.631 57.3503 109.421 56.817 108.978 56.817ZM112.217 56.2538C113.158 56.2538 113.595 57.0927 113.595 58.2371C113.595 59.4953 113.104 60.2803 112.169 60.2803C111.276 60.2803 110.797 59.4654 110.791 58.279C110.791 57.0627 111.306 56.2538 112.217 56.2538ZM112.199 56.817C111.81 56.817 111.534 57.3024 111.534 58.273C111.534 59.2257 111.792 59.717 112.193 59.717C112.63 59.717 112.852 59.1898 112.852 58.2551C112.852 57.3503 112.642 56.817 112.199 56.817ZM115.438 56.2538C116.379 56.2538 116.816 57.0927 116.816 58.2371C116.816 59.4953 116.325 60.2803 115.39 60.2803C114.498 60.2803 114.018 59.4654 114.012 58.279C114.012 57.0627 114.528 56.2538 115.438 56.2538ZM115.42 56.817C115.031 56.817 114.755 57.3024 114.755 58.273C114.755 59.2257 115.013 59.717 115.414 59.717C115.852 59.717 116.073 59.1898 116.073 58.2551C116.073 57.3503 115.864 56.817 115.42 56.817ZM123.829 60.2743V59.6871C123.948 59.6991 124.062 59.6931 124.236 59.6751C124.53 59.6511 124.811 59.5493 125.027 59.3755C125.285 59.1718 125.458 58.8782 125.53 58.5067H125.518C125.32 58.7224 125.039 58.8482 124.667 58.8482C123.99 58.8482 123.487 58.3629 123.487 57.6439C123.487 56.8949 124.062 56.2538 124.889 56.2538C125.8 56.2538 126.279 56.9608 126.279 57.9135C126.279 58.7464 126.01 59.3396 125.602 59.729C125.267 60.0406 124.799 60.2263 124.272 60.2623C124.104 60.2803 123.942 60.2803 123.829 60.2743ZM124.853 56.7991C124.482 56.7991 124.218 57.1286 124.218 57.602C124.218 58.0034 124.452 58.315 124.859 58.315C125.159 58.315 125.374 58.1712 125.488 57.9914C125.512 57.9375 125.53 57.8776 125.53 57.7757C125.53 57.2484 125.332 56.7991 124.853 56.7991ZM128.128 56.2538C129.069 56.2538 129.506 57.0927 129.506 58.2371C129.506 59.4953 129.015 60.2803 128.08 60.2803C127.188 60.2803 126.708 59.4654 126.702 58.279C126.702 57.0627 127.218 56.2538 128.128 56.2538ZM128.11 56.817C127.721 56.817 127.445 57.3024 127.445 58.273C127.445 59.2257 127.703 59.717 128.104 59.717C128.542 59.717 128.764 59.1898 128.764 58.2551C128.764 57.3503 128.554 56.817 128.11 56.817ZM130.038 56.3197H132.656V56.7931L131.008 60.2144H130.235L131.877 56.9429V56.9309H130.038V56.3197ZM133.181 60.0106L133.349 59.4534C133.499 59.5433 133.864 59.6931 134.236 59.6931C134.799 59.6931 135.02 59.3755 135.02 59.0699C135.02 58.6086 134.583 58.4108 134.134 58.4108H133.798V57.8716H134.134C134.469 57.8716 134.901 57.7158 134.901 57.3323C134.901 57.0627 134.709 56.841 134.278 56.841C133.96 56.841 133.642 56.9788 133.481 57.0867L133.313 56.5534C133.535 56.4036 133.972 56.2538 134.433 56.2538C135.242 56.2538 135.65 56.6972 135.65 57.2065C135.65 57.6139 135.41 57.9495 134.931 58.1172V58.1292C135.404 58.2191 135.781 58.5726 135.787 59.0999C135.787 59.759 135.236 60.2803 134.272 60.2803C133.798 60.2803 133.391 60.1484 133.181 60.0106Z" fill="white"/>
<path d="M11.2977 18.7256L9.32125 24.167H8.51345L10.7892 18.1966H11.31L11.2977 18.7256ZM12.9543 24.167L10.9738 18.7256L10.9615 18.1966H11.4822L13.7662 24.167H12.9543ZM12.8518 21.9568V22.6047H9.49758V21.9568H12.8518ZM15.2836 17.8686V24.167H14.5209V17.8686H15.2836ZM17.3341 19.7302V24.167H16.5714V19.7302H17.3341ZM16.514 18.5534C16.514 18.4303 16.5509 18.3265 16.6247 18.2417C16.7013 18.157 16.8133 18.1146 16.961 18.1146C17.1058 18.1146 17.2166 18.157 17.2931 18.2417C17.3724 18.3265 17.412 18.4303 17.412 18.5534C17.412 18.6709 17.3724 18.772 17.2931 18.8568C17.2166 18.9388 17.1058 18.9798 16.961 18.9798C16.8133 18.9798 16.7013 18.9388 16.6247 18.8568C16.5509 18.772 16.514 18.6709 16.514 18.5534ZM19.319 20.6774V24.167H18.5604V19.7302H19.278L19.319 20.6774ZM19.1385 21.7805L18.8228 21.7682C18.8255 21.4647 18.8706 21.1845 18.9581 20.9276C19.0456 20.6679 19.1686 20.4423 19.3272 20.251C19.4857 20.0596 19.6743 19.912 19.893 19.8081C20.1145 19.7015 20.3591 19.6482 20.627 19.6482C20.8457 19.6482 21.0426 19.6783 21.2175 19.7384C21.3925 19.7958 21.5415 19.8888 21.6645 20.0172C21.7902 20.1457 21.8859 20.3125 21.9515 20.5175C22.0171 20.7198 22.0499 20.9672 22.0499 21.2597V24.167H21.2872V21.2515C21.2872 21.0191 21.253 20.8333 21.1847 20.6938C21.1164 20.5517 21.0166 20.4492 20.8854 20.3863C20.7541 20.3207 20.5929 20.2879 20.4015 20.2879C20.2129 20.2879 20.0407 20.3275 19.8848 20.4068C19.7317 20.4861 19.5992 20.5954 19.4871 20.7348C19.3777 20.8743 19.2916 21.0342 19.2287 21.2146C19.1686 21.3923 19.1385 21.5809 19.1385 21.7805ZM25.0517 24.249C24.7428 24.249 24.4626 24.1971 24.2111 24.0932C23.9623 23.9866 23.7477 23.8376 23.5673 23.6462C23.3896 23.4549 23.2529 23.228 23.1573 22.9655C23.0616 22.7031 23.0137 22.4161 23.0137 22.1044V21.9322C23.0137 21.5714 23.0671 21.2501 23.1737 20.9686C23.2803 20.6843 23.4252 20.4437 23.6083 20.2469C23.7915 20.05 23.9992 19.9011 24.2316 19.7999C24.464 19.6988 24.7045 19.6482 24.9533 19.6482C25.2704 19.6482 25.5438 19.7029 25.7734 19.8122C26.0058 19.9216 26.1958 20.0747 26.3434 20.2715C26.491 20.4656 26.6003 20.6952 26.6714 20.9604C26.7425 21.2228 26.778 21.5098 26.778 21.8215V22.1618H23.4648V21.5426H26.0194V21.4852C26.0085 21.2884 25.9675 21.0971 25.8964 20.9112C25.8281 20.7253 25.7187 20.5722 25.5684 20.4519C25.418 20.3316 25.213 20.2715 24.9533 20.2715C24.7811 20.2715 24.6225 20.3084 24.4776 20.3822C24.3328 20.4533 24.2084 20.5599 24.1045 20.702C24.0006 20.8442 23.92 21.0178 23.8626 21.2228C23.8051 21.4278 23.7764 21.6643 23.7764 21.9322V22.1044C23.7764 22.3149 23.8051 22.5131 23.8626 22.699C23.9227 22.8822 24.0088 23.0434 24.1209 23.1829C24.2357 23.3223 24.3738 23.4316 24.535 23.5109C24.6991 23.5902 24.885 23.6298 25.0927 23.6298C25.3606 23.6298 25.5875 23.5751 25.7734 23.4658C25.9593 23.3565 26.122 23.2102 26.2614 23.027L26.7206 23.392C26.625 23.5369 26.5033 23.6749 26.3557 23.8061C26.2081 23.9374 26.0263 24.044 25.8103 24.126C25.5971 24.208 25.3442 24.249 25.0517 24.249ZM29.8784 18.1966H31.8549C32.3032 18.1966 32.6818 18.2649 32.9908 18.4016C33.3024 18.5383 33.5389 18.7406 33.7001 19.0085C33.8642 19.2737 33.9462 19.6004 33.9462 19.9885C33.9462 20.2619 33.8901 20.512 33.7781 20.7389C33.6687 20.9631 33.5102 21.1545 33.3024 21.313C33.0974 21.4688 32.8513 21.585 32.5643 21.6616L32.3429 21.7477H30.4853L30.4771 21.1039H31.8795C32.1638 21.1039 32.4003 21.0547 32.5889 20.9563C32.7775 20.8551 32.9197 20.7198 33.0154 20.5503C33.111 20.3808 33.1589 20.1936 33.1589 19.9885C33.1589 19.7589 33.1138 19.558 33.0236 19.3858C32.9333 19.2135 32.7912 19.081 32.5971 18.988C32.4057 18.8923 32.1583 18.8445 31.8549 18.8445H30.6698V24.167H29.8784V18.1966ZM33.368 24.167L31.9164 21.4606L32.7406 21.4565L34.2127 24.1178V24.167H33.368ZM35.7711 19.7302V24.167H35.0084V19.7302H35.7711ZM34.951 18.5534C34.951 18.4303 34.9879 18.3265 35.0617 18.2417C35.1383 18.157 35.2503 18.1146 35.398 18.1146C35.5429 18.1146 35.6536 18.157 35.7301 18.2417C35.8094 18.3265 35.849 18.4303 35.849 18.5534C35.849 18.6709 35.8094 18.772 35.7301 18.8568C35.6536 18.9388 35.5429 18.9798 35.398 18.9798C35.2503 18.9798 35.1383 18.9388 35.0617 18.8568C34.9879 18.772 34.951 18.6709 34.951 18.5534ZM36.9933 17.8686H37.756V23.3059L37.6904 24.167H36.9933V17.8686ZM40.7535 21.9117V21.9978C40.7535 22.3204 40.7152 22.6197 40.6387 22.8958C40.5621 23.1692 40.45 23.407 40.3024 23.6093C40.1548 23.8116 39.9744 23.9688 39.7611 24.0809C39.5479 24.193 39.3032 24.249 39.0271 24.249C38.7456 24.249 38.4982 24.2012 38.2849 24.1055C38.0744 24.0071 37.8968 23.8663 37.7519 23.6831C37.607 23.5 37.4908 23.2785 37.4033 23.0188C37.3186 22.7591 37.2598 22.4666 37.227 22.1413V21.7641C37.2598 21.436 37.3186 21.1422 37.4033 20.8825C37.4908 20.6228 37.607 20.4013 37.7519 20.2182C37.8968 20.0323 38.0744 19.8915 38.2849 19.7958C38.4954 19.6974 38.7401 19.6482 39.0189 19.6482C39.2978 19.6482 39.5452 19.7029 39.7611 19.8122C39.9771 19.9188 40.1575 20.0719 40.3024 20.2715C40.45 20.471 40.5621 20.7102 40.6387 20.9891C40.7152 21.2652 40.7535 21.5727 40.7535 21.9117ZM39.9908 21.9978V21.9117C39.9908 21.6903 39.9703 21.4825 39.9293 21.2884C39.8883 21.0916 39.8226 20.9194 39.7324 20.7717C39.6422 20.6214 39.5233 20.5038 39.3757 20.4191C39.2281 20.3316 39.0463 20.2879 38.8303 20.2879C38.639 20.2879 38.4722 20.3207 38.33 20.3863C38.1906 20.4519 38.0717 20.5407 37.9733 20.6528C37.8749 20.7622 37.7942 20.8879 37.7314 21.0301C37.6712 21.1695 37.6261 21.3144 37.5961 21.4647V22.453C37.6398 22.6443 37.7109 22.8288 37.8093 23.0065C37.9104 23.1815 38.0444 23.325 38.2111 23.4371C38.3806 23.5492 38.5897 23.6052 38.8385 23.6052C39.0435 23.6052 39.2185 23.5642 39.3634 23.4822C39.511 23.3975 39.6299 23.2813 39.7201 23.1337C39.8131 22.986 39.8814 22.8152 39.9252 22.6211C39.9689 22.427 39.9908 22.2192 39.9908 21.9978ZM43.5625 24.249C43.2536 24.249 42.9734 24.1971 42.7219 24.0932C42.4732 23.9866 42.2586 23.8376 42.0781 23.6462C41.9004 23.4549 41.7638 23.228 41.6681 22.9655C41.5724 22.7031 41.5246 22.4161 41.5246 22.1044V21.9322C41.5246 21.5714 41.5779 21.2501 41.6845 20.9686C41.7911 20.6843 41.936 20.4437 42.1191 20.2469C42.3023 20.05 42.5101 19.9011 42.7424 19.7999C42.9748 19.6988 43.2154 19.6482 43.4641 19.6482C43.7812 19.6482 44.0546 19.7029 44.2842 19.8122C44.5166 19.9216 44.7066 20.0747 44.8542 20.2715C45.0018 20.4656 45.1112 20.6952 45.1822 20.9604C45.2533 21.2228 45.2889 21.5098 45.2889 21.8215V22.1618H41.9756V21.5426H44.5303V21.4852C44.5193 21.2884 44.4783 21.0971 44.4072 20.9112C44.3389 20.7253 44.2296 20.5722 44.0792 20.4519C43.9288 20.3316 43.7238 20.2715 43.4641 20.2715C43.2919 20.2715 43.1333 20.3084 42.9885 20.3822C42.8436 20.4533 42.7192 20.5599 42.6153 20.702C42.5114 20.8442 42.4308 21.0178 42.3734 21.2228C42.316 21.4278 42.2873 21.6643 42.2873 21.9322V22.1044C42.2873 22.3149 42.316 22.5131 42.3734 22.699C42.4335 22.8822 42.5196 23.0434 42.6317 23.1829C42.7465 23.3223 42.8846 23.4316 43.0459 23.5109C43.2099 23.5902 43.3958 23.6298 43.6035 23.6298C43.8714 23.6298 44.0983 23.5751 44.2842 23.4658C44.4701 23.3565 44.6328 23.2102 44.7722 23.027L45.2315 23.392C45.1358 23.5369 45.0141 23.6749 44.8665 23.8061C44.7189 23.9374 44.5371 24.044 44.3211 24.126C44.1079 24.208 43.855 24.249 43.5625 24.249ZM47.0072 19.7302V24.167H46.2445V19.7302H47.0072ZM46.1871 18.5534C46.1871 18.4303 46.224 18.3265 46.2978 18.2417C46.3743 18.157 46.4864 18.1146 46.634 18.1146C46.7789 18.1146 46.8896 18.157 46.9662 18.2417C47.0455 18.3265 47.0851 18.4303 47.0851 18.5534C47.0851 18.6709 47.0455 18.772 46.9662 18.8568C46.8896 18.9388 46.7789 18.9798 46.634 18.9798C46.4864 18.9798 46.3743 18.9388 46.2978 18.8568C46.224 18.772 46.1871 18.6709 46.1871 18.5534ZM48.992 20.4273V24.167H48.2334V19.7302H48.9715L48.992 20.4273ZM50.378 19.7056L50.3739 20.4109C50.311 20.3972 50.2509 20.389 50.1935 20.3863C50.1388 20.3808 50.076 20.3781 50.0049 20.3781C49.8299 20.3781 49.6755 20.4054 49.5415 20.4601C49.4076 20.5148 49.2941 20.5913 49.2012 20.6897C49.1082 20.7881 49.0344 20.9057 48.9797 21.0424C48.9278 21.1763 48.8936 21.324 48.8772 21.4852L48.664 21.6083C48.664 21.3404 48.69 21.0889 48.7419 20.8538C48.7966 20.6187 48.88 20.4109 48.992 20.2305C49.1041 20.0473 49.2463 19.9052 49.4185 19.804C49.5935 19.7001 49.8012 19.6482 50.0418 19.6482C50.0965 19.6482 50.1593 19.655 50.2304 19.6687C50.3015 19.6796 50.3507 19.6919 50.378 19.7056ZM50.8047 21.9978V21.9035C50.8047 21.5837 50.8512 21.287 50.9441 21.0137C51.037 20.7376 51.171 20.4984 51.346 20.2961C51.5209 20.0911 51.7328 19.9325 51.9815 19.8204C52.2303 19.7056 52.5091 19.6482 52.818 19.6482C53.1297 19.6482 53.4099 19.7056 53.6587 19.8204C53.9102 19.9325 54.1234 20.0911 54.2983 20.2961C54.476 20.4984 54.6113 20.7376 54.7043 21.0137C54.7972 21.287 54.8437 21.5837 54.8437 21.9035V21.9978C54.8437 22.3176 54.7972 22.6143 54.7043 22.8876C54.6113 23.161 54.476 23.4002 54.2983 23.6052C54.1234 23.8075 53.9115 23.9661 53.6628 24.0809C53.4167 24.193 53.1379 24.249 52.8262 24.249C52.5146 24.249 52.2344 24.193 51.9856 24.0809C51.7369 23.9661 51.5236 23.8075 51.346 23.6052C51.171 23.4002 51.037 23.161 50.9441 22.8876C50.8512 22.6143 50.8047 22.3176 50.8047 21.9978ZM51.5633 21.9035V21.9978C51.5633 22.2192 51.5892 22.4284 51.6412 22.6252C51.6931 22.8193 51.771 22.9915 51.8749 23.1419C51.9815 23.2922 52.1141 23.4111 52.2727 23.4986C52.4312 23.5833 52.6158 23.6257 52.8262 23.6257C53.034 23.6257 53.2158 23.5833 53.3716 23.4986C53.5302 23.4111 53.6614 23.2922 53.7653 23.1419C53.8691 22.9915 53.9471 22.8193 53.999 22.6252C54.0537 22.4284 54.081 22.2192 54.081 21.9978V21.9035C54.081 21.6848 54.0537 21.4784 53.999 21.2843C53.9471 21.0875 53.8678 20.9139 53.7612 20.7635C53.6573 20.6105 53.5261 20.4902 53.3675 20.4027C53.2117 20.3152 53.0285 20.2715 52.818 20.2715C52.6103 20.2715 52.4271 20.3152 52.2686 20.4027C52.1128 20.4902 51.9815 20.6105 51.8749 20.7635C51.771 20.9139 51.6931 21.0875 51.6412 21.2843C51.5892 21.4784 51.5633 21.6848 51.5633 21.9035ZM61.1917 22.658C61.1917 22.5186 61.1699 22.3956 61.1261 22.2889C61.0851 22.1796 61.0113 22.0812 60.9047 21.9937C60.8008 21.9062 60.6559 21.8229 60.47 21.7436C60.2869 21.6643 60.0545 21.5837 59.773 21.5016C59.4777 21.4142 59.2112 21.3171 58.9733 21.2105C58.7355 21.1012 58.5319 20.9768 58.3624 20.8374C58.1929 20.6979 58.063 20.538 57.9728 20.3576C57.8826 20.1772 57.8375 19.9708 57.8375 19.7384C57.8375 19.506 57.8853 19.2914 57.981 19.0946C58.0767 18.8978 58.2134 18.7269 58.3911 18.5821C58.5715 18.4344 58.7861 18.3196 59.0349 18.2376C59.2836 18.1556 59.5611 18.1146 59.8673 18.1146C60.3156 18.1146 60.6956 18.2007 61.0072 18.3729C61.3216 18.5424 61.5608 18.7652 61.7248 19.0413C61.8888 19.3147 61.9708 19.6072 61.9708 19.9188H61.1835C61.1835 19.6947 61.1357 19.4965 61.04 19.3243C60.9443 19.1493 60.7995 19.0126 60.6054 18.9142C60.4113 18.8131 60.1652 18.7625 59.8673 18.7625C59.5857 18.7625 59.3533 18.8049 59.1702 18.8896C58.987 18.9743 58.8503 19.0892 58.7601 19.234C58.6726 19.3789 58.6289 19.5443 58.6289 19.7302C58.6289 19.856 58.6549 19.9708 58.7068 20.0747C58.7615 20.1758 58.8449 20.2701 58.9569 20.3576C59.0718 20.4451 59.2166 20.5257 59.3916 20.5995C59.5693 20.6733 59.7812 20.7444 60.0272 20.8128C60.3662 20.9084 60.6587 21.015 60.9047 21.1326C61.1507 21.2501 61.353 21.3827 61.5116 21.5303C61.6729 21.6752 61.7918 21.8406 61.8683 22.0265C61.9476 22.2097 61.9872 22.4174 61.9872 22.6498C61.9872 22.8931 61.938 23.1132 61.8396 23.31C61.7412 23.5068 61.6004 23.6749 61.4173 23.8143C61.2341 23.9538 61.0141 24.0617 60.7571 24.1383C60.5029 24.2121 60.2185 24.249 59.9042 24.249C59.6281 24.249 59.3561 24.2107 59.0882 24.1342C58.823 24.0576 58.5811 23.9428 58.3624 23.7897C58.1464 23.6367 57.9728 23.448 57.8416 23.2239C57.7131 22.997 57.6489 22.7345 57.6489 22.4366H58.4362C58.4362 22.6416 58.4758 22.8179 58.5551 22.9655C58.6344 23.1104 58.7424 23.2307 58.879 23.3264C59.0185 23.4221 59.1756 23.4931 59.3506 23.5396C59.5283 23.5833 59.7128 23.6052 59.9042 23.6052C60.1803 23.6052 60.414 23.5669 60.6054 23.4904C60.7967 23.4139 60.9416 23.3045 61.04 23.1624C61.1412 23.0202 61.1917 22.8521 61.1917 22.658ZM62.6886 21.9978V21.9035C62.6886 21.5837 62.7351 21.287 62.8281 21.0137C62.921 20.7376 63.055 20.4984 63.2299 20.2961C63.4049 20.0911 63.6167 19.9325 63.8655 19.8204C64.1143 19.7056 64.3931 19.6482 64.702 19.6482C65.0136 19.6482 65.2938 19.7056 65.5426 19.8204C65.7941 19.9325 66.0073 20.0911 66.1823 20.2961C66.36 20.4984 66.4953 20.7376 66.5882 21.0137C66.6812 21.287 66.7277 21.5837 66.7277 21.9035V21.9978C66.7277 22.3176 66.6812 22.6143 66.5882 22.8876C66.4953 23.161 66.36 23.4002 66.1823 23.6052C66.0073 23.8075 65.7955 23.9661 65.5467 24.0809C65.3007 24.193 65.0218 24.249 64.7102 24.249C64.3986 24.249 64.1184 24.193 63.8696 24.0809C63.6208 23.9661 63.4076 23.8075 63.2299 23.6052C63.055 23.4002 62.921 23.161 62.8281 22.8876C62.7351 22.6143 62.6886 22.3176 62.6886 21.9978ZM63.4472 21.9035V21.9978C63.4472 22.2192 63.4732 22.4284 63.5251 22.6252C63.5771 22.8193 63.655 22.9915 63.7589 23.1419C63.8655 23.2922 63.9981 23.4111 64.1566 23.4986C64.3152 23.5833 64.4997 23.6257 64.7102 23.6257C64.918 23.6257 65.0998 23.5833 65.2556 23.4986C65.4141 23.4111 65.5453 23.2922 65.6492 23.1419C65.7531 22.9915 65.831 22.8193 65.883 22.6252C65.9376 22.4284 65.965 22.2192 65.965 21.9978V21.9035C65.965 21.6848 65.9376 21.4784 65.883 21.2843C65.831 21.0875 65.7517 20.9139 65.6451 20.7635C65.5412 20.6105 65.41 20.4902 65.2515 20.4027C65.0957 20.3152 64.9125 20.2715 64.702 20.2715C64.4942 20.2715 64.3111 20.3152 64.1525 20.4027C63.9967 20.4902 63.8655 20.6105 63.7589 20.7635C63.655 20.9139 63.5771 21.0875 63.5251 21.2843C63.4732 21.4784 63.4472 21.6848 63.4472 21.9035ZM70.4019 23.1419V19.7302H71.1646V24.167H70.4389L70.4019 23.1419ZM70.5455 22.2069L70.8612 22.1987C70.8612 22.494 70.8298 22.7673 70.7669 23.0188C70.7068 23.2676 70.6083 23.4836 70.4717 23.6667C70.335 23.8499 70.1559 23.9934 69.9345 24.0973C69.7131 24.1984 69.4438 24.249 69.1267 24.249C68.9107 24.249 68.7125 24.2176 68.5321 24.1547C68.3544 24.0918 68.2013 23.9948 68.0728 23.8636C67.9444 23.7323 67.8446 23.5615 67.7735 23.351C67.7052 23.1405 67.671 22.8876 67.671 22.5924V19.7302H68.4296V22.6006C68.4296 22.8001 68.4515 22.9655 68.4952 23.0968C68.5417 23.2252 68.6032 23.3277 68.6797 23.4043C68.759 23.4781 68.8465 23.53 68.9422 23.5601C69.0406 23.5902 69.1417 23.6052 69.2456 23.6052C69.5682 23.6052 69.8238 23.5437 70.0124 23.4207C70.201 23.2949 70.3363 23.1268 70.4184 22.9163C70.5031 22.7031 70.5455 22.4666 70.5455 22.2069ZM75.6344 23.5437V24.167H72.4073V23.5437H75.6344ZM75.5155 20.2674L72.5795 24.167H72.1162V23.6093L75.0317 19.7302H75.5155V20.2674ZM75.1793 19.7302V20.3576H72.149V19.7302H75.1793ZM79.1201 23.4084V21.1244C79.1201 20.9494 79.0845 20.7977 79.0135 20.6692C78.9451 20.538 78.8413 20.4369 78.7018 20.3658C78.5624 20.2947 78.3902 20.2592 78.1852 20.2592C77.9938 20.2592 77.8257 20.292 77.6808 20.3576C77.5386 20.4232 77.4266 20.5093 77.3446 20.6159C77.2653 20.7225 77.2256 20.8374 77.2256 20.9604H76.467C76.467 20.8018 76.508 20.6446 76.5901 20.4888C76.6721 20.333 76.7896 20.1922 76.9427 20.0665C77.0985 19.938 77.2844 19.8368 77.5004 19.763C77.7191 19.6865 77.9624 19.6482 78.2303 19.6482C78.5528 19.6482 78.8371 19.7029 79.0832 19.8122C79.3319 19.9216 79.526 20.087 79.6655 20.3084C79.8076 20.5271 79.8787 20.8018 79.8787 21.1326V23.1993C79.8787 23.3469 79.891 23.5041 79.9156 23.6708C79.9429 23.8376 79.9826 23.9811 80.0345 24.1014V24.167H79.2431C79.2048 24.0795 79.1748 23.9633 79.1529 23.8184C79.131 23.6708 79.1201 23.5341 79.1201 23.4084ZM79.2513 21.477L79.2595 22.0101H78.4927C78.2767 22.0101 78.084 22.0279 77.9145 22.0634C77.745 22.0962 77.6029 22.1468 77.4881 22.2151C77.3733 22.2835 77.2858 22.3696 77.2256 22.4735C77.1655 22.5746 77.1354 22.6935 77.1354 22.8302C77.1354 22.9696 77.1669 23.0968 77.2297 23.2116C77.2926 23.3264 77.3869 23.418 77.5127 23.4863C77.6412 23.5519 77.7983 23.5847 77.9842 23.5847C78.2166 23.5847 78.4216 23.5355 78.5993 23.4371C78.777 23.3387 78.9178 23.2184 79.0217 23.0762C79.1283 22.9341 79.1857 22.796 79.1939 22.6621L79.5178 23.027C79.4987 23.1419 79.4468 23.269 79.362 23.4084C79.2773 23.5478 79.1638 23.6818 79.0217 23.8102C78.8823 23.936 78.7155 24.0412 78.5214 24.126C78.33 24.208 78.1141 24.249 77.8735 24.249C77.5728 24.249 77.309 24.1902 77.0821 24.0727C76.858 23.9551 76.683 23.7979 76.5572 23.6011C76.4342 23.4016 76.3727 23.1788 76.3727 22.9327C76.3727 22.6949 76.4192 22.4858 76.5121 22.3053C76.6051 22.1222 76.739 21.9705 76.914 21.8502C77.089 21.7272 77.2994 21.6342 77.5455 21.5714C77.7915 21.5085 78.0662 21.477 78.3697 21.477H79.2513Z" fill="white"/>
<path d="M11.5642 32.1208L11.666 32.5402C11.4803 32.6361 11.0908 32.7319 10.5995 32.7319C9.46106 32.7319 8.61023 32.0129 8.61023 30.6827C8.61023 29.4125 9.46706 28.5617 10.7193 28.5617C11.2166 28.5617 11.5402 28.6695 11.678 28.7414L11.5462 29.1668C11.3545 29.071 11.0728 28.9991 10.7373 28.9991C9.79061 28.9991 9.16148 29.6042 9.16148 30.6648C9.16148 31.6594 9.73069 32.2885 10.7073 32.2885C11.0309 32.2885 11.3545 32.2226 11.5642 32.1208ZM12.3166 32.666V28.4119H12.8439V32.666H12.3166ZM14.2689 32.666H13.7416V29.766H14.2689V32.666ZM14.0052 28.6216C14.197 28.6216 14.3288 28.7654 14.3288 28.9511C14.3288 29.1309 14.203 29.2747 13.9933 29.2747C13.8015 29.2747 13.6757 29.1309 13.6757 28.9511C13.6757 28.7714 13.8075 28.6216 14.0052 28.6216ZM17.4857 31.3119H15.4485C15.4605 32.0249 15.9099 32.3185 16.4431 32.3185C16.8206 32.3185 17.0543 32.2526 17.246 32.1687L17.3419 32.5462C17.1562 32.6301 16.8326 32.7319 16.3712 32.7319C15.4785 32.7319 14.9452 32.1387 14.9452 31.2639C14.9452 30.3891 15.4605 29.7061 16.3053 29.7061C17.258 29.7061 17.5037 30.533 17.5037 31.0662C17.5037 31.1741 17.4977 31.252 17.4857 31.3119ZM15.4545 30.9344H16.9944C17.0004 30.6049 16.8566 30.0836 16.2634 30.0836C15.7241 30.0836 15.4964 30.5689 15.4545 30.9344ZM18.1656 32.666V30.5509C18.1656 30.2453 18.1596 30.0057 18.1417 29.766H18.609L18.639 30.2453H18.651C18.7948 29.9757 19.1303 29.7061 19.6096 29.7061C20.0111 29.7061 20.6342 29.9458 20.6342 30.9404V32.666H20.107V30.9943C20.107 30.527 19.9332 30.1375 19.4359 30.1375C19.0944 30.1375 18.8247 30.3832 18.7289 30.6768C18.7049 30.7427 18.6929 30.8325 18.6929 30.9224V32.666H18.1656ZM21.5946 29.2267L22.1099 29.071V29.766H22.8648V30.1675H22.1099V31.7313C22.1099 32.0908 22.2117 32.2945 22.5053 32.2945C22.6491 32.2945 22.733 32.2825 22.8109 32.2586L22.8349 32.66C22.733 32.696 22.5713 32.7319 22.3675 32.7319C22.1219 32.7319 21.9241 32.648 21.7983 32.5102C21.6545 32.3485 21.5946 32.0908 21.5946 31.7493V30.1675H21.1452V29.766H21.5946V29.2267ZM25.763 31.3119H23.7258C23.7378 32.0249 24.1872 32.3185 24.7205 32.3185C25.0979 32.3185 25.3316 32.2526 25.5234 32.1687L25.6192 32.5462C25.4335 32.6301 25.1099 32.7319 24.6486 32.7319C23.7558 32.7319 23.2225 32.1387 23.2225 31.2639C23.2225 30.3891 23.7378 29.7061 24.5827 29.7061C25.5353 29.7061 25.781 30.533 25.781 31.0662C25.781 31.1741 25.775 31.252 25.763 31.3119ZM23.7318 30.9344H25.2717C25.2777 30.6049 25.1339 30.0836 24.5407 30.0836C24.0015 30.0836 23.7738 30.5689 23.7318 30.9344ZM29.699 28.4119H30.2202V31.917C30.2202 32.1747 30.2322 32.4683 30.2442 32.666H29.7768L29.7529 32.1627H29.7349C29.5791 32.4863 29.2316 32.7319 28.7583 32.7319C28.0572 32.7319 27.512 32.1387 27.512 31.258C27.506 30.2933 28.1111 29.7061 28.8122 29.7061C29.2616 29.7061 29.5552 29.9158 29.687 30.1435H29.699V28.4119ZM29.699 31.4497V30.9464C29.699 30.8805 29.693 30.7906 29.675 30.7247C29.5971 30.3951 29.3095 30.1195 28.914 30.1195C28.3688 30.1195 28.0452 30.5989 28.0452 31.234C28.0452 31.8212 28.3388 32.3065 28.9021 32.3065C29.2556 32.3065 29.5791 32.0668 29.675 31.6774C29.693 31.6055 29.699 31.5336 29.699 31.4497ZM33.4435 31.3119H31.4063C31.4183 32.0249 31.8677 32.3185 32.401 32.3185C32.7784 32.3185 33.0121 32.2526 33.2039 32.1687L33.2997 32.5462C33.114 32.6301 32.7904 32.7319 32.3291 32.7319C31.4363 32.7319 30.903 32.1387 30.903 31.2639C30.903 30.3891 31.4183 29.7061 32.2631 29.7061C33.2158 29.7061 33.4615 30.533 33.4615 31.0662C33.4615 31.1741 33.4555 31.252 33.4435 31.3119ZM31.4123 30.9344H32.9522C32.9582 30.6049 32.8144 30.0836 32.2212 30.0836C31.6819 30.0836 31.4543 30.5689 31.4123 30.9344ZM33.9257 32.5282L34.0515 32.1327C34.2133 32.2286 34.4889 32.3365 34.7526 32.3365C35.1301 32.3365 35.3098 32.1507 35.3098 31.9051C35.3098 31.6534 35.16 31.5216 34.7765 31.3778C34.2493 31.1861 34.0036 30.9044 34.0036 30.5569C34.0036 30.0896 34.3871 29.7061 35.0042 29.7061C35.2978 29.7061 35.5555 29.784 35.7113 29.8858L35.5854 30.2693C35.4716 30.1974 35.2619 30.0956 34.9922 30.0956C34.6807 30.0956 34.5129 30.2753 34.5129 30.491C34.5129 30.7307 34.6807 30.8385 35.0582 30.9883C35.5555 31.1741 35.8191 31.4257 35.8191 31.8571C35.8191 32.3724 35.4177 32.7319 34.7406 32.7319C34.423 32.7319 34.1294 32.648 33.9257 32.5282ZM38.4853 28.4119H39.0066V31.917C39.0066 32.1747 39.0186 32.4683 39.0306 32.666H38.5632L38.5393 32.1627H38.5213C38.3655 32.4863 38.018 32.7319 37.5446 32.7319C36.8436 32.7319 36.2984 32.1387 36.2984 31.258C36.2924 30.2933 36.8975 29.7061 37.5986 29.7061C38.0479 29.7061 38.3415 29.9158 38.4734 30.1435H38.4853V28.4119ZM38.4853 31.4497V30.9464C38.4853 30.8805 38.4794 30.7906 38.4614 30.7247C38.3835 30.3951 38.0959 30.1195 37.7004 30.1195C37.1552 30.1195 36.8316 30.5989 36.8316 31.234C36.8316 31.8212 37.1252 32.3065 37.6884 32.3065C38.042 32.3065 38.3655 32.0668 38.4614 31.6774C38.4794 31.6055 38.4853 31.5336 38.4853 31.4497ZM42.2299 31.3119H40.1927C40.2047 32.0249 40.6541 32.3185 41.1873 32.3185C41.5648 32.3185 41.7985 32.2526 41.9902 32.1687L42.0861 32.5462C41.9004 32.6301 41.5768 32.7319 41.1154 32.7319C40.2227 32.7319 39.6894 32.1387 39.6894 31.2639C39.6894 30.3891 40.2047 29.7061 41.0495 29.7061C42.0022 29.7061 42.2479 30.533 42.2479 31.0662C42.2479 31.1741 42.2419 31.252 42.2299 31.3119ZM40.1987 30.9344H41.7386C41.7446 30.6049 41.6008 30.0836 41.0076 30.0836C40.4683 30.0836 40.2406 30.5689 40.1987 30.9344ZM45.327 28.7055C46.1419 28.7055 46.6152 29.4365 46.6152 30.6768C46.6152 32.0009 46.1179 32.7319 45.2611 32.7319C44.5001 32.7319 43.9788 32.0189 43.9669 30.7307C43.9669 29.4185 44.5361 28.7055 45.327 28.7055ZM45.291 29.1129C44.8357 29.1129 44.5001 29.6761 44.5001 30.7367C44.5001 31.7493 44.8117 32.3245 45.291 32.3245C45.8243 32.3245 46.082 31.6954 46.082 30.7007C46.082 29.742 45.8423 29.1129 45.291 29.1129ZM48.4079 28.7055C49.2228 28.7055 49.6962 29.4365 49.6962 30.6768C49.6962 32.0009 49.1988 32.7319 48.342 32.7319C47.5811 32.7319 47.0598 32.0189 47.0478 30.7307C47.0478 29.4185 47.617 28.7055 48.4079 28.7055ZM48.372 29.1129C47.9166 29.1129 47.5811 29.6761 47.5811 30.7367C47.5811 31.7493 47.8926 32.3245 48.372 32.3245C48.9052 32.3245 49.1629 31.6954 49.1629 30.7007C49.1629 29.742 48.9232 29.1129 48.372 29.1129ZM50.3085 32.8997H49.907L51.5727 28.5557H51.9862L50.3085 32.8997ZM53.5517 28.7055C54.3665 28.7055 54.8399 29.4365 54.8399 30.6768C54.8399 32.0009 54.3426 32.7319 53.4857 32.7319C52.7248 32.7319 52.2035 32.0189 52.1915 30.7307C52.1915 29.4185 52.7607 28.7055 53.5517 28.7055ZM53.5157 29.1129C53.0603 29.1129 52.7248 29.6761 52.7248 30.7367C52.7248 31.7493 53.0364 32.3245 53.5157 32.3245C54.049 32.3245 54.3066 31.6954 54.3066 30.7007C54.3066 29.742 54.0669 29.1129 53.5157 29.1129ZM56.6326 28.7055C57.4475 28.7055 57.9208 29.4365 57.9208 30.6768C57.9208 32.0009 57.4235 32.7319 56.5667 32.7319C55.8057 32.7319 55.2844 32.0189 55.2725 30.7307C55.2725 29.4185 55.8417 28.7055 56.6326 28.7055ZM56.5966 29.1129C56.1413 29.1129 55.8057 29.6761 55.8057 30.7367C55.8057 31.7493 56.1173 32.3245 56.5966 32.3245C57.1299 32.3245 57.3875 31.6954 57.3875 30.7007C57.3875 29.742 57.1479 29.1129 56.5966 29.1129Z" fill="#CBCBCB"/>
<path d="M117.356 68.7209H118.033C117.998 69.0455 117.905 69.336 117.754 69.5924C117.604 69.8488 117.391 70.0522 117.116 70.2028C116.84 70.351 116.497 70.4251 116.085 70.4251C115.784 70.4251 115.51 70.3686 115.263 70.2557C115.019 70.1428 114.808 69.9829 114.632 69.7759C114.455 69.5665 114.319 69.316 114.222 69.0244C114.128 68.7304 114.081 68.4034 114.081 68.0435V67.532C114.081 67.1721 114.128 66.8463 114.222 66.5546C114.319 66.2606 114.457 66.009 114.635 65.7996C114.816 65.5903 115.034 65.4292 115.288 65.3163C115.542 65.2034 115.828 65.1469 116.145 65.1469C116.533 65.1469 116.862 65.2198 117.13 65.3657C117.398 65.5115 117.606 65.7138 117.754 65.9725C117.905 66.2289 117.998 66.5264 118.033 66.8651H117.356C117.323 66.6252 117.261 66.4194 117.172 66.2477C117.083 66.0736 116.956 65.9396 116.791 65.8455C116.626 65.7514 116.411 65.7044 116.145 65.7044C115.917 65.7044 115.716 65.7479 115.542 65.8349C115.37 65.9219 115.226 66.0454 115.108 66.2054C114.993 66.3653 114.906 66.557 114.847 66.7805C114.788 67.0039 114.759 67.2521 114.759 67.5249V68.0435C114.759 68.2952 114.785 68.5316 114.836 68.7527C114.89 68.9738 114.972 69.1678 115.08 69.3349C115.188 69.5019 115.326 69.6336 115.493 69.73C115.66 69.8241 115.857 69.8711 116.085 69.8711C116.375 69.8711 116.605 69.8253 116.777 69.7335C116.949 69.6418 117.078 69.5101 117.165 69.3384C117.254 69.1667 117.318 68.9609 117.356 68.7209ZM119.589 64.9352V70.3545H118.933V64.9352H119.589ZM121.364 66.537V70.3545H120.708V66.537H121.364ZM120.659 65.5244C120.659 65.4186 120.69 65.3292 120.754 65.2563C120.82 65.1834 120.916 65.1469 121.043 65.1469C121.168 65.1469 121.263 65.1834 121.329 65.2563C121.397 65.3292 121.431 65.4186 121.431 65.5244C121.431 65.6256 121.397 65.7126 121.329 65.7855C121.263 65.8561 121.168 65.8914 121.043 65.8914C120.916 65.8914 120.82 65.8561 120.754 65.7855C120.69 65.7126 120.659 65.6256 120.659 65.5244ZM124.014 70.4251C123.749 70.4251 123.508 70.3804 123.291 70.291C123.077 70.1993 122.892 70.0711 122.737 69.9064C122.584 69.7418 122.467 69.5465 122.384 69.3207C122.302 69.0949 122.261 68.848 122.261 68.5798V68.4316C122.261 68.1212 122.307 67.8448 122.399 67.6025C122.49 67.3579 122.615 67.1509 122.773 66.9816C122.93 66.8122 123.109 66.684 123.309 66.597C123.509 66.51 123.716 66.4664 123.93 66.4664C124.203 66.4664 124.438 66.5135 124.635 66.6076C124.835 66.7017 124.999 66.8334 125.126 67.0027C125.253 67.1697 125.347 67.3673 125.408 67.5955C125.469 67.8213 125.5 68.0682 125.5 68.3364V68.6292H122.649V68.0965H124.847V68.0471C124.838 67.8777 124.802 67.7131 124.741 67.5531C124.682 67.3932 124.588 67.2615 124.459 67.158C124.33 67.0545 124.153 67.0027 123.93 67.0027C123.782 67.0027 123.645 67.0345 123.521 67.098C123.396 67.1591 123.289 67.2509 123.199 67.3732C123.11 67.4955 123.041 67.6449 122.991 67.8213C122.942 67.9977 122.917 68.2011 122.917 68.4316V68.5798C122.917 68.7609 122.942 68.9315 122.991 69.0914C123.043 69.249 123.117 69.3878 123.214 69.5077C123.312 69.6277 123.431 69.7218 123.57 69.79C123.711 69.8582 123.871 69.8923 124.05 69.8923C124.28 69.8923 124.475 69.8453 124.635 69.7512C124.795 69.6571 124.935 69.5313 125.055 69.3737L125.45 69.6877C125.368 69.8123 125.263 69.9311 125.136 70.044C125.009 70.1569 124.853 70.2486 124.667 70.3192C124.484 70.3898 124.266 70.4251 124.014 70.4251ZM126.933 67.352V70.3545H126.28V66.537H126.897L126.933 67.352ZM126.777 68.3011L126.506 68.2905C126.508 68.0294 126.547 67.7883 126.622 67.5672C126.697 67.3438 126.803 67.1497 126.94 66.9851C127.076 66.8204 127.238 66.6934 127.427 66.604C127.617 66.5123 127.828 66.4664 128.058 66.4664C128.246 66.4664 128.416 66.4923 128.566 66.5441C128.717 66.5935 128.845 66.6734 128.951 66.784C129.059 66.8945 129.141 67.038 129.198 67.2144C129.254 67.3885 129.282 67.6013 129.282 67.853V70.3545H128.626V67.846C128.626 67.646 128.597 67.4861 128.538 67.3661C128.479 67.2438 128.393 67.1556 128.28 67.1015C128.168 67.0451 128.029 67.0168 127.864 67.0168C127.702 67.0168 127.554 67.0509 127.42 67.1192C127.288 67.1874 127.174 67.2815 127.077 67.4014C126.983 67.5214 126.909 67.659 126.855 67.8142C126.803 67.9671 126.777 68.1294 126.777 68.3011ZM131.89 66.537V67.038H129.826V66.537H131.89ZM130.525 65.6091H131.177V69.4089C131.177 69.5383 131.197 69.6359 131.237 69.7018C131.277 69.7676 131.329 69.8112 131.393 69.8323C131.456 69.8535 131.524 69.8641 131.597 69.8641C131.651 69.8641 131.708 69.8594 131.767 69.85C131.828 69.8382 131.874 69.8288 131.904 69.8217L131.908 70.3545C131.856 70.371 131.788 70.3862 131.703 70.4004C131.621 70.4168 131.521 70.4251 131.403 70.4251C131.243 70.4251 131.096 70.3933 130.962 70.3298C130.828 70.2663 130.721 70.1604 130.641 70.0123C130.564 69.8617 130.525 69.6594 130.525 69.4054V65.6091ZM134.258 70.4251C133.992 70.4251 133.751 70.3804 133.535 70.291C133.321 70.1993 133.136 70.0711 132.981 69.9064C132.828 69.7418 132.71 69.5465 132.628 69.3207C132.546 69.0949 132.505 68.848 132.505 68.5798V68.4316C132.505 68.1212 132.55 67.8448 132.642 67.6025C132.734 67.3579 132.858 67.1509 133.016 66.9816C133.174 66.8122 133.352 66.684 133.552 66.597C133.752 66.51 133.959 66.4664 134.173 66.4664C134.446 66.4664 134.681 66.5135 134.879 66.6076C135.079 66.7017 135.242 66.8334 135.369 67.0027C135.496 67.1697 135.59 67.3673 135.652 67.5955C135.713 67.8213 135.743 68.0682 135.743 68.3364V68.6292H132.893V68.0965H135.091V68.0471C135.081 67.8777 135.046 67.7131 134.985 67.5531C134.926 67.3932 134.832 67.2615 134.703 67.158C134.573 67.0545 134.397 67.0027 134.173 67.0027C134.025 67.0027 133.889 67.0345 133.764 67.098C133.639 67.1591 133.532 67.2509 133.443 67.3732C133.354 67.4955 133.284 67.6449 133.235 67.8213C133.185 67.9977 133.161 68.2011 133.161 68.4316V68.5798C133.161 68.7609 133.185 68.9315 133.235 69.0914C133.287 69.249 133.361 69.3878 133.457 69.5077C133.556 69.6277 133.675 69.7218 133.813 69.79C133.955 69.8582 134.115 69.8923 134.293 69.8923C134.524 69.8923 134.719 69.8453 134.879 69.7512C135.039 69.6571 135.179 69.5313 135.299 69.3737L135.694 69.6877C135.612 69.8123 135.507 69.9311 135.38 70.044C135.253 70.1569 135.097 70.2486 134.911 70.3192C134.727 70.3898 134.51 70.4251 134.258 70.4251Z" fill="#CBCBCB"/>
<path d="M72.0479 85.4541H69.8664L69.8807 84.3275H72.0479C72.7942 84.3275 73.4161 84.172 73.9136 83.861C74.4111 83.5453 74.7843 83.1052 75.0331 82.5407C75.2866 81.9714 75.4134 81.3064 75.4134 80.5458V79.9071C75.4134 79.3091 75.3416 78.7781 75.1981 78.314C75.0546 77.8452 74.8441 77.4505 74.5666 77.13C74.2892 76.8047 73.9495 76.5583 73.5476 76.3909C73.1506 76.2234 72.6937 76.1397 72.177 76.1397H69.8233V75.0059H72.177C72.8611 75.0059 73.4855 75.1207 74.05 75.3504C74.6145 75.5752 75.1 75.9029 75.5067 76.3335C75.9181 76.7592 76.2338 77.2759 76.4539 77.8835C76.674 78.4863 76.784 79.1656 76.784 79.9214V80.5458C76.784 81.3016 76.674 81.9833 76.4539 82.5909C76.2338 83.1937 75.9157 83.708 75.4995 84.1337C75.0881 84.5595 74.5905 84.8872 74.0069 85.1168C73.428 85.3417 72.775 85.4541 72.0479 85.4541ZM70.6055 75.0059V85.4541H69.2205V75.0059H70.6055ZM81.6128 77.6897V85.4541H80.2781V77.6897H81.6128ZM80.1776 75.6302C80.1776 75.415 80.2422 75.2332 80.3714 75.0849C80.5053 74.9366 80.7015 74.8624 80.9598 74.8624C81.2134 74.8624 81.4071 74.9366 81.5411 75.0849C81.6798 75.2332 81.7492 75.415 81.7492 75.6302C81.7492 75.8359 81.6798 76.0129 81.5411 76.1613C81.4071 76.3048 81.2134 76.3765 80.9598 76.3765C80.7015 76.3765 80.5053 76.3048 80.3714 76.1613C80.2422 76.0129 80.1776 75.8359 80.1776 75.6302ZM89.8287 84.1266V80.1296C89.8287 79.8234 89.7665 79.5579 89.6421 79.333C89.5225 79.1034 89.3407 78.9264 89.0968 78.802C88.8528 78.6776 88.5514 78.6154 88.1926 78.6154C87.8577 78.6154 87.5635 78.6728 87.31 78.7876C87.0612 78.9025 86.865 79.0532 86.7215 79.2397C86.5828 79.4263 86.5134 79.6272 86.5134 79.8425H85.1859C85.1859 79.565 85.2576 79.29 85.4012 79.0173C85.5447 78.7446 85.7504 78.4982 86.0183 78.2782C86.291 78.0533 86.6163 77.8763 86.9942 77.7471C87.3769 77.6132 87.8027 77.5462 88.2715 77.5462C88.836 77.5462 89.3336 77.6419 89.7641 77.8332C90.1995 78.0246 90.5391 78.314 90.7831 78.7015C91.0319 79.0843 91.1563 79.565 91.1563 80.1439V83.7606C91.1563 84.0189 91.1778 84.294 91.2208 84.5858C91.2687 84.8776 91.3381 85.1288 91.4289 85.3393V85.4541H90.044C89.977 85.301 89.9244 85.0977 89.8861 84.8441C89.8478 84.5858 89.8287 84.3466 89.8287 84.1266ZM90.0583 80.7467L90.0727 81.6796H88.7308C88.3529 81.6796 88.0156 81.7107 87.719 81.7728C87.4224 81.8302 87.1736 81.9188 86.9727 82.0384C86.7718 82.158 86.6187 82.3086 86.5134 82.4904C86.4082 82.6674 86.3556 82.8755 86.3556 83.1147C86.3556 83.3587 86.4106 83.5812 86.5206 83.7821C86.6306 83.983 86.7957 84.1433 87.0157 84.2629C87.2406 84.3777 87.5157 84.4351 87.841 84.4351C88.2476 84.4351 88.6064 84.349 88.9174 84.1768C89.2283 84.0046 89.4747 83.7941 89.6565 83.5453C89.8431 83.2965 89.9435 83.0549 89.9579 82.8205L90.5248 83.4592C90.4913 83.6601 90.4004 83.8826 90.2521 84.1266C90.1038 84.3705 89.9053 84.6049 89.6565 84.8298C89.4125 85.0499 89.1207 85.234 88.781 85.3823C88.4461 85.5259 88.0682 85.5976 87.6472 85.5976C87.121 85.5976 86.6593 85.4948 86.2623 85.2891C85.87 85.0833 85.5638 84.8083 85.3437 84.4638C85.1285 84.1146 85.0208 83.7247 85.0208 83.2941C85.0208 82.8779 85.1022 82.512 85.2648 82.1962C85.4275 81.8757 85.6619 81.6102 85.9681 81.3997C86.2742 81.1844 86.6426 81.0218 87.0731 80.9117C87.5037 80.8017 87.9845 80.7467 88.5155 80.7467H90.0583ZM96.0712 79.2326V85.4541H94.7365V77.6897H95.9995L96.0712 79.2326ZM95.7985 81.2777L95.1814 81.2562C95.1862 80.7252 95.2555 80.2348 95.3895 79.7851C95.5234 79.3306 95.722 78.936 95.9851 78.6011C96.2482 78.2662 96.5759 78.0079 96.9682 77.8261C97.3605 77.6395 97.815 77.5462 98.3316 77.5462C98.6952 77.5462 99.0301 77.5988 99.3363 77.7041C99.6424 77.8045 99.9079 77.9648 100.133 78.1849C100.358 78.4049 100.532 78.6872 100.657 79.0316C100.781 79.3761 100.843 79.7923 100.843 80.2802V85.4541H99.5157V80.3448C99.5157 79.9382 99.4463 79.6129 99.3076 79.3689C99.1736 79.1249 98.9823 78.9479 98.7335 78.8379C98.4847 78.7231 98.1929 78.6657 97.858 78.6657C97.4657 78.6657 97.138 78.735 96.8749 78.8738C96.6118 79.0125 96.4013 79.2039 96.2434 79.4478C96.0856 79.6918 95.9707 79.9717 95.899 80.2874C95.832 80.5984 95.7985 80.9285 95.7985 81.2777ZM100.829 80.5458L99.939 80.8184C99.9438 80.3927 100.013 79.9836 100.147 79.5914C100.286 79.1991 100.484 78.8498 100.743 78.5437C101.006 78.2375 101.329 77.9959 101.712 77.8189C102.094 77.6371 102.532 77.5462 103.025 77.5462C103.441 77.5462 103.809 77.6012 104.13 77.7113C104.455 77.8213 104.728 77.9911 104.948 78.2207C105.173 78.4456 105.343 78.735 105.457 79.089C105.572 79.4431 105.63 79.864 105.63 80.352V85.4541H104.295V80.3377C104.295 79.9023 104.225 79.565 104.087 79.3258C103.953 79.0819 103.761 78.912 103.513 78.8164C103.269 78.7159 102.977 78.6657 102.637 78.6657C102.345 78.6657 102.087 78.7159 101.862 78.8164C101.637 78.9168 101.448 79.0556 101.295 79.2326C101.142 79.4048 101.025 79.6033 100.944 79.8282C100.867 80.053 100.829 80.2922 100.829 80.5458ZM108.794 81.658V81.493C108.794 80.9333 108.875 80.4142 109.038 79.9358C109.2 79.4526 109.435 79.034 109.741 78.68C110.047 78.3212 110.418 78.0437 110.853 77.8476C111.288 77.6467 111.776 77.5462 112.317 77.5462C112.862 77.5462 113.353 77.6467 113.788 77.8476C114.228 78.0437 114.601 78.3212 114.907 78.68C115.218 79.034 115.455 79.4526 115.618 79.9358C115.781 80.4142 115.862 80.9333 115.862 81.493V81.658C115.862 82.2178 115.781 82.7368 115.618 83.2152C115.455 83.6936 115.218 84.1122 114.907 84.471C114.601 84.825 114.231 85.1025 113.795 85.3034C113.365 85.4995 112.877 85.5976 112.331 85.5976C111.786 85.5976 111.296 85.4995 110.86 85.3034C110.425 85.1025 110.052 84.825 109.741 84.471C109.435 84.1122 109.2 83.6936 109.038 83.2152C108.875 82.7368 108.794 82.2178 108.794 81.658ZM110.121 81.493V81.658C110.121 82.0455 110.167 82.4115 110.257 82.7559C110.348 83.0956 110.485 83.397 110.667 83.6601C110.853 83.9232 111.085 84.1313 111.363 84.2844C111.64 84.4327 111.963 84.5069 112.331 84.5069C112.695 84.5069 113.013 84.4327 113.286 84.2844C113.563 84.1313 113.793 83.9232 113.975 83.6601C114.156 83.397 114.293 83.0956 114.384 82.7559C114.479 82.4115 114.527 82.0455 114.527 81.658V81.493C114.527 81.1103 114.479 80.7491 114.384 80.4094C114.293 80.065 114.154 79.7612 113.967 79.4981C113.786 79.2302 113.556 79.0197 113.279 78.8666C113.006 78.7135 112.685 78.637 112.317 78.637C111.953 78.637 111.633 78.7135 111.355 78.8666C111.083 79.0197 110.853 79.2302 110.667 79.4981C110.485 79.7612 110.348 80.065 110.257 80.4094C110.167 80.7491 110.121 81.1103 110.121 81.493ZM120.361 79.3474V85.4541H119.033V77.6897H120.289L120.361 79.3474ZM120.045 81.2777L119.492 81.2562C119.497 80.7252 119.576 80.2348 119.729 79.7851C119.882 79.3306 120.098 78.936 120.375 78.6011C120.652 78.2662 120.983 78.0079 121.365 77.8261C121.753 77.6395 122.181 77.5462 122.65 77.5462C123.032 77.5462 123.377 77.5988 123.683 77.7041C123.989 77.8045 124.25 77.9672 124.465 78.192C124.685 78.4169 124.853 78.7087 124.968 79.0675C125.082 79.4215 125.14 79.8545 125.14 80.3664V85.4541H123.805V80.352C123.805 79.9454 123.745 79.6201 123.626 79.3761C123.506 79.1273 123.331 78.9479 123.102 78.8379C122.872 78.7231 122.59 78.6657 122.255 78.6657C121.925 78.6657 121.624 78.735 121.351 78.8738C121.083 79.0125 120.851 79.2039 120.655 79.4478C120.463 79.6918 120.313 79.9717 120.203 80.2874C120.098 80.5984 120.045 80.9285 120.045 81.2777ZM133.557 83.9472V74.4318H134.891V85.4541H133.671L133.557 83.9472ZM128.333 81.658V81.5073C128.333 80.9141 128.404 80.3759 128.548 79.8927C128.696 79.4048 128.904 78.9862 129.172 78.637C129.445 78.2877 129.768 78.0198 130.141 77.8332C130.519 77.6419 130.94 77.5462 131.404 77.5462C131.892 77.5462 132.318 77.6323 132.681 77.8045C133.05 77.972 133.36 78.2184 133.614 78.5437C133.872 78.8642 134.076 79.2517 134.224 79.7062C134.372 80.1606 134.475 80.6749 134.533 81.249V81.9092C134.48 82.4785 134.377 82.9904 134.224 83.4448C134.076 83.8993 133.872 84.2868 133.614 84.6073C133.36 84.9279 133.05 85.1742 132.681 85.3465C132.313 85.5139 131.882 85.5976 131.389 85.5976C130.935 85.5976 130.519 85.4995 130.141 85.3034C129.768 85.1073 129.445 84.8322 129.172 84.4782C128.904 84.1242 128.696 83.708 128.548 83.2296C128.404 82.7464 128.333 82.2225 128.333 81.658ZM129.667 81.5073V81.658C129.667 82.0455 129.706 82.4091 129.782 82.7488C129.863 83.0884 129.988 83.3874 130.155 83.6458C130.323 83.9041 130.536 84.1074 130.794 84.2557C131.052 84.3992 131.361 84.471 131.72 84.471C132.16 84.471 132.521 84.3777 132.803 84.1911C133.09 84.0046 133.32 83.7582 133.492 83.452C133.664 83.1458 133.798 82.8134 133.894 82.4546V80.7252C133.836 80.462 133.753 80.2085 133.643 79.9645C133.537 79.7157 133.399 79.4957 133.227 79.3043C133.059 79.1082 132.851 78.9527 132.602 78.8379C132.358 78.7231 132.069 78.6657 131.734 78.6657C131.37 78.6657 131.057 78.7422 130.794 78.8953C130.536 79.0436 130.323 79.2493 130.155 79.5124C129.988 79.7708 129.863 80.0721 129.782 80.4166C129.706 80.7562 129.667 81.1198 129.667 81.5073Z" fill="white"/>
<rect x="103.395" y="9.33789" width="32.5437" height="32.1451" rx="16.0725" fill="white"/>
<g clip-path="url(#clip0_8388_398373)">
<path fill-rule="evenodd" clip-rule="evenodd" d="M121.196 22.8305C120.813 23.2837 120.673 23.8764 120.673 24.5387C120.673 25.1313 120.883 25.6891 121.196 26.1074L120.569 26.456C120.185 25.8983 119.941 25.2359 119.941 24.5387C119.941 23.7718 120.116 23.0397 120.569 22.4819L121.196 22.8305Z" fill="#FF5000"/>
<path fill-rule="evenodd" clip-rule="evenodd" d="M121.649 22.0635C121.649 22.3076 121.439 22.5167 121.195 22.5167C120.951 22.5167 120.742 22.3076 120.742 22.0635C120.742 21.8195 120.951 21.6104 121.195 21.6104C121.439 21.6104 121.649 21.8195 121.649 22.0635Z" fill="#FF5000"/>
<path fill-rule="evenodd" clip-rule="evenodd" d="M123.639 24.9562V22.272H122.733V23.527C122.628 23.3875 122.384 23.3178 122.105 23.3178C121.513 23.3178 120.955 23.771 120.99 24.5379C120.99 25.3048 121.513 25.7232 122.071 25.7232C122.349 25.7232 122.663 25.6186 122.837 25.3397L122.872 25.6883H123.674C123.674 25.5837 123.639 25.27 123.639 24.9562ZM122.768 24.5379C122.768 24.6076 122.768 24.6425 122.768 24.7122C122.733 24.8865 122.593 25.0608 122.384 25.0608C122.105 25.0608 121.931 24.8517 121.931 24.5379C121.931 24.259 122.071 23.9801 122.384 23.9801C122.593 23.9801 122.733 24.1196 122.768 24.2939C122.768 24.3287 122.768 24.3636 122.768 24.3985V24.5379Z" fill="#FF5000"/>
<path fill-rule="evenodd" clip-rule="evenodd" d="M126.254 25.0958V24.3288C126.254 23.7013 125.905 23.3179 125.103 23.3179C124.58 23.3179 124.232 23.4573 124.092 23.527L124.232 24.0848C124.371 24.0151 124.685 23.9105 124.929 23.9105C125.278 23.9105 125.347 24.0151 125.347 24.0848C124.476 24.0848 123.918 24.3637 123.918 24.9912C123.918 25.3746 124.232 25.7233 124.72 25.7233C124.999 25.7233 125.243 25.6535 125.417 25.4792H125.452L125.487 25.6535H126.288C126.254 25.5838 126.254 25.3746 126.254 25.0958ZM125.417 24.782C125.417 24.8169 125.417 24.8866 125.417 24.9215C125.382 25.0609 125.243 25.1655 125.103 25.1655C124.929 25.1655 124.859 25.0958 124.859 24.9563C124.859 24.782 125.034 24.6774 125.452 24.6774V24.782H125.417Z" fill="#FF5000"/>
<path fill-rule="evenodd" clip-rule="evenodd" d="M114.401 24.2939V25.6883H113.564V24.4682C113.564 24.1545 113.46 24.015 113.251 24.015C113.111 24.015 113.007 24.1196 112.972 24.2242C112.937 24.2939 112.937 24.3636 112.937 24.3985V25.6883H112.1V24.4682C112.1 24.1545 111.996 24.015 111.787 24.015C111.612 24.015 111.508 24.1545 111.508 24.2242C111.473 24.2939 111.473 24.3636 111.473 24.3985V25.6883H110.601V24.1545C110.601 23.8407 110.601 23.5618 110.566 23.3527H111.298L111.333 23.6664H111.368C111.438 23.5618 111.647 23.3178 112.1 23.3178C112.414 23.3178 112.658 23.4573 112.763 23.7013C112.867 23.5618 112.972 23.4921 113.111 23.4224C113.251 23.3527 113.39 23.3178 113.564 23.3178C114.087 23.283 114.401 23.6316 114.401 24.2939Z" fill="#FF5000"/>
<path fill-rule="evenodd" clip-rule="evenodd" d="M115.969 23.248C115.062 23.248 114.574 23.771 114.574 24.503C114.574 25.27 115.202 25.7231 115.899 25.7231C116.631 25.7231 117.258 25.27 117.258 24.4682C117.293 23.7361 116.736 23.248 115.969 23.248ZM115.934 25.0608C115.655 25.0608 115.515 24.7819 115.515 24.4682C115.515 24.1544 115.62 23.8755 115.934 23.8755C116.213 23.8755 116.352 24.1544 116.352 24.4682C116.352 24.8516 116.178 25.0608 115.934 25.0608Z" fill="#FF5000"/>
<path fill-rule="evenodd" clip-rule="evenodd" d="M119.875 23.3179L118.969 25.6535H118.063L117.156 23.3179H118.132L118.411 24.3288C118.481 24.5031 118.481 24.6774 118.516 24.8517H118.551C118.586 24.6774 118.62 24.538 118.655 24.3288L118.934 23.3179H119.875Z" fill="#FF5000"/>
<path d="M108.577 25.6196H107.706C106.974 25.6196 106.416 26.2123 106.451 26.9095C106.486 27.537 107.009 28.0599 107.671 28.0599H112.412" stroke="#FF5000" stroke-width="0.199359" stroke-miterlimit="10"/>
<path d="M108.438 24.7827L109.623 25.6542L108.438 26.5257" stroke="#FF5000" stroke-width="0.199359" stroke-miterlimit="10"/>
<path d="M130.748 27.1185H131.62C132.352 27.1185 132.91 26.5258 132.875 25.8286C132.84 25.2011 132.317 24.6782 131.655 24.6782H126.879" stroke="#FF5000" stroke-width="0.199359" stroke-miterlimit="10"/>
<path d="M130.888 27.9549L129.703 27.0834L130.888 26.2119" stroke="#FF5000" stroke-width="0.199359" stroke-miterlimit="10"/>
<path d="M113.528 27.0835H114.608L114.574 27.1881H113.667L113.493 28.0247H114.329L114.295 28.1293H113.458L113.249 29.1751H113.109L113.528 27.0835Z" fill="#FF5000"/>
<path d="M115.237 27.0483L114.819 29.2097H114.68L115.098 27.0483H115.237Z" fill="#FF5000"/>
<path d="M115.758 27.0832C115.933 27.0483 116.107 27.0483 116.316 27.0483C116.735 27.0483 117.048 27.1878 117.223 27.3969C117.292 27.5015 117.362 27.6758 117.397 27.9199C117.397 28.2685 117.257 28.6171 116.979 28.8611C116.7 29.1051 116.351 29.2097 115.933 29.2097C115.793 29.2097 115.584 29.2097 115.375 29.2097L115.758 27.0832ZM115.549 29.0703C115.689 29.1051 115.863 29.1051 115.933 29.1051C116.386 29.1051 116.7 28.9657 116.909 28.7914C117.153 28.5822 117.257 28.2685 117.257 27.9896C117.257 27.5712 117.048 27.1878 116.316 27.1878C116.212 27.1878 116.002 27.1878 115.898 27.2226L115.549 29.0703Z" fill="#FF5000"/>
<path d="M118.79 28.1642H117.919L117.745 29.1054H118.721L118.686 29.21H117.57L117.989 27.0835H119.069L119.034 27.1881H118.128L117.989 27.9899H118.86L118.79 28.1642Z" fill="#FF5000"/>
<path d="M119.524 27.0835H119.663L119.28 29.1054H120.256L120.221 29.21H119.105L119.524 27.0835Z" fill="#FF5000"/>
<path d="M121.093 27.0483L120.675 29.2097H120.535L120.953 27.0483H121.093Z" fill="#FF5000"/>
<path d="M121.649 27.0832C121.823 27.0483 121.998 27.0483 122.207 27.0483C122.625 27.0483 122.939 27.1878 123.113 27.3969C123.183 27.5015 123.253 27.6758 123.288 27.9199C123.288 28.2685 123.148 28.6171 122.869 28.8611C122.59 29.1051 122.242 29.2097 121.823 29.2097C121.684 29.2097 121.475 29.2097 121.266 29.2097L121.649 27.0832ZM121.405 29.0703C121.545 29.1051 121.719 29.1051 121.789 29.1051C122.242 29.1051 122.555 28.9657 122.765 28.7914C123.009 28.5822 123.113 28.2685 123.113 27.9896C123.113 27.5712 122.904 27.1878 122.172 27.1878C122.067 27.1878 121.858 27.1878 121.754 27.2226L121.405 29.0703Z" fill="#FF5000"/>
<path d="M123.811 28.443L123.393 29.175H123.219L124.439 27.0137H124.578L124.997 29.175H124.822L124.683 28.443H123.811ZM124.683 28.3035L124.543 27.5714C124.543 27.4669 124.509 27.3274 124.474 27.2228C124.404 27.3274 124.369 27.432 124.299 27.5366L123.881 28.2687H124.683V28.3035Z" fill="#FF5000"/>
<path d="M125.731 27.0832C125.905 27.0483 126.08 27.0483 126.289 27.0483C126.707 27.0483 127.021 27.1878 127.195 27.3969C127.265 27.5015 127.335 27.6758 127.37 27.9199C127.37 28.2685 127.23 28.6171 126.951 28.8611C126.672 29.1051 126.324 29.2097 125.905 29.2097C125.766 29.2097 125.557 29.2097 125.348 29.2097L125.731 27.0832ZM125.487 29.0703C125.627 29.1051 125.801 29.1051 125.871 29.1051C126.324 29.1051 126.637 28.9657 126.847 28.7914C127.091 28.5822 127.195 28.2685 127.195 27.9896C127.195 27.5712 126.986 27.1878 126.254 27.1878C126.149 27.1878 125.94 27.1878 125.836 27.2226L125.487 29.0703Z" fill="#FF5000"/>
<path d="M128.763 28.1642H127.892L127.717 29.1054H128.693L128.659 29.21H127.543L127.961 27.0835H129.042L129.007 27.1881H128.101L127.961 27.9899H128.833L128.763 28.1642Z" fill="#FF5000"/>
</g>
<defs>
<clipPath id="clip0_8388_398373">
<rect width="26.5812" height="7.84363" fill="white" transform="translate(106.375 21.4888)"/>
</clipPath>
</defs>
</svg>
