<svg width="93" height="91" viewBox="0 0 93 91" fill="none" xmlns="http://www.w3.org/2000/svg">
<ellipse cx="46.4992" cy="45.5" rx="46.4055" ry="45.5" fill="#FFB491"/>
<path d="M65.9124 66.3013L61.4057 70.6962C61.1962 70.9022 60.947 71.0657 60.6724 71.1772C60.3978 71.2888 60.1033 71.3462 59.8058 71.3462C59.5084 71.3462 59.2138 71.2888 58.9392 71.1772C58.6646 71.0657 58.4154 70.9022 58.2059 70.6962C57.9947 70.4919 57.8271 70.2489 57.7127 69.9811C57.5983 69.7133 57.5394 69.4261 57.5394 69.136C57.5394 68.8459 57.5983 68.5587 57.7127 68.2909C57.8271 68.0231 57.9947 67.7801 58.2059 67.5758L58.8819 66.9385L53.0457 66.9385C52.4481 66.9385 51.875 66.707 51.4524 66.2949C51.0298 65.8828 50.7924 65.3239 50.7924 64.7411C50.7924 64.1583 51.0298 63.5993 51.4524 63.1872C51.875 62.7751 52.4481 62.5436 53.0457 62.5436L58.8819 62.5436L58.2059 61.9063C57.7816 61.4925 57.5432 60.9313 57.5432 60.3461C57.5432 59.7609 57.7816 59.1997 58.2059 58.7859C58.6303 58.3721 59.2058 58.1396 59.8058 58.1396C60.4059 58.1396 60.9814 58.3721 61.4057 58.7859L65.9124 63.1809C66.1176 63.3898 66.2784 63.6363 66.3857 63.906C66.611 64.441 66.611 65.0411 66.3857 65.5761C66.2784 65.8458 66.1176 66.0923 65.9124 66.3013Z" fill="#FF5000"/>
<path fill-rule="evenodd" clip-rule="evenodd" d="M30.1024 22.0281H44.4556V28.969C44.4556 32.6509 47.4404 35.6357 51.1223 35.6357H57.7895L57.7895 53.3327H60.9006L60.9007 35.6357V32.5246H57.7895H51.1223C49.1586 32.5246 47.5667 30.9327 47.5667 28.969V22.0281V18.917H44.4556H30.1024C28.1388 18.917 26.5469 20.5089 26.5469 22.4726L26.5469 68.1878C26.5469 70.1515 28.1388 71.7433 30.1024 71.7433H47.5621V68.6322H30.1024C29.857 68.6322 29.658 68.4332 29.658 68.1878L29.658 22.4726C29.658 22.2271 29.857 22.0281 30.1024 22.0281Z" fill="white"/>
<path d="M47.457 21.3232L58.3694 32.5789" stroke="white" stroke-width="4" stroke-linecap="square"/>
<path d="M34.2227 33.5283H40.8913" stroke="white" stroke-width="2.66667" stroke-linecap="round"/>
<path d="M34.2227 39.7324H53.2183" stroke="white" stroke-width="2.66667" stroke-linecap="round"/>
<path d="M34.2227 45.7373H53.2183" stroke="white" stroke-width="2.66667" stroke-linecap="round"/>
<path d="M34.2227 51.7373H53.2183" stroke="white" stroke-width="2.66667" stroke-linecap="round"/>
<path d="M34.2227 57.7422H47.1558" stroke="white" stroke-width="2.66667" stroke-linecap="round"/>
</svg>
