<svg width="279" height="127" viewBox="0 0 279 127" fill="none" xmlns="http://www.w3.org/2000/svg">
<ellipse cx="139.499" cy="63.5" rx="46.4055" ry="45.5" fill="#FFB491"/>
<rect x="121.094" y="53" width="35" height="28" fill="#FF5000"/>
<rect width="17" height="4" transform="matrix(1 0 0 -1 121.094 53)" fill="#FF5000"/>
<path d="M153.094 51H140.534L139.894 49C139.479 47.8265 138.709 46.8111 137.692 46.0944C136.674 45.3777 135.458 44.9952 134.214 45H125.094C123.502 45 121.976 45.6322 120.851 46.7574C119.726 47.8826 119.094 49.4087 119.094 51V77C119.094 78.5913 119.726 80.1175 120.851 81.2427C121.976 82.3679 123.502 83 125.094 83H153.094C154.685 83 156.211 82.3679 157.336 81.2427C158.462 80.1175 159.094 78.5913 159.094 77V57C159.094 55.4087 158.462 53.8826 157.336 52.7574C156.211 51.6322 154.685 51 153.094 51ZM155.094 77C155.094 77.5305 154.883 78.0392 154.508 78.4143C154.133 78.7893 153.624 79 153.094 79H125.094C124.563 79 124.055 78.7893 123.68 78.4143C123.304 78.0392 123.094 77.5305 123.094 77V51C123.094 50.4696 123.304 49.9609 123.68 49.5858C124.055 49.2108 124.563 49 125.094 49H134.214C134.633 48.999 135.042 49.1297 135.383 49.3737C135.724 49.6178 135.98 49.9628 136.114 50.36L137.194 53.64C137.328 54.0373 137.584 54.3823 137.924 54.6264C138.265 54.8704 138.674 55.0011 139.094 55H153.094C153.624 55 154.133 55.2108 154.508 55.5858C154.883 55.9609 155.094 56.4696 155.094 57V77Z" fill="white"/>
</svg>
