<svg width="64" height="65" viewBox="0 0 64 65" fill="none" xmlns="http://www.w3.org/2000/svg">
<circle cx="32" cy="32.2002" r="32" fill="#868486"/>
<path d="M26.9534 28.0977H27.4106C27.3868 28.3168 27.3241 28.5128 27.2225 28.6859C27.1209 28.8589 26.9772 28.9962 26.7915 29.0978C26.6057 29.1978 26.374 29.2478 26.0961 29.2478C25.8929 29.2478 25.708 29.2097 25.5413 29.1335C25.3762 29.0573 25.2341 28.9494 25.1151 28.8097C24.996 28.6684 24.904 28.4993 24.8389 28.3025C24.7754 28.104 24.7436 27.8834 24.7436 27.6405V27.2952C24.7436 27.0524 24.7754 26.8325 24.8389 26.6356C24.904 26.4372 24.9968 26.2673 25.1175 26.1261C25.2397 25.9848 25.3865 25.876 25.558 25.7998C25.7294 25.7236 25.9223 25.6855 26.1366 25.6855C26.3986 25.6855 26.62 25.7348 26.801 25.8332C26.982 25.9316 27.1224 26.0681 27.2225 26.2427C27.3241 26.4158 27.3868 26.6166 27.4106 26.8452H26.9534C26.9312 26.6833 26.8899 26.5444 26.8296 26.4285C26.7692 26.311 26.6835 26.2205 26.5724 26.157C26.4613 26.0935 26.316 26.0618 26.1366 26.0618C25.9826 26.0618 25.8469 26.0911 25.7294 26.1499C25.6136 26.2086 25.5159 26.292 25.4366 26.3999C25.3588 26.5079 25.3 26.6372 25.2603 26.788C25.2207 26.9388 25.2008 27.1063 25.2008 27.2905V27.6405C25.2008 27.8104 25.2183 27.9699 25.2532 28.1191C25.2897 28.2684 25.3445 28.3993 25.4175 28.512C25.4905 28.6247 25.5834 28.7136 25.6961 28.7787C25.8088 28.8422 25.9422 28.874 26.0961 28.874C26.2914 28.874 26.447 28.843 26.5629 28.7811C26.6787 28.7192 26.7661 28.6303 26.8248 28.5144C26.8851 28.3985 26.928 28.2596 26.9534 28.0977ZM28.461 25.5427V29.2002H28.0181V25.5427H28.461ZM29.659 26.6237V29.2002H29.2161V26.6237H29.659ZM29.1828 25.9403C29.1828 25.8689 29.2042 25.8086 29.247 25.7594C29.2915 25.7101 29.3566 25.6855 29.4423 25.6855C29.5264 25.6855 29.5907 25.7101 29.6352 25.7594C29.6812 25.8086 29.7042 25.8689 29.7042 25.9403C29.7042 26.0086 29.6812 26.0673 29.6352 26.1165C29.5907 26.1642 29.5264 26.188 29.4423 26.188C29.3566 26.188 29.2915 26.1642 29.247 26.1165C29.2042 26.0673 29.1828 26.0086 29.1828 25.9403ZM31.4476 29.2478C31.2682 29.2478 31.1055 29.2177 30.9594 29.1573C30.815 29.0954 30.6903 29.0089 30.5856 28.8978C30.4824 28.7867 30.403 28.6549 30.3474 28.5025C30.2919 28.3501 30.2641 28.1834 30.2641 28.0025V27.9024C30.2641 27.6929 30.2951 27.5064 30.357 27.3429C30.4189 27.1778 30.503 27.0381 30.6094 26.9238C30.7157 26.8095 30.8364 26.723 30.9713 26.6642C31.1063 26.6055 31.246 26.5761 31.3904 26.5761C31.5746 26.5761 31.7333 26.6079 31.8667 26.6714C32.0016 26.7349 32.1119 26.8238 32.1976 26.9381C32.2834 27.0508 32.3469 27.1841 32.3881 27.3381C32.4294 27.4905 32.45 27.6572 32.45 27.8381V28.0358H30.526V27.6762H32.0095V27.6429C32.0032 27.5286 31.9794 27.4175 31.9381 27.3095C31.8984 27.2016 31.8349 27.1127 31.7476 27.0428C31.6603 26.973 31.5412 26.9381 31.3904 26.9381C31.2904 26.9381 31.1983 26.9595 31.1142 27.0023C31.0301 27.0436 30.9578 27.1055 30.8975 27.1881C30.8372 27.2706 30.7903 27.3714 30.757 27.4905C30.7237 27.6096 30.707 27.7469 30.707 27.9024V28.0025C30.707 28.1247 30.7237 28.2398 30.757 28.3477C30.7919 28.4541 30.8419 28.5477 30.907 28.6287C30.9737 28.7097 31.0539 28.7732 31.1475 28.8192C31.2428 28.8652 31.3507 28.8883 31.4714 28.8883C31.6269 28.8883 31.7587 28.8565 31.8667 28.793C31.9746 28.7295 32.0691 28.6446 32.15 28.5382L32.4167 28.7501C32.3611 28.8343 32.2905 28.9145 32.2048 28.9906C32.1191 29.0668 32.0135 29.1288 31.8881 29.1764C31.7643 29.224 31.6174 29.2478 31.4476 29.2478ZM33.4171 27.1738V29.2002H32.9766V26.6237H33.3933L33.4171 27.1738ZM33.3123 27.8143L33.129 27.8072C33.1306 27.631 33.1568 27.4683 33.2076 27.319C33.2584 27.1682 33.3298 27.0373 33.4219 26.9261C33.5139 26.815 33.6235 26.7293 33.7505 26.669C33.8791 26.6071 34.0211 26.5761 34.1767 26.5761C34.3037 26.5761 34.418 26.5936 34.5196 26.6285C34.6212 26.6618 34.7077 26.7158 34.7791 26.7904C34.8522 26.865 34.9077 26.9619 34.9458 27.0809C34.9839 27.1984 35.003 27.3421 35.003 27.5119V29.2002H34.5601V27.5072C34.5601 27.3722 34.5402 27.2643 34.5005 27.1833C34.4609 27.1008 34.4029 27.0412 34.3267 27.0047C34.2505 26.9666 34.1569 26.9476 34.0457 26.9476C33.9362 26.9476 33.8362 26.9706 33.7457 27.0166C33.6568 27.0627 33.5798 27.1262 33.5147 27.2071C33.4512 27.2881 33.4012 27.381 33.3647 27.4857C33.3298 27.5889 33.3123 27.6985 33.3123 27.8143ZM36.763 26.6237V26.9619H35.37V26.6237H36.763ZM35.8414 25.9975H36.282V28.562C36.282 28.6493 36.2955 28.7152 36.3225 28.7597C36.3494 28.8041 36.3844 28.8335 36.4272 28.8478C36.4701 28.8621 36.5161 28.8692 36.5653 28.8692C36.6018 28.8692 36.6399 28.866 36.6796 28.8597C36.7209 28.8517 36.7519 28.8454 36.7725 28.8406L36.7749 29.2002C36.74 29.2113 36.6939 29.2216 36.6368 29.2312C36.5812 29.2423 36.5137 29.2478 36.4344 29.2478C36.3264 29.2478 36.2272 29.2264 36.1367 29.1835C36.0462 29.1407 35.974 29.0692 35.92 28.9692C35.8676 28.8676 35.8414 28.7311 35.8414 28.5597V25.9975ZM38.361 29.2478C38.1817 29.2478 38.0189 29.2177 37.8729 29.1573C37.7284 29.0954 37.6038 29.0089 37.4991 28.8978C37.3959 28.7867 37.3165 28.6549 37.2609 28.5025C37.2054 28.3501 37.1776 28.1834 37.1776 28.0025V27.9024C37.1776 27.6929 37.2085 27.5064 37.2705 27.3429C37.3324 27.1778 37.4165 27.0381 37.5229 26.9238C37.6292 26.8095 37.7499 26.723 37.8848 26.6642C38.0197 26.6055 38.1594 26.5761 38.3039 26.5761C38.488 26.5761 38.6468 26.6079 38.7801 26.6714C38.9151 26.7349 39.0254 26.8238 39.1111 26.9381C39.1968 27.0508 39.2603 27.1841 39.3016 27.3381C39.3429 27.4905 39.3635 27.6572 39.3635 27.8381V28.0358H37.4395V27.6762H38.923V27.6429C38.9167 27.5286 38.8928 27.4175 38.8516 27.3095C38.8119 27.2016 38.7484 27.1127 38.6611 27.0428C38.5738 26.973 38.4547 26.9381 38.3039 26.9381C38.2039 26.9381 38.1118 26.9595 38.0277 27.0023C37.9435 27.0436 37.8713 27.1055 37.811 27.1881C37.7507 27.2706 37.7038 27.3714 37.6705 27.4905C37.6372 27.6096 37.6205 27.7469 37.6205 27.9024V28.0025C37.6205 28.1247 37.6372 28.2398 37.6705 28.3477C37.7054 28.4541 37.7554 28.5477 37.8205 28.6287C37.8872 28.7097 37.9674 28.7732 38.061 28.8192C38.1563 28.8652 38.2642 28.8883 38.3849 28.8883C38.5404 28.8883 38.6722 28.8565 38.7801 28.793C38.8881 28.7295 38.9825 28.6446 39.0635 28.5382L39.3302 28.7501C39.2746 28.8343 39.204 28.9145 39.1183 28.9906C39.0325 29.0668 38.927 29.1288 38.8016 29.1764C38.6777 29.224 38.5309 29.2478 38.361 29.2478Z" fill="#CBCBCB"/>
<path d="M11.7267 39.6172H10.2544L10.2641 38.8568H11.7267C12.2304 38.8568 12.6501 38.7519 12.9859 38.542C13.3217 38.3289 13.5735 38.0319 13.7414 37.6509C13.9125 37.2667 13.9981 36.8179 13.9981 36.3045V35.8735C13.9981 35.4699 13.9497 35.1115 13.8528 34.7983C13.7559 34.4819 13.6139 34.2155 13.4266 33.9992C13.2393 33.7796 13.0101 33.6133 12.7389 33.5003C12.4709 33.3873 12.1626 33.3308 11.8139 33.3308H10.2253V32.5656H11.8139C12.2756 32.5656 12.6969 32.6431 13.0779 32.7981C13.4589 32.9498 13.7866 33.171 14.0611 33.4616C14.3387 33.7489 14.5518 34.0976 14.7004 34.5077C14.8489 34.9145 14.9231 35.373 14.9231 35.8831V36.3045C14.9231 36.8146 14.8489 37.2747 14.7004 37.6848C14.5518 38.0916 14.3371 38.4387 14.0562 38.7261C13.7785 39.0134 13.4428 39.2346 13.0488 39.3896C12.6582 39.5413 12.2174 39.6172 11.7267 39.6172ZM10.7532 32.5656V39.6172H9.81849V32.5656H10.7532ZM18.1822 34.3769V39.6172H17.2813V34.3769H18.1822ZM17.2135 32.987C17.2135 32.8417 17.2571 32.719 17.3443 32.6189C17.4347 32.5188 17.5671 32.4687 17.7414 32.4687C17.9126 32.4687 18.0433 32.5188 18.1337 32.6189C18.2274 32.719 18.2742 32.8417 18.2742 32.987C18.2742 33.1258 18.2274 33.2453 18.1337 33.3453C18.0433 33.4422 17.9126 33.4906 17.7414 33.4906C17.5671 33.4906 17.4347 33.4422 17.3443 33.3453C17.2571 33.2453 17.2135 33.1258 17.2135 32.987ZM23.7272 38.7212V36.0236C23.7272 35.817 23.6852 35.6378 23.6012 35.486C23.5205 35.331 23.3978 35.2116 23.2332 35.1276C23.0685 35.0437 22.8651 35.0017 22.6229 35.0017C22.3969 35.0017 22.1983 35.0404 22.0272 35.1179C21.8593 35.1954 21.7269 35.2971 21.6301 35.423C21.5365 35.549 21.4896 35.6846 21.4896 35.8299H20.5937C20.5937 35.6426 20.6421 35.4569 20.739 35.2729C20.8358 35.0889 20.9746 34.9226 21.1555 34.7741C21.3395 34.6223 21.5591 34.5029 21.8141 34.4157C22.0724 34.3253 22.3598 34.2801 22.6762 34.2801C23.0572 34.2801 23.393 34.3446 23.6836 34.4738C23.9774 34.6029 24.2066 34.7983 24.3713 35.0598C24.5392 35.3181 24.6231 35.6426 24.6231 36.0333V38.4742C24.6231 38.6486 24.6377 38.8342 24.6667 39.0312C24.699 39.2281 24.7458 39.3976 24.8072 39.5397V39.6172H23.8724C23.8272 39.5139 23.7917 39.3766 23.7659 39.2055C23.7401 39.0312 23.7272 38.8697 23.7272 38.7212ZM23.8821 36.4401L23.8918 37.0697H22.9862C22.7311 37.0697 22.5035 37.0907 22.3033 37.1327C22.1031 37.1714 21.9352 37.2311 21.7996 37.3119C21.664 37.3926 21.5607 37.4943 21.4896 37.617C21.4186 37.7364 21.3831 37.8769 21.3831 38.0383C21.3831 38.203 21.4202 38.3531 21.4945 38.4887C21.5687 38.6243 21.6801 38.7325 21.8287 38.8132C21.9804 38.8907 22.1661 38.9295 22.3856 38.9295C22.6601 38.9295 22.9022 38.8713 23.1121 38.7551C23.3219 38.6389 23.4882 38.4968 23.6109 38.3289C23.7368 38.161 23.8046 37.998 23.8143 37.8398L24.1969 38.2708C24.1743 38.4064 24.113 38.5565 24.0129 38.7212C23.9128 38.8859 23.7788 39.0441 23.6109 39.1958C23.4463 39.3444 23.2493 39.4687 23.0201 39.5688C22.794 39.6656 22.539 39.714 22.2548 39.714C21.8997 39.714 21.5881 39.6446 21.3201 39.5058C21.0554 39.367 20.8487 39.1813 20.7002 38.9488C20.5549 38.7131 20.4823 38.45 20.4823 38.1594C20.4823 37.8785 20.5372 37.6315 20.6469 37.4184C20.7567 37.2021 20.9149 37.0229 21.1216 36.8808C21.3282 36.7355 21.5768 36.6258 21.8674 36.5515C22.158 36.4772 22.4825 36.4401 22.8409 36.4401H23.8821ZM27.9403 35.4182V39.6172H27.0395V34.3769H27.8919L27.9403 35.4182ZM27.7562 36.7985L27.3397 36.784C27.343 36.4256 27.3898 36.0946 27.4802 35.7911C27.5706 35.4844 27.7046 35.218 27.8822 34.992C28.0597 34.766 28.2809 34.5916 28.5457 34.4689C28.8104 34.343 29.1172 34.2801 29.4659 34.2801C29.7113 34.2801 29.9373 34.3156 30.1439 34.3866C30.3505 34.4544 30.5297 34.5626 30.6815 34.7111C30.8332 34.8596 30.9511 35.0501 31.035 35.2826C31.119 35.5151 31.161 35.796 31.161 36.1253V39.6172H30.265V36.1689C30.265 35.8944 30.2182 35.6749 30.1245 35.5102C30.0341 35.3456 29.905 35.2261 29.7371 35.1518C29.5692 35.0743 29.3722 35.0356 29.1462 35.0356C28.8815 35.0356 28.6603 35.0824 28.4827 35.176C28.3051 35.2697 28.1631 35.3988 28.0565 35.5635C27.95 35.7282 27.8725 35.917 27.824 36.1301C27.7788 36.34 27.7562 36.5628 27.7562 36.7985ZM31.1513 36.3045L30.5507 36.4885C30.554 36.2012 30.6008 35.9251 30.6912 35.6604C30.7848 35.3956 30.9188 35.1599 31.0932 34.9533C31.2707 34.7466 31.4887 34.5836 31.747 34.4641C32.0053 34.3414 32.3007 34.2801 32.6333 34.2801C32.9142 34.2801 33.1628 34.3172 33.3791 34.3915C33.5987 34.4657 33.7827 34.5803 33.9312 34.7353C34.083 34.8871 34.1976 35.0824 34.2751 35.3213C34.3526 35.5603 34.3913 35.8444 34.3913 36.1737V39.6172H33.4905V36.164C33.4905 35.8702 33.4437 35.6426 33.35 35.4812C33.2596 35.3165 33.1305 35.2019 32.9626 35.1373C32.7979 35.0695 32.601 35.0356 32.3717 35.0356C32.1748 35.0356 32.0004 35.0695 31.8487 35.1373C31.6969 35.2051 31.5694 35.2987 31.4661 35.4182C31.3628 35.5344 31.2837 35.6684 31.2288 35.8202C31.1771 35.9719 31.1513 36.1334 31.1513 36.3045ZM36.5267 37.0552V36.9438C36.5267 36.566 36.5816 36.2157 36.6914 35.8928C36.8012 35.5667 36.9594 35.2842 37.166 35.0453C37.3727 34.8031 37.6229 34.6159 37.9167 34.4835C38.2105 34.3479 38.5399 34.2801 38.9047 34.2801C39.2728 34.2801 39.6037 34.3479 39.8976 34.4835C40.1946 34.6159 40.4464 34.8031 40.6531 35.0453C40.863 35.2842 41.0228 35.5667 41.1326 35.8928C41.2423 36.2157 41.2972 36.566 41.2972 36.9438V37.0552C41.2972 37.4329 41.2423 37.7833 41.1326 38.1061C41.0228 38.429 40.863 38.7115 40.6531 38.9537C40.4464 39.1926 40.1962 39.3799 39.9024 39.5155C39.6118 39.6479 39.2825 39.714 38.9144 39.714C38.5463 39.714 38.2154 39.6479 37.9216 39.5155C37.6278 39.3799 37.3759 39.1926 37.166 38.9537C36.9594 38.7115 36.8012 38.429 36.6914 38.1061C36.5816 37.7833 36.5267 37.4329 36.5267 37.0552ZM37.4227 36.9438V37.0552C37.4227 37.3167 37.4534 37.5637 37.5147 37.7962C37.5761 38.0254 37.6681 38.2288 37.7908 38.4064C37.9167 38.584 38.0733 38.7244 38.2606 38.8278C38.4479 38.9278 38.6658 38.9779 38.9144 38.9779C39.1598 38.9779 39.3745 38.9278 39.5585 38.8278C39.7458 38.7244 39.9008 38.584 40.0235 38.4064C40.1462 38.2288 40.2382 38.0254 40.2995 37.7962C40.3641 37.5637 40.3964 37.3167 40.3964 37.0552V36.9438C40.3964 36.6855 40.3641 36.4417 40.2995 36.2125C40.2382 35.98 40.1446 35.775 40.0186 35.5974C39.8959 35.4166 39.741 35.2745 39.5537 35.1712C39.3697 35.0679 39.1533 35.0162 38.9047 35.0162C38.6593 35.0162 38.443 35.0679 38.2557 35.1712C38.0717 35.2745 37.9167 35.4166 37.7908 35.5974C37.6681 35.775 37.5761 35.98 37.5147 36.2125C37.4534 36.4417 37.4227 36.6855 37.4227 36.9438ZM44.3335 35.4957V39.6172H43.4375V34.3769H44.285L44.3335 35.4957ZM44.1204 36.7985L43.7475 36.784C43.7507 36.4256 43.804 36.0946 43.9073 35.7911C44.0106 35.4844 44.1559 35.218 44.3432 34.992C44.5304 34.766 44.7532 34.5916 45.0115 34.4689C45.273 34.343 45.562 34.2801 45.8784 34.2801C46.1367 34.2801 46.3692 34.3156 46.5758 34.3866C46.7825 34.4544 46.9584 34.5642 47.1037 34.7159C47.2523 34.8677 47.3653 35.0647 47.4428 35.3068C47.5202 35.5457 47.559 35.8379 47.559 36.1834V39.6172H46.6582V36.1737C46.6582 35.8993 46.6178 35.6797 46.5371 35.5151C46.4564 35.3472 46.3385 35.2261 46.1835 35.1518C46.0286 35.0743 45.8381 35.0356 45.6121 35.0356C45.3893 35.0356 45.1859 35.0824 45.0018 35.176C44.821 35.2697 44.6644 35.3988 44.532 35.5635C44.4029 35.7282 44.3012 35.917 44.2269 36.1301C44.1559 36.34 44.1204 36.5628 44.1204 36.7985ZM53.2396 38.6001V32.1782H54.1404V39.6172H53.3171L53.2396 38.6001ZM49.7138 37.0552V36.9535C49.7138 36.5531 49.7622 36.1899 49.8591 35.8638C49.9592 35.5344 50.0996 35.2519 50.2804 35.0162C50.4645 34.7805 50.6824 34.5997 50.9343 34.4738C51.1893 34.3446 51.4735 34.2801 51.7866 34.2801C52.116 34.2801 52.4033 34.3382 52.6487 34.4544C52.8973 34.5674 53.1072 34.7337 53.2783 34.9533C53.4527 35.1696 53.5899 35.4311 53.69 35.7378C53.7901 36.0446 53.8595 36.3917 53.8982 36.7791V37.2247C53.8627 37.6089 53.7933 37.9544 53.69 38.2611C53.5899 38.5678 53.4527 38.8294 53.2783 39.0457C53.1072 39.262 52.8973 39.4283 52.6487 39.5445C52.4001 39.6575 52.1095 39.714 51.777 39.714C51.4702 39.714 51.1893 39.6479 50.9343 39.5155C50.6824 39.3831 50.4645 39.1975 50.2804 38.9585C50.0996 38.7196 49.9592 38.4387 49.8591 38.1158C49.7622 37.7897 49.7138 37.4362 49.7138 37.0552ZM50.6146 36.9535V37.0552C50.6146 37.3167 50.6404 37.5621 50.6921 37.7913C50.747 38.0206 50.8309 38.2224 50.9439 38.3967C51.057 38.5711 51.2006 38.7083 51.375 38.8084C51.5493 38.9052 51.7576 38.9537 51.9997 38.9537C52.2968 38.9537 52.5406 38.8907 52.7311 38.7648C52.9248 38.6389 53.0798 38.4726 53.196 38.266C53.3122 38.0593 53.4026 37.8349 53.4672 37.5928V36.4256C53.4285 36.248 53.372 36.0769 53.2977 35.9122C53.2267 35.7443 53.133 35.5958 53.0168 35.4666C52.9038 35.3343 52.7633 35.2293 52.5954 35.1518C52.4308 35.0743 52.2354 35.0356 52.0094 35.0356C51.764 35.0356 51.5526 35.0873 51.375 35.1906C51.2006 35.2907 51.057 35.4295 50.9439 35.6071C50.8309 35.7814 50.747 35.9848 50.6921 36.2173C50.6404 36.4466 50.6146 36.6919 50.6146 36.9535Z" fill="white"/>
</svg>
