<svg width="64" height="65" viewBox="0 0 64 65" fill="none" xmlns="http://www.w3.org/2000/svg">
<circle cx="32" cy="32.4004" r="32" fill="#171416"/>
<path d="M27.4534 28.2979H27.9106C27.8868 28.517 27.8241 28.713 27.7225 28.8861C27.6209 29.0591 27.4772 29.1964 27.2915 29.298C27.1057 29.398 26.874 29.448 26.5961 29.448C26.3929 29.448 26.208 29.4099 26.0413 29.3337C25.8762 29.2575 25.7341 29.1496 25.6151 29.0099C25.496 28.8686 25.404 28.6995 25.3389 28.5027C25.2754 28.3042 25.2436 28.0836 25.2436 27.8407V27.4954C25.2436 27.2525 25.2754 27.0327 25.3389 26.8358C25.404 26.6374 25.4968 26.4675 25.6175 26.3263C25.7397 26.185 25.8865 26.0762 26.058 26C26.2294 25.9238 26.4223 25.8857 26.6366 25.8857C26.8986 25.8857 27.12 25.9349 27.301 26.0334C27.482 26.1318 27.6224 26.2683 27.7225 26.4429C27.8241 26.616 27.8868 26.8168 27.9106 27.0454H27.4534C27.4312 26.8835 27.3899 26.7446 27.3296 26.6287C27.2692 26.5112 27.1835 26.4207 27.0724 26.3572C26.9613 26.2937 26.816 26.262 26.6366 26.262C26.4826 26.262 26.3469 26.2913 26.2294 26.3501C26.1136 26.4088 26.0159 26.4922 25.9366 26.6001C25.8588 26.708 25.8 26.8374 25.7603 26.9882C25.7207 27.139 25.7008 27.3065 25.7008 27.4907V27.8407C25.7008 28.0106 25.7183 28.1701 25.7532 28.3193C25.7897 28.4685 25.8445 28.5995 25.9175 28.7122C25.9905 28.8249 26.0834 28.9138 26.1961 28.9789C26.3088 29.0424 26.4422 29.0742 26.5961 29.0742C26.7914 29.0742 26.947 29.0432 27.0629 28.9813C27.1787 28.9194 27.2661 28.8305 27.3248 28.7146C27.3851 28.5987 27.428 28.4598 27.4534 28.2979ZM28.961 25.7429V29.4004H28.5181V25.7429H28.961ZM30.159 26.8239V29.4004H29.7161V26.8239H30.159ZM29.6828 26.1405C29.6828 26.0691 29.7042 26.0088 29.747 25.9596C29.7915 25.9103 29.8566 25.8857 29.9423 25.8857C30.0264 25.8857 30.0907 25.9103 30.1352 25.9596C30.1812 26.0088 30.2042 26.0691 30.2042 26.1405C30.2042 26.2088 30.1812 26.2675 30.1352 26.3167C30.0907 26.3644 30.0264 26.3882 29.9423 26.3882C29.8566 26.3882 29.7915 26.3644 29.747 26.3167C29.7042 26.2675 29.6828 26.2088 29.6828 26.1405ZM31.9476 29.448C31.7682 29.448 31.6055 29.4179 31.4594 29.3575C31.315 29.2956 31.1903 29.2091 31.0856 29.098C30.9824 28.9869 30.903 28.8551 30.8474 28.7027C30.7919 28.5503 30.7641 28.3836 30.7641 28.2026V28.1026C30.7641 27.8931 30.7951 27.7066 30.857 27.5431C30.9189 27.378 31.003 27.2383 31.1094 27.124C31.2157 27.0097 31.3364 26.9231 31.4713 26.8644C31.6063 26.8057 31.746 26.7763 31.8904 26.7763C32.0746 26.7763 32.2333 26.8081 32.3667 26.8716C32.5016 26.9351 32.6119 27.024 32.6976 27.1382C32.7834 27.251 32.8469 27.3843 32.8881 27.5383C32.9294 27.6907 32.95 27.8574 32.95 28.0383V28.236H31.026V27.8764H32.5095V27.8431C32.5032 27.7288 32.4794 27.6177 32.4381 27.5097C32.3984 27.4018 32.3349 27.3129 32.2476 27.243C32.1603 27.1732 32.0412 27.1382 31.8904 27.1382C31.7904 27.1382 31.6983 27.1597 31.6142 27.2025C31.5301 27.2438 31.4578 27.3057 31.3975 27.3883C31.3372 27.4708 31.2903 27.5716 31.257 27.6907C31.2237 27.8097 31.207 27.9471 31.207 28.1026V28.2026C31.207 28.3249 31.2237 28.44 31.257 28.5479C31.2919 28.6543 31.3419 28.7479 31.407 28.8289C31.4737 28.9099 31.5539 28.9734 31.6475 29.0194C31.7428 29.0654 31.8507 29.0885 31.9714 29.0885C32.1269 29.0885 32.2587 29.0567 32.3667 28.9932C32.4746 28.9297 32.5691 28.8448 32.65 28.7384L32.9167 28.9503C32.8611 29.0345 32.7905 29.1146 32.7048 29.1908C32.6191 29.267 32.5135 29.329 32.3881 29.3766C32.2643 29.4242 32.1174 29.448 31.9476 29.448ZM33.9171 27.374V29.4004H33.4766V26.8239H33.8933L33.9171 27.374ZM33.8123 28.0145L33.629 28.0074C33.6306 27.8312 33.6568 27.6685 33.7076 27.5192C33.7584 27.3684 33.8298 27.2375 33.9219 27.1263C34.0139 27.0152 34.1235 26.9295 34.2505 26.8692C34.3791 26.8073 34.5211 26.7763 34.6767 26.7763C34.8037 26.7763 34.918 26.7938 35.0196 26.8287C35.1212 26.862 35.2077 26.916 35.2791 26.9906C35.3522 27.0652 35.4077 27.1621 35.4458 27.2811C35.4839 27.3986 35.503 27.5423 35.503 27.7121V29.4004H35.0601V27.7074C35.0601 27.5724 35.0402 27.4645 35.0005 27.3835C34.9609 27.301 34.9029 27.2414 34.8267 27.2049C34.7505 27.1668 34.6569 27.1478 34.5457 27.1478C34.4362 27.1478 34.3362 27.1708 34.2457 27.2168C34.1568 27.2629 34.0798 27.3264 34.0147 27.4073C33.9512 27.4883 33.9012 27.5812 33.8647 27.6859C33.8298 27.7891 33.8123 27.8986 33.8123 28.0145ZM37.263 26.8239V27.1621H35.87V26.8239H37.263ZM36.3414 26.1977H36.782V28.7622C36.782 28.8495 36.7955 28.9154 36.8225 28.9599C36.8494 29.0043 36.8844 29.0337 36.9272 29.048C36.9701 29.0623 37.0161 29.0694 37.0653 29.0694C37.1018 29.0694 37.1399 29.0662 37.1796 29.0599C37.2209 29.0519 37.2519 29.0456 37.2725 29.0408L37.2749 29.4004C37.24 29.4115 37.1939 29.4218 37.1368 29.4313C37.0812 29.4425 37.0137 29.448 36.9344 29.448C36.8264 29.448 36.7272 29.4266 36.6367 29.3837C36.5462 29.3409 36.474 29.2694 36.42 29.1694C36.3676 29.0678 36.3414 28.9313 36.3414 28.7598V26.1977ZM38.861 29.448C38.6817 29.448 38.5189 29.4179 38.3729 29.3575C38.2284 29.2956 38.1038 29.2091 37.9991 29.098C37.8959 28.9869 37.8165 28.8551 37.7609 28.7027C37.7054 28.5503 37.6776 28.3836 37.6776 28.2026V28.1026C37.6776 27.8931 37.7085 27.7066 37.7705 27.5431C37.8324 27.378 37.9165 27.2383 38.0229 27.124C38.1292 27.0097 38.2499 26.9231 38.3848 26.8644C38.5197 26.8057 38.6594 26.7763 38.8039 26.7763C38.988 26.7763 39.1468 26.8081 39.2801 26.8716C39.4151 26.9351 39.5254 27.024 39.6111 27.1382C39.6968 27.251 39.7603 27.3843 39.8016 27.5383C39.8429 27.6907 39.8635 27.8574 39.8635 28.0383V28.236H37.9395V27.8764H39.423V27.8431C39.4167 27.7288 39.3928 27.6177 39.3516 27.5097C39.3119 27.4018 39.2484 27.3129 39.1611 27.243C39.0738 27.1732 38.9547 27.1382 38.8039 27.1382C38.7039 27.1382 38.6118 27.1597 38.5277 27.2025C38.4435 27.2438 38.3713 27.3057 38.311 27.3883C38.2507 27.4708 38.2038 27.5716 38.1705 27.6907C38.1372 27.8097 38.1205 27.9471 38.1205 28.1026V28.2026C38.1205 28.3249 38.1372 28.44 38.1705 28.5479C38.2054 28.6543 38.2554 28.7479 38.3205 28.8289C38.3872 28.9099 38.4674 28.9734 38.561 29.0194C38.6563 29.0654 38.7642 29.0885 38.8849 29.0885C39.0404 29.0885 39.1722 29.0567 39.2801 28.9932C39.3881 28.9297 39.4825 28.8448 39.5635 28.7384L39.8302 28.9503C39.7746 29.0345 39.704 29.1146 39.6183 29.1908C39.5325 29.267 39.427 29.329 39.3016 29.3766C39.1777 29.4242 39.0309 29.448 38.861 29.448Z" fill="#B2B2B2"/>
<path d="M22.0595 36.5202H20.2724L20.2627 35.7695H21.8851C22.1531 35.7695 22.3872 35.7243 22.5874 35.6339C22.7876 35.5435 22.9425 35.4143 23.0523 35.2465C23.1653 35.0753 23.2218 34.8719 23.2218 34.6362C23.2218 34.3779 23.1718 34.1681 23.0717 34.0066C22.9748 33.8419 22.8247 33.7225 22.6213 33.6482C22.4211 33.5707 22.166 33.532 21.8561 33.532H20.4806V39.8184H19.5459V32.7668H21.8561C22.2177 32.7668 22.5406 32.8039 22.8247 32.8782C23.1088 32.9492 23.3494 33.0622 23.5463 33.2172C23.7465 33.3689 23.8982 33.5627 24.0016 33.7984C24.1049 34.0341 24.1565 34.3166 24.1565 34.6459C24.1565 34.9365 24.0823 35.1996 23.9338 35.4353C23.7852 35.6678 23.5786 35.8583 23.3138 36.0068C23.0523 36.1553 22.7456 36.2506 22.3937 36.2926L22.0595 36.5202ZM22.0159 39.8184H19.9043L20.4322 39.058H22.0159C22.3129 39.058 22.5648 39.0063 22.7714 38.903C22.9813 38.7997 23.1411 38.6544 23.2509 38.4671C23.3607 38.2766 23.4156 38.0522 23.4156 37.7939C23.4156 37.5324 23.3687 37.3064 23.2751 37.1159C23.1815 36.9254 23.0346 36.7785 22.8344 36.6752C22.6342 36.5719 22.3759 36.5202 22.0595 36.5202H20.7276L20.7373 35.7695H22.5583L22.7569 36.0407C23.0959 36.0698 23.3833 36.1666 23.619 36.3313C23.8547 36.4927 24.0339 36.6994 24.1565 36.9512C24.2825 37.2031 24.3454 37.4807 24.3454 37.7842C24.3454 38.2234 24.2486 38.5947 24.0548 38.8982C23.8643 39.1984 23.5947 39.4277 23.246 39.5859C22.8973 39.7409 22.4873 39.8184 22.0159 39.8184ZM27.5802 32.3793V39.8184H26.6794V32.3793H27.5802ZM33.1252 38.9224V36.2248C33.1252 36.0181 33.0833 35.8389 32.9993 35.6872C32.9186 35.5322 32.7959 35.4127 32.6312 35.3288C32.4666 35.2448 32.2632 35.2029 32.021 35.2029C31.795 35.2029 31.5964 35.2416 31.4253 35.3191C31.2574 35.3966 31.125 35.4983 31.0282 35.6242C30.9345 35.7501 30.8877 35.8857 30.8877 36.031H29.9917C29.9917 35.8438 30.0402 35.6581 30.137 35.4741C30.2339 35.29 30.3727 35.1238 30.5535 34.9752C30.7376 34.8235 30.9571 34.704 31.2122 34.6168C31.4705 34.5264 31.7579 34.4812 32.0743 34.4812C32.4553 34.4812 32.7911 34.5458 33.0816 34.675C33.3755 34.8041 33.6047 34.9995 33.7694 35.261C33.9373 35.5193 34.0212 35.8438 34.0212 36.2344V38.6754C34.0212 38.8497 34.0357 39.0354 34.0648 39.2323C34.0971 39.4293 34.1439 39.5988 34.2052 39.7409V39.8184H33.2705C33.2253 39.715 33.1898 39.5778 33.164 39.4067C33.1381 39.2323 33.1252 39.0709 33.1252 38.9224ZM33.2802 36.6413L33.2899 37.2709H32.3842C32.1292 37.2709 31.9015 37.2919 31.7014 37.3338C31.5012 37.3726 31.3333 37.4323 31.1977 37.513C31.0621 37.5938 30.9587 37.6955 30.8877 37.8182C30.8167 37.9376 30.7812 38.0781 30.7812 38.2395C30.7812 38.4042 30.8183 38.5543 30.8926 38.6899C30.9668 38.8255 31.0782 38.9337 31.2267 39.0144C31.3785 39.0919 31.5641 39.1306 31.7837 39.1306C32.0581 39.1306 32.3003 39.0725 32.5102 38.9563C32.72 38.84 32.8863 38.698 33.009 38.5301C33.1349 38.3622 33.2027 38.1991 33.2124 38.0409L33.595 38.472C33.5724 38.6076 33.5111 38.7577 33.411 38.9224C33.3109 39.087 33.1769 39.2453 33.009 39.397C32.8443 39.5455 32.6474 39.6698 32.4181 39.7699C32.1921 39.8668 31.9371 39.9152 31.6529 39.9152C31.2978 39.9152 30.9862 39.8458 30.7182 39.707C30.4534 39.5681 30.2468 39.3825 30.0983 39.15C29.953 38.9143 29.8803 38.6512 29.8803 38.3606C29.8803 38.0797 29.9352 37.8327 30.045 37.6196C30.1548 37.4033 30.313 37.2241 30.5196 37.082C30.7263 36.9367 30.9749 36.8269 31.2655 36.7527C31.5561 36.6784 31.8806 36.6413 32.2389 36.6413H33.2802ZM38.5443 39.1791C38.7574 39.1791 38.9543 39.1355 39.1352 39.0483C39.316 38.9611 39.4645 38.8417 39.5807 38.6899C39.697 38.5349 39.7632 38.359 39.7793 38.162H40.6317C40.6155 38.472 40.5106 38.7609 40.3169 39.0289C40.1264 39.2937 39.8762 39.5084 39.5662 39.6731C39.2562 39.8345 38.9156 39.9152 38.5443 39.9152C38.1504 39.9152 37.8065 39.8458 37.5127 39.707C37.2221 39.5681 36.98 39.3776 36.7862 39.1355C36.5957 38.8933 36.4521 38.6157 36.3552 38.3025C36.2616 37.986 36.2148 37.6519 36.2148 37.2999V37.0965C36.2148 36.7446 36.2616 36.412 36.3552 36.0988C36.4521 35.7824 36.5957 35.5031 36.7862 35.261C36.98 35.0188 37.2221 34.8283 37.5127 34.6895C37.8065 34.5507 38.1504 34.4812 38.5443 34.4812C38.9543 34.4812 39.3127 34.5652 39.6195 34.7331C39.9262 34.8977 40.1667 35.1238 40.3411 35.4111C40.5187 35.6952 40.6155 36.0181 40.6317 36.3797H39.7793C39.7632 36.1634 39.7018 35.9681 39.5953 35.7937C39.4919 35.6194 39.3499 35.4805 39.1691 35.3772C38.9915 35.2707 38.7832 35.2174 38.5443 35.2174C38.2699 35.2174 38.039 35.2723 37.8517 35.3821C37.6677 35.4886 37.5208 35.6339 37.411 35.8179C37.3045 35.9988 37.227 36.2005 37.1785 36.4233C37.1333 36.6429 37.1107 36.8673 37.1107 37.0965V37.2999C37.1107 37.5292 37.1333 37.7552 37.1785 37.978C37.2237 38.2008 37.2996 38.4026 37.4062 38.5834C37.5159 38.7642 37.6629 38.9095 37.8469 39.0192C38.0342 39.1258 38.2666 39.1791 38.5443 39.1791ZM43.5565 32.3793V39.8184H42.6557V32.3793H43.5565ZM46.7578 34.5781L44.4719 37.0239L43.1933 38.3509L43.1207 37.3968L44.036 36.3023L45.6633 34.5781H46.7578ZM45.9394 39.8184L44.0699 37.3193L44.5349 36.5202L46.9952 39.8184H45.9394Z" fill="#B2B2B2"/>
</svg>
