<svg width="64" height="64" viewBox="0 0 64 64" fill="none" xmlns="http://www.w3.org/2000/svg">
<circle cx="32" cy="32" r="32" fill="#EEAA00"/>
<path d="M27.4534 27.8975H27.9106C27.8868 28.1166 27.8241 28.3126 27.7225 28.4857C27.6209 28.6587 27.4772 28.796 27.2915 28.8976C27.1057 28.9976 26.874 29.0476 26.5961 29.0476C26.3929 29.0476 26.208 29.0095 26.0413 28.9333C25.8762 28.8571 25.7341 28.7492 25.6151 28.6095C25.496 28.4682 25.404 28.2991 25.3389 28.1023C25.2754 27.9039 25.2436 27.6832 25.2436 27.4403V27.095C25.2436 26.8522 25.2754 26.6323 25.3389 26.4354C25.404 26.237 25.4968 26.0672 25.6175 25.9259C25.7397 25.7846 25.8865 25.6758 26.058 25.5996C26.2294 25.5234 26.4223 25.4853 26.6366 25.4853C26.8986 25.4853 27.12 25.5346 27.301 25.633C27.482 25.7314 27.6224 25.8679 27.7225 26.0425C27.8241 26.2156 27.8868 26.4164 27.9106 26.645H27.4534C27.4312 26.4831 27.3899 26.3442 27.3296 26.2283C27.2692 26.1108 27.1835 26.0203 27.0724 25.9568C26.9613 25.8933 26.816 25.8616 26.6366 25.8616C26.4826 25.8616 26.3469 25.8909 26.2294 25.9497C26.1136 26.0084 26.0159 26.0918 25.9366 26.1997C25.8588 26.3077 25.8 26.437 25.7603 26.5878C25.7207 26.7387 25.7008 26.9061 25.7008 27.0903V27.4403C25.7008 27.6102 25.7183 27.7697 25.7532 27.9189C25.7897 28.0682 25.8445 28.1991 25.9175 28.3118C25.9905 28.4245 26.0834 28.5134 26.1961 28.5785C26.3088 28.642 26.4422 28.6738 26.5961 28.6738C26.7914 28.6738 26.947 28.6428 27.0629 28.5809C27.1787 28.519 27.2661 28.4301 27.3248 28.3142C27.3851 28.1983 27.428 28.0594 27.4534 27.8975ZM28.961 25.3425V29H28.5181V25.3425H28.961ZM30.159 26.4235V29H29.7161V26.4235H30.159ZM29.6828 25.7401C29.6828 25.6687 29.7042 25.6084 29.747 25.5592C29.7915 25.51 29.8566 25.4853 29.9423 25.4853C30.0264 25.4853 30.0907 25.51 30.1352 25.5592C30.1812 25.6084 30.2042 25.6687 30.2042 25.7401C30.2042 25.8084 30.1812 25.8671 30.1352 25.9163C30.0907 25.964 30.0264 25.9878 29.9423 25.9878C29.8566 25.9878 29.7915 25.964 29.747 25.9163C29.7042 25.8671 29.6828 25.8084 29.6828 25.7401ZM31.9476 29.0476C31.7682 29.0476 31.6055 29.0175 31.4594 28.9571C31.315 28.8952 31.1903 28.8087 31.0856 28.6976C30.9824 28.5865 30.903 28.4547 30.8474 28.3023C30.7919 28.1499 30.7641 27.9832 30.7641 27.8023V27.7022C30.7641 27.4927 30.7951 27.3062 30.857 27.1427C30.9189 26.9776 31.003 26.8379 31.1094 26.7236C31.2157 26.6093 31.3364 26.5228 31.4713 26.464C31.6063 26.4053 31.746 26.3759 31.8904 26.3759C32.0746 26.3759 32.2333 26.4077 32.3667 26.4712C32.5016 26.5347 32.6119 26.6236 32.6976 26.7379C32.7834 26.8506 32.8469 26.9839 32.8881 27.1379C32.9294 27.2903 32.95 27.457 32.95 27.638V27.8356H31.026V27.476H32.5095V27.4427C32.5032 27.3284 32.4794 27.2173 32.4381 27.1093C32.3984 27.0014 32.3349 26.9125 32.2476 26.8426C32.1603 26.7728 32.0412 26.7379 31.8904 26.7379C31.7904 26.7379 31.6983 26.7593 31.6142 26.8022C31.5301 26.8434 31.4578 26.9053 31.3975 26.9879C31.3372 27.0704 31.2903 27.1712 31.257 27.2903C31.2237 27.4094 31.207 27.5467 31.207 27.7022V27.8023C31.207 27.9245 31.2237 28.0396 31.257 28.1475C31.2919 28.2539 31.3419 28.3476 31.407 28.4285C31.4737 28.5095 31.5539 28.573 31.6475 28.619C31.7428 28.665 31.8507 28.6881 31.9714 28.6881C32.1269 28.6881 32.2587 28.6563 32.3667 28.5928C32.4746 28.5293 32.5691 28.4444 32.65 28.338L32.9167 28.55C32.8611 28.6341 32.7905 28.7143 32.7048 28.7905C32.6191 28.8667 32.5135 28.9286 32.3881 28.9762C32.2643 29.0238 32.1174 29.0476 31.9476 29.0476ZM33.9171 26.9736V29H33.4766V26.4235H33.8933L33.9171 26.9736ZM33.8123 27.6141L33.629 27.607C33.6306 27.4308 33.6568 27.2681 33.7076 27.1189C33.7584 26.968 33.8298 26.8371 33.9219 26.726C34.0139 26.6148 34.1235 26.5291 34.2505 26.4688C34.3791 26.4069 34.5211 26.3759 34.6767 26.3759C34.8037 26.3759 34.918 26.3934 35.0196 26.4283C35.1212 26.4616 35.2077 26.5156 35.2791 26.5902C35.3522 26.6648 35.4077 26.7617 35.4458 26.8807C35.4839 26.9982 35.503 27.1419 35.503 27.3117V29H35.0601V27.307C35.0601 27.172 35.0402 27.0641 35.0005 26.9831C34.9609 26.9006 34.9029 26.841 34.8267 26.8045C34.7505 26.7664 34.6569 26.7474 34.5457 26.7474C34.4362 26.7474 34.3362 26.7704 34.2457 26.8164C34.1568 26.8625 34.0798 26.926 34.0147 27.0069C33.9512 27.0879 33.9012 27.1808 33.8647 27.2855C33.8298 27.3887 33.8123 27.4983 33.8123 27.6141ZM37.263 26.4235V26.7617H35.87V26.4235H37.263ZM36.3414 25.7973H36.782V28.3618C36.782 28.4491 36.7955 28.515 36.8225 28.5595C36.8494 28.6039 36.8844 28.6333 36.9272 28.6476C36.9701 28.6619 37.0161 28.669 37.0653 28.669C37.1018 28.669 37.1399 28.6658 37.1796 28.6595C37.2209 28.6516 37.2519 28.6452 37.2725 28.6404L37.2749 29C37.24 29.0111 37.1939 29.0214 37.1368 29.031C37.0812 29.0421 37.0137 29.0476 36.9344 29.0476C36.8264 29.0476 36.7272 29.0262 36.6367 28.9833C36.5462 28.9405 36.474 28.869 36.42 28.769C36.3676 28.6674 36.3414 28.5309 36.3414 28.3595V25.7973ZM38.861 29.0476C38.6817 29.0476 38.5189 29.0175 38.3729 28.9571C38.2284 28.8952 38.1038 28.8087 37.9991 28.6976C37.8959 28.5865 37.8165 28.4547 37.7609 28.3023C37.7054 28.1499 37.6776 27.9832 37.6776 27.8023V27.7022C37.6776 27.4927 37.7085 27.3062 37.7705 27.1427C37.8324 26.9776 37.9165 26.8379 38.0229 26.7236C38.1292 26.6093 38.2499 26.5228 38.3848 26.464C38.5197 26.4053 38.6594 26.3759 38.8039 26.3759C38.988 26.3759 39.1468 26.4077 39.2801 26.4712C39.4151 26.5347 39.5254 26.6236 39.6111 26.7379C39.6968 26.8506 39.7603 26.9839 39.8016 27.1379C39.8429 27.2903 39.8635 27.457 39.8635 27.638V27.8356H37.9395V27.476H39.423V27.4427C39.4167 27.3284 39.3928 27.2173 39.3516 27.1093C39.3119 27.0014 39.2484 26.9125 39.1611 26.8426C39.0738 26.7728 38.9547 26.7379 38.8039 26.7379C38.7039 26.7379 38.6118 26.7593 38.5277 26.8022C38.4435 26.8434 38.3713 26.9053 38.311 26.9879C38.2507 27.0704 38.2038 27.1712 38.1705 27.2903C38.1372 27.4094 38.1205 27.5467 38.1205 27.7022V27.8023C38.1205 27.9245 38.1372 28.0396 38.1705 28.1475C38.2054 28.2539 38.2554 28.3476 38.3205 28.4285C38.3872 28.5095 38.4674 28.573 38.561 28.619C38.6563 28.665 38.7642 28.6881 38.8849 28.6881C39.0404 28.6881 39.1722 28.6563 39.2801 28.5928C39.3881 28.5293 39.4825 28.4444 39.5635 28.338L39.8302 28.55C39.7746 28.6341 39.704 28.7143 39.6183 28.7905C39.5325 28.8667 39.427 28.9286 39.3016 28.9762C39.1777 29.0238 39.0309 29.0476 38.861 29.0476Z" fill="#956E43"/>
<path d="M24.0297 35.9067V38.4881C23.9425 38.6172 23.8037 38.7625 23.6132 38.924C23.4227 39.0822 23.1595 39.221 22.8237 39.3405C22.4912 39.4567 22.0618 39.5148 21.5355 39.5148C21.1061 39.5148 20.7105 39.4406 20.3489 39.292C19.9905 39.1403 19.6789 38.9207 19.4142 38.6334C19.1527 38.3428 18.9493 37.9909 18.804 37.5776C18.6619 37.1611 18.5909 36.6897 18.5909 36.1634V35.6161C18.5909 35.0898 18.6522 34.6201 18.7749 34.2068C18.9008 33.7935 19.0849 33.4432 19.327 33.1558C19.5692 32.8652 19.8662 32.6457 20.2181 32.4971C20.5701 32.3454 20.9737 32.2695 21.4289 32.2695C21.9681 32.2695 22.4185 32.3632 22.7802 32.5504C23.145 32.7345 23.4291 32.9895 23.6325 33.3156C23.8392 33.6417 23.9716 34.013 24.0297 34.4296H23.095C23.053 34.1745 22.969 33.942 22.8431 33.7321C22.7204 33.5223 22.5445 33.3544 22.3152 33.2285C22.086 33.0993 21.7905 33.0347 21.4289 33.0347C21.1028 33.0347 20.8203 33.0945 20.5814 33.2139C20.3425 33.3334 20.1455 33.5045 19.9905 33.7273C19.8355 33.9501 19.7193 34.2197 19.6418 34.5361C19.5676 34.8525 19.5304 35.2093 19.5304 35.6064V36.1634C19.5304 36.5702 19.5772 36.9334 19.6709 37.2531C19.7677 37.5727 19.905 37.8456 20.0825 38.0716C20.2601 38.2944 20.4716 38.4639 20.717 38.5801C20.9656 38.6963 21.24 38.7545 21.5403 38.7545C21.8729 38.7545 22.1425 38.727 22.3491 38.6721C22.5558 38.614 22.7172 38.5462 22.8334 38.4687C22.9497 38.388 23.0385 38.3121 23.0998 38.2411V36.6622H21.4677V35.9067H24.0297ZM32.0253 35.6694V36.115C32.0253 36.6445 31.9591 37.1191 31.8267 37.5388C31.6943 37.9586 31.5038 38.3154 31.2552 38.6092C31.0066 38.903 30.708 39.1274 30.3593 39.2824C30.0138 39.4373 29.6263 39.5148 29.1969 39.5148C28.7804 39.5148 28.3978 39.4373 28.0491 39.2824C27.7036 39.1274 27.4033 38.903 27.1483 38.6092C26.8964 38.3154 26.7011 37.9586 26.5623 37.5388C26.4234 37.1191 26.354 36.6445 26.354 36.115V35.6694C26.354 35.1399 26.4218 34.6669 26.5574 34.2504C26.6962 33.8306 26.8916 33.4738 27.1434 33.18C27.3953 32.883 27.6939 32.657 28.0394 32.502C28.3881 32.347 28.7707 32.2695 29.1872 32.2695C29.6166 32.2695 30.0041 32.347 30.3496 32.502C30.6983 32.657 30.9969 32.883 31.2455 33.18C31.4974 33.4738 31.6895 33.8306 31.8219 34.2504C31.9575 34.6669 32.0253 35.1399 32.0253 35.6694ZM31.1003 36.115V35.6597C31.1003 35.24 31.0567 34.8687 30.9695 34.5458C30.8855 34.2229 30.7612 33.9517 30.5966 33.7321C30.4319 33.5126 30.2301 33.3463 29.9912 33.2333C29.7555 33.1203 29.4875 33.0638 29.1872 33.0638C28.8966 33.0638 28.6335 33.1203 28.3978 33.2333C28.1653 33.3463 27.9651 33.5126 27.7972 33.7321C27.6326 33.9517 27.505 34.2229 27.4146 34.5458C27.3242 34.8687 27.279 35.24 27.279 35.6597V36.115C27.279 36.5379 27.3242 36.9125 27.4146 37.2386C27.505 37.5614 27.6342 37.8343 27.8021 38.0571C27.9732 38.2766 28.175 38.4429 28.4075 38.5559C28.6432 38.6689 28.9063 38.7254 29.1969 38.7254C29.5004 38.7254 29.77 38.6689 30.0057 38.5559C30.2414 38.4429 30.44 38.2766 30.6014 38.0571C30.7661 37.8343 30.8904 37.5614 30.9743 37.2386C31.0583 36.9125 31.1003 36.5379 31.1003 36.115ZM38.7181 38.6576V39.418H35.1923V38.6576H38.7181ZM35.3763 32.3664V39.418H34.4416V32.3664H35.3763ZM42.7133 39.418H41.241L41.2507 38.6576H42.7133C43.217 38.6576 43.6367 38.5527 43.9725 38.3428C44.3083 38.1297 44.5601 37.8327 44.728 37.4517C44.8991 37.0674 44.9847 36.6186 44.9847 36.1053V35.6742C44.9847 35.2706 44.9363 34.9123 44.8394 34.5991C44.7426 34.2826 44.6005 34.0163 44.4132 33.7999C44.226 33.5804 43.9967 33.4141 43.7255 33.3011C43.4575 33.1881 43.1492 33.1316 42.8005 33.1316H41.2119V32.3664H42.8005C43.2622 32.3664 43.6835 32.4439 44.0645 32.5989C44.4455 32.7506 44.7732 32.9718 45.0477 33.2624C45.3253 33.5497 45.5384 33.8984 45.687 34.3085C45.8355 34.7153 45.9097 35.1738 45.9097 35.6839V36.1053C45.9097 36.6154 45.8355 37.0755 45.687 37.4856C45.5384 37.8924 45.3237 38.2395 45.0428 38.5268C44.7652 38.8142 44.4294 39.0354 44.0355 39.1903C43.6448 39.3421 43.2041 39.418 42.7133 39.418ZM41.7398 32.3664V39.418H40.8051V32.3664H41.7398Z" fill="#FCD547"/>
</svg>
