<svg width="16" height="16" viewBox="0 0 16 16" fill="none" xmlns="http://www.w3.org/2000/svg">
<path fill-rule="evenodd" clip-rule="evenodd" d="M7.99984 0.668945C3.94975 0.668945 0.666504 3.95219 0.666504 8.00228C0.666504 12.0524 3.94975 15.3356 7.99984 15.3356C12.0499 15.3356 15.3332 12.0524 15.3332 8.00228C15.3332 3.95219 12.0499 0.668945 7.99984 0.668945ZM10.4712 5.53087C10.7316 5.79122 10.7316 6.21333 10.4712 6.47368L8.94265 8.00228L10.4712 9.53087C10.7316 9.79122 10.7316 10.2133 10.4712 10.4737C10.2109 10.734 9.78878 10.734 9.52843 10.4737L7.99984 8.94509L6.47124 10.4737C6.21089 10.734 5.78878 10.734 5.52843 10.4737C5.26808 10.2133 5.26808 9.79122 5.52843 9.53087L7.05703 8.00228L5.52843 6.47368C5.26808 6.21333 5.26808 5.79122 5.52843 5.53087C5.78878 5.27052 6.21089 5.27052 6.47124 5.53087L7.99984 7.05947L9.52843 5.53087C9.78878 5.27052 10.2109 5.27052 10.4712 5.53087Z" fill="#CBCBCB"/>
</svg>
