<svg width="71" height="70" viewBox="0 0 71 70" fill="none" xmlns="http://www.w3.org/2000/svg">
<path d="M35.5013 2.91699C29.1558 2.91699 22.9528 4.79865 17.6768 8.32401C12.4007 11.8494 8.28849 16.8601 5.86018 22.7226C3.43187 28.585 2.79651 35.0359 4.03446 41.2595C5.2724 47.483 8.32804 53.1997 12.815 57.6867C17.3019 62.1736 23.0186 65.2292 29.2422 66.4672C35.4657 67.7051 41.9166 67.0698 47.7791 64.6415C53.6415 62.2132 58.6523 58.101 62.1776 52.8249C65.703 47.5488 67.5847 41.3458 67.5847 35.0003C67.5847 26.4913 64.2045 18.3308 58.1877 12.314C52.1709 6.29719 44.0103 2.91699 35.5013 2.91699ZM35.5013 61.2503C30.3096 61.2503 25.2344 59.7108 20.9176 56.8264C16.6008 53.942 13.2363 49.8423 11.2495 45.0458C9.26268 40.2492 8.74284 34.9712 9.7557 29.8792C10.7686 24.7872 13.2686 20.1099 16.9398 16.4388C20.6109 12.7676 25.2882 10.2676 30.3802 9.25471C35.4722 8.24185 40.7502 8.76169 45.5468 10.7485C50.3433 12.7353 54.443 16.0998 57.3274 20.4166C60.2118 24.7334 61.7513 29.8086 61.7513 35.0003C61.7513 41.9623 58.9857 48.639 54.0629 53.5619C49.14 58.4847 42.4633 61.2503 35.5013 61.2503Z" fill="#FFB491"/>
<path d="M44.2448 26.2526H32.5781C31.8046 26.2526 31.0627 26.5599 30.5157 27.1069C29.9688 27.6539 29.6615 28.3957 29.6615 29.1693C29.6615 29.9428 29.9688 30.6847 30.5157 31.2317C31.0627 31.7786 31.8046 32.0859 32.5781 32.0859H38.4115C40.7321 32.0859 42.9577 33.0078 44.5986 34.6488C46.2396 36.2897 47.1615 38.5153 47.1615 40.8359C47.1615 43.1566 46.2396 45.3822 44.5986 47.0231C42.9577 48.6641 40.7321 49.5859 38.4115 49.5859V52.5026C38.4115 53.2762 38.1042 54.018 37.5572 54.565C37.0102 55.112 36.2683 55.4193 35.4948 55.4193C34.7212 55.4193 33.9794 55.112 33.4324 54.565C32.8854 54.018 32.5781 53.2762 32.5781 52.5026V49.5859H26.7448C25.9712 49.5859 25.2294 49.2787 24.6824 48.7317C24.1354 48.1847 23.8281 47.4428 23.8281 46.6693C23.8281 45.8957 24.1354 45.1539 24.6824 44.6069C25.2294 44.0599 25.9712 43.7526 26.7448 43.7526H38.4115C39.185 43.7526 39.9269 43.4453 40.4739 42.8983C41.0208 42.3514 41.3281 41.6095 41.3281 40.8359C41.3281 40.0624 41.0208 39.3205 40.4739 38.7735C39.9269 38.2266 39.185 37.9193 38.4115 37.9193H32.5781C30.2575 37.9193 28.0319 36.9974 26.3909 35.3565C24.75 33.7155 23.8281 31.4899 23.8281 29.1693C23.8281 26.8486 24.75 24.623 26.3909 22.9821C28.0319 21.3411 30.2575 20.4193 32.5781 20.4193V17.5026C32.5781 16.7291 32.8854 15.9872 33.4324 15.4402C33.9794 14.8932 34.7212 14.5859 35.4948 14.5859C36.2683 14.5859 37.0102 14.8932 37.5572 15.4402C38.1042 15.9872 38.4115 16.7291 38.4115 17.5026V20.4193H44.2448C45.0183 20.4193 45.7602 20.7266 46.3072 21.2735C46.8542 21.8205 47.1615 22.5624 47.1615 23.3359C47.1615 24.1095 46.8542 24.8514 46.3072 25.3983C45.7602 25.9453 45.0183 26.2526 44.2448 26.2526Z" fill="#FF5000"/>
</svg>
