<svg width="71" height="70" viewBox="0 0 71 70" fill="none" xmlns="http://www.w3.org/2000/svg">
<path d="M61.7487 34.9995H52.9987V8.74955C53.0008 8.2356 52.867 7.73024 52.6109 7.28464C52.3548 6.83904 51.9855 6.46902 51.5404 6.21205C51.097 5.95606 50.594 5.82129 50.0821 5.82129C49.5701 5.82129 49.0671 5.95606 48.6237 6.21205L39.8737 11.2287L31.1237 6.21205C30.6803 5.95606 30.1774 5.82129 29.6654 5.82129C29.1534 5.82129 28.6504 5.95606 28.2071 6.21205L19.4571 11.2287L10.7071 6.21205C10.2637 5.95606 9.7607 5.82129 9.24872 5.82129C8.73674 5.82129 8.23378 5.95606 7.79039 6.21205C7.34529 6.46902 6.976 6.83904 6.71991 7.28464C6.46381 7.73024 6.33001 8.2356 6.33205 8.74955V55.4162C6.33205 57.7369 7.25393 59.9625 8.89487 61.6034C10.5358 63.2443 12.7614 64.1662 15.0821 64.1662H55.9154C58.236 64.1662 60.4616 63.2443 62.1026 61.6034C63.7435 59.9625 64.6654 57.7369 64.6654 55.4162V37.9162C64.6654 37.1427 64.3581 36.4008 63.8111 35.8538C63.2641 35.3068 62.5223 34.9995 61.7487 34.9995ZM15.0821 58.3329C14.3085 58.3329 13.5666 58.0256 13.0197 57.4786C12.4727 56.9316 12.1654 56.1898 12.1654 55.4162V13.7954L17.9987 17.1204C18.4489 17.3555 18.9492 17.4783 19.4571 17.4783C19.9649 17.4783 20.4652 17.3555 20.9154 17.1204L29.6654 12.1037L38.4154 17.1204C38.8655 17.3555 39.3659 17.4783 39.8737 17.4783C40.3816 17.4783 40.8819 17.3555 41.3321 17.1204L47.1654 13.7954V55.4162C47.1733 56.4112 47.3508 57.3976 47.6904 58.3329H15.0821ZM58.8321 55.4162C58.8321 56.1898 58.5248 56.9316 57.9778 57.4786C57.4308 58.0256 56.6889 58.3329 55.9154 58.3329C55.1418 58.3329 54.4 58.0256 53.853 57.4786C53.306 56.9316 52.9987 56.1898 52.9987 55.4162V40.8329H58.8321V55.4162Z" fill="#FFB491"/>
<path d="M35.5008 30.6263H28.2092C27.8224 30.6263 27.4515 30.7799 27.178 31.0534C26.9045 31.3269 26.7508 31.6979 26.7508 32.0846C26.7508 32.4714 26.9045 32.8423 27.178 33.1158C27.4515 33.3893 27.8224 33.543 28.2092 33.543H31.1258C32.9341 33.5412 34.6785 34.2113 36.0205 35.4233C37.3624 36.6353 38.2062 38.3027 38.3879 40.1018C38.5696 41.9009 38.0764 43.7034 37.0039 45.1593C35.9314 46.6152 34.3563 47.6206 32.5842 47.9805V49.5846C32.5842 50.3582 32.2769 51.1001 31.7299 51.647C31.1829 52.194 30.441 52.5013 29.6675 52.5013C28.894 52.5013 28.1521 52.194 27.6051 51.647C27.0581 51.1001 26.7508 50.3582 26.7508 49.5846V48.1263H23.8342C23.0606 48.1263 22.3188 47.819 21.7718 47.272C21.2248 46.7251 20.9175 45.9832 20.9175 45.2096C20.9175 44.4361 21.2248 43.6942 21.7718 43.1472C22.3188 42.6003 23.0606 42.293 23.8342 42.293H31.1258C31.5126 42.293 31.8835 42.1393 32.157 41.8658C32.4305 41.5923 32.5842 41.2214 32.5842 40.8346C32.5842 40.4479 32.4305 40.0769 32.157 39.8034C31.8835 39.53 31.5126 39.3763 31.1258 39.3763H28.2092C26.4009 39.3781 24.6565 38.708 23.3145 37.496C21.9726 36.284 21.1288 34.6166 20.9471 32.8174C20.7654 31.0183 21.2586 29.2159 22.3311 27.76C23.4036 26.3041 24.9787 25.2986 26.7508 24.9388V23.3346C26.7508 22.5611 27.0581 21.8192 27.6051 21.2722C28.1521 20.7253 28.894 20.418 29.6675 20.418C30.441 20.418 31.1829 20.7253 31.7299 21.2722C32.2769 21.8192 32.5842 22.5611 32.5842 23.3346V24.793H35.5008C36.2744 24.793 37.0162 25.1003 37.5632 25.6472C38.1102 26.1942 38.4175 26.9361 38.4175 27.7096C38.4175 28.4832 38.1102 29.2251 37.5632 29.772C37.0162 30.319 36.2744 30.6263 35.5008 30.6263Z" fill="#FF5000"/>
</svg>
