<svg width="162" height="49" viewBox="0 0 162 49" fill="none" xmlns="http://www.w3.org/2000/svg">
<g clip-path="url(#clip0_3239_44263)">
<path fill-rule="evenodd" clip-rule="evenodd" d="M90.0059 8.35599C87.6778 11.1293 86.8313 14.756 86.8313 18.8093C86.8313 22.436 88.1011 25.8493 90.0059 28.4093L86.1963 30.5427C83.8682 27.1293 82.3867 23.076 82.3867 18.8093C82.3867 14.116 83.4449 9.63599 86.1963 6.22266L90.0059 8.35599Z" fill="#FF5000"/>
<path fill-rule="evenodd" clip-rule="evenodd" d="M92.7567 3.66298C92.7567 5.15631 91.4868 6.43632 90.0053 6.43632C88.5238 6.43632 87.2539 5.15631 87.2539 3.66298C87.2539 2.16965 88.5238 0.889648 90.0053 0.889648C91.4868 0.889648 92.7567 2.16965 92.7567 3.66298Z" fill="#FF5000"/>
<path fill-rule="evenodd" clip-rule="evenodd" d="M104.821 21.37V4.94336H99.3182V12.6234C98.6833 11.77 97.2018 11.3434 95.5086 11.3434C91.9107 11.3434 88.5243 14.1167 88.736 18.81C88.736 23.5034 91.9107 26.0634 95.297 26.0634C96.9902 26.0634 98.895 25.4234 99.9532 23.7167L100.165 25.85H105.033C105.033 25.21 104.821 23.29 104.821 21.37ZM99.5299 18.81C99.5299 19.2367 99.5299 19.45 99.5299 19.8767C99.3182 20.9434 98.4717 22.01 97.2018 22.01C95.5086 22.01 94.4504 20.73 94.4504 18.81C94.4504 17.1034 95.297 15.3967 97.2018 15.3967C98.4717 15.3967 99.3182 16.25 99.5299 17.3167C99.5299 17.53 99.5299 17.7434 99.5299 17.9567V18.81Z" fill="#FF5000"/>
<path fill-rule="evenodd" clip-rule="evenodd" d="M120.692 22.2237V17.5304C120.692 13.6904 118.575 11.3438 113.708 11.3438C110.533 11.3438 108.417 12.1971 107.57 12.6237L108.417 16.0371C109.263 15.6104 111.168 14.9704 112.649 14.9704C114.766 14.9704 115.189 15.6104 115.189 16.0371C109.898 16.0371 106.512 17.7437 106.512 21.5837C106.512 23.9304 108.417 26.0637 111.38 26.0637C113.073 26.0637 114.554 25.6371 115.612 24.5704H115.824L116.036 25.6371H120.904C120.692 25.2104 120.692 23.9304 120.692 22.2237ZM115.612 20.3037C115.612 20.5171 115.612 20.9437 115.612 21.1571C115.401 22.0104 114.554 22.6504 113.708 22.6504C112.649 22.6504 112.226 22.2237 112.226 21.3704C112.226 20.3037 113.284 19.6637 115.824 19.6637V20.3037H115.612Z" fill="#FF5000"/>
<path fill-rule="evenodd" clip-rule="evenodd" d="M48.7341 17.317V25.8504H43.6546V18.3837C43.6546 16.4637 43.0197 15.6104 41.7498 15.6104C40.9032 15.6104 40.2683 16.2504 40.0566 16.8904C39.845 17.317 39.845 17.7437 39.845 17.957V25.8504H34.7655V18.3837C34.7655 16.4637 34.1306 15.6104 32.8607 15.6104C31.8025 15.6104 31.1675 16.4637 31.1675 16.8904C30.9559 17.317 30.9559 17.7437 30.9559 17.957V25.8504H25.6648V16.4637C25.6648 14.5437 25.6648 12.837 25.4531 11.557H29.8977L30.1093 13.477H30.321C30.7443 12.837 32.0141 11.3437 34.7655 11.3437C36.6703 11.3437 38.1518 12.197 38.7868 13.6904C39.4217 12.837 40.0566 12.4104 40.9032 11.9837C41.7498 11.557 42.5964 11.3437 43.6546 11.3437C46.8293 11.1304 48.7341 13.2637 48.7341 17.317Z" fill="#FF5000"/>
<path fill-rule="evenodd" clip-rule="evenodd" d="M58.2588 10.917C52.756 10.917 49.793 14.117 49.793 18.597C49.793 23.2903 53.6026 26.0637 57.8355 26.0637C62.28 26.0637 66.0896 23.2903 66.0896 18.3837C66.3013 13.9037 62.915 10.917 58.2588 10.917ZM58.0471 22.0103C56.354 22.0103 55.5074 20.3037 55.5074 18.3837C55.5074 16.4637 56.1423 14.757 58.0471 14.757C59.7403 14.757 60.5869 16.4637 60.5869 18.3837C60.5869 20.7303 59.5286 22.0103 58.0471 22.0103Z" fill="#FF5000"/>
<path fill-rule="evenodd" clip-rule="evenodd" d="M81.9614 11.3438L76.4587 25.6371H70.9559L65.4531 11.3438H71.3792L73.0724 17.5304C73.4956 18.5971 73.4956 19.6637 73.7073 20.7304H73.9189C74.1306 19.6637 74.3422 18.8104 74.5539 17.5304L76.247 11.3438H81.9614Z" fill="#FF5000"/>
<path d="M13.3885 25.4229H8.09737C3.65283 25.4229 0.266508 29.0495 0.478153 33.3162C0.689798 37.1562 3.86447 40.3562 7.88573 40.3562H36.6695" stroke="#FF5000" stroke-width="0.6" stroke-miterlimit="10"/>
<path d="M12.543 20.3027L19.7389 25.6361L12.543 30.9694" stroke="#FF5000" stroke-width="0.6" stroke-miterlimit="10"/>
<path d="M147.996 34.5964H153.288C157.732 34.5964 161.118 30.9697 160.907 26.7031C160.695 22.8631 157.521 19.6631 153.499 19.6631H124.504" stroke="#FF5000" stroke-width="0.6" stroke-miterlimit="10"/>
<path d="M148.84 39.7165L141.645 34.3831L148.84 29.0498" stroke="#FF5000" stroke-width="0.6" stroke-miterlimit="10"/>
<path d="M43.4421 34.3828H50.0031L49.7914 35.0228H44.2887L43.2304 40.1428H48.3099L48.0983 40.7828H43.0188L41.7489 47.1828H40.9023L43.4421 34.3828Z" fill="#FF5000"/>
<path d="M53.8121 34.1689L51.2724 47.3956H50.4258L52.9655 34.1689H53.8121Z" fill="#FF5000"/>
<path d="M56.9882 34.3823C58.0465 34.1689 59.1047 34.1689 60.3746 34.1689C62.9143 34.1689 64.8191 35.0223 65.8773 36.3023C66.3006 36.9423 66.7239 38.0089 66.9356 39.5023C66.9356 41.6356 66.089 43.769 64.3958 45.2623C62.7027 46.7556 60.5862 47.3956 58.0465 47.3956C57.1999 47.3956 55.93 47.3956 54.6602 47.3956L56.9882 34.3823ZM55.7184 46.5423C56.565 46.7556 57.6232 46.7556 58.0465 46.7556C60.7979 46.7556 62.7027 45.9023 63.9725 44.8356C65.454 43.5556 66.089 41.6356 66.089 39.9289C66.089 37.3689 64.8191 35.0223 60.3746 35.0223C59.7396 35.0223 58.4698 35.0223 57.8348 35.2356L55.7184 46.5423Z" fill="#FF5000"/>
<path d="M75.3998 40.9961H70.1086L69.0504 46.7561H74.9765L74.7648 47.3961H67.9922L70.5319 34.3828H77.0929L76.8813 35.0228H71.3785L70.5319 39.9295H75.8231L75.3998 40.9961Z" fill="#FF5000"/>
<path d="M79.8444 34.3828H80.691L78.3629 46.7561H84.289L84.0773 47.3961H77.3047L79.8444 34.3828Z" fill="#FF5000"/>
<path d="M89.3707 34.1689L86.831 47.3956H85.9844L88.5241 34.1689H89.3707Z" fill="#FF5000"/>
<path d="M92.7539 34.3823C93.8121 34.1689 94.8703 34.1689 96.1402 34.1689C98.6799 34.1689 100.585 35.0223 101.643 36.3023C102.066 36.9423 102.49 38.0089 102.701 39.5023C102.701 41.6356 101.855 43.769 100.161 45.2623C98.4683 46.7556 96.3518 47.3956 93.8121 47.3956C92.9655 47.3956 91.6956 47.3956 90.4258 47.3956L92.7539 34.3823ZM91.2724 46.5423C92.1189 46.7556 93.1772 46.7556 93.6005 46.7556C96.3518 46.7556 98.2566 45.9023 99.5265 44.8356C101.008 43.5556 101.643 41.6356 101.643 39.9289C101.643 37.3689 100.373 35.0223 95.9285 35.0223C95.2936 35.0223 94.0237 35.0223 93.3888 35.2356L91.2724 46.5423Z" fill="#FF5000"/>
<path d="M105.879 42.7027L103.339 47.1827H102.281L109.689 33.9561H110.535L113.075 47.1827H112.017L111.17 42.7027H105.879ZM111.17 41.8494L110.324 37.3694C110.324 36.7294 110.112 35.8761 109.9 35.2361C109.477 35.8761 109.266 36.5161 108.842 37.1561L106.303 41.6361H111.17V41.8494Z" fill="#FF5000"/>
<path d="M117.52 34.3823C118.578 34.1689 119.636 34.1689 120.906 34.1689C123.446 34.1689 125.35 35.0223 126.409 36.3023C126.832 36.9423 127.255 38.0089 127.467 39.5023C127.467 41.6356 126.62 43.769 124.927 45.2623C123.234 46.7556 121.117 47.3956 118.578 47.3956C117.731 47.3956 116.461 47.3956 115.191 47.3956L117.52 34.3823ZM116.038 46.5423C116.885 46.7556 117.943 46.7556 118.366 46.7556C121.117 46.7556 123.022 45.9023 124.292 44.8356C125.774 43.5556 126.409 41.6356 126.409 39.9289C126.409 37.3689 125.139 35.0223 120.694 35.0223C120.059 35.0223 118.789 35.0223 118.154 35.2356L116.038 46.5423Z" fill="#FF5000"/>
<path d="M135.931 40.9961H130.64L129.582 46.7561H135.508L135.296 47.3961H128.523L131.063 34.3828H137.624L137.413 35.0228H131.91L131.063 39.9295H136.354L135.931 40.9961Z" fill="#FF5000"/>
</g>
<defs>
<clipPath id="clip0_3239_44263">
<rect width="161.379" height="48" fill="white" transform="translate(0 0.142578)"/>
</clipPath>
</defs>
</svg>
