<?xml version="1.0" encoding="UTF-8"?>
<svg id="Camada_1" data-name="Camada 1" xmlns="http://www.w3.org/2000/svg" version="1.1" viewBox="0 0 552.5 277.7">
  <defs>
    <style>
      .cls-1 {
        fill: #fff;
        stroke-width: 0px;
      }
    </style>
  </defs>
  <g>
    <path class="cls-1" d="M54,54.3l-2.9,10.5h-9.7l12.6-41h12.2l12.8,41h-10l-3.2-10.5h-11.8ZM64.5,47.4l-2.6-8.7c-.7-2.4-1.5-5.5-2.1-7.9h-.1c-.6,2.4-1.2,5.5-1.9,7.9l-2.4,8.7h9.1Z"/>
    <path class="cls-1" d="M96.9,35.1l4,13.8c.7,2.5,1.3,4.9,1.7,7.2h.2c.5-2.4,1-4.7,1.7-7.2l3.9-13.8h9.8l-11.1,29.7h-9.3l-10.9-29.7h10.1Z"/>
    <path class="cls-1" d="M132.1,26.8c0,2.6-2,4.6-5,4.6s-4.9-2.1-4.8-4.6c0-2.7,1.9-4.7,4.9-4.7s4.9,2,5,4.7M122.5,35.1h9.3v29.7h-9.3v-29.7Z"/>
    <path class="cls-1" d="M168.3,21.7v34.3c0,3.3.1,6.9.2,8.9h-8.3l-.4-4.4h-.1c-1.9,3.3-5.5,5-9.4,5-7.1,0-12.8-6-12.8-15.3,0-10,6.2-15.8,13.4-15.8s6.5,1.3,7.9,3.3h.1v-16.1h9.3ZM159,47.7c0-.5,0-1.2-.1-1.6-.6-2.5-2.6-4.6-5.4-4.6-4.2,0-6.4,3.8-6.4,8.4s2.5,8.2,6.4,8.2,4.8-1.8,5.4-4.4c.2-.7.2-1.3.2-2.1v-3.9Z"/>
    <path class="cls-1" d="M192.7,64.8l-.6-3h-.2c-2,2.4-5,3.6-8.6,3.6-6.1,0-9.7-4.4-9.7-9.1,0-7.7,7-11.4,17.6-11.4v-.4c0-1.6-.9-3.8-5.4-3.8s-6.3,1-8.3,2.2l-1.7-6c2.1-1.2,6.2-2.6,11.6-2.6,10,0,13.2,5.8,13.2,12.8v10.3c0,2.9.1,5.6.4,7.2h-8.4ZM191.6,50.8c-4.9,0-8.7,1.1-8.7,4.7s1.6,3.5,3.7,3.5,4.2-1.5,4.8-3.4c.1-.5.2-1,.2-1.6v-3.2Z"/>
  </g>
  <path class="cls-1" d="M406.6,199.8c0,1.6,0,3.2-.3,4.7-.4,2.8-1.9,5.3-4,7-2.1,1.8-4.9,2.8-7.7,2.7-2,0-4-.4-5.8-1.2-1.8-.8-3.4-2-4.7-3.5-1.3-1.5-2.3-3.2-2.9-5.1-.6-1.9-.7-3.9-.5-5.8,0-8.6,4.4-16,14-16,2.8,0,5.5,1,7.7,2.7,2.1,1.8,3.6,4.3,4.1,7,.1,1,.2,2,.2,3.1v4.3h0ZM406.6,133.6v36.2h-.3c-2.5-2.5-5.5-4.3-8.8-5.5-3.3-1.1-6.8-1.6-10.3-1.2-4.7,0-9.3,1-13.6,2.9-4.3,1.9-8.1,4.6-11.3,8.1-3.2,3.4-5.6,7.5-7.1,11.8-1.5,4.4-2.1,9.1-1.8,13.7-.4,4.4.2,8.9,1.6,13.2,1.4,4.2,3.7,8.1,6.7,11.4,3,3.3,6.7,6,10.8,7.8,4.1,1.9,8.5,2.9,13,3,4.6.3,9.1-.7,13.2-2.7,4.1-2,7.5-5.1,10.1-8.9h.3l1,9.9h23.9c-.3-3.6-.6-12.7-.6-21.6v-78.2h-26.7Z"/>
  <path class="cls-1" d="M484.2,206c0,1.3,0,2.5-.3,3.8-.6,2-1.9,3.8-3.6,5.1-1.7,1.3-3.7,2-5.9,2.1-4.9,0-7.7-2.2-7.7-6.2,0-5.6,5.6-8.6,17.4-8.6v3.8h0ZM510,193.1c0-18.5-10.2-30.4-34.1-30.4-10.5-.3-20.9,1.9-30.4,6.4l4.7,16.6c6.5-3.4,13.7-5.3,21.1-5.5,10.5,0,12.2,3.1,12.2,5.6v.4c-26.3,0-43,8.6-43,27.1,0,3,.8,6,2.1,8.8,1.3,2.8,3.1,5.2,5.4,7.3,2.3,2,4.9,3.6,7.8,4.6,2.9,1,6,1.4,9,1.1,3.7.3,7.5-.3,11-1.6,3.5-1.3,6.7-3.4,9.3-6h.5l1.4,5.9h24c-.9-5.7-1.2-11.4-1.1-17.1v-23.2h0Z"/>
  <path class="cls-1" d="M44.4,187.2c0-9.9-.3-17.8-.5-24h22.2l1,8.8h.6c2.4-3.4,5.7-6.2,9.5-8,3.8-1.8,8-2.7,12.2-2.5,4.1-.2,8.2.7,11.7,2.8,3.5,2.1,6.4,5.1,8.2,8.8h.3c2.8-3.6,6.3-6.6,10.3-8.7,4.1-2,8.6-3,13.1-3,15.4,0,25.3,10.7,25.3,30.9v39.8h-25.7v-35.9c0-9-3.1-13.7-9.1-13.7-1.9,0-3.8.6-5.3,1.7-1.5,1.1-2.7,2.7-3.2,4.6-.5,1.7-.7,3.5-.7,5.3v38h-25.7v-35.9c0-9-3.1-13.7-9.1-13.7-1.9,0-3.7.6-5.2,1.7-1.5,1.1-2.6,2.7-3.2,4.4-.6,1.7-.8,3.4-.7,5.2v38.3h-25.8v-45Z"/>
  <path class="cls-1" d="M203.3,215.5c-8.6,0-12.6-8-12.6-17.8s3.4-17.8,12.7-17.8,12.2,8.1,12.2,17.8-4.5,17.8-12.2,17.8h-.1ZM203,233.9c22.3,0,40.6-13.5,40.6-37.1,0-4.9-1.1-9.8-3.1-14.3-2-4.5-4.9-8.5-8.6-11.9-3.7-3.3-8-5.8-12.7-7.4-4.7-1.6-9.7-2.2-14.6-1.7-26.7,0-41.6,15.7-41.6,36.7s18.3,35.6,39.9,35.6h.1Z"/>
  <path class="cls-1" d="M268.6,163.2l8.7,29.9c1.4,4.9,2.6,9.9,3.4,15h.6c.9-5,1.7-9.7,3-15l7.9-29.9h28.6l-27.4,69h-27.4l-26.5-69h29.1Z"/>
  <path class="cls-1" d="M359.3,245.7c-10.3-13.4-15.9-29.7-15.9-46.6-1.1-18.2,4.6-36.2,16-50.5l-19.1-10.1c-12.9,17.5-19.4,38.9-18.3,60.6,0,20.4,6.4,40.3,18.3,56.8l18.9-10.2h0Z"/>
  <path class="cls-1" d="M373.2,126.9c0,2.7-.8,5.3-2.3,7.6-1.5,2.2-3.7,4-6.2,5-2.5,1-5.3,1.3-8,.8-2.7-.5-5.1-1.8-7-3.7-1.9-1.9-3.2-4.3-3.8-7-.5-2.7-.3-5.4.8-7.9,1-2.5,2.8-4.6,5.1-6.1,2.3-1.5,4.9-2.3,7.6-2.3,3.6,0,7.1,1.4,9.7,4,2.6,2.6,4,6,4,9.6"/>
  <path class="cls-1" d="M91.6,113.5c.3,3.8,4,5.5,8.3,5.5s5.6-.4,8.1-1.2l1.2,6.1c-3,1.2-6.7,1.8-10.6,1.8-10,0-15.6-5.7-15.6-14.8s4.6-15.5,14.8-15.5,13.1,7.3,13.1,14.5-.2,2.9-.3,3.6h-18.9ZM102.3,107.3c0-2.2-1-5.9-5.2-5.9s-5.4,3.5-5.6,5.9h10.8ZM107.4,83.4l-7.3,9h-6.3l5.2-9h8.5Z"/>
  <path class="cls-1" d="M128.4,105.8c0-3.8-.1-7.1-.2-9.8h7.9l.4,4h.1c2.2-3.1,5.5-4.7,9.8-4.7,6.4,0,12.2,5.5,12.2,14.8s-6.8,15.6-13.3,15.6-6.3-1.4-7.6-3.3h-.1v14.5h-9.1v-31.1ZM137.5,112.7c0,.7,0,1.4.2,1.9.6,2.4,2.7,4.3,5.3,4.3,4,0,6.3-3.3,6.3-8.2s-2.1-8.2-6.2-8.2-4.9,1.9-5.5,4.6c-.1.5-.2,1.1-.2,1.6v4Z"/>
  <path class="cls-1" d="M164.2,105.7c0-4.3-.1-7.1-.2-9.6h7.9l.3,5.4h.2c1.5-4.2,5.1-6,7.9-6s1.3,0,1.9.1v8.5c-.7-.1-1.4-.2-2.5-.2-3.4,0-5.6,1.8-6.2,4.6-.1.6-.2,1.3-.2,2v14.8h-9.1v-19.5Z"/>
  <path class="cls-1" d="M203.1,125.2l-.5-2.9h-.2c-1.9,2.3-4.9,3.6-8.4,3.6-5.9,0-9.5-4.3-9.5-8.9,0-7.6,6.8-11.2,17.2-11.1v-.4c0-1.5-.8-3.7-5.3-3.7s-6.2,1-8.1,2.2l-1.7-5.8c2-1.1,6.1-2.6,11.4-2.6,9.8,0,12.9,5.7,12.9,12.6v10.1c0,2.8.1,5.5.4,7.1h-8.2ZM202,111.4c-4.8,0-8.5,1.1-8.5,4.6s1.6,3.5,3.6,3.5,4.1-1.5,4.7-3.3c.1-.5.2-1,.2-1.5v-3.2Z"/>
  <path class="cls-1" d="M230.1,117.3c1.7,1,5.2,2.2,7.9,2.2s3.9-1,3.9-2.4-.9-2.2-4.3-3.3c-6.1-2-8.4-5.3-8.3-8.7,0-5.4,4.7-9.5,11.9-9.5s6.5.8,8.3,1.7l-1.6,6.2c-1.3-.7-3.8-1.7-6.4-1.7s-3.5.9-3.5,2.4,1.1,2.1,4.7,3.3c5.6,1.9,7.9,4.7,8,9,0,5.4-4.3,9.4-12.7,9.4s-7.3-.8-9.5-2l1.6-6.5Z"/>
  <path class="cls-1" d="M263.2,113.5c.3,3.7,4,5.5,8.3,5.5s5.6-.4,8.1-1.2l1.2,6.1c-3,1.2-6.7,1.8-10.6,1.8-10,0-15.7-5.7-15.7-14.8s4.6-15.5,14.8-15.5,13.1,7.3,13.1,14.5-.2,2.9-.3,3.6h-18.9ZM274,107.3c0-2.2-1-5.9-5.2-5.9s-5.4,3.5-5.6,5.9h10.8Z"/>
  <path class="cls-1" d="M287.9,105.7c0-4.3-.1-7.1-.2-9.6h7.9l.3,5.4h.2c1.5-4.2,5.1-6,7.9-6s1.3,0,1.9.1v8.5c-.7-.1-1.4-.2-2.5-.2-3.4,0-5.6,1.8-6.2,4.6-.1.6-.2,1.3-.2,2v14.8h-9.1v-19.5Z"/>
</svg>