<svg width="131" height="136" viewBox="0 0 131 136" fill="none" xmlns="http://www.w3.org/2000/svg">
<path d="M6.47594 62.822V3.15195C11.4259 2.43195 17.5459 1.89195 24.1159 1.89195C35.4559 1.89195 43.1959 4.23195 48.7759 8.91195C54.7159 13.6819 58.3159 20.972 58.3159 31.232C58.3159 42.122 54.6259 50.132 48.8659 55.352C42.8359 60.842 33.2059 63.632 21.4159 63.632C15.0259 63.632 10.1659 63.272 6.47594 62.822ZM17.5459 11.1619V54.632C19.0759 54.902 21.4159 54.902 23.6659 54.902C38.0659 54.992 46.6159 46.982 46.6159 31.592C46.7059 18.272 38.9659 10.532 25.1059 10.532C21.5959 10.532 19.1659 10.8019 17.5459 11.1619Z" fill="#FF5000"/>
<path fill-rule="evenodd" clip-rule="evenodd" d="M43.2526 87.2871L15.2191 121.778C12.1713 125.528 12.7541 131.041 16.5187 134.071C20.2577 137.08 25.7256 136.502 28.7528 132.778L56.9012 98.1455L43.2526 87.2871Z" fill="#FF5000"/>
<circle cx="79.8532" cy="53.1637" r="36.9209" stroke="black" stroke-width="10.474"/>
<circle cx="79.8532" cy="53.1637" r="36.9209" stroke="#FFB491" stroke-width="10.474"/>
<circle cx="79.8498" cy="53.1643" r="48.1804" stroke="#FFB491" stroke-width="5.7607"/>
<path d="M63.8828 47.1442L86.4019 44.002" stroke="white" stroke-width="3.6659" stroke-linecap="round"/>
<path d="M55.5 60.2319L104.204 53.4238" stroke="white" stroke-width="3.6659" stroke-linecap="round"/>
</svg>
