<svg width="279" height="127" viewBox="0 0 279 127" fill="none" xmlns="http://www.w3.org/2000/svg">
<rect x="35.5039" y="37.5625" width="46.9153" height="46.4554" rx="8" fill="#FFB491"/>
<rect x="89.4531" y="37.5625" width="46.9153" height="46.4554" rx="8" fill="#FFB491"/>
<rect x="142.629" y="37.5625" width="46.9153" height="46.4554" rx="8" fill="#FFB491"/>
<rect x="196.578" y="37.5625" width="46.9153" height="46.4554" rx="8" fill="#FFB491"/>
<path d="M54.5166 56.5859L60.9941 47.6914L51.2617 44.791L52.7764 39.957L62.5088 43.5342L62.2188 32.4482H67.1172L66.7949 43.7275L76.3984 40.1504L77.8809 45.0811L67.9873 48.0137L74.3359 56.7471L70.3398 59.7441L64.3779 50.4629L58.5449 59.5186L54.5166 56.5859Z" fill="#FF5000"/>
<path d="M104.165 71.2969L110.643 62.4023L100.91 59.502L102.425 54.668L112.157 58.2451L111.867 47.1592H116.766L116.443 58.4385L126.047 54.8613L127.529 59.792L117.636 62.7246L123.984 71.458L119.988 74.4551L114.026 65.1738L108.193 74.2295L104.165 71.2969Z" fill="white"/>
<path d="M158.517 51.166L164.994 42.2715L155.262 39.3711L156.776 34.5371L166.509 38.1143L166.219 27.0283H171.117L170.795 38.3076L180.398 34.7305L181.881 39.6611L171.987 42.5938L178.336 51.3271L174.34 54.3242L168.378 45.043L162.545 54.0986L158.517 51.166Z" fill="#FF5000"/>
<path d="M228.888 80.5879L235.365 71.6934L225.633 68.793L227.147 63.959L236.88 67.5361L236.59 56.4502H241.488L241.166 67.7295L250.77 64.1523L252.252 69.083L242.358 72.0156L248.707 80.749L244.711 83.7461L238.749 74.4648L232.916 83.5205L228.888 80.5879Z" fill="white"/>
</svg>
