<svg width="24" height="26" viewBox="0 0 24 26" fill="none" xmlns="http://www.w3.org/2000/svg">
<path d="M12.3452 10.8034L10.9946 9.3861L12.3452 7.96875" stroke="white" stroke-width="1.5" stroke-linecap="round" stroke-linejoin="round"/>
<path d="M21.0038 13.0781C21.0038 11.0392 16.9731 9.38672 12.0001 9.38672H10.9996" stroke="white" stroke-width="1.5" stroke-linecap="round" stroke-linejoin="round"/>
<path d="M7.79221 9.82227C4.94603 10.4438 2.99622 11.6627 2.99622 13.0769" stroke="white" stroke-width="1.5" stroke-linecap="round" stroke-linejoin="round"/>
<path d="M11.6549 15.3516L13.0055 16.7689L11.6549 18.1863" stroke="white" stroke-width="1.5" stroke-linecap="round" stroke-linejoin="round"/>
<path d="M2.99622 13.0781C2.99622 15.117 7.02689 16.7695 12 16.7695H13.0054" stroke="white" stroke-width="1.5" stroke-linecap="round" stroke-linejoin="round"/>
<path d="M16.2078 16.3328C19.0539 15.7112 21.0038 14.4923 21.0038 13.0781" stroke="white" stroke-width="1.5" stroke-linecap="round" stroke-linejoin="round"/>
<path d="M12.3452 10.8034L10.9946 9.3861L12.3452 7.96875" stroke="white" stroke-width="1.5" stroke-linecap="round" stroke-linejoin="round"/>
<path d="M11.6549 15.3516L13.0055 16.7689L11.6549 18.1863" stroke="white" stroke-width="1.5" stroke-linecap="round" stroke-linejoin="round"/>
<path d="M13.0054 16.7683H12C7.02689 16.7683 2.99622 15.1158 2.99622 13.0769C2.99622 11.6627 4.94603 10.4438 7.79221 9.82227" stroke="white" stroke-width="1.5" stroke-linecap="round" stroke-linejoin="round"/>
<path d="M16.2078 16.3328C19.054 15.7112 21.0038 14.4923 21.0038 13.0781C21.0038 11.0392 16.9731 9.38672 12.0001 9.38672H10.9996" stroke="white" stroke-width="1.5" stroke-linecap="round" stroke-linejoin="round"/>
<ellipse cx="12" cy="13.0779" rx="9.00375" ry="9.44899" stroke="white" stroke-width="1.5" stroke-linecap="round" stroke-linejoin="round"/>
</svg>
