<svg width="71" height="70" viewBox="0 0 71 70" fill="none" xmlns="http://www.w3.org/2000/svg">
<path d="M33.8648 5.83301C26.3876 5.85434 19.2042 8.74651 13.7982 13.9122V8.74967C13.7982 7.97613 13.4909 7.23426 12.9439 6.68728C12.3969 6.1403 11.6551 5.83301 10.8815 5.83301C10.108 5.83301 9.3661 6.1403 8.81912 6.68728C8.27213 7.23426 7.96484 7.97613 7.96484 8.74967V21.8747C7.96484 22.6482 8.27213 23.3901 8.81912 23.9371C9.3661 24.484 10.108 24.7913 10.8815 24.7913H24.0065C24.7801 24.7913 25.5219 24.484 26.0689 23.9371C26.6159 23.3901 26.9232 22.6482 26.9232 21.8747C26.9232 21.1011 26.6159 20.3593 26.0689 19.8123C25.5219 19.2653 24.7801 18.958 24.0065 18.958H17.0065C19.6657 16.1493 22.9813 14.0456 26.6552 12.8363C30.3291 11.627 34.246 11.3499 38.0536 12.0301C41.8611 12.7102 45.4399 14.3261 48.4679 16.7326C51.496 19.139 53.8783 22.2604 55.4007 25.8161C56.923 29.3717 57.5376 33.25 57.1891 37.1021C56.8406 40.9541 55.54 44.6592 53.4043 47.8839C51.2686 51.1086 48.3648 53.7518 44.954 55.5758C41.5433 57.3997 37.7326 58.3472 33.8648 58.333C33.0913 58.333 32.3494 58.6403 31.8024 59.1873C31.2555 59.7343 30.9482 60.4761 30.9482 61.2497C30.9482 62.0232 31.2555 62.7651 31.8024 63.3121C32.3494 63.859 33.0913 64.1663 33.8648 64.1663C41.6003 64.1663 49.019 61.0934 54.4888 55.6236C59.9586 50.1538 63.0315 42.7352 63.0315 34.9997C63.0315 27.2642 59.9586 19.8455 54.4888 14.3757C49.019 8.90592 41.6003 5.83301 33.8648 5.83301Z" fill="#FFB491"/>
<path d="M30.9207 28.617C31.4677 28.07 32.2095 27.7627 32.9831 27.7627C33.7566 27.7627 34.4985 28.07 35.0455 28.617C35.5924 29.1639 35.8997 29.9058 35.8997 30.6794V36.5127H38.8164C39.59 36.5127 40.3318 36.82 40.8788 37.367C41.4258 37.9139 41.7331 38.6558 41.7331 39.4294C41.7331 40.2029 41.4258 40.9448 40.8788 41.4918C40.3318 42.0387 39.59 42.346 38.8164 42.346H32.9831C32.2095 42.346 31.4677 42.0387 30.9207 41.4918C30.3737 40.9448 30.0664 40.2029 30.0664 39.4294V30.6794C30.0664 29.9058 30.3737 29.1639 30.9207 28.617Z" fill="#FF5000"/>
</svg>
